G04 #@! TF.FileFunction,Copper,L1,Top,Mixed*
%FSLAX46Y46*%
G04 Gerber Fmt 4.6, Leading zero omitted, Abs format (unit mm)*
G04 Created by KiCad (PCBNEW 4.0.7) date 11/11/17 16:51:54*
%MOMM*%
%LPD*%
G01*
G04 APERTURE LIST*
%ADD10C,0.100000*%
%ADD11R,1.200000X1.700000*%
%ADD12O,1.200000X1.700000*%
%ADD13R,0.900000X0.500000*%
%ADD14R,0.500000X0.500000*%
%ADD15R,1.700000X1.200000*%
%ADD16O,1.700000X1.200000*%
%ADD17R,1.250000X1.000000*%
%ADD18R,1.000000X1.250000*%
%ADD19R,1.600000X3.500000*%
%ADD20R,3.500000X1.600000*%
%ADD21R,2.500000X1.800000*%
%ADD22R,0.500000X0.600000*%
%ADD23R,2.400000X0.760000*%
%ADD24R,1.800000X1.800000*%
%ADD25C,1.800000*%
%ADD26R,1.000000X5.000000*%
%ADD27R,0.700000X1.300000*%
%ADD28R,1.300000X0.700000*%
%ADD29R,1.550000X1.300000*%
%ADD30R,0.410000X0.410000*%
%ADD31R,0.700000X0.250000*%
%ADD32R,0.250000X0.700000*%
%ADD33C,1.000000*%
%ADD34R,1.000000X1.000000*%
%ADD35R,0.305000X0.813000*%
%ADD36R,0.813000X0.305000*%
%ADD37R,1.050000X0.550000*%
%ADD38R,1.450000X0.450000*%
%ADD39R,2.740000X2.740000*%
%ADD40R,0.250000X0.500000*%
%ADD41R,2.650000X1.000000*%
%ADD42R,1.170000X0.950000*%
%ADD43R,1.000000X1.800000*%
%ADD44R,1.200000X1.400000*%
%ADD45R,0.600000X0.500000*%
%ADD46R,0.600000X0.400000*%
%ADD47C,0.750000*%
%ADD48C,0.500000*%
%ADD49C,0.250000*%
%ADD50C,0.300000*%
%ADD51C,0.900000*%
%ADD52C,1.100000*%
%ADD53C,0.254000*%
G04 APERTURE END LIST*
D10*
G36*
X159150000Y-78540000D02*
X157150000Y-78540000D01*
X157150000Y-75900000D01*
X154450000Y-75900000D01*
X154450000Y-78540000D01*
X152450000Y-78540000D01*
X152450000Y-75900000D01*
X149750000Y-75900000D01*
X149750000Y-80340000D01*
X150250000Y-80340000D01*
X150250000Y-76400000D01*
X151950000Y-76400000D01*
X151950000Y-79040000D01*
X154950000Y-79040000D01*
X154950000Y-76400000D01*
X156650000Y-76400000D01*
X156650000Y-79040000D01*
X159650000Y-79040000D01*
X159650000Y-76400000D01*
X161350000Y-76400000D01*
X161350000Y-81300000D01*
X161850000Y-81300000D01*
X161850000Y-76400000D01*
X163250000Y-76400000D01*
X163250000Y-81300000D01*
X164150000Y-81300000D01*
X164150000Y-81056785D01*
X163847583Y-81056785D01*
X163837742Y-81104395D01*
X163813674Y-81146797D01*
X163775731Y-81179581D01*
X163767819Y-81183935D01*
X163725156Y-81196043D01*
X163676637Y-81195300D01*
X163631122Y-81182400D01*
X163612511Y-81171787D01*
X163578868Y-81136553D01*
X163558309Y-81091368D01*
X163551778Y-81041842D01*
X163560218Y-80993583D01*
X163577112Y-80961357D01*
X163612372Y-80928687D01*
X163657682Y-80908592D01*
X163707267Y-80902018D01*
X163755353Y-80909908D01*
X163788245Y-80926814D01*
X163823185Y-80963584D01*
X163842847Y-81008378D01*
X163847583Y-81056785D01*
X164150000Y-81056785D01*
X164150000Y-75900000D01*
X159150000Y-75900000D01*
X159150000Y-78540000D01*
X159150000Y-78540000D01*
G37*
D11*
X114400000Y-74400000D03*
D12*
X112400000Y-74400000D03*
X110400000Y-74400000D03*
X108400000Y-74400000D03*
D13*
X163700000Y-81050000D03*
D14*
X161600000Y-81050000D03*
D15*
X85900000Y-95100000D03*
D16*
X85900000Y-93100000D03*
D17*
X151800000Y-99500000D03*
X151800000Y-97500000D03*
D18*
X147300000Y-84100000D03*
X149300000Y-84100000D03*
D17*
X157500000Y-95700000D03*
X157500000Y-93700000D03*
X155800000Y-83600000D03*
X155800000Y-85600000D03*
D18*
X122000000Y-74400000D03*
X124000000Y-74400000D03*
D17*
X157500000Y-83900000D03*
X157500000Y-85900000D03*
D18*
X145950000Y-95000000D03*
X147950000Y-95000000D03*
X146700000Y-96950000D03*
X144700000Y-96950000D03*
X134900000Y-99300000D03*
X132900000Y-99300000D03*
X134900000Y-97300000D03*
X132900000Y-97300000D03*
D17*
X134500000Y-101100000D03*
X134500000Y-103100000D03*
D18*
X138250000Y-85600000D03*
X136250000Y-85600000D03*
D17*
X136100000Y-92100000D03*
X136100000Y-90100000D03*
D18*
X146700000Y-98850000D03*
X144700000Y-98850000D03*
X146200000Y-100625000D03*
X144200000Y-100625000D03*
D17*
X104450000Y-97850000D03*
X104450000Y-99850000D03*
X106150000Y-99000000D03*
X106150000Y-101000000D03*
D19*
X100000000Y-96700000D03*
X100000000Y-91300000D03*
D20*
X112550000Y-87400000D03*
X107150000Y-87400000D03*
D17*
X106200000Y-94900000D03*
X106200000Y-96900000D03*
D19*
X102950000Y-85600000D03*
X102950000Y-80200000D03*
D18*
X116400000Y-96450000D03*
X118400000Y-96450000D03*
D19*
X95800000Y-85600000D03*
X95800000Y-80200000D03*
X92850000Y-96700000D03*
X92850000Y-91300000D03*
D17*
X90850000Y-84000000D03*
X90850000Y-82000000D03*
D18*
X167350000Y-94950000D03*
X165350000Y-94950000D03*
X167750000Y-92800000D03*
X165750000Y-92800000D03*
D17*
X157700000Y-99700000D03*
X157700000Y-97700000D03*
X154700000Y-101000000D03*
X154700000Y-99000000D03*
D18*
X120050000Y-79700000D03*
X118050000Y-79700000D03*
X120000000Y-78050000D03*
X118000000Y-78050000D03*
X102200000Y-75000000D03*
X104200000Y-75000000D03*
X166650000Y-90500000D03*
X164650000Y-90500000D03*
X130600000Y-97550000D03*
X128600000Y-97550000D03*
D21*
X108300000Y-92500000D03*
X112300000Y-92500000D03*
D22*
X161350000Y-102950000D03*
X161350000Y-101850000D03*
D23*
X143085000Y-91765000D03*
X143085000Y-90495000D03*
X143085000Y-89225000D03*
X139275000Y-91765000D03*
X139275000Y-90495000D03*
X139275000Y-89225000D03*
X143085000Y-87955000D03*
X139275000Y-87955000D03*
X143085000Y-86685000D03*
X139275000Y-86685000D03*
D11*
X129575000Y-102550000D03*
D12*
X127575000Y-102550000D03*
X125575000Y-102550000D03*
X123575000Y-102550000D03*
X121575000Y-102550000D03*
X119575000Y-102550000D03*
D24*
X99600000Y-72400000D03*
D25*
X104680000Y-72400000D03*
X102140000Y-72400000D03*
D26*
X120350000Y-91950000D03*
X114750000Y-91950000D03*
D27*
X120350000Y-76000000D03*
X118450000Y-76000000D03*
D28*
X140450000Y-98600000D03*
X140450000Y-100500000D03*
X138750000Y-97950000D03*
X138750000Y-96050000D03*
X123800000Y-88450000D03*
X123800000Y-90350000D03*
D27*
X109350000Y-102600000D03*
X107450000Y-102600000D03*
D28*
X161350000Y-100475000D03*
X161350000Y-98575000D03*
D29*
X125725000Y-87150000D03*
X133675000Y-87150000D03*
X125725000Y-91650000D03*
X133675000Y-91650000D03*
D30*
X153450000Y-89650000D03*
X152450000Y-89650000D03*
X151450000Y-89650000D03*
X150450000Y-89650000D03*
X153450000Y-88650000D03*
X152450000Y-88650000D03*
D31*
X148550000Y-87400000D03*
X148550000Y-87900000D03*
X148550000Y-88400000D03*
X148550000Y-88900000D03*
X148550000Y-89400000D03*
X148550000Y-89900000D03*
X148550000Y-90400000D03*
X148550000Y-90900000D03*
X148550000Y-91400000D03*
X148550000Y-91900000D03*
X148550000Y-92400000D03*
X148550000Y-92900000D03*
D32*
X149200000Y-93550000D03*
X149700000Y-93550000D03*
X150200000Y-93550000D03*
X150700000Y-93550000D03*
X151200000Y-93550000D03*
X151700000Y-93550000D03*
X152200000Y-93550000D03*
X152700000Y-93550000D03*
X153200000Y-93550000D03*
X153700000Y-93550000D03*
X154200000Y-93550000D03*
X154700000Y-93550000D03*
D31*
X155350000Y-92900000D03*
X155350000Y-92400000D03*
X155350000Y-91900000D03*
X155350000Y-91400000D03*
X155350000Y-90900000D03*
X155350000Y-90400000D03*
X155350000Y-89900000D03*
X155350000Y-89400000D03*
X155350000Y-88900000D03*
X155350000Y-88400000D03*
X155350000Y-87900000D03*
X155350000Y-87400000D03*
D32*
X154700000Y-86750000D03*
X154200000Y-86750000D03*
X153700000Y-86750000D03*
X153200000Y-86750000D03*
X152700000Y-86750000D03*
X152200000Y-86750000D03*
X151700000Y-86750000D03*
X151200000Y-86750000D03*
X150700000Y-86750000D03*
X150200000Y-86750000D03*
X149700000Y-86750000D03*
X149200000Y-86750000D03*
D30*
X151450000Y-88650000D03*
X150450000Y-88650000D03*
X150450000Y-90650000D03*
X150450000Y-91650000D03*
X151450000Y-90650000D03*
X152450000Y-90650000D03*
X153450000Y-90650000D03*
X151450000Y-91650000D03*
X152450000Y-91650000D03*
X153450000Y-91650000D03*
D33*
X120130000Y-73670000D03*
X118860000Y-72400000D03*
D34*
X121400000Y-72400000D03*
D35*
X148250000Y-102875000D03*
D36*
X147475000Y-100600000D03*
X150025000Y-100600000D03*
D35*
X148250000Y-100325000D03*
X148750000Y-100325000D03*
X149250000Y-100325000D03*
D36*
X150025000Y-101100000D03*
X150025000Y-101600000D03*
X150025000Y-102100000D03*
X150025000Y-102600000D03*
X147475000Y-101100000D03*
X147475000Y-101600000D03*
X147475000Y-102100000D03*
X147475000Y-102600000D03*
D35*
X148750000Y-102875000D03*
X149250000Y-102875000D03*
D37*
X138725000Y-99425000D03*
X136675000Y-99425000D03*
X136675000Y-100675000D03*
X136675000Y-101925000D03*
X136675000Y-103175000D03*
X138725000Y-100675000D03*
X138725000Y-101925000D03*
X138725000Y-103175000D03*
D38*
X108550000Y-95175000D03*
X108550000Y-95825000D03*
X108550000Y-96475000D03*
X108550000Y-97125000D03*
X108550000Y-97775000D03*
X108550000Y-98425000D03*
X108550000Y-99075000D03*
X108550000Y-99725000D03*
X108550000Y-100375000D03*
X108550000Y-101025000D03*
X114450000Y-101025000D03*
X114450000Y-100375000D03*
X114450000Y-99725000D03*
X114450000Y-99075000D03*
X114450000Y-98425000D03*
X114450000Y-97775000D03*
X114450000Y-97125000D03*
X114450000Y-96475000D03*
X114450000Y-95825000D03*
X114450000Y-95175000D03*
D39*
X111500000Y-98100000D03*
D40*
X116450000Y-77850000D03*
X115950000Y-77850000D03*
X115450000Y-77850000D03*
X114950000Y-77850000D03*
X114450000Y-77850000D03*
X113950000Y-77850000D03*
X113950000Y-79750000D03*
X114450000Y-79750000D03*
X114950000Y-79750000D03*
X115450000Y-79750000D03*
X115950000Y-79750000D03*
X116450000Y-79750000D03*
D41*
X115200000Y-78800000D03*
D42*
X114515000Y-78800000D03*
X115885000Y-78800000D03*
D43*
X155900000Y-96950000D03*
X153400000Y-96950000D03*
D44*
X163200000Y-94850000D03*
X163200000Y-92650000D03*
X161500000Y-92650000D03*
X161500000Y-94850000D03*
D15*
X85900000Y-84100000D03*
D16*
X85900000Y-82100000D03*
D27*
X92850000Y-100350000D03*
X94750000Y-100350000D03*
X95950000Y-100350000D03*
X97850000Y-100350000D03*
D28*
X159350000Y-94050000D03*
X159350000Y-92150000D03*
D45*
X162700000Y-81900000D03*
X161600000Y-81900000D03*
D46*
X161600000Y-82850000D03*
X161600000Y-83750000D03*
D45*
X162700000Y-84450000D03*
X161600000Y-84450000D03*
D47*
X161647987Y-89091017D03*
X160050000Y-90250000D03*
X158274941Y-90274668D03*
X111167384Y-96285193D03*
X159150000Y-102850000D03*
X168700000Y-84400000D03*
X158700000Y-83750000D03*
X151950000Y-92500000D03*
X149550000Y-90900000D03*
X151700000Y-87850000D03*
X153500000Y-87850000D03*
X154250000Y-89900000D03*
X149750000Y-87900000D03*
X149700000Y-92350000D03*
X154200000Y-92400000D03*
X106550000Y-89500000D03*
X157350000Y-87600000D03*
X159000000Y-87600000D03*
X160200000Y-86450000D03*
X160200000Y-84400000D03*
X160200000Y-81900000D03*
X157650000Y-81900000D03*
X164450000Y-98000000D03*
X168700000Y-99200000D03*
X168700000Y-96700000D03*
X168700000Y-94200000D03*
X168700000Y-91700000D03*
X163700000Y-89200000D03*
X168700000Y-89200000D03*
X168700000Y-86900000D03*
X166200000Y-86900000D03*
X163700000Y-86900000D03*
X163700000Y-84400000D03*
X166200000Y-84400000D03*
X168700000Y-81900000D03*
X166200000Y-81900000D03*
X163700000Y-81900000D03*
X155550000Y-81900000D03*
X143525000Y-96925000D03*
X143525000Y-98825000D03*
X144700000Y-95469697D03*
X160192659Y-95028558D03*
X154242798Y-88702708D03*
X154500000Y-102550000D03*
X137080000Y-88370000D03*
X146874998Y-95000000D03*
X129600000Y-87150000D03*
X145850000Y-83800000D03*
X164400000Y-92650000D03*
X112954653Y-78754812D03*
X123900000Y-78050000D03*
X122650000Y-80200000D03*
X132900000Y-101950000D03*
X111500000Y-100050000D03*
X116350000Y-98050000D03*
X104850000Y-101100000D03*
X106200000Y-95975002D03*
X107150000Y-82100000D03*
X103654847Y-94276660D03*
X111772868Y-95335905D03*
X100850000Y-75050000D03*
X106000000Y-93450000D03*
X142235036Y-103509640D03*
X148356173Y-99124216D03*
X155700000Y-84675002D03*
X139500000Y-85550000D03*
X148375002Y-84100000D03*
X151800000Y-98424998D03*
X162600000Y-96550000D03*
X119400000Y-84700000D03*
X121600000Y-76000000D03*
X118950000Y-79400000D03*
X104450000Y-89650000D03*
X117150000Y-95150000D03*
X153644736Y-83505913D03*
X145538250Y-88711335D03*
X153428871Y-82077721D03*
X141305746Y-85056661D03*
X140454423Y-96542845D03*
X137401698Y-94601921D03*
X140215332Y-95512156D03*
X138662900Y-94499156D03*
X141140829Y-95726579D03*
X139342591Y-93585011D03*
X143421731Y-102342267D03*
X141587540Y-100483335D03*
X148450000Y-97600000D03*
X146111942Y-102013907D03*
X140600000Y-99525002D03*
X148112178Y-96629933D03*
X159735796Y-96849322D03*
X155700000Y-94850000D03*
X150149987Y-97469682D03*
X151300000Y-101800000D03*
X119328343Y-81192289D03*
X112900000Y-80100000D03*
X114751369Y-82368560D03*
X116969985Y-81350011D03*
X145212175Y-85324679D03*
X142948434Y-94520044D03*
X143916066Y-94531261D03*
X145910984Y-86200022D03*
X117000000Y-84100056D03*
X118250000Y-81200000D03*
X156016180Y-93954157D03*
X159530025Y-97969975D03*
D48*
X161756970Y-89200000D02*
X161647987Y-89091017D01*
X163700000Y-89200000D02*
X161756970Y-89200000D01*
X160464336Y-90274668D02*
X161272988Y-89466016D01*
X160325332Y-90274668D02*
X160464336Y-90274668D01*
X161272988Y-89466016D02*
X161647987Y-89091017D01*
D49*
X158274941Y-90274668D02*
X160025332Y-90274668D01*
X160025332Y-90274668D02*
X160050000Y-90250000D01*
D48*
X158805271Y-90274668D02*
X158274941Y-90274668D01*
D49*
X155350000Y-88400000D02*
X156146703Y-88400000D01*
X156146703Y-88400000D02*
X156571704Y-87974999D01*
X156571704Y-87974999D02*
X156975001Y-87974999D01*
X156975001Y-87974999D02*
X157350000Y-87600000D01*
X111500000Y-98100000D02*
X111500000Y-96480000D01*
X111305193Y-96285193D02*
X111167384Y-96285193D01*
X111500000Y-96480000D02*
X111305193Y-96285193D01*
D50*
X104450000Y-99850000D02*
X104450000Y-100700000D01*
X104450000Y-100700000D02*
X104850000Y-101100000D01*
D49*
X104450000Y-99850000D02*
X104960730Y-99850000D01*
D50*
X161350000Y-102950000D02*
X159250000Y-102950000D01*
X159250000Y-102950000D02*
X159150000Y-102850000D01*
X166200000Y-84400000D02*
X168700000Y-84400000D01*
X160200000Y-84400000D02*
X159350000Y-84400000D01*
X159350000Y-84400000D02*
X158700000Y-83750000D01*
D51*
X163700000Y-81050000D02*
X163700000Y-81900000D01*
D49*
X152450000Y-91650000D02*
X152450000Y-92000000D01*
X152450000Y-92000000D02*
X151950000Y-92500000D01*
X149550000Y-90900000D02*
X150200000Y-90900000D01*
X150200000Y-90900000D02*
X150450000Y-90650000D01*
X148550000Y-90900000D02*
X149550000Y-90900000D01*
X151450000Y-88650000D02*
X151450000Y-88100000D01*
X151450000Y-88100000D02*
X151700000Y-87850000D01*
X154242798Y-88702708D02*
X154242798Y-88592798D01*
X154242798Y-88592798D02*
X153500000Y-87850000D01*
X154242798Y-88702708D02*
X154242798Y-89892798D01*
X154242798Y-89892798D02*
X154250000Y-89900000D01*
X150450000Y-88650000D02*
X150450000Y-88600000D01*
X150450000Y-88600000D02*
X149750000Y-87900000D01*
X150450000Y-91650000D02*
X150400000Y-91650000D01*
X150400000Y-91650000D02*
X149700000Y-92350000D01*
X153450000Y-91650000D02*
X154200000Y-92400000D01*
X106550000Y-89500000D02*
X107150000Y-88900000D01*
X107150000Y-88900000D02*
X107150000Y-88450000D01*
X104300000Y-91300000D02*
X104750000Y-91300000D01*
X104750000Y-91300000D02*
X106550000Y-89500000D01*
X159000000Y-87600000D02*
X157350000Y-87600000D01*
X160200000Y-86450000D02*
X160150000Y-86450000D01*
X160150000Y-86450000D02*
X159000000Y-87600000D01*
X160200000Y-84400000D02*
X160200000Y-86450000D01*
X160200000Y-81900000D02*
X160200000Y-84400000D01*
X157650000Y-81900000D02*
X160200000Y-81900000D01*
X155550000Y-81900000D02*
X157650000Y-81900000D01*
D48*
X155800000Y-83600000D02*
X155800000Y-82150000D01*
X155800000Y-82150000D02*
X155550000Y-81900000D01*
X168275001Y-98825001D02*
X167450000Y-98000000D01*
X167450000Y-98000000D02*
X164450000Y-98000000D01*
X168700000Y-99200000D02*
X168325001Y-98825001D01*
X168325001Y-98825001D02*
X168275001Y-98825001D01*
X168700000Y-96700000D02*
X168700000Y-99200000D01*
X168700000Y-94200000D02*
X168700000Y-96700000D01*
X168700000Y-91700000D02*
X168700000Y-94200000D01*
X168700000Y-89200000D02*
X168700000Y-91700000D01*
X168700000Y-89200000D02*
X163700000Y-89200000D01*
X168700000Y-86900000D02*
X168700000Y-89200000D01*
X166200000Y-86900000D02*
X168700000Y-86900000D01*
X163700000Y-86900000D02*
X166200000Y-86900000D01*
X163700000Y-84400000D02*
X163700000Y-86900000D01*
X166200000Y-84400000D02*
X163700000Y-84400000D01*
X168700000Y-81900000D02*
X168700000Y-84400000D01*
X166200000Y-81900000D02*
X168700000Y-81900000D01*
X163700000Y-81900000D02*
X166200000Y-81900000D01*
D49*
X166650000Y-90500000D02*
X166650000Y-89550000D01*
X166650000Y-89550000D02*
X166250000Y-89150000D01*
X137080000Y-88370000D02*
X138956317Y-88370000D01*
X138956317Y-88370000D02*
X139348654Y-87977663D01*
X144700000Y-96950000D02*
X143550000Y-96950000D01*
X144700000Y-96950000D02*
X144700000Y-95469697D01*
X143550000Y-96950000D02*
X143525000Y-96925000D01*
X144700000Y-98850000D02*
X143550000Y-98850000D01*
X143550000Y-98850000D02*
X143525000Y-98825000D01*
X147475000Y-102600000D02*
X146561851Y-102600000D01*
X144169332Y-101744332D02*
X144169332Y-100430668D01*
X146561851Y-102600000D02*
X146447943Y-102713908D01*
X146447943Y-102713908D02*
X145138908Y-102713908D01*
X145138908Y-102713908D02*
X144169332Y-101744332D01*
X144169332Y-100430668D02*
X144700000Y-99900000D01*
X144700000Y-99900000D02*
X144700000Y-98850000D01*
X136100000Y-90100000D02*
X136790000Y-90100000D01*
X136790000Y-90100000D02*
X138455000Y-91765000D01*
X138455000Y-91765000D02*
X139275000Y-91765000D01*
X145169697Y-95000000D02*
X144700000Y-95469697D01*
X145169697Y-95000000D02*
X145950000Y-95000000D01*
X133675000Y-87150000D02*
X133675000Y-86250000D01*
X133675000Y-86250000D02*
X134325000Y-85600000D01*
X134325000Y-85600000D02*
X136025000Y-85600000D01*
X136025000Y-85600000D02*
X137080000Y-86655000D01*
X137080000Y-86655000D02*
X137080000Y-88370000D01*
X136675000Y-101925000D02*
X135704598Y-101925000D01*
X135704598Y-101925000D02*
X134529598Y-103100000D01*
X134529598Y-103100000D02*
X134500000Y-103100000D01*
X160192659Y-95028558D02*
X161321442Y-95028558D01*
X161321442Y-95028558D02*
X161500000Y-94850000D01*
X161250000Y-94850000D02*
X161071442Y-95028558D01*
X154545506Y-88400000D02*
X154242798Y-88702708D01*
X155350000Y-88400000D02*
X154545506Y-88400000D01*
X153450000Y-88650000D02*
X154190090Y-88650000D01*
X154190090Y-88650000D02*
X154242798Y-88702708D01*
X154700000Y-101000000D02*
X154700000Y-102350000D01*
X154700000Y-102350000D02*
X154500000Y-102550000D01*
X136100000Y-90100000D02*
X136100000Y-89350000D01*
X136100000Y-89350000D02*
X137080000Y-88370000D01*
X136225000Y-90100000D02*
X136100000Y-90100000D01*
X145950000Y-95000000D02*
X146874998Y-95000000D01*
X129600000Y-87150000D02*
X133675000Y-87150000D01*
X126750000Y-87150000D02*
X129600000Y-87150000D01*
X125725000Y-87150000D02*
X126750000Y-87150000D01*
X150025000Y-101100000D02*
X149650000Y-101100000D01*
X149650000Y-101100000D02*
X149627501Y-101122499D01*
X149627501Y-101122499D02*
X149327501Y-101122499D01*
X147300000Y-84100000D02*
X146150000Y-84100000D01*
X146150000Y-84100000D02*
X145850000Y-83800000D01*
X162950000Y-92650000D02*
X164400000Y-92650000D01*
X113950000Y-77850000D02*
X113271491Y-77850000D01*
X113271491Y-77850000D02*
X112954653Y-78166838D01*
X112954653Y-78166838D02*
X112954653Y-78754812D01*
X112999841Y-78800000D02*
X112954653Y-78754812D01*
X115200000Y-78800000D02*
X112999841Y-78800000D01*
X123900000Y-78050000D02*
X123900000Y-74500000D01*
X123900000Y-74500000D02*
X124000000Y-74400000D01*
X120050000Y-79700000D02*
X122150000Y-79700000D01*
X122150000Y-79700000D02*
X122650000Y-80200000D01*
X120000000Y-78050000D02*
X120000000Y-79650000D01*
X120000000Y-79650000D02*
X120050000Y-79700000D01*
X134500000Y-103100000D02*
X134050000Y-103100000D01*
X134050000Y-103100000D02*
X132900000Y-101950000D01*
X132900000Y-99300000D02*
X132900000Y-101950000D01*
X132900000Y-97300000D02*
X132900000Y-99300000D01*
X155350000Y-92400000D02*
X154200000Y-92400000D01*
X150025000Y-102100000D02*
X148868500Y-102100000D01*
X148868500Y-102100000D02*
X148750000Y-102218500D01*
X148750000Y-102218500D02*
X148750000Y-102875000D01*
X148750000Y-103650000D02*
X148750000Y-102875000D01*
X149200000Y-93550000D02*
X149200000Y-93400000D01*
X149200000Y-93400000D02*
X149249999Y-93350001D01*
X149249999Y-93350001D02*
X149249999Y-92800001D01*
X149249999Y-92800001D02*
X149325001Y-92724999D01*
X149325001Y-92724999D02*
X149700000Y-92350000D01*
X151450000Y-89650000D02*
X151450000Y-88650000D01*
X111500000Y-98100000D02*
X111500000Y-100050000D01*
X116925000Y-98050000D02*
X116350000Y-98050000D01*
X116925000Y-98050000D02*
X118400000Y-96575000D01*
X118400000Y-96575000D02*
X118400000Y-96450000D01*
X114450000Y-97125000D02*
X115425000Y-97125000D01*
X115425000Y-97125000D02*
X116350000Y-98050000D01*
X114450000Y-99725000D02*
X113137227Y-99725000D01*
X113137227Y-99725000D02*
X112567994Y-99155767D01*
X112567994Y-99155767D02*
X112555767Y-99155767D01*
X112555767Y-99155767D02*
X111500000Y-98100000D01*
X106150000Y-101000000D02*
X104950000Y-101000000D01*
X104950000Y-101000000D02*
X104850000Y-101100000D01*
X103100000Y-99850000D02*
X98350000Y-99850000D01*
X103100000Y-99850000D02*
X104450000Y-99850000D01*
X98350000Y-99850000D02*
X97850000Y-100350000D01*
X106150000Y-101000000D02*
X106150000Y-100675001D01*
X106150000Y-100675001D02*
X107100001Y-99725000D01*
X107100001Y-99725000D02*
X108550000Y-99725000D01*
X106200000Y-96900000D02*
X106200000Y-95975002D01*
X104200000Y-75000000D02*
X104200000Y-72880000D01*
X104200000Y-72880000D02*
X104680000Y-72400000D01*
X107150000Y-81250000D02*
X106100000Y-80200000D01*
X106100000Y-80200000D02*
X102950000Y-80200000D01*
X107150000Y-82100000D02*
X107150000Y-81250000D01*
X107150000Y-87400000D02*
X107150000Y-82100000D01*
X85900000Y-82100000D02*
X90750000Y-82100000D01*
X90750000Y-82100000D02*
X90850000Y-82000000D01*
X95800000Y-80200000D02*
X96850000Y-80200000D01*
X96850000Y-80200000D02*
X102950000Y-80200000D01*
X92550000Y-82000000D02*
X94350000Y-80200000D01*
X94350000Y-80200000D02*
X95800000Y-80200000D01*
X90850000Y-82000000D02*
X92550000Y-82000000D01*
X92850000Y-91300000D02*
X86850000Y-91300000D01*
X86850000Y-91300000D02*
X85900000Y-92250000D01*
X85900000Y-92250000D02*
X85900000Y-93100000D01*
X100000000Y-91300000D02*
X92850000Y-91300000D01*
X107150000Y-87400000D02*
X107150000Y-88450000D01*
X104300000Y-91300000D02*
X101050000Y-91300000D01*
X101050000Y-91300000D02*
X100000000Y-91300000D01*
X127575000Y-102550000D02*
X127575000Y-97825000D01*
X127575000Y-97825000D02*
X127850000Y-97550000D01*
X127850000Y-97550000D02*
X128600000Y-97550000D01*
D50*
X103279848Y-94651659D02*
X103654847Y-94276660D01*
X101700000Y-96231507D02*
X103279848Y-94651659D01*
X101700000Y-96700000D02*
X101700000Y-96231507D01*
X112303198Y-95335905D02*
X111772868Y-95335905D01*
X113289784Y-96322491D02*
X112303198Y-95335905D01*
X113425000Y-97775000D02*
X113289784Y-97639784D01*
X114450000Y-97775000D02*
X113425000Y-97775000D01*
X113289784Y-97639784D02*
X113289784Y-96322491D01*
D49*
X118000000Y-77925000D02*
X118000000Y-78050000D01*
D50*
X117250000Y-77175000D02*
X118000000Y-77925000D01*
X104463213Y-76446789D02*
X106650000Y-74260002D01*
X117250000Y-73250000D02*
X117250000Y-77175000D01*
X116870662Y-72870662D02*
X117250000Y-73250000D01*
X106650000Y-74260002D02*
X106650000Y-73350000D01*
X103521789Y-76446789D02*
X104463213Y-76446789D01*
D49*
X102200000Y-75000000D02*
X102200000Y-75125000D01*
D50*
X102200000Y-75125000D02*
X103521789Y-76446789D01*
X106650000Y-73350000D02*
X107129338Y-72870662D01*
X107129338Y-72870662D02*
X116870662Y-72870662D01*
X102200000Y-75000000D02*
X100900000Y-75000000D01*
D49*
X100900000Y-75000000D02*
X100850000Y-75050000D01*
D50*
X102200000Y-75000000D02*
X102200000Y-72460000D01*
D49*
X102200000Y-72460000D02*
X102140000Y-72400000D01*
D50*
X114450000Y-98425000D02*
X114450000Y-97775000D01*
X108550000Y-95175000D02*
X106475000Y-95175000D01*
D49*
X106475000Y-95175000D02*
X106200000Y-94900000D01*
X108550000Y-95825000D02*
X108550000Y-95175000D01*
D50*
X92850000Y-96700000D02*
X92850000Y-100350000D01*
X92850000Y-96700000D02*
X86650000Y-96700000D01*
X86650000Y-96700000D02*
X85900000Y-95950000D01*
X85900000Y-95950000D02*
X85900000Y-95100000D01*
X100000000Y-96700000D02*
X92850000Y-96700000D01*
D49*
X101700000Y-96700000D02*
X100000000Y-96700000D01*
D50*
X106200000Y-94900000D02*
X106200000Y-93650000D01*
D49*
X106200000Y-93650000D02*
X106000000Y-93450000D01*
X118000000Y-78050000D02*
X117800000Y-77850000D01*
D50*
X117800000Y-77850000D02*
X116450000Y-77850000D01*
D49*
X155350000Y-89400000D02*
X156089580Y-89400000D01*
X156089580Y-89400000D02*
X158206832Y-91517252D01*
X158206832Y-91517252D02*
X158397746Y-91517252D01*
X158397746Y-91517252D02*
X158439999Y-91474999D01*
X164650000Y-91099074D02*
X164650000Y-90900000D01*
X158439999Y-91474999D02*
X160260001Y-91474999D01*
X163130330Y-96550000D02*
X162600000Y-96550000D01*
X160260001Y-91474999D02*
X160302254Y-91517252D01*
X166443970Y-95566032D02*
X165460002Y-96550000D01*
X166789975Y-93470027D02*
X166769973Y-93470027D01*
X160302254Y-91517252D02*
X161646338Y-91517252D01*
X166508116Y-91620386D02*
X166789975Y-91902245D01*
X164650000Y-90900000D02*
X165370386Y-91620386D01*
X161646338Y-91517252D02*
X162064516Y-91099074D01*
X165460002Y-96550000D02*
X163130330Y-96550000D01*
X166769973Y-93470027D02*
X166443970Y-93796030D01*
X162064516Y-91099074D02*
X164650000Y-91099074D01*
X165370386Y-91620386D02*
X166508116Y-91620386D01*
X166789975Y-91902245D02*
X166789975Y-93470027D01*
X166443970Y-93796030D02*
X166443970Y-95566032D01*
D50*
X134900000Y-99300000D02*
X134900000Y-97300000D01*
D49*
X110400000Y-95600000D02*
X110400000Y-90600000D01*
X110400000Y-90600000D02*
X112550000Y-88450000D01*
X112550000Y-88450000D02*
X112550000Y-87400000D01*
X148356173Y-98731173D02*
X148356173Y-99124216D01*
X146700000Y-97075000D02*
X148356173Y-98731173D01*
X149250000Y-99668500D02*
X148705716Y-99124216D01*
X148705716Y-99124216D02*
X148356173Y-99124216D01*
X149250000Y-100325000D02*
X149250000Y-99668500D01*
X146700000Y-96950000D02*
X146700000Y-97075000D01*
X146700000Y-98850000D02*
X146700000Y-96950000D01*
X146700000Y-96250000D02*
X147950000Y-95000000D01*
X146700000Y-96950000D02*
X146700000Y-96250000D01*
X157500000Y-93700000D02*
X157625000Y-93700000D01*
X157625000Y-93700000D02*
X158362176Y-94437176D01*
X158362176Y-94437176D02*
X158362176Y-94645446D01*
X159530272Y-95518862D02*
X160561410Y-96550000D01*
X158362176Y-94645446D02*
X158374999Y-94645446D01*
X158374999Y-94645446D02*
X158374999Y-94660001D01*
X158374999Y-94660001D02*
X159233860Y-95518862D01*
X159233860Y-95518862D02*
X159530272Y-95518862D01*
X160561410Y-96550000D02*
X162600000Y-96550000D01*
X156500000Y-87250000D02*
X156500000Y-86900000D01*
X156500000Y-86900000D02*
X156985591Y-86414409D01*
X155250000Y-87900000D02*
X155850000Y-87900000D01*
X155850000Y-87900000D02*
X156500000Y-87250000D01*
X155800000Y-86500000D02*
X155800000Y-85600000D01*
X156500000Y-87250000D02*
X156500000Y-87200000D01*
X156500000Y-87200000D02*
X155800000Y-86500000D01*
X156985591Y-86414409D02*
X157500000Y-85900000D01*
X155700000Y-84675002D02*
X155700000Y-85500000D01*
X155700000Y-85500000D02*
X155800000Y-85600000D01*
X138250000Y-85600000D02*
X139450000Y-85600000D01*
X139450000Y-85600000D02*
X139500000Y-85550000D01*
X149300000Y-84100000D02*
X148375002Y-84100000D01*
X155492432Y-85292432D02*
X155800000Y-85600000D01*
X151800000Y-97500000D02*
X151800000Y-98424998D01*
X155350000Y-91900000D02*
X156450000Y-91900000D01*
X156450000Y-91900000D02*
X157500000Y-92950000D01*
X157500000Y-92950000D02*
X157500000Y-93700000D01*
X164784322Y-90689377D02*
X164994945Y-90900000D01*
X120350000Y-76000000D02*
X121600000Y-76000000D01*
X150509143Y-84059143D02*
X149340857Y-84059143D01*
X149340857Y-84059143D02*
X149300000Y-84100000D01*
X151200000Y-84750000D02*
X150509143Y-84059143D01*
X150550000Y-84100000D02*
X150509143Y-84059143D01*
X155350000Y-87400000D02*
X155350000Y-87900000D01*
X108550000Y-96475000D02*
X109525000Y-96475000D01*
X109525000Y-96475000D02*
X110400000Y-95600000D01*
X121800000Y-75800000D02*
X122000000Y-75600000D01*
X121600000Y-76000000D02*
X121800000Y-75800000D01*
X122000000Y-75600000D02*
X122000000Y-74400000D01*
X121400000Y-72400000D02*
X121400000Y-73800000D01*
X121400000Y-73800000D02*
X122000000Y-74400000D01*
X136300000Y-96750000D02*
X137000000Y-96050000D01*
X135750000Y-97300000D02*
X136300000Y-96750000D01*
X137000000Y-96050000D02*
X138750000Y-96050000D01*
X134900000Y-97300000D02*
X135750000Y-97300000D01*
X147950000Y-95000000D02*
X147950000Y-93900000D01*
X147950000Y-93900000D02*
X147350000Y-93300000D01*
X147350000Y-92538483D02*
X147350000Y-93300000D01*
X148550000Y-91900000D02*
X147988483Y-91900000D01*
X147988483Y-91900000D02*
X147350000Y-92538483D01*
X148550000Y-91400000D02*
X148550000Y-91900000D01*
X136675000Y-99425000D02*
X135025000Y-99425000D01*
X135025000Y-99425000D02*
X134900000Y-99300000D01*
X138900000Y-85600000D02*
X138900000Y-86700000D01*
X138900000Y-86700000D02*
X139300000Y-87100000D01*
X118050000Y-79700000D02*
X118650000Y-79700000D01*
X118650000Y-79700000D02*
X118950000Y-79400000D01*
X116450000Y-79750000D02*
X118000000Y-79750000D01*
X118000000Y-79750000D02*
X118050000Y-79700000D01*
X151200000Y-86750000D02*
X151200000Y-84750000D01*
X149700000Y-93550000D02*
X149700000Y-94100000D01*
X148800000Y-95000000D02*
X147950000Y-95000000D01*
X149700000Y-94100000D02*
X148800000Y-95000000D01*
X147475000Y-100600000D02*
X147475000Y-99625000D01*
X147475000Y-99625000D02*
X146700000Y-98850000D01*
X151800000Y-97500000D02*
X151800000Y-97000000D01*
X151800000Y-97000000D02*
X152500000Y-96300000D01*
X152500000Y-96300000D02*
X152500000Y-95649998D01*
X152500000Y-95649998D02*
X152700000Y-95449998D01*
X152700000Y-95449998D02*
X152700000Y-93550000D01*
X150200000Y-93550000D02*
X149700000Y-93550000D01*
X155350000Y-91400000D02*
X155350000Y-91900000D01*
X134920113Y-100679887D02*
X136670113Y-100679887D01*
X134500000Y-101100000D02*
X134920113Y-100679887D01*
X136670113Y-100679887D02*
X136675000Y-100675000D01*
X137814999Y-92470001D02*
X137804877Y-92459879D01*
X144266691Y-91815431D02*
X141389571Y-91815431D01*
X140735001Y-92470001D02*
X137814999Y-92470001D01*
X146863347Y-88400000D02*
X145650000Y-89613347D01*
X148550000Y-88400000D02*
X146863347Y-88400000D01*
X141389571Y-91815431D02*
X140735001Y-92470001D01*
X145650000Y-89613347D02*
X145650000Y-90432122D01*
X137804877Y-92459879D02*
X137414877Y-92459879D01*
X137414877Y-92459879D02*
X137054998Y-92100000D01*
X136975000Y-92100000D02*
X136100000Y-92100000D01*
X145650000Y-90432122D02*
X144266691Y-91815431D01*
X137054998Y-92100000D02*
X136975000Y-92100000D01*
X125725000Y-91650000D02*
X125100000Y-91650000D01*
X125100000Y-91650000D02*
X123800000Y-90350000D01*
X125600000Y-91650000D02*
X125725000Y-91650000D01*
X125725000Y-91650000D02*
X133675000Y-91650000D01*
X136100000Y-92100000D02*
X134125000Y-92100000D01*
X134125000Y-92100000D02*
X133675000Y-91650000D01*
X147475000Y-101100000D02*
X147452501Y-101077501D01*
X147452501Y-101077501D02*
X146808499Y-101077501D01*
X146808499Y-101077501D02*
X146342981Y-100611983D01*
X146342981Y-100611983D02*
X146219344Y-100611983D01*
X104450000Y-97850000D02*
X104814429Y-97485571D01*
X104814429Y-97485571D02*
X104814429Y-92995399D01*
X104814429Y-92995399D02*
X105309828Y-92500000D01*
X105309828Y-92500000D02*
X108300000Y-92500000D01*
X108550000Y-97775000D02*
X104525000Y-97775000D01*
X104525000Y-97775000D02*
X104450000Y-97850000D01*
X108550000Y-99075000D02*
X109525000Y-99075000D01*
X109525000Y-99075000D02*
X109758282Y-99308282D01*
X109758282Y-99308282D02*
X109758282Y-100283282D01*
X109758282Y-100283282D02*
X110500000Y-101025000D01*
X108550000Y-101025000D02*
X110500000Y-101025000D01*
X110500000Y-101025000D02*
X114450000Y-101025000D01*
X108550000Y-99075000D02*
X106225000Y-99075000D01*
X106225000Y-99075000D02*
X106150000Y-99000000D01*
X108550000Y-98425000D02*
X108550000Y-99075000D01*
X114450000Y-99075000D02*
X116175000Y-99075000D01*
X116175000Y-99075000D02*
X116550000Y-99450000D01*
X116550000Y-99450000D02*
X116550000Y-99966241D01*
X116550000Y-99966241D02*
X116141241Y-100375000D01*
X116141241Y-100375000D02*
X114450000Y-100375000D01*
X114450000Y-101025000D02*
X114450000Y-100375000D01*
X108550000Y-101025000D02*
X109525000Y-101025000D01*
X104450000Y-89650000D02*
X102950000Y-88150000D01*
X102950000Y-88150000D02*
X102950000Y-85600000D01*
X116400000Y-96450000D02*
X116400000Y-95900000D01*
X116400000Y-95900000D02*
X117150000Y-95150000D01*
X114450000Y-96475000D02*
X116375000Y-96475000D01*
X116375000Y-96475000D02*
X116400000Y-96450000D01*
X95800000Y-85600000D02*
X102950000Y-85600000D01*
X90850000Y-84750000D02*
X91700000Y-85600000D01*
X91700000Y-85600000D02*
X95800000Y-85600000D01*
X90850000Y-84000000D02*
X90850000Y-84750000D01*
X85900000Y-84100000D02*
X90750000Y-84100000D01*
X90750000Y-84100000D02*
X90850000Y-84000000D01*
X163200000Y-94850000D02*
X163200000Y-94750000D01*
X160250000Y-94050000D02*
X159350000Y-94050000D01*
X163200000Y-94750000D02*
X162274999Y-93824999D01*
X162274999Y-93824999D02*
X160475001Y-93824999D01*
X160475001Y-93824999D02*
X160250000Y-94050000D01*
X163200000Y-94850000D02*
X165250000Y-94850000D01*
X165250000Y-94850000D02*
X165350000Y-94950000D01*
X162950000Y-94850000D02*
X162950000Y-94195381D01*
X164874991Y-94850000D02*
X164974991Y-94950000D01*
X155350000Y-90400000D02*
X155816759Y-90400000D01*
X155816759Y-90400000D02*
X159342961Y-93926202D01*
X159342961Y-93926202D02*
X159342961Y-94023538D01*
X162950000Y-94850000D02*
X162950000Y-94650000D01*
X161500000Y-92650000D02*
X161500000Y-92300000D01*
X161500000Y-92300000D02*
X162250000Y-91550000D01*
X162250000Y-91550000D02*
X164625000Y-91550000D01*
X164625000Y-91550000D02*
X165750000Y-92675000D01*
X165750000Y-92675000D02*
X165750000Y-92800000D01*
X159350000Y-92150000D02*
X160363393Y-92150000D01*
X160363393Y-92150000D02*
X160863393Y-92650000D01*
X160863393Y-92650000D02*
X161500000Y-92650000D01*
X155950000Y-89900000D02*
X155350000Y-89900000D01*
X155953170Y-89900000D02*
X155950000Y-89900000D01*
X158203170Y-92150000D02*
X155953170Y-89900000D01*
X159350000Y-92150000D02*
X158203170Y-92150000D01*
X156300000Y-96950000D02*
X156950000Y-96950000D01*
X156950000Y-96950000D02*
X157700000Y-97700000D01*
X153700000Y-93550000D02*
X153700000Y-94350000D01*
X153700000Y-94350000D02*
X156300000Y-96950000D01*
X156350000Y-97700000D02*
X155650000Y-97000000D01*
X153200000Y-93550000D02*
X153200000Y-96750000D01*
X153200000Y-96750000D02*
X153400000Y-96950000D01*
X153200000Y-96950000D02*
X153150000Y-97000000D01*
X153150000Y-97000000D02*
X153150000Y-97450000D01*
X153150000Y-97450000D02*
X154700000Y-99000000D01*
D48*
X161600000Y-84450000D02*
X161600000Y-85200000D01*
X161600000Y-85200000D02*
X161590861Y-85209139D01*
X161590861Y-85209139D02*
X161576576Y-85209139D01*
D52*
X156855593Y-88928561D02*
X159871439Y-88928561D01*
X159871439Y-88928561D02*
X161576576Y-87223424D01*
X161576576Y-87223424D02*
X161576576Y-85209139D01*
D48*
X161600000Y-84450000D02*
X161600000Y-83750000D01*
D50*
X155350000Y-88900000D02*
X156827032Y-88900000D01*
X156827032Y-88900000D02*
X156855593Y-88928561D01*
D49*
X114450000Y-95825000D02*
X114549999Y-95725001D01*
X114549999Y-95725001D02*
X115435001Y-95725001D01*
X115435001Y-95725001D02*
X117003707Y-94156295D01*
X117003707Y-94156295D02*
X120143705Y-94156295D01*
X120143705Y-94156295D02*
X120350000Y-93950000D01*
X120350000Y-93950000D02*
X120350000Y-91950000D01*
X112300000Y-92500000D02*
X112300000Y-94650000D01*
X113475000Y-95825000D02*
X114450000Y-95825000D01*
X112300000Y-94650000D02*
X113475000Y-95825000D01*
X161350000Y-101850000D02*
X161350000Y-100475000D01*
X153700000Y-83561177D02*
X153644736Y-83505913D01*
X153700000Y-86750000D02*
X153700000Y-83561177D01*
X143085000Y-90495000D02*
X143905000Y-90495000D01*
X143905000Y-90495000D02*
X145538250Y-88861750D01*
X145538250Y-88861750D02*
X145538250Y-88711335D01*
X153700000Y-86750000D02*
X153707321Y-86742679D01*
X153803870Y-82452720D02*
X153428871Y-82077721D01*
X154356569Y-83005419D02*
X153803870Y-82452720D01*
X154200000Y-83986654D02*
X154356569Y-83830085D01*
X154200000Y-86750000D02*
X154200000Y-83986654D01*
X154356569Y-83830085D02*
X154356569Y-83005419D01*
X141305746Y-85056661D02*
X141305746Y-89284254D01*
X141305746Y-89284254D02*
X140095000Y-90495000D01*
X140095000Y-90495000D02*
X139275000Y-90495000D01*
X148550000Y-87900000D02*
X143580000Y-87900000D01*
X148550000Y-87400000D02*
X145129205Y-87400000D01*
X145129205Y-87400000D02*
X144458723Y-86729518D01*
X144458723Y-86729518D02*
X143169827Y-86729518D01*
X125575000Y-101450000D02*
X125575000Y-102550000D01*
X125575000Y-98025000D02*
X125575000Y-101450000D01*
X148550000Y-88900000D02*
X146999758Y-88900000D01*
X146100006Y-89799752D02*
X146100006Y-90914996D01*
X146999758Y-88900000D02*
X146100006Y-89799752D01*
X144545001Y-92470001D02*
X142006409Y-92470001D01*
X146100006Y-90914996D02*
X144545001Y-92470001D01*
X142006409Y-92470001D02*
X139101411Y-95374999D01*
X139101411Y-95374999D02*
X128225001Y-95374999D01*
X128225001Y-95374999D02*
X125575000Y-98025000D01*
X145432039Y-93820034D02*
X142565608Y-93820034D01*
X140984753Y-96542845D02*
X140454423Y-96542845D01*
X141564633Y-96542845D02*
X140984753Y-96542845D01*
X141840831Y-94544811D02*
X141840831Y-96266647D01*
X142565608Y-93820034D02*
X141840831Y-94544811D01*
X141840831Y-96266647D02*
X141564633Y-96542845D01*
X147503499Y-91748574D02*
X145432039Y-93820034D01*
X147503499Y-90846501D02*
X147503499Y-91748574D01*
X147950000Y-90400000D02*
X147503499Y-90846501D01*
X148550000Y-90400000D02*
X147950000Y-90400000D01*
X136871368Y-94601921D02*
X137401698Y-94601921D01*
X123575000Y-98475000D02*
X127448079Y-94601921D01*
X127448079Y-94601921D02*
X136871368Y-94601921D01*
X123575000Y-102550000D02*
X123575000Y-98475000D01*
X146550017Y-90080895D02*
X146550017Y-91429234D01*
X140215332Y-94897488D02*
X140215332Y-94981826D01*
X146550017Y-91429234D02*
X145059239Y-92920012D01*
X148550000Y-89400000D02*
X147230912Y-89400000D01*
X145059239Y-92920012D02*
X142192808Y-92920012D01*
X140215332Y-94981826D02*
X140215332Y-95512156D01*
X142192808Y-92920012D02*
X140215332Y-94897488D01*
X147230912Y-89400000D02*
X146550017Y-90080895D01*
X138287901Y-94124157D02*
X138662900Y-94499156D01*
X137948767Y-93785023D02*
X138287901Y-94124157D01*
X126664977Y-93785023D02*
X137948767Y-93785023D01*
X121575000Y-102550000D02*
X121575000Y-98875000D01*
X121575000Y-98875000D02*
X126664977Y-93785023D01*
X141140829Y-95196249D02*
X141140829Y-95726579D01*
X148550000Y-89900000D02*
X147617342Y-89900000D01*
X141140829Y-94608403D02*
X141140829Y-95196249D01*
X147053488Y-91562174D02*
X145245639Y-93370023D01*
X147617342Y-89900000D02*
X147053488Y-90463854D01*
X147053488Y-90463854D02*
X147053488Y-91562174D01*
X142379208Y-93370023D02*
X141140829Y-94608403D01*
X145245639Y-93370023D02*
X142379208Y-93370023D01*
X125864988Y-93335012D02*
X139092592Y-93335012D01*
X139092592Y-93335012D02*
X139342591Y-93585011D01*
X119575000Y-99625000D02*
X125864988Y-93335012D01*
X119575000Y-102550000D02*
X119575000Y-99625000D01*
X115950000Y-77850000D02*
X115950000Y-75100000D01*
X115950000Y-75100000D02*
X115250000Y-74400000D01*
X115250000Y-74400000D02*
X114400000Y-74400000D01*
D50*
X114400000Y-74400000D02*
X114400000Y-74650000D01*
D49*
X115450000Y-77850000D02*
X115450000Y-76300000D01*
X115450000Y-76300000D02*
X114725001Y-75575001D01*
X112400000Y-74650000D02*
X112400000Y-74400000D01*
X114725001Y-75575001D02*
X113325001Y-75575001D01*
X113325001Y-75575001D02*
X112400000Y-74650000D01*
X114950000Y-77850000D02*
X114950000Y-76550000D01*
X114950000Y-76550000D02*
X114425011Y-76025011D01*
X114425011Y-76025011D02*
X111775011Y-76025011D01*
X111775011Y-76025011D02*
X110400000Y-74650000D01*
X110400000Y-74650000D02*
X110400000Y-74400000D01*
X114450000Y-77850000D02*
X114450000Y-77227923D01*
X114450000Y-77227923D02*
X113697098Y-76475021D01*
X113697098Y-76475021D02*
X110225021Y-76475021D01*
X110225021Y-76475021D02*
X108400000Y-74650000D01*
X108400000Y-74650000D02*
X108400000Y-74400000D01*
X150700000Y-86750000D02*
X150700000Y-85650000D01*
X111725001Y-78759425D02*
X109978430Y-77012854D01*
X150700000Y-85650000D02*
X150100001Y-85050001D01*
X150100001Y-85050001D02*
X145973500Y-85050001D01*
X145973500Y-85050001D02*
X144323545Y-83400046D01*
X144323545Y-83400046D02*
X114437072Y-83400046D01*
X101012854Y-77012854D02*
X99600000Y-75600000D01*
X114437072Y-83400046D02*
X111725001Y-80687975D01*
X111725001Y-80687975D02*
X111725001Y-78759425D01*
X109978430Y-77012854D02*
X101012854Y-77012854D01*
X99600000Y-75600000D02*
X99600000Y-73550000D01*
X99600000Y-73550000D02*
X99600000Y-72400000D01*
X114450000Y-95175000D02*
X114450000Y-94700000D01*
X114450000Y-94700000D02*
X114750000Y-94400000D01*
X114750000Y-94400000D02*
X114750000Y-91950000D01*
X153700000Y-81100000D02*
X125150000Y-81100000D01*
X154700000Y-86150000D02*
X154818410Y-86031590D01*
X154818410Y-86031590D02*
X154818410Y-82218410D01*
X119227792Y-77077792D02*
X118450000Y-76300000D01*
X121127792Y-77077792D02*
X119227792Y-77077792D01*
X125150000Y-81100000D02*
X121127792Y-77077792D01*
X118450000Y-76300000D02*
X118450000Y-76000000D01*
X154700000Y-86750000D02*
X154700000Y-86150000D01*
X154818410Y-82218410D02*
X153700000Y-81100000D01*
X118860000Y-72400000D02*
X118860000Y-75590000D01*
X118860000Y-75590000D02*
X118450000Y-76000000D01*
X148454722Y-97600000D02*
X148450000Y-97600000D01*
X149645575Y-96409147D02*
X148454722Y-97600000D01*
X151200000Y-93550000D02*
X151200000Y-94850000D01*
X149645575Y-96404425D02*
X149645575Y-96409147D01*
X151200000Y-94850000D02*
X149645575Y-96404425D01*
X148250000Y-102875000D02*
X148250000Y-103129000D01*
X148250000Y-103129000D02*
X148146090Y-103232910D01*
X144312374Y-103232910D02*
X143796730Y-102717266D01*
X148146090Y-103232910D02*
X144312374Y-103232910D01*
X143796730Y-102717266D02*
X143421731Y-102342267D01*
X140450000Y-100500000D02*
X141570875Y-100500000D01*
X141570875Y-100500000D02*
X141587540Y-100483335D01*
X140450000Y-100500000D02*
X138900000Y-100500000D01*
X138900000Y-100500000D02*
X138725000Y-100675000D01*
X146198035Y-102100000D02*
X146111942Y-102013907D01*
X147475000Y-102100000D02*
X146198035Y-102100000D01*
X139500000Y-99425000D02*
X139600002Y-99525002D01*
X139600002Y-99525002D02*
X140600000Y-99525002D01*
X150700000Y-93550000D02*
X150700000Y-94150000D01*
X148220067Y-96629933D02*
X148112178Y-96629933D01*
X150700000Y-94150000D02*
X148220067Y-96629933D01*
X139500000Y-99425000D02*
X138725000Y-99425000D01*
X138750000Y-97950000D02*
X138750000Y-99400000D01*
X138750000Y-99400000D02*
X138725000Y-99425000D01*
X108550000Y-100375000D02*
X107575000Y-100375000D01*
X107575000Y-100375000D02*
X107312654Y-100637346D01*
X107312654Y-100637346D02*
X107312654Y-102462654D01*
X107312654Y-102462654D02*
X107450000Y-102600000D01*
X160450000Y-97975000D02*
X160450000Y-97563526D01*
X161050000Y-98575000D02*
X160450000Y-97975000D01*
X161350000Y-98575000D02*
X161050000Y-98575000D01*
X160450000Y-97563526D02*
X160110795Y-97224321D01*
X160110795Y-97224321D02*
X159735796Y-96849322D01*
X155700000Y-94850000D02*
X155531801Y-94681801D01*
X155531801Y-94681801D02*
X154668199Y-94681801D01*
X154668199Y-94681801D02*
X154200000Y-94213602D01*
X154200000Y-94213602D02*
X154200000Y-93550000D01*
X151700000Y-94986410D02*
X150149987Y-96536423D01*
X150149987Y-96536423D02*
X150149987Y-96939352D01*
X151700000Y-93550000D02*
X151700000Y-94986410D01*
X150149987Y-96939352D02*
X150149987Y-97469682D01*
X151100000Y-101600000D02*
X150025000Y-101600000D01*
X151300000Y-101800000D02*
X151100000Y-101600000D01*
X150681500Y-102600000D02*
X150025000Y-102600000D01*
X152050000Y-102600000D02*
X150681500Y-102600000D01*
X152400000Y-102250000D02*
X152050000Y-102600000D01*
X152400000Y-101800000D02*
X152400000Y-102250000D01*
X150849999Y-96550001D02*
X150849999Y-100249999D01*
X152200000Y-95200000D02*
X150849999Y-96550001D01*
X152200000Y-93550000D02*
X152200000Y-95200000D01*
X150849999Y-100249999D02*
X152400000Y-101800000D01*
X153200000Y-86750000D02*
X153200000Y-84085351D01*
X150713615Y-81598966D02*
X119735020Y-81598966D01*
X119735020Y-81598966D02*
X119703342Y-81567288D01*
X119703342Y-81567288D02*
X119328343Y-81192289D01*
X153200000Y-84085351D02*
X150713615Y-81598966D01*
X112900000Y-80100000D02*
X113600000Y-80100000D01*
X113600000Y-80100000D02*
X113950000Y-79750000D01*
X116413602Y-82050013D02*
X114950000Y-80586411D01*
X152700000Y-86750000D02*
X152700000Y-84221762D01*
X150528251Y-82050013D02*
X116413602Y-82050013D01*
X152700000Y-84221762D02*
X150528251Y-82050013D01*
X114950000Y-80586411D02*
X114950000Y-80250000D01*
X114950000Y-80250000D02*
X114950000Y-79750000D01*
X114450000Y-80250000D02*
X114450000Y-79750000D01*
X150341851Y-82500024D02*
X116227202Y-82500024D01*
X152200000Y-86750000D02*
X152200000Y-84358173D01*
X152200000Y-84358173D02*
X150341851Y-82500024D01*
X116227202Y-82500024D02*
X114450000Y-80722822D01*
X114450000Y-80722822D02*
X114450000Y-80250000D01*
X151700000Y-84494584D02*
X150155451Y-82950035D01*
X115332844Y-82950035D02*
X115126368Y-82743559D01*
X151700000Y-86750000D02*
X151700000Y-84494584D01*
X150155451Y-82950035D02*
X115332844Y-82950035D01*
X115126368Y-82743559D02*
X114751369Y-82368560D01*
X116350011Y-81350011D02*
X116439655Y-81350011D01*
X116439655Y-81350011D02*
X116969985Y-81350011D01*
X115450000Y-80450000D02*
X116350011Y-81350011D01*
X115450000Y-79750000D02*
X115450000Y-80450000D01*
X142299285Y-100869467D02*
X142299285Y-95169193D01*
X141768752Y-101400000D02*
X142299285Y-100869467D01*
X142573435Y-94895043D02*
X142948434Y-94520044D01*
X138725000Y-101925000D02*
X138975000Y-101925000D01*
X142299285Y-95169193D02*
X142573435Y-94895043D01*
X139500000Y-101400000D02*
X141768752Y-101400000D01*
X138975000Y-101925000D02*
X139500000Y-101400000D01*
X149913602Y-85500012D02*
X145387508Y-85500012D01*
X150200000Y-85786410D02*
X149913602Y-85500012D01*
X145387508Y-85500012D02*
X145212175Y-85324679D01*
X150200000Y-86750000D02*
X150200000Y-85786410D01*
X139500000Y-102440845D02*
X139982846Y-101957999D01*
X142757804Y-96219853D02*
X143916066Y-95061591D01*
X141886747Y-101957999D02*
X142757804Y-101086942D01*
X142757804Y-101086942D02*
X142757804Y-96219853D01*
X138725000Y-103175000D02*
X138975000Y-103175000D01*
X143916066Y-95061591D02*
X143916066Y-94531261D01*
X138975000Y-103175000D02*
X139500000Y-102650000D01*
X139982846Y-101957999D02*
X141886747Y-101957999D01*
X139500000Y-102650000D02*
X139500000Y-102440845D01*
X149700000Y-86150000D02*
X149514961Y-85964961D01*
X149700000Y-86750000D02*
X149700000Y-86150000D01*
X146441314Y-86200022D02*
X145910984Y-86200022D01*
X149514961Y-85964961D02*
X146676375Y-85964961D01*
X146676375Y-85964961D02*
X146441314Y-86200022D01*
X117530330Y-84100056D02*
X117000000Y-84100056D01*
X117780329Y-83850057D02*
X117530330Y-84100056D01*
X145589299Y-86900024D02*
X142539332Y-83850057D01*
X148674976Y-86900024D02*
X145589299Y-86900024D01*
X142539332Y-83850057D02*
X117780329Y-83850057D01*
X148825000Y-86750000D02*
X148674976Y-86900024D01*
X149200000Y-86750000D02*
X148825000Y-86750000D01*
X115950000Y-80250000D02*
X115950000Y-79750000D01*
X118250000Y-81200000D02*
X117700001Y-80650001D01*
X117700001Y-80650001D02*
X116350001Y-80650001D01*
X116350001Y-80650001D02*
X115950000Y-80250000D01*
D48*
X161600000Y-81900000D02*
X161600000Y-82850000D01*
X161600000Y-81050000D02*
X161600000Y-81900000D01*
D49*
X159530025Y-97969975D02*
X159530025Y-99579977D01*
X159530025Y-99579977D02*
X154710001Y-104400001D01*
X154710001Y-104400001D02*
X99700001Y-104400001D01*
X99700001Y-104400001D02*
X95950000Y-100650000D01*
X95950000Y-100650000D02*
X95950000Y-100350000D01*
X94750000Y-100350000D02*
X95950000Y-100350000D01*
X156016180Y-93954157D02*
X155104157Y-93954157D01*
X155104157Y-93954157D02*
X154700000Y-93550000D01*
D53*
G36*
X162869000Y-81300000D02*
X162898002Y-81445802D01*
X162980592Y-81569408D01*
X163104198Y-81651998D01*
X163250000Y-81681000D01*
X164150000Y-81681000D01*
X164295802Y-81651998D01*
X164419408Y-81569408D01*
X164501998Y-81445802D01*
X164531000Y-81300000D01*
X164531000Y-81127000D01*
X169973000Y-81127000D01*
X169973000Y-104273000D01*
X155552594Y-104273000D01*
X159700594Y-100125000D01*
X160311536Y-100125000D01*
X160311536Y-100825000D01*
X160338103Y-100966190D01*
X160421546Y-101095865D01*
X160548866Y-101182859D01*
X160700000Y-101213464D01*
X160844000Y-101213464D01*
X160844000Y-101261981D01*
X160829135Y-101271546D01*
X160742141Y-101398866D01*
X160711536Y-101550000D01*
X160711536Y-102150000D01*
X160738103Y-102291190D01*
X160821546Y-102420865D01*
X160948866Y-102507859D01*
X161100000Y-102538464D01*
X161600000Y-102538464D01*
X161741190Y-102511897D01*
X161870865Y-102428454D01*
X161957859Y-102301134D01*
X161988464Y-102150000D01*
X161988464Y-101842807D01*
X164468700Y-101842807D01*
X164731674Y-102479252D01*
X165218187Y-102966614D01*
X165854172Y-103230699D01*
X166542807Y-103231300D01*
X167179252Y-102968326D01*
X167666614Y-102481813D01*
X167930699Y-101845828D01*
X167931300Y-101157193D01*
X167668326Y-100520748D01*
X167181813Y-100033386D01*
X166545828Y-99769301D01*
X165857193Y-99768700D01*
X165220748Y-100031674D01*
X164733386Y-100518187D01*
X164469301Y-101154172D01*
X164468700Y-101842807D01*
X161988464Y-101842807D01*
X161988464Y-101550000D01*
X161961897Y-101408810D01*
X161878454Y-101279135D01*
X161856000Y-101263793D01*
X161856000Y-101213464D01*
X162000000Y-101213464D01*
X162141190Y-101186897D01*
X162270865Y-101103454D01*
X162357859Y-100976134D01*
X162388464Y-100825000D01*
X162388464Y-100125000D01*
X162361897Y-99983810D01*
X162278454Y-99854135D01*
X162151134Y-99767141D01*
X162000000Y-99736536D01*
X160700000Y-99736536D01*
X160558810Y-99763103D01*
X160429135Y-99846546D01*
X160342141Y-99973866D01*
X160311536Y-100125000D01*
X159700594Y-100125000D01*
X159887821Y-99937773D01*
X159997508Y-99773615D01*
X160036025Y-99579977D01*
X160036025Y-98533071D01*
X160164364Y-98404956D01*
X160311536Y-98552128D01*
X160311536Y-98925000D01*
X160338103Y-99066190D01*
X160421546Y-99195865D01*
X160548866Y-99282859D01*
X160700000Y-99313464D01*
X162000000Y-99313464D01*
X162141190Y-99286897D01*
X162270865Y-99203454D01*
X162357859Y-99076134D01*
X162388464Y-98925000D01*
X162388464Y-98225000D01*
X162361897Y-98083810D01*
X162278454Y-97954135D01*
X162151134Y-97867141D01*
X162000000Y-97836536D01*
X161027128Y-97836536D01*
X160956000Y-97765408D01*
X160956000Y-97563526D01*
X160917483Y-97369888D01*
X160807796Y-97205730D01*
X160658066Y-97056000D01*
X162036904Y-97056000D01*
X162171201Y-97190532D01*
X162448963Y-97305869D01*
X162749718Y-97306131D01*
X163027680Y-97191279D01*
X163163196Y-97056000D01*
X165460002Y-97056000D01*
X165653640Y-97017483D01*
X165817798Y-96907796D01*
X166801766Y-95923828D01*
X166911453Y-95759670D01*
X166949970Y-95566032D01*
X166949970Y-94005622D01*
X167087491Y-93868101D01*
X167147771Y-93827823D01*
X167257458Y-93663665D01*
X167295975Y-93470027D01*
X167295975Y-91902245D01*
X167257458Y-91708607D01*
X167147771Y-91544449D01*
X166865912Y-91262590D01*
X166701754Y-91152903D01*
X166508116Y-91114386D01*
X165579978Y-91114386D01*
X165538464Y-91072872D01*
X165538464Y-89875000D01*
X165511897Y-89733810D01*
X165428454Y-89604135D01*
X165301134Y-89517141D01*
X165150000Y-89486536D01*
X164150000Y-89486536D01*
X164008810Y-89513103D01*
X163879135Y-89596546D01*
X163792141Y-89723866D01*
X163761536Y-89875000D01*
X163761536Y-90593074D01*
X162064516Y-90593074D01*
X161870878Y-90631591D01*
X161706720Y-90741278D01*
X161436746Y-91011252D01*
X160459230Y-91011252D01*
X160453639Y-91007516D01*
X160260001Y-90968999D01*
X158439999Y-90968999D01*
X158385093Y-90979921D01*
X157264733Y-89859561D01*
X159871439Y-89859561D01*
X160191661Y-89795865D01*
X160227718Y-89788693D01*
X160529755Y-89586877D01*
X162234893Y-87881740D01*
X162436708Y-87579702D01*
X162507576Y-87223424D01*
X162507576Y-85209139D01*
X162436708Y-84852861D01*
X162351274Y-84725000D01*
X162288464Y-84630998D01*
X162288464Y-84200000D01*
X162264080Y-84070412D01*
X162288464Y-83950000D01*
X162288464Y-83550000D01*
X162261897Y-83408810D01*
X162218119Y-83340776D01*
X162301064Y-83219381D01*
X162335365Y-83050000D01*
X162335365Y-82650000D01*
X162305591Y-82491763D01*
X162277000Y-82447332D01*
X162277000Y-82354600D01*
X162301064Y-82319381D01*
X162335365Y-82150000D01*
X162335365Y-81650000D01*
X162305591Y-81491763D01*
X162277000Y-81447332D01*
X162277000Y-81341307D01*
X162285365Y-81300000D01*
X162285365Y-81127000D01*
X162869000Y-81127000D01*
X162869000Y-81300000D01*
X162869000Y-81300000D01*
G37*
X162869000Y-81300000D02*
X162898002Y-81445802D01*
X162980592Y-81569408D01*
X163104198Y-81651998D01*
X163250000Y-81681000D01*
X164150000Y-81681000D01*
X164295802Y-81651998D01*
X164419408Y-81569408D01*
X164501998Y-81445802D01*
X164531000Y-81300000D01*
X164531000Y-81127000D01*
X169973000Y-81127000D01*
X169973000Y-104273000D01*
X155552594Y-104273000D01*
X159700594Y-100125000D01*
X160311536Y-100125000D01*
X160311536Y-100825000D01*
X160338103Y-100966190D01*
X160421546Y-101095865D01*
X160548866Y-101182859D01*
X160700000Y-101213464D01*
X160844000Y-101213464D01*
X160844000Y-101261981D01*
X160829135Y-101271546D01*
X160742141Y-101398866D01*
X160711536Y-101550000D01*
X160711536Y-102150000D01*
X160738103Y-102291190D01*
X160821546Y-102420865D01*
X160948866Y-102507859D01*
X161100000Y-102538464D01*
X161600000Y-102538464D01*
X161741190Y-102511897D01*
X161870865Y-102428454D01*
X161957859Y-102301134D01*
X161988464Y-102150000D01*
X161988464Y-101842807D01*
X164468700Y-101842807D01*
X164731674Y-102479252D01*
X165218187Y-102966614D01*
X165854172Y-103230699D01*
X166542807Y-103231300D01*
X167179252Y-102968326D01*
X167666614Y-102481813D01*
X167930699Y-101845828D01*
X167931300Y-101157193D01*
X167668326Y-100520748D01*
X167181813Y-100033386D01*
X166545828Y-99769301D01*
X165857193Y-99768700D01*
X165220748Y-100031674D01*
X164733386Y-100518187D01*
X164469301Y-101154172D01*
X164468700Y-101842807D01*
X161988464Y-101842807D01*
X161988464Y-101550000D01*
X161961897Y-101408810D01*
X161878454Y-101279135D01*
X161856000Y-101263793D01*
X161856000Y-101213464D01*
X162000000Y-101213464D01*
X162141190Y-101186897D01*
X162270865Y-101103454D01*
X162357859Y-100976134D01*
X162388464Y-100825000D01*
X162388464Y-100125000D01*
X162361897Y-99983810D01*
X162278454Y-99854135D01*
X162151134Y-99767141D01*
X162000000Y-99736536D01*
X160700000Y-99736536D01*
X160558810Y-99763103D01*
X160429135Y-99846546D01*
X160342141Y-99973866D01*
X160311536Y-100125000D01*
X159700594Y-100125000D01*
X159887821Y-99937773D01*
X159997508Y-99773615D01*
X160036025Y-99579977D01*
X160036025Y-98533071D01*
X160164364Y-98404956D01*
X160311536Y-98552128D01*
X160311536Y-98925000D01*
X160338103Y-99066190D01*
X160421546Y-99195865D01*
X160548866Y-99282859D01*
X160700000Y-99313464D01*
X162000000Y-99313464D01*
X162141190Y-99286897D01*
X162270865Y-99203454D01*
X162357859Y-99076134D01*
X162388464Y-98925000D01*
X162388464Y-98225000D01*
X162361897Y-98083810D01*
X162278454Y-97954135D01*
X162151134Y-97867141D01*
X162000000Y-97836536D01*
X161027128Y-97836536D01*
X160956000Y-97765408D01*
X160956000Y-97563526D01*
X160917483Y-97369888D01*
X160807796Y-97205730D01*
X160658066Y-97056000D01*
X162036904Y-97056000D01*
X162171201Y-97190532D01*
X162448963Y-97305869D01*
X162749718Y-97306131D01*
X163027680Y-97191279D01*
X163163196Y-97056000D01*
X165460002Y-97056000D01*
X165653640Y-97017483D01*
X165817798Y-96907796D01*
X166801766Y-95923828D01*
X166911453Y-95759670D01*
X166949970Y-95566032D01*
X166949970Y-94005622D01*
X167087491Y-93868101D01*
X167147771Y-93827823D01*
X167257458Y-93663665D01*
X167295975Y-93470027D01*
X167295975Y-91902245D01*
X167257458Y-91708607D01*
X167147771Y-91544449D01*
X166865912Y-91262590D01*
X166701754Y-91152903D01*
X166508116Y-91114386D01*
X165579978Y-91114386D01*
X165538464Y-91072872D01*
X165538464Y-89875000D01*
X165511897Y-89733810D01*
X165428454Y-89604135D01*
X165301134Y-89517141D01*
X165150000Y-89486536D01*
X164150000Y-89486536D01*
X164008810Y-89513103D01*
X163879135Y-89596546D01*
X163792141Y-89723866D01*
X163761536Y-89875000D01*
X163761536Y-90593074D01*
X162064516Y-90593074D01*
X161870878Y-90631591D01*
X161706720Y-90741278D01*
X161436746Y-91011252D01*
X160459230Y-91011252D01*
X160453639Y-91007516D01*
X160260001Y-90968999D01*
X158439999Y-90968999D01*
X158385093Y-90979921D01*
X157264733Y-89859561D01*
X159871439Y-89859561D01*
X160191661Y-89795865D01*
X160227718Y-89788693D01*
X160529755Y-89586877D01*
X162234893Y-87881740D01*
X162436708Y-87579702D01*
X162507576Y-87223424D01*
X162507576Y-85209139D01*
X162436708Y-84852861D01*
X162351274Y-84725000D01*
X162288464Y-84630998D01*
X162288464Y-84200000D01*
X162264080Y-84070412D01*
X162288464Y-83950000D01*
X162288464Y-83550000D01*
X162261897Y-83408810D01*
X162218119Y-83340776D01*
X162301064Y-83219381D01*
X162335365Y-83050000D01*
X162335365Y-82650000D01*
X162305591Y-82491763D01*
X162277000Y-82447332D01*
X162277000Y-82354600D01*
X162301064Y-82319381D01*
X162335365Y-82150000D01*
X162335365Y-81650000D01*
X162305591Y-81491763D01*
X162277000Y-81447332D01*
X162277000Y-81341307D01*
X162285365Y-81300000D01*
X162285365Y-81127000D01*
X162869000Y-81127000D01*
X162869000Y-81300000D01*
G36*
X156596546Y-94470865D02*
X156723866Y-94557859D01*
X156875000Y-94588464D01*
X157797872Y-94588464D01*
X157856504Y-94647096D01*
X157894693Y-94839084D01*
X158004380Y-95003242D01*
X158009976Y-95006981D01*
X158017203Y-95017797D01*
X158876064Y-95876658D01*
X159040222Y-95986345D01*
X159233860Y-96024862D01*
X159320680Y-96024862D01*
X159446629Y-96150811D01*
X159308116Y-96208043D01*
X159095264Y-96420523D01*
X158979927Y-96698285D01*
X158979665Y-96999040D01*
X159094517Y-97277002D01*
X159133337Y-97315890D01*
X159102345Y-97328696D01*
X158889493Y-97541176D01*
X158774156Y-97818938D01*
X158773894Y-98119693D01*
X158888746Y-98397655D01*
X159024025Y-98533171D01*
X159024025Y-99370385D01*
X154500409Y-103894001D01*
X146825919Y-103894001D01*
X146825588Y-103738910D01*
X148146090Y-103738910D01*
X148339728Y-103700393D01*
X148385268Y-103669964D01*
X148402500Y-103669964D01*
X148543690Y-103643397D01*
X148673365Y-103559954D01*
X148750905Y-103446470D01*
X148819046Y-103552365D01*
X148946366Y-103639359D01*
X149097500Y-103669964D01*
X149402500Y-103669964D01*
X149543690Y-103643397D01*
X149673365Y-103559954D01*
X149760359Y-103432634D01*
X149790964Y-103281500D01*
X149790964Y-103140964D01*
X150431500Y-103140964D01*
X150572690Y-103114397D01*
X150585739Y-103106000D01*
X152050000Y-103106000D01*
X152243638Y-103067483D01*
X152407796Y-102957796D01*
X152757796Y-102607796D01*
X152792317Y-102556131D01*
X152867483Y-102443638D01*
X152906000Y-102250000D01*
X152906000Y-101800000D01*
X152867483Y-101606362D01*
X152757796Y-101442204D01*
X151355999Y-100040407D01*
X151355999Y-99050301D01*
X151371201Y-99065530D01*
X151648963Y-99180867D01*
X151949718Y-99181129D01*
X152227680Y-99066277D01*
X152440532Y-98853797D01*
X152555869Y-98576035D01*
X152556054Y-98363804D01*
X152566190Y-98361897D01*
X152695865Y-98278454D01*
X152745617Y-98205639D01*
X152748866Y-98207859D01*
X152900000Y-98238464D01*
X153222872Y-98238464D01*
X153686536Y-98702128D01*
X153686536Y-99500000D01*
X153713103Y-99641190D01*
X153796546Y-99770865D01*
X153923866Y-99857859D01*
X154075000Y-99888464D01*
X155325000Y-99888464D01*
X155466190Y-99861897D01*
X155595865Y-99778454D01*
X155682859Y-99651134D01*
X155713464Y-99500000D01*
X155713464Y-98500000D01*
X155686897Y-98358810D01*
X155609457Y-98238464D01*
X156400000Y-98238464D01*
X156541190Y-98211897D01*
X156670865Y-98128454D01*
X156686536Y-98105519D01*
X156686536Y-98200000D01*
X156713103Y-98341190D01*
X156796546Y-98470865D01*
X156923866Y-98557859D01*
X157075000Y-98588464D01*
X158325000Y-98588464D01*
X158466190Y-98561897D01*
X158595865Y-98478454D01*
X158682859Y-98351134D01*
X158713464Y-98200000D01*
X158713464Y-97200000D01*
X158686897Y-97058810D01*
X158603454Y-96929135D01*
X158476134Y-96842141D01*
X158325000Y-96811536D01*
X157527128Y-96811536D01*
X157307796Y-96592204D01*
X157143638Y-96482517D01*
X156950000Y-96444000D01*
X156788464Y-96444000D01*
X156788464Y-96050000D01*
X156761897Y-95908810D01*
X156678454Y-95779135D01*
X156551134Y-95692141D01*
X156400000Y-95661536D01*
X155727128Y-95661536D01*
X155671568Y-95605976D01*
X155849718Y-95606131D01*
X156127680Y-95491279D01*
X156340532Y-95278799D01*
X156455869Y-95001037D01*
X156456131Y-94700282D01*
X156417337Y-94606395D01*
X156443860Y-94595436D01*
X156585635Y-94453909D01*
X156596546Y-94470865D01*
X156596546Y-94470865D01*
G37*
X156596546Y-94470865D02*
X156723866Y-94557859D01*
X156875000Y-94588464D01*
X157797872Y-94588464D01*
X157856504Y-94647096D01*
X157894693Y-94839084D01*
X158004380Y-95003242D01*
X158009976Y-95006981D01*
X158017203Y-95017797D01*
X158876064Y-95876658D01*
X159040222Y-95986345D01*
X159233860Y-96024862D01*
X159320680Y-96024862D01*
X159446629Y-96150811D01*
X159308116Y-96208043D01*
X159095264Y-96420523D01*
X158979927Y-96698285D01*
X158979665Y-96999040D01*
X159094517Y-97277002D01*
X159133337Y-97315890D01*
X159102345Y-97328696D01*
X158889493Y-97541176D01*
X158774156Y-97818938D01*
X158773894Y-98119693D01*
X158888746Y-98397655D01*
X159024025Y-98533171D01*
X159024025Y-99370385D01*
X154500409Y-103894001D01*
X146825919Y-103894001D01*
X146825588Y-103738910D01*
X148146090Y-103738910D01*
X148339728Y-103700393D01*
X148385268Y-103669964D01*
X148402500Y-103669964D01*
X148543690Y-103643397D01*
X148673365Y-103559954D01*
X148750905Y-103446470D01*
X148819046Y-103552365D01*
X148946366Y-103639359D01*
X149097500Y-103669964D01*
X149402500Y-103669964D01*
X149543690Y-103643397D01*
X149673365Y-103559954D01*
X149760359Y-103432634D01*
X149790964Y-103281500D01*
X149790964Y-103140964D01*
X150431500Y-103140964D01*
X150572690Y-103114397D01*
X150585739Y-103106000D01*
X152050000Y-103106000D01*
X152243638Y-103067483D01*
X152407796Y-102957796D01*
X152757796Y-102607796D01*
X152792317Y-102556131D01*
X152867483Y-102443638D01*
X152906000Y-102250000D01*
X152906000Y-101800000D01*
X152867483Y-101606362D01*
X152757796Y-101442204D01*
X151355999Y-100040407D01*
X151355999Y-99050301D01*
X151371201Y-99065530D01*
X151648963Y-99180867D01*
X151949718Y-99181129D01*
X152227680Y-99066277D01*
X152440532Y-98853797D01*
X152555869Y-98576035D01*
X152556054Y-98363804D01*
X152566190Y-98361897D01*
X152695865Y-98278454D01*
X152745617Y-98205639D01*
X152748866Y-98207859D01*
X152900000Y-98238464D01*
X153222872Y-98238464D01*
X153686536Y-98702128D01*
X153686536Y-99500000D01*
X153713103Y-99641190D01*
X153796546Y-99770865D01*
X153923866Y-99857859D01*
X154075000Y-99888464D01*
X155325000Y-99888464D01*
X155466190Y-99861897D01*
X155595865Y-99778454D01*
X155682859Y-99651134D01*
X155713464Y-99500000D01*
X155713464Y-98500000D01*
X155686897Y-98358810D01*
X155609457Y-98238464D01*
X156400000Y-98238464D01*
X156541190Y-98211897D01*
X156670865Y-98128454D01*
X156686536Y-98105519D01*
X156686536Y-98200000D01*
X156713103Y-98341190D01*
X156796546Y-98470865D01*
X156923866Y-98557859D01*
X157075000Y-98588464D01*
X158325000Y-98588464D01*
X158466190Y-98561897D01*
X158595865Y-98478454D01*
X158682859Y-98351134D01*
X158713464Y-98200000D01*
X158713464Y-97200000D01*
X158686897Y-97058810D01*
X158603454Y-96929135D01*
X158476134Y-96842141D01*
X158325000Y-96811536D01*
X157527128Y-96811536D01*
X157307796Y-96592204D01*
X157143638Y-96482517D01*
X156950000Y-96444000D01*
X156788464Y-96444000D01*
X156788464Y-96050000D01*
X156761897Y-95908810D01*
X156678454Y-95779135D01*
X156551134Y-95692141D01*
X156400000Y-95661536D01*
X155727128Y-95661536D01*
X155671568Y-95605976D01*
X155849718Y-95606131D01*
X156127680Y-95491279D01*
X156340532Y-95278799D01*
X156455869Y-95001037D01*
X156456131Y-94700282D01*
X156417337Y-94606395D01*
X156443860Y-94595436D01*
X156585635Y-94453909D01*
X156596546Y-94470865D01*
G36*
X149097500Y-101119964D02*
X149402500Y-101119964D01*
X149432760Y-101114270D01*
X149347635Y-101169046D01*
X149260641Y-101296366D01*
X149230036Y-101447500D01*
X149230036Y-101752500D01*
X149256603Y-101893690D01*
X149340046Y-102023365D01*
X149431616Y-102085932D01*
X149402500Y-102080036D01*
X149097500Y-102080036D01*
X148956310Y-102106603D01*
X148826635Y-102190046D01*
X148749095Y-102303530D01*
X148680954Y-102197635D01*
X148553634Y-102110641D01*
X148402500Y-102080036D01*
X148269964Y-102080036D01*
X148269964Y-101947500D01*
X148250945Y-101846422D01*
X148269964Y-101752500D01*
X148269964Y-101447500D01*
X148250945Y-101346422D01*
X148269964Y-101252500D01*
X148269964Y-101119964D01*
X148402500Y-101119964D01*
X148503578Y-101100945D01*
X148597500Y-101119964D01*
X148902500Y-101119964D01*
X149003578Y-101100945D01*
X149097500Y-101119964D01*
X149097500Y-101119964D01*
G37*
X149097500Y-101119964D02*
X149402500Y-101119964D01*
X149432760Y-101114270D01*
X149347635Y-101169046D01*
X149260641Y-101296366D01*
X149230036Y-101447500D01*
X149230036Y-101752500D01*
X149256603Y-101893690D01*
X149340046Y-102023365D01*
X149431616Y-102085932D01*
X149402500Y-102080036D01*
X149097500Y-102080036D01*
X148956310Y-102106603D01*
X148826635Y-102190046D01*
X148749095Y-102303530D01*
X148680954Y-102197635D01*
X148553634Y-102110641D01*
X148402500Y-102080036D01*
X148269964Y-102080036D01*
X148269964Y-101947500D01*
X148250945Y-101846422D01*
X148269964Y-101752500D01*
X148269964Y-101447500D01*
X148250945Y-101346422D01*
X148269964Y-101252500D01*
X148269964Y-101119964D01*
X148402500Y-101119964D01*
X148503578Y-101100945D01*
X148597500Y-101119964D01*
X148902500Y-101119964D01*
X149003578Y-101100945D01*
X149097500Y-101119964D01*
G36*
X162211536Y-94477128D02*
X162211536Y-95550000D01*
X162238103Y-95691190D01*
X162321546Y-95820865D01*
X162345438Y-95837190D01*
X162172320Y-95908721D01*
X162036804Y-96044000D01*
X160771002Y-96044000D01*
X159888068Y-95161066D01*
X159723910Y-95051379D01*
X159530272Y-95012862D01*
X159443452Y-95012862D01*
X159219054Y-94788464D01*
X160000000Y-94788464D01*
X160141190Y-94761897D01*
X160270865Y-94678454D01*
X160357859Y-94551134D01*
X160361359Y-94533849D01*
X160443638Y-94517483D01*
X160607796Y-94407796D01*
X160684593Y-94330999D01*
X162065407Y-94330999D01*
X162211536Y-94477128D01*
X162211536Y-94477128D01*
G37*
X162211536Y-94477128D02*
X162211536Y-95550000D01*
X162238103Y-95691190D01*
X162321546Y-95820865D01*
X162345438Y-95837190D01*
X162172320Y-95908721D01*
X162036804Y-96044000D01*
X160771002Y-96044000D01*
X159888068Y-95161066D01*
X159723910Y-95051379D01*
X159530272Y-95012862D01*
X159443452Y-95012862D01*
X159219054Y-94788464D01*
X160000000Y-94788464D01*
X160141190Y-94761897D01*
X160270865Y-94678454D01*
X160357859Y-94551134D01*
X160361359Y-94533849D01*
X160443638Y-94517483D01*
X160607796Y-94407796D01*
X160684593Y-94330999D01*
X162065407Y-94330999D01*
X162211536Y-94477128D01*
G36*
X146844000Y-93300000D02*
X146882517Y-93493638D01*
X146992204Y-93657796D01*
X147341382Y-94006974D01*
X147308810Y-94013103D01*
X147179135Y-94096546D01*
X147092141Y-94223866D01*
X147061536Y-94375000D01*
X147061536Y-95172872D01*
X146807826Y-95426582D01*
X146802993Y-93164672D01*
X146844000Y-93123665D01*
X146844000Y-93300000D01*
X146844000Y-93300000D01*
G37*
X146844000Y-93300000D02*
X146882517Y-93493638D01*
X146992204Y-93657796D01*
X147341382Y-94006974D01*
X147308810Y-94013103D01*
X147179135Y-94096546D01*
X147092141Y-94223866D01*
X147061536Y-94375000D01*
X147061536Y-95172872D01*
X146807826Y-95426582D01*
X146802993Y-93164672D01*
X146844000Y-93123665D01*
X146844000Y-93300000D01*
G36*
X164861536Y-92502128D02*
X164861536Y-93425000D01*
X164888103Y-93566190D01*
X164971546Y-93695865D01*
X165098866Y-93782859D01*
X165250000Y-93813464D01*
X165937970Y-93813464D01*
X165937970Y-93954350D01*
X165850000Y-93936536D01*
X164850000Y-93936536D01*
X164708810Y-93963103D01*
X164579135Y-94046546D01*
X164492141Y-94173866D01*
X164461536Y-94325000D01*
X164461536Y-94344000D01*
X164188464Y-94344000D01*
X164188464Y-94150000D01*
X164161897Y-94008810D01*
X164078454Y-93879135D01*
X163951134Y-93792141D01*
X163800000Y-93761536D01*
X163193981Y-93761536D01*
X163143638Y-93727898D01*
X162950000Y-93689381D01*
X162870739Y-93705147D01*
X162632795Y-93467203D01*
X162484760Y-93368289D01*
X162488464Y-93350000D01*
X162488464Y-92056000D01*
X164415408Y-92056000D01*
X164861536Y-92502128D01*
X164861536Y-92502128D01*
G37*
X164861536Y-92502128D02*
X164861536Y-93425000D01*
X164888103Y-93566190D01*
X164971546Y-93695865D01*
X165098866Y-93782859D01*
X165250000Y-93813464D01*
X165937970Y-93813464D01*
X165937970Y-93954350D01*
X165850000Y-93936536D01*
X164850000Y-93936536D01*
X164708810Y-93963103D01*
X164579135Y-94046546D01*
X164492141Y-94173866D01*
X164461536Y-94325000D01*
X164461536Y-94344000D01*
X164188464Y-94344000D01*
X164188464Y-94150000D01*
X164161897Y-94008810D01*
X164078454Y-93879135D01*
X163951134Y-93792141D01*
X163800000Y-93761536D01*
X163193981Y-93761536D01*
X163143638Y-93727898D01*
X162950000Y-93689381D01*
X162870739Y-93705147D01*
X162632795Y-93467203D01*
X162484760Y-93368289D01*
X162488464Y-93350000D01*
X162488464Y-92056000D01*
X164415408Y-92056000D01*
X164861536Y-92502128D01*
G36*
X154575000Y-87488464D02*
X154611536Y-87488464D01*
X154611536Y-87525000D01*
X154635920Y-87654588D01*
X154611536Y-87775000D01*
X154611536Y-88025000D01*
X154638103Y-88166190D01*
X154721546Y-88295865D01*
X154848866Y-88382859D01*
X154931072Y-88399506D01*
X154858810Y-88413103D01*
X154729135Y-88496546D01*
X154642141Y-88623866D01*
X154611536Y-88775000D01*
X154611536Y-89025000D01*
X154635920Y-89154588D01*
X154611536Y-89275000D01*
X154611536Y-89525000D01*
X154635920Y-89654588D01*
X154611536Y-89775000D01*
X154611536Y-90025000D01*
X154635920Y-90154588D01*
X154611536Y-90275000D01*
X154611536Y-90525000D01*
X154635920Y-90654588D01*
X154611536Y-90775000D01*
X154611536Y-91025000D01*
X154635920Y-91154588D01*
X154611536Y-91275000D01*
X154611536Y-91525000D01*
X154635920Y-91654588D01*
X154611536Y-91775000D01*
X154611536Y-92025000D01*
X154638103Y-92166190D01*
X154721546Y-92295865D01*
X154848866Y-92382859D01*
X154931072Y-92399506D01*
X154858810Y-92413103D01*
X154729135Y-92496546D01*
X154642141Y-92623866D01*
X154611536Y-92775000D01*
X154611536Y-92811536D01*
X154575000Y-92811536D01*
X154445412Y-92835920D01*
X154325000Y-92811536D01*
X154075000Y-92811536D01*
X153945412Y-92835920D01*
X153825000Y-92811536D01*
X153575000Y-92811536D01*
X153445412Y-92835920D01*
X153325000Y-92811536D01*
X153075000Y-92811536D01*
X152945412Y-92835920D01*
X152825000Y-92811536D01*
X152575000Y-92811536D01*
X152445412Y-92835920D01*
X152325000Y-92811536D01*
X152075000Y-92811536D01*
X151945412Y-92835920D01*
X151825000Y-92811536D01*
X151575000Y-92811536D01*
X151445412Y-92835920D01*
X151325000Y-92811536D01*
X151075000Y-92811536D01*
X150945412Y-92835920D01*
X150825000Y-92811536D01*
X150575000Y-92811536D01*
X150445412Y-92835920D01*
X150325000Y-92811536D01*
X150075000Y-92811536D01*
X149945412Y-92835920D01*
X149825000Y-92811536D01*
X149575000Y-92811536D01*
X149433810Y-92838103D01*
X149304135Y-92921546D01*
X149288464Y-92944481D01*
X149288464Y-92775000D01*
X149264080Y-92645412D01*
X149288464Y-92525000D01*
X149288464Y-92275000D01*
X149264080Y-92145412D01*
X149288464Y-92025000D01*
X149288464Y-91775000D01*
X149264080Y-91645412D01*
X149288464Y-91525000D01*
X149288464Y-91275000D01*
X149261897Y-91133810D01*
X149178454Y-91004135D01*
X149051134Y-90917141D01*
X148968928Y-90900494D01*
X149041190Y-90886897D01*
X149170865Y-90803454D01*
X149257859Y-90676134D01*
X149288464Y-90525000D01*
X149288464Y-90275000D01*
X149264080Y-90145412D01*
X149288464Y-90025000D01*
X149288464Y-89775000D01*
X149264080Y-89645412D01*
X149288464Y-89525000D01*
X149288464Y-89275000D01*
X149264080Y-89145412D01*
X149288464Y-89025000D01*
X149288464Y-88775000D01*
X149264080Y-88645412D01*
X149288464Y-88525000D01*
X149288464Y-88275000D01*
X149264080Y-88145412D01*
X149288464Y-88025000D01*
X149288464Y-87775000D01*
X149264080Y-87645412D01*
X149288464Y-87525000D01*
X149288464Y-87488464D01*
X149325000Y-87488464D01*
X149454588Y-87464080D01*
X149575000Y-87488464D01*
X149825000Y-87488464D01*
X149954588Y-87464080D01*
X150075000Y-87488464D01*
X150325000Y-87488464D01*
X150454588Y-87464080D01*
X150575000Y-87488464D01*
X150825000Y-87488464D01*
X150954588Y-87464080D01*
X151075000Y-87488464D01*
X151325000Y-87488464D01*
X151454588Y-87464080D01*
X151575000Y-87488464D01*
X151825000Y-87488464D01*
X151954588Y-87464080D01*
X152075000Y-87488464D01*
X152325000Y-87488464D01*
X152454588Y-87464080D01*
X152575000Y-87488464D01*
X152825000Y-87488464D01*
X152954588Y-87464080D01*
X153075000Y-87488464D01*
X153325000Y-87488464D01*
X153454588Y-87464080D01*
X153575000Y-87488464D01*
X153825000Y-87488464D01*
X153954588Y-87464080D01*
X154075000Y-87488464D01*
X154325000Y-87488464D01*
X154454588Y-87464080D01*
X154575000Y-87488464D01*
X154575000Y-87488464D01*
G37*
X154575000Y-87488464D02*
X154611536Y-87488464D01*
X154611536Y-87525000D01*
X154635920Y-87654588D01*
X154611536Y-87775000D01*
X154611536Y-88025000D01*
X154638103Y-88166190D01*
X154721546Y-88295865D01*
X154848866Y-88382859D01*
X154931072Y-88399506D01*
X154858810Y-88413103D01*
X154729135Y-88496546D01*
X154642141Y-88623866D01*
X154611536Y-88775000D01*
X154611536Y-89025000D01*
X154635920Y-89154588D01*
X154611536Y-89275000D01*
X154611536Y-89525000D01*
X154635920Y-89654588D01*
X154611536Y-89775000D01*
X154611536Y-90025000D01*
X154635920Y-90154588D01*
X154611536Y-90275000D01*
X154611536Y-90525000D01*
X154635920Y-90654588D01*
X154611536Y-90775000D01*
X154611536Y-91025000D01*
X154635920Y-91154588D01*
X154611536Y-91275000D01*
X154611536Y-91525000D01*
X154635920Y-91654588D01*
X154611536Y-91775000D01*
X154611536Y-92025000D01*
X154638103Y-92166190D01*
X154721546Y-92295865D01*
X154848866Y-92382859D01*
X154931072Y-92399506D01*
X154858810Y-92413103D01*
X154729135Y-92496546D01*
X154642141Y-92623866D01*
X154611536Y-92775000D01*
X154611536Y-92811536D01*
X154575000Y-92811536D01*
X154445412Y-92835920D01*
X154325000Y-92811536D01*
X154075000Y-92811536D01*
X153945412Y-92835920D01*
X153825000Y-92811536D01*
X153575000Y-92811536D01*
X153445412Y-92835920D01*
X153325000Y-92811536D01*
X153075000Y-92811536D01*
X152945412Y-92835920D01*
X152825000Y-92811536D01*
X152575000Y-92811536D01*
X152445412Y-92835920D01*
X152325000Y-92811536D01*
X152075000Y-92811536D01*
X151945412Y-92835920D01*
X151825000Y-92811536D01*
X151575000Y-92811536D01*
X151445412Y-92835920D01*
X151325000Y-92811536D01*
X151075000Y-92811536D01*
X150945412Y-92835920D01*
X150825000Y-92811536D01*
X150575000Y-92811536D01*
X150445412Y-92835920D01*
X150325000Y-92811536D01*
X150075000Y-92811536D01*
X149945412Y-92835920D01*
X149825000Y-92811536D01*
X149575000Y-92811536D01*
X149433810Y-92838103D01*
X149304135Y-92921546D01*
X149288464Y-92944481D01*
X149288464Y-92775000D01*
X149264080Y-92645412D01*
X149288464Y-92525000D01*
X149288464Y-92275000D01*
X149264080Y-92145412D01*
X149288464Y-92025000D01*
X149288464Y-91775000D01*
X149264080Y-91645412D01*
X149288464Y-91525000D01*
X149288464Y-91275000D01*
X149261897Y-91133810D01*
X149178454Y-91004135D01*
X149051134Y-90917141D01*
X148968928Y-90900494D01*
X149041190Y-90886897D01*
X149170865Y-90803454D01*
X149257859Y-90676134D01*
X149288464Y-90525000D01*
X149288464Y-90275000D01*
X149264080Y-90145412D01*
X149288464Y-90025000D01*
X149288464Y-89775000D01*
X149264080Y-89645412D01*
X149288464Y-89525000D01*
X149288464Y-89275000D01*
X149264080Y-89145412D01*
X149288464Y-89025000D01*
X149288464Y-88775000D01*
X149264080Y-88645412D01*
X149288464Y-88525000D01*
X149288464Y-88275000D01*
X149264080Y-88145412D01*
X149288464Y-88025000D01*
X149288464Y-87775000D01*
X149264080Y-87645412D01*
X149288464Y-87525000D01*
X149288464Y-87488464D01*
X149325000Y-87488464D01*
X149454588Y-87464080D01*
X149575000Y-87488464D01*
X149825000Y-87488464D01*
X149954588Y-87464080D01*
X150075000Y-87488464D01*
X150325000Y-87488464D01*
X150454588Y-87464080D01*
X150575000Y-87488464D01*
X150825000Y-87488464D01*
X150954588Y-87464080D01*
X151075000Y-87488464D01*
X151325000Y-87488464D01*
X151454588Y-87464080D01*
X151575000Y-87488464D01*
X151825000Y-87488464D01*
X151954588Y-87464080D01*
X152075000Y-87488464D01*
X152325000Y-87488464D01*
X152454588Y-87464080D01*
X152575000Y-87488464D01*
X152825000Y-87488464D01*
X152954588Y-87464080D01*
X153075000Y-87488464D01*
X153325000Y-87488464D01*
X153454588Y-87464080D01*
X153575000Y-87488464D01*
X153825000Y-87488464D01*
X153954588Y-87464080D01*
X154075000Y-87488464D01*
X154325000Y-87488464D01*
X154454588Y-87464080D01*
X154575000Y-87488464D01*
G36*
X160914635Y-81300000D02*
X160923000Y-81344457D01*
X160923000Y-81445400D01*
X160898936Y-81480619D01*
X160864635Y-81650000D01*
X160864635Y-82150000D01*
X160894409Y-82308237D01*
X160923000Y-82352668D01*
X160923000Y-82445400D01*
X160898936Y-82480619D01*
X160864635Y-82650000D01*
X160864635Y-83050000D01*
X160894409Y-83208237D01*
X160980732Y-83342386D01*
X160942141Y-83398866D01*
X160911536Y-83550000D01*
X160911536Y-83950000D01*
X160935920Y-84079588D01*
X160911536Y-84200000D01*
X160911536Y-84542431D01*
X160910536Y-84543099D01*
X160708720Y-84845136D01*
X160637853Y-85201415D01*
X160645576Y-85240242D01*
X160645576Y-86837791D01*
X159485807Y-87997561D01*
X156855593Y-87997561D01*
X156499315Y-88068429D01*
X156197277Y-88270245D01*
X156131291Y-88369000D01*
X156036012Y-88369000D01*
X156043638Y-88367483D01*
X156207796Y-88257796D01*
X156857796Y-87607796D01*
X156967483Y-87443638D01*
X157006000Y-87250000D01*
X157006000Y-87109592D01*
X157327128Y-86788464D01*
X158125000Y-86788464D01*
X158266190Y-86761897D01*
X158395865Y-86678454D01*
X158482859Y-86551134D01*
X158513464Y-86400000D01*
X158513464Y-85400000D01*
X158486897Y-85258810D01*
X158403454Y-85129135D01*
X158276134Y-85042141D01*
X158125000Y-85011536D01*
X156875000Y-85011536D01*
X156799492Y-85025744D01*
X156786897Y-84958810D01*
X156703454Y-84829135D01*
X156576134Y-84742141D01*
X156455963Y-84717806D01*
X156456131Y-84525284D01*
X156341279Y-84247322D01*
X156128799Y-84034470D01*
X155851037Y-83919133D01*
X155550282Y-83918871D01*
X155324410Y-84012200D01*
X155324410Y-82218410D01*
X155285893Y-82024772D01*
X155176206Y-81860614D01*
X154442592Y-81127000D01*
X160914635Y-81127000D01*
X160914635Y-81300000D01*
X160914635Y-81300000D01*
G37*
X160914635Y-81300000D02*
X160923000Y-81344457D01*
X160923000Y-81445400D01*
X160898936Y-81480619D01*
X160864635Y-81650000D01*
X160864635Y-82150000D01*
X160894409Y-82308237D01*
X160923000Y-82352668D01*
X160923000Y-82445400D01*
X160898936Y-82480619D01*
X160864635Y-82650000D01*
X160864635Y-83050000D01*
X160894409Y-83208237D01*
X160980732Y-83342386D01*
X160942141Y-83398866D01*
X160911536Y-83550000D01*
X160911536Y-83950000D01*
X160935920Y-84079588D01*
X160911536Y-84200000D01*
X160911536Y-84542431D01*
X160910536Y-84543099D01*
X160708720Y-84845136D01*
X160637853Y-85201415D01*
X160645576Y-85240242D01*
X160645576Y-86837791D01*
X159485807Y-87997561D01*
X156855593Y-87997561D01*
X156499315Y-88068429D01*
X156197277Y-88270245D01*
X156131291Y-88369000D01*
X156036012Y-88369000D01*
X156043638Y-88367483D01*
X156207796Y-88257796D01*
X156857796Y-87607796D01*
X156967483Y-87443638D01*
X157006000Y-87250000D01*
X157006000Y-87109592D01*
X157327128Y-86788464D01*
X158125000Y-86788464D01*
X158266190Y-86761897D01*
X158395865Y-86678454D01*
X158482859Y-86551134D01*
X158513464Y-86400000D01*
X158513464Y-85400000D01*
X158486897Y-85258810D01*
X158403454Y-85129135D01*
X158276134Y-85042141D01*
X158125000Y-85011536D01*
X156875000Y-85011536D01*
X156799492Y-85025744D01*
X156786897Y-84958810D01*
X156703454Y-84829135D01*
X156576134Y-84742141D01*
X156455963Y-84717806D01*
X156456131Y-84525284D01*
X156341279Y-84247322D01*
X156128799Y-84034470D01*
X155851037Y-83919133D01*
X155550282Y-83918871D01*
X155324410Y-84012200D01*
X155324410Y-82218410D01*
X155285893Y-82024772D01*
X155176206Y-81860614D01*
X154442592Y-81127000D01*
X160914635Y-81127000D01*
X160914635Y-81300000D01*
G36*
X147947322Y-83458721D02*
X147734470Y-83671201D01*
X147619133Y-83948963D01*
X147618871Y-84249718D01*
X147733723Y-84527680D01*
X147750015Y-84544001D01*
X146784573Y-84544001D01*
X146782249Y-83456035D01*
X147953823Y-83456035D01*
X147947322Y-83458721D01*
X147947322Y-83458721D01*
G37*
X147947322Y-83458721D02*
X147734470Y-83671201D01*
X147619133Y-83948963D01*
X147618871Y-84249718D01*
X147733723Y-84527680D01*
X147750015Y-84544001D01*
X146784573Y-84544001D01*
X146782249Y-83456035D01*
X147953823Y-83456035D01*
X147947322Y-83458721D01*
G36*
X98311536Y-73300000D02*
X98338103Y-73441190D01*
X98421546Y-73570865D01*
X98548866Y-73657859D01*
X98700000Y-73688464D01*
X99094000Y-73688464D01*
X99094000Y-75600000D01*
X99132517Y-75793638D01*
X99242204Y-75957796D01*
X100655058Y-77370650D01*
X100819216Y-77480337D01*
X101012854Y-77518854D01*
X109768838Y-77518854D01*
X111219001Y-78969017D01*
X111219001Y-80687975D01*
X111257518Y-80881613D01*
X111367205Y-81045771D01*
X114079276Y-83757842D01*
X114243434Y-83867529D01*
X114437072Y-83906046D01*
X116261975Y-83906046D01*
X116244131Y-83949019D01*
X116243869Y-84249774D01*
X116358721Y-84527736D01*
X116571201Y-84740588D01*
X116848963Y-84855925D01*
X117149718Y-84856187D01*
X117427680Y-84741335D01*
X117571374Y-84597892D01*
X117723968Y-84567539D01*
X117888126Y-84457852D01*
X117989921Y-84356057D01*
X141021643Y-84356057D01*
X140878066Y-84415382D01*
X140665214Y-84627862D01*
X140549877Y-84905624D01*
X140549615Y-85206379D01*
X140664467Y-85484341D01*
X140799746Y-85619857D01*
X140799746Y-86090792D01*
X140798844Y-86088614D01*
X140691385Y-85981156D01*
X140550984Y-85923000D01*
X139371000Y-85923000D01*
X139275500Y-86018500D01*
X139275500Y-86684500D01*
X139295500Y-86684500D01*
X139295500Y-86685500D01*
X139275500Y-86685500D01*
X139275500Y-86705500D01*
X139274500Y-86705500D01*
X139274500Y-86685500D01*
X137788500Y-86685500D01*
X137693000Y-86781000D01*
X137693000Y-87140985D01*
X137751156Y-87281386D01*
X137788784Y-87319013D01*
X137717141Y-87423866D01*
X137686536Y-87575000D01*
X137686536Y-87864000D01*
X137643096Y-87864000D01*
X137586000Y-87806804D01*
X137586000Y-86655000D01*
X137567692Y-86562960D01*
X137674015Y-86607000D01*
X137711000Y-86607000D01*
X137788500Y-86684500D01*
X139274500Y-86684500D01*
X139274500Y-86018500D01*
X139179000Y-85923000D01*
X139132000Y-85923000D01*
X139132000Y-85696000D01*
X139036500Y-85600500D01*
X138250500Y-85600500D01*
X138250500Y-85620500D01*
X138249500Y-85620500D01*
X138249500Y-85600500D01*
X137463500Y-85600500D01*
X137368000Y-85696000D01*
X137368000Y-86227408D01*
X137138464Y-85997872D01*
X137138464Y-84975000D01*
X137124167Y-84899016D01*
X137368000Y-84899016D01*
X137368000Y-85504000D01*
X137463500Y-85599500D01*
X138249500Y-85599500D01*
X138249500Y-84688500D01*
X138250500Y-84688500D01*
X138250500Y-85599500D01*
X139036500Y-85599500D01*
X139132000Y-85504000D01*
X139132000Y-84899016D01*
X139073844Y-84758615D01*
X138966386Y-84651156D01*
X138825985Y-84593000D01*
X138346000Y-84593000D01*
X138250500Y-84688500D01*
X138249500Y-84688500D01*
X138154000Y-84593000D01*
X137674015Y-84593000D01*
X137533614Y-84651156D01*
X137426156Y-84758615D01*
X137368000Y-84899016D01*
X137124167Y-84899016D01*
X137111897Y-84833810D01*
X137028454Y-84704135D01*
X136901134Y-84617141D01*
X136750000Y-84586536D01*
X135750000Y-84586536D01*
X135608810Y-84613103D01*
X135479135Y-84696546D01*
X135392141Y-84823866D01*
X135361536Y-84975000D01*
X135361536Y-85094000D01*
X134325000Y-85094000D01*
X134131362Y-85132517D01*
X133967204Y-85242204D01*
X133317204Y-85892204D01*
X133207517Y-86056362D01*
X133196542Y-86111536D01*
X132900000Y-86111536D01*
X132758810Y-86138103D01*
X132629135Y-86221546D01*
X132542141Y-86348866D01*
X132511536Y-86500000D01*
X132511536Y-86644000D01*
X130163096Y-86644000D01*
X130028799Y-86509468D01*
X129751037Y-86394131D01*
X129450282Y-86393869D01*
X129172320Y-86508721D01*
X129036804Y-86644000D01*
X126888464Y-86644000D01*
X126888464Y-86500000D01*
X126861897Y-86358810D01*
X126778454Y-86229135D01*
X126651134Y-86142141D01*
X126500000Y-86111536D01*
X124950000Y-86111536D01*
X124808810Y-86138103D01*
X124679135Y-86221546D01*
X124592141Y-86348866D01*
X124561536Y-86500000D01*
X124561536Y-87732726D01*
X124525984Y-87718000D01*
X123896000Y-87718000D01*
X123800500Y-87813500D01*
X123800500Y-88449500D01*
X124736500Y-88449500D01*
X124832000Y-88354000D01*
X124832000Y-88164569D01*
X124950000Y-88188464D01*
X126500000Y-88188464D01*
X126641190Y-88161897D01*
X126770865Y-88078454D01*
X126857859Y-87951134D01*
X126888464Y-87800000D01*
X126888464Y-87656000D01*
X129036904Y-87656000D01*
X129171201Y-87790532D01*
X129448963Y-87905869D01*
X129749718Y-87906131D01*
X130027680Y-87791279D01*
X130163196Y-87656000D01*
X132511536Y-87656000D01*
X132511536Y-87800000D01*
X132538103Y-87941190D01*
X132621546Y-88070865D01*
X132748866Y-88157859D01*
X132900000Y-88188464D01*
X134450000Y-88188464D01*
X134591190Y-88161897D01*
X134720865Y-88078454D01*
X134807859Y-87951134D01*
X134838464Y-87800000D01*
X134838464Y-86500000D01*
X134811897Y-86358810D01*
X134728454Y-86229135D01*
X134601134Y-86142141D01*
X134515743Y-86124849D01*
X134534592Y-86106000D01*
X135361536Y-86106000D01*
X135361536Y-86225000D01*
X135388103Y-86366190D01*
X135471546Y-86495865D01*
X135598866Y-86582859D01*
X135750000Y-86613464D01*
X136322872Y-86613464D01*
X136574000Y-86864592D01*
X136574000Y-87806904D01*
X136439468Y-87941201D01*
X136324131Y-88218963D01*
X136323964Y-88410444D01*
X135742204Y-88992204D01*
X135632517Y-89156362D01*
X135621542Y-89211536D01*
X135475000Y-89211536D01*
X135333810Y-89238103D01*
X135204135Y-89321546D01*
X135117141Y-89448866D01*
X135086536Y-89600000D01*
X135086536Y-90600000D01*
X135113103Y-90741190D01*
X135196546Y-90870865D01*
X135323866Y-90957859D01*
X135475000Y-90988464D01*
X136725000Y-90988464D01*
X136866190Y-90961897D01*
X136908853Y-90934445D01*
X137686536Y-91712128D01*
X137686536Y-91953879D01*
X137624469Y-91953879D01*
X137412794Y-91742204D01*
X137248636Y-91632517D01*
X137113464Y-91605630D01*
X137113464Y-91600000D01*
X137086897Y-91458810D01*
X137003454Y-91329135D01*
X136876134Y-91242141D01*
X136725000Y-91211536D01*
X135475000Y-91211536D01*
X135333810Y-91238103D01*
X135204135Y-91321546D01*
X135117141Y-91448866D01*
X135087751Y-91594000D01*
X134838464Y-91594000D01*
X134838464Y-91000000D01*
X134811897Y-90858810D01*
X134728454Y-90729135D01*
X134601134Y-90642141D01*
X134450000Y-90611536D01*
X132900000Y-90611536D01*
X132758810Y-90638103D01*
X132629135Y-90721546D01*
X132542141Y-90848866D01*
X132511536Y-91000000D01*
X132511536Y-91144000D01*
X126888464Y-91144000D01*
X126888464Y-91000000D01*
X126861897Y-90858810D01*
X126778454Y-90729135D01*
X126651134Y-90642141D01*
X126500000Y-90611536D01*
X124950000Y-90611536D01*
X124838464Y-90632523D01*
X124838464Y-90000000D01*
X124811897Y-89858810D01*
X124728454Y-89729135D01*
X124601134Y-89642141D01*
X124450000Y-89611536D01*
X123150000Y-89611536D01*
X123008810Y-89638103D01*
X122879135Y-89721546D01*
X122792141Y-89848866D01*
X122761536Y-90000000D01*
X122761536Y-90700000D01*
X122788103Y-90841190D01*
X122871546Y-90970865D01*
X122998866Y-91057859D01*
X123150000Y-91088464D01*
X123822872Y-91088464D01*
X124561536Y-91827128D01*
X124561536Y-92300000D01*
X124588103Y-92441190D01*
X124671546Y-92570865D01*
X124798866Y-92657859D01*
X124950000Y-92688464D01*
X126500000Y-92688464D01*
X126641190Y-92661897D01*
X126770865Y-92578454D01*
X126857859Y-92451134D01*
X126888464Y-92300000D01*
X126888464Y-92156000D01*
X132511536Y-92156000D01*
X132511536Y-92300000D01*
X132538103Y-92441190D01*
X132621546Y-92570865D01*
X132748866Y-92657859D01*
X132900000Y-92688464D01*
X134450000Y-92688464D01*
X134591190Y-92661897D01*
X134678057Y-92606000D01*
X135087665Y-92606000D01*
X135113103Y-92741190D01*
X135169615Y-92829012D01*
X125864988Y-92829012D01*
X125671350Y-92867529D01*
X125507192Y-92977216D01*
X119217204Y-99267204D01*
X119107517Y-99431362D01*
X119069000Y-99625000D01*
X119069000Y-101456813D01*
X118881328Y-101582211D01*
X118668674Y-101900471D01*
X118594000Y-102275883D01*
X118594000Y-102824117D01*
X118668674Y-103199529D01*
X118881328Y-103517789D01*
X119199588Y-103730443D01*
X119575000Y-103805117D01*
X119950412Y-103730443D01*
X120268672Y-103517789D01*
X120481326Y-103199529D01*
X120556000Y-102824117D01*
X120556000Y-102275883D01*
X120481326Y-101900471D01*
X120268672Y-101582211D01*
X120081000Y-101456813D01*
X120081000Y-99834592D01*
X121076054Y-98839538D01*
X121069000Y-98875000D01*
X121069000Y-101456813D01*
X120881328Y-101582211D01*
X120668674Y-101900471D01*
X120594000Y-102275883D01*
X120594000Y-102824117D01*
X120668674Y-103199529D01*
X120881328Y-103517789D01*
X121199588Y-103730443D01*
X121575000Y-103805117D01*
X121950412Y-103730443D01*
X122268672Y-103517789D01*
X122481326Y-103199529D01*
X122556000Y-102824117D01*
X122556000Y-102275883D01*
X122481326Y-101900471D01*
X122268672Y-101582211D01*
X122081000Y-101456813D01*
X122081000Y-99084592D01*
X126874569Y-94291023D01*
X127043385Y-94291023D01*
X123217204Y-98117204D01*
X123107517Y-98281362D01*
X123069000Y-98475000D01*
X123069000Y-101456813D01*
X122881328Y-101582211D01*
X122668674Y-101900471D01*
X122594000Y-102275883D01*
X122594000Y-102824117D01*
X122668674Y-103199529D01*
X122881328Y-103517789D01*
X123199588Y-103730443D01*
X123575000Y-103805117D01*
X123950412Y-103730443D01*
X124268672Y-103517789D01*
X124481326Y-103199529D01*
X124556000Y-102824117D01*
X124556000Y-102275883D01*
X124481326Y-101900471D01*
X124268672Y-101582211D01*
X124081000Y-101456813D01*
X124081000Y-98684592D01*
X127657671Y-95107921D01*
X127776487Y-95107921D01*
X125217204Y-97667204D01*
X125107517Y-97831362D01*
X125069000Y-98025000D01*
X125069000Y-101456813D01*
X124881328Y-101582211D01*
X124668674Y-101900471D01*
X124594000Y-102275883D01*
X124594000Y-102824117D01*
X124668674Y-103199529D01*
X124881328Y-103517789D01*
X125199588Y-103730443D01*
X125575000Y-103805117D01*
X125950412Y-103730443D01*
X126268672Y-103517789D01*
X126481326Y-103199529D01*
X126556000Y-102824117D01*
X126556000Y-102275883D01*
X126594000Y-102275883D01*
X126594000Y-102824117D01*
X126668674Y-103199529D01*
X126881328Y-103517789D01*
X127199588Y-103730443D01*
X127575000Y-103805117D01*
X127950412Y-103730443D01*
X128268672Y-103517789D01*
X128481326Y-103199529D01*
X128556000Y-102824117D01*
X128556000Y-102646000D01*
X128593000Y-102646000D01*
X128593000Y-103475984D01*
X128651156Y-103616385D01*
X128758614Y-103723844D01*
X128899015Y-103782000D01*
X129479000Y-103782000D01*
X129574500Y-103686500D01*
X129574500Y-102550500D01*
X129575500Y-102550500D01*
X129575500Y-103686500D01*
X129671000Y-103782000D01*
X130250985Y-103782000D01*
X130391386Y-103723844D01*
X130498844Y-103616385D01*
X130557000Y-103475984D01*
X130557000Y-102646000D01*
X130461500Y-102550500D01*
X129575500Y-102550500D01*
X129574500Y-102550500D01*
X128688500Y-102550500D01*
X128593000Y-102646000D01*
X128556000Y-102646000D01*
X128556000Y-102275883D01*
X128481326Y-101900471D01*
X128296606Y-101624016D01*
X128593000Y-101624016D01*
X128593000Y-102454000D01*
X128688500Y-102549500D01*
X129574500Y-102549500D01*
X129574500Y-101413500D01*
X129575500Y-101413500D01*
X129575500Y-102549500D01*
X130461500Y-102549500D01*
X130557000Y-102454000D01*
X130557000Y-101624016D01*
X130498844Y-101483615D01*
X130391386Y-101376156D01*
X130250985Y-101318000D01*
X129671000Y-101318000D01*
X129575500Y-101413500D01*
X129574500Y-101413500D01*
X129479000Y-101318000D01*
X128899015Y-101318000D01*
X128758614Y-101376156D01*
X128651156Y-101483615D01*
X128593000Y-101624016D01*
X128296606Y-101624016D01*
X128268672Y-101582211D01*
X128081000Y-101456813D01*
X128081000Y-98559616D01*
X128100000Y-98563464D01*
X129100000Y-98563464D01*
X129241190Y-98536897D01*
X129370865Y-98453454D01*
X129457859Y-98326134D01*
X129488464Y-98175000D01*
X129488464Y-97646000D01*
X129718000Y-97646000D01*
X129718000Y-98250984D01*
X129776156Y-98391385D01*
X129883614Y-98498844D01*
X130024015Y-98557000D01*
X130504000Y-98557000D01*
X130599500Y-98461500D01*
X130599500Y-97550500D01*
X130600500Y-97550500D01*
X130600500Y-98461500D01*
X130696000Y-98557000D01*
X131175985Y-98557000D01*
X131316386Y-98498844D01*
X131423844Y-98391385D01*
X131482000Y-98250984D01*
X131482000Y-97646000D01*
X131386500Y-97550500D01*
X130600500Y-97550500D01*
X130599500Y-97550500D01*
X129813500Y-97550500D01*
X129718000Y-97646000D01*
X129488464Y-97646000D01*
X129488464Y-96925000D01*
X129474167Y-96849016D01*
X129718000Y-96849016D01*
X129718000Y-97454000D01*
X129813500Y-97549500D01*
X130599500Y-97549500D01*
X130599500Y-96638500D01*
X130600500Y-96638500D01*
X130600500Y-97549500D01*
X131386500Y-97549500D01*
X131482000Y-97454000D01*
X131482000Y-96849016D01*
X131423844Y-96708615D01*
X131316386Y-96601156D01*
X131175985Y-96543000D01*
X130696000Y-96543000D01*
X130600500Y-96638500D01*
X130599500Y-96638500D01*
X130504000Y-96543000D01*
X130024015Y-96543000D01*
X129883614Y-96601156D01*
X129776156Y-96708615D01*
X129718000Y-96849016D01*
X129474167Y-96849016D01*
X129461897Y-96783810D01*
X129378454Y-96654135D01*
X129251134Y-96567141D01*
X129100000Y-96536536D01*
X128100000Y-96536536D01*
X127958810Y-96563103D01*
X127829135Y-96646546D01*
X127742141Y-96773866D01*
X127711536Y-96925000D01*
X127711536Y-97071542D01*
X127656362Y-97082517D01*
X127556558Y-97149204D01*
X127492204Y-97192204D01*
X127217204Y-97467204D01*
X127107517Y-97631362D01*
X127069000Y-97825000D01*
X127069000Y-101456813D01*
X126881328Y-101582211D01*
X126668674Y-101900471D01*
X126594000Y-102275883D01*
X126556000Y-102275883D01*
X126481326Y-101900471D01*
X126268672Y-101582211D01*
X126081000Y-101456813D01*
X126081000Y-98234592D01*
X128169592Y-96146000D01*
X137718000Y-96146000D01*
X137718000Y-96475985D01*
X137776156Y-96616386D01*
X137883615Y-96723844D01*
X138024016Y-96782000D01*
X138654000Y-96782000D01*
X138749500Y-96686500D01*
X138749500Y-96050500D01*
X137813500Y-96050500D01*
X137718000Y-96146000D01*
X128169592Y-96146000D01*
X128434593Y-95880999D01*
X137718000Y-95880999D01*
X137718000Y-95954000D01*
X137813500Y-96049500D01*
X138749500Y-96049500D01*
X138749500Y-96029500D01*
X138750500Y-96029500D01*
X138750500Y-96049500D01*
X138770500Y-96049500D01*
X138770500Y-96050500D01*
X138750500Y-96050500D01*
X138750500Y-96686500D01*
X138846000Y-96782000D01*
X139475984Y-96782000D01*
X139616385Y-96723844D01*
X139698336Y-96641894D01*
X139698292Y-96692563D01*
X139813144Y-96970525D01*
X140025624Y-97183377D01*
X140303386Y-97298714D01*
X140604141Y-97298976D01*
X140882103Y-97184124D01*
X141017619Y-97048845D01*
X141564633Y-97048845D01*
X141758271Y-97010328D01*
X141793285Y-96986932D01*
X141793285Y-99750183D01*
X141738577Y-99727466D01*
X141437822Y-99727204D01*
X141313250Y-99778676D01*
X141355869Y-99676039D01*
X141356131Y-99375284D01*
X141314534Y-99274611D01*
X141316385Y-99273844D01*
X141423844Y-99166386D01*
X141482000Y-99025985D01*
X141482000Y-98696000D01*
X141386500Y-98600500D01*
X140450500Y-98600500D01*
X140450500Y-98620500D01*
X140449500Y-98620500D01*
X140449500Y-98600500D01*
X140429500Y-98600500D01*
X140429500Y-98599500D01*
X140449500Y-98599500D01*
X140449500Y-97963500D01*
X140450500Y-97963500D01*
X140450500Y-98599500D01*
X141386500Y-98599500D01*
X141482000Y-98504000D01*
X141482000Y-98174015D01*
X141423844Y-98033614D01*
X141316385Y-97926156D01*
X141175984Y-97868000D01*
X140546000Y-97868000D01*
X140450500Y-97963500D01*
X140449500Y-97963500D01*
X140354000Y-97868000D01*
X139788464Y-97868000D01*
X139788464Y-97600000D01*
X139761897Y-97458810D01*
X139678454Y-97329135D01*
X139551134Y-97242141D01*
X139400000Y-97211536D01*
X138100000Y-97211536D01*
X137958810Y-97238103D01*
X137829135Y-97321546D01*
X137742141Y-97448866D01*
X137711536Y-97600000D01*
X137711536Y-98300000D01*
X137738103Y-98441190D01*
X137821546Y-98570865D01*
X137948866Y-98657859D01*
X138100000Y-98688464D01*
X138244000Y-98688464D01*
X138244000Y-98761536D01*
X138200000Y-98761536D01*
X138058810Y-98788103D01*
X137929135Y-98871546D01*
X137842141Y-98998866D01*
X137811536Y-99150000D01*
X137811536Y-99700000D01*
X137838103Y-99841190D01*
X137921546Y-99970865D01*
X138038798Y-100050980D01*
X137929135Y-100121546D01*
X137842141Y-100248866D01*
X137811536Y-100400000D01*
X137811536Y-100950000D01*
X137838103Y-101091190D01*
X137921546Y-101220865D01*
X138038798Y-101300980D01*
X137929135Y-101371546D01*
X137842141Y-101498866D01*
X137811536Y-101650000D01*
X137811536Y-102200000D01*
X137838103Y-102341190D01*
X137921546Y-102470865D01*
X138038798Y-102550980D01*
X137929135Y-102621546D01*
X137842141Y-102748866D01*
X137811536Y-102900000D01*
X137811536Y-103450000D01*
X137838103Y-103591190D01*
X137921546Y-103720865D01*
X138048866Y-103807859D01*
X138200000Y-103838464D01*
X139250000Y-103838464D01*
X139391190Y-103811897D01*
X139520865Y-103728454D01*
X139607859Y-103601134D01*
X139638464Y-103450000D01*
X139638464Y-103227128D01*
X139857796Y-103007796D01*
X139967483Y-102843638D01*
X140005891Y-102650546D01*
X140192438Y-102463999D01*
X141886747Y-102463999D01*
X142080385Y-102425482D01*
X142244543Y-102315795D01*
X143115600Y-101444738D01*
X143121908Y-101435297D01*
X143225287Y-101280580D01*
X143263804Y-101086942D01*
X143263804Y-99535127D01*
X143373963Y-99580869D01*
X143674718Y-99581131D01*
X143820195Y-99521021D01*
X143837227Y-99611536D01*
X143700000Y-99611536D01*
X143558810Y-99638103D01*
X143429135Y-99721546D01*
X143342141Y-99848866D01*
X143311536Y-100000000D01*
X143311536Y-101250000D01*
X143338103Y-101391190D01*
X143421546Y-101520865D01*
X143517386Y-101586350D01*
X143272013Y-101586136D01*
X142994051Y-101700988D01*
X142781199Y-101913468D01*
X142665862Y-102191230D01*
X142665600Y-102491985D01*
X142780452Y-102769947D01*
X142992932Y-102982799D01*
X143270694Y-103098136D01*
X143462175Y-103098303D01*
X143954578Y-103590706D01*
X144118736Y-103700393D01*
X144312374Y-103738910D01*
X146317587Y-103738910D01*
X146317918Y-103894001D01*
X135371704Y-103894001D01*
X135395865Y-103878454D01*
X135482859Y-103751134D01*
X135513464Y-103600000D01*
X135513464Y-103271000D01*
X135768000Y-103271000D01*
X135768000Y-103525984D01*
X135826156Y-103666385D01*
X135933614Y-103773844D01*
X136074015Y-103832000D01*
X136579000Y-103832000D01*
X136674500Y-103736500D01*
X136674500Y-103175500D01*
X136675500Y-103175500D01*
X136675500Y-103736500D01*
X136771000Y-103832000D01*
X137275985Y-103832000D01*
X137416386Y-103773844D01*
X137523844Y-103666385D01*
X137582000Y-103525984D01*
X137582000Y-103271000D01*
X137486500Y-103175500D01*
X136675500Y-103175500D01*
X136674500Y-103175500D01*
X135863500Y-103175500D01*
X135768000Y-103271000D01*
X135513464Y-103271000D01*
X135513464Y-102831726D01*
X135873197Y-102471993D01*
X135990910Y-102552423D01*
X135933614Y-102576156D01*
X135826156Y-102683615D01*
X135768000Y-102824016D01*
X135768000Y-103079000D01*
X135863500Y-103174500D01*
X136674500Y-103174500D01*
X136674500Y-103154500D01*
X136675500Y-103154500D01*
X136675500Y-103174500D01*
X137486500Y-103174500D01*
X137582000Y-103079000D01*
X137582000Y-102824016D01*
X137523844Y-102683615D01*
X137416386Y-102576156D01*
X137357157Y-102551623D01*
X137470865Y-102478454D01*
X137557859Y-102351134D01*
X137588464Y-102200000D01*
X137588464Y-101650000D01*
X137561897Y-101508810D01*
X137478454Y-101379135D01*
X137361202Y-101299020D01*
X137470865Y-101228454D01*
X137557859Y-101101134D01*
X137588464Y-100950000D01*
X137588464Y-100400000D01*
X137561897Y-100258810D01*
X137478454Y-100129135D01*
X137359090Y-100047577D01*
X137416386Y-100023844D01*
X137523844Y-99916385D01*
X137582000Y-99775984D01*
X137582000Y-99521000D01*
X137486500Y-99425500D01*
X136675500Y-99425500D01*
X136675500Y-99445500D01*
X136674500Y-99445500D01*
X136674500Y-99425500D01*
X136654500Y-99425500D01*
X136654500Y-99424500D01*
X136674500Y-99424500D01*
X136674500Y-98863500D01*
X136675500Y-98863500D01*
X136675500Y-99424500D01*
X137486500Y-99424500D01*
X137582000Y-99329000D01*
X137582000Y-99074016D01*
X137523844Y-98933615D01*
X137416386Y-98826156D01*
X137275985Y-98768000D01*
X136771000Y-98768000D01*
X136675500Y-98863500D01*
X136674500Y-98863500D01*
X136579000Y-98768000D01*
X136074015Y-98768000D01*
X135933614Y-98826156D01*
X135826156Y-98933615D01*
X135782000Y-99040217D01*
X135782000Y-98599016D01*
X135723844Y-98458615D01*
X135616386Y-98351156D01*
X135492884Y-98300000D01*
X135616386Y-98248844D01*
X135723844Y-98141385D01*
X135782000Y-98000984D01*
X135782000Y-97396000D01*
X135686500Y-97300500D01*
X134900500Y-97300500D01*
X134900500Y-98211500D01*
X134989000Y-98300000D01*
X134900500Y-98388500D01*
X134900500Y-99299500D01*
X134920500Y-99299500D01*
X134920500Y-99300500D01*
X134900500Y-99300500D01*
X134900500Y-99320500D01*
X134899500Y-99320500D01*
X134899500Y-99300500D01*
X134113500Y-99300500D01*
X134018000Y-99396000D01*
X134018000Y-100000984D01*
X134076156Y-100141385D01*
X134146306Y-100211536D01*
X133875000Y-100211536D01*
X133733810Y-100238103D01*
X133604135Y-100321546D01*
X133517141Y-100448866D01*
X133486536Y-100600000D01*
X133486536Y-101467481D01*
X133406000Y-101386804D01*
X133406000Y-100312335D01*
X133541190Y-100286897D01*
X133670865Y-100203454D01*
X133757859Y-100076134D01*
X133788464Y-99925000D01*
X133788464Y-98675000D01*
X133761897Y-98533810D01*
X133678454Y-98404135D01*
X133551134Y-98317141D01*
X133468928Y-98300494D01*
X133541190Y-98286897D01*
X133670865Y-98203454D01*
X133757859Y-98076134D01*
X133788464Y-97925000D01*
X133788464Y-97396000D01*
X134018000Y-97396000D01*
X134018000Y-98000984D01*
X134076156Y-98141385D01*
X134183614Y-98248844D01*
X134307116Y-98300000D01*
X134183614Y-98351156D01*
X134076156Y-98458615D01*
X134018000Y-98599016D01*
X134018000Y-99204000D01*
X134113500Y-99299500D01*
X134899500Y-99299500D01*
X134899500Y-98388500D01*
X134811000Y-98300000D01*
X134899500Y-98211500D01*
X134899500Y-97300500D01*
X134113500Y-97300500D01*
X134018000Y-97396000D01*
X133788464Y-97396000D01*
X133788464Y-96675000D01*
X133774167Y-96599016D01*
X134018000Y-96599016D01*
X134018000Y-97204000D01*
X134113500Y-97299500D01*
X134899500Y-97299500D01*
X134899500Y-96388500D01*
X134900500Y-96388500D01*
X134900500Y-97299500D01*
X135686500Y-97299500D01*
X135782000Y-97204000D01*
X135782000Y-96599016D01*
X135723844Y-96458615D01*
X135616386Y-96351156D01*
X135475985Y-96293000D01*
X134996000Y-96293000D01*
X134900500Y-96388500D01*
X134899500Y-96388500D01*
X134804000Y-96293000D01*
X134324015Y-96293000D01*
X134183614Y-96351156D01*
X134076156Y-96458615D01*
X134018000Y-96599016D01*
X133774167Y-96599016D01*
X133761897Y-96533810D01*
X133678454Y-96404135D01*
X133551134Y-96317141D01*
X133400000Y-96286536D01*
X132400000Y-96286536D01*
X132258810Y-96313103D01*
X132129135Y-96396546D01*
X132042141Y-96523866D01*
X132011536Y-96675000D01*
X132011536Y-97925000D01*
X132038103Y-98066190D01*
X132121546Y-98195865D01*
X132248866Y-98282859D01*
X132331072Y-98299506D01*
X132258810Y-98313103D01*
X132129135Y-98396546D01*
X132042141Y-98523866D01*
X132011536Y-98675000D01*
X132011536Y-99925000D01*
X132038103Y-100066190D01*
X132121546Y-100195865D01*
X132248866Y-100282859D01*
X132394000Y-100312249D01*
X132394000Y-101386904D01*
X132259468Y-101521201D01*
X132144131Y-101798963D01*
X132143869Y-102099718D01*
X132258721Y-102377680D01*
X132471201Y-102590532D01*
X132748963Y-102705869D01*
X132940444Y-102706036D01*
X133486536Y-103252128D01*
X133486536Y-103600000D01*
X133513103Y-103741190D01*
X133596546Y-103870865D01*
X133630407Y-103894001D01*
X99909593Y-103894001D01*
X97379694Y-101364102D01*
X97500000Y-101388464D01*
X98200000Y-101388464D01*
X98341190Y-101361897D01*
X98470865Y-101278454D01*
X98557859Y-101151134D01*
X98588464Y-101000000D01*
X98588464Y-100356000D01*
X103437665Y-100356000D01*
X103463103Y-100491190D01*
X103546546Y-100620865D01*
X103673866Y-100707859D01*
X103825000Y-100738464D01*
X103926651Y-100738464D01*
X103959420Y-100903205D01*
X104074526Y-101075474D01*
X104094004Y-101094952D01*
X104093869Y-101249718D01*
X104208721Y-101527680D01*
X104421201Y-101740532D01*
X104698963Y-101855869D01*
X104999718Y-101856131D01*
X105238046Y-101757656D01*
X105246546Y-101770865D01*
X105373866Y-101857859D01*
X105525000Y-101888464D01*
X106723997Y-101888464D01*
X106711536Y-101950000D01*
X106711536Y-103250000D01*
X106738103Y-103391190D01*
X106821546Y-103520865D01*
X106948866Y-103607859D01*
X107100000Y-103638464D01*
X107800000Y-103638464D01*
X107941190Y-103611897D01*
X108070865Y-103528454D01*
X108157859Y-103401134D01*
X108188464Y-103250000D01*
X108188464Y-102696000D01*
X108618000Y-102696000D01*
X108618000Y-103325984D01*
X108676156Y-103466385D01*
X108783614Y-103573844D01*
X108924015Y-103632000D01*
X109254000Y-103632000D01*
X109349500Y-103536500D01*
X109349500Y-102600500D01*
X109350500Y-102600500D01*
X109350500Y-103536500D01*
X109446000Y-103632000D01*
X109775985Y-103632000D01*
X109916386Y-103573844D01*
X110023844Y-103466385D01*
X110082000Y-103325984D01*
X110082000Y-102696000D01*
X109986500Y-102600500D01*
X109350500Y-102600500D01*
X109349500Y-102600500D01*
X108713500Y-102600500D01*
X108618000Y-102696000D01*
X108188464Y-102696000D01*
X108188464Y-101950000D01*
X108161897Y-101808810D01*
X108078454Y-101679135D01*
X108018930Y-101638464D01*
X108771306Y-101638464D01*
X108676156Y-101733615D01*
X108618000Y-101874016D01*
X108618000Y-102504000D01*
X108713500Y-102599500D01*
X109349500Y-102599500D01*
X109349500Y-102579500D01*
X109350500Y-102579500D01*
X109350500Y-102599500D01*
X109986500Y-102599500D01*
X110082000Y-102504000D01*
X110082000Y-101874016D01*
X110023844Y-101733615D01*
X109916386Y-101626156D01*
X109775985Y-101568000D01*
X109484408Y-101568000D01*
X109541908Y-101531000D01*
X113461379Y-101531000D01*
X113573866Y-101607859D01*
X113725000Y-101638464D01*
X115175000Y-101638464D01*
X115316190Y-101611897D01*
X115445865Y-101528454D01*
X115532859Y-101401134D01*
X115563464Y-101250000D01*
X115563464Y-100881000D01*
X116141241Y-100881000D01*
X116334879Y-100842483D01*
X116499037Y-100732796D01*
X116907796Y-100324037D01*
X116932612Y-100286897D01*
X117017483Y-100159879D01*
X117056000Y-99966241D01*
X117056000Y-99450000D01*
X117017483Y-99256362D01*
X116907796Y-99092204D01*
X116586051Y-98770459D01*
X116777680Y-98691279D01*
X116913196Y-98556000D01*
X116925000Y-98556000D01*
X117118638Y-98517483D01*
X117282796Y-98407796D01*
X118227128Y-97463464D01*
X118900000Y-97463464D01*
X119041190Y-97436897D01*
X119170865Y-97353454D01*
X119257859Y-97226134D01*
X119288464Y-97075000D01*
X119288464Y-95825000D01*
X119261897Y-95683810D01*
X119178454Y-95554135D01*
X119051134Y-95467141D01*
X118900000Y-95436536D01*
X117900000Y-95436536D01*
X117845334Y-95446822D01*
X117905869Y-95301037D01*
X117906131Y-95000282D01*
X117791279Y-94722320D01*
X117731359Y-94662295D01*
X119533857Y-94662295D01*
X119571546Y-94720865D01*
X119698866Y-94807859D01*
X119850000Y-94838464D01*
X120850000Y-94838464D01*
X120991190Y-94811897D01*
X121120865Y-94728454D01*
X121207859Y-94601134D01*
X121238464Y-94450000D01*
X121238464Y-89450000D01*
X121211897Y-89308810D01*
X121128454Y-89179135D01*
X121001134Y-89092141D01*
X120850000Y-89061536D01*
X119850000Y-89061536D01*
X119708810Y-89088103D01*
X119579135Y-89171546D01*
X119492141Y-89298866D01*
X119461536Y-89450000D01*
X119461536Y-93650295D01*
X117003707Y-93650295D01*
X116810069Y-93688812D01*
X116645911Y-93798499D01*
X115552528Y-94891882D01*
X115536897Y-94808810D01*
X115495636Y-94744688D01*
X115520865Y-94728454D01*
X115607859Y-94601134D01*
X115638464Y-94450000D01*
X115638464Y-89450000D01*
X115611897Y-89308810D01*
X115528454Y-89179135D01*
X115401134Y-89092141D01*
X115250000Y-89061536D01*
X114250000Y-89061536D01*
X114108810Y-89088103D01*
X113979135Y-89171546D01*
X113892141Y-89298866D01*
X113861536Y-89450000D01*
X113861536Y-91380546D01*
X113828454Y-91329135D01*
X113701134Y-91242141D01*
X113550000Y-91211536D01*
X111050000Y-91211536D01*
X110908810Y-91238103D01*
X110779135Y-91321546D01*
X110692141Y-91448866D01*
X110661536Y-91600000D01*
X110661536Y-93400000D01*
X110688103Y-93541190D01*
X110771546Y-93670865D01*
X110898866Y-93757859D01*
X111050000Y-93788464D01*
X111794000Y-93788464D01*
X111794000Y-94579923D01*
X111623150Y-94579774D01*
X111345188Y-94694626D01*
X111132336Y-94907106D01*
X111016999Y-95184868D01*
X111016737Y-95485623D01*
X111034692Y-95529077D01*
X111017666Y-95529062D01*
X110739704Y-95643914D01*
X110526852Y-95856394D01*
X110411515Y-96134156D01*
X110411334Y-96341536D01*
X110130000Y-96341536D01*
X109988810Y-96368103D01*
X109859135Y-96451546D01*
X109772141Y-96578866D01*
X109741536Y-96730000D01*
X109741536Y-98622817D01*
X109718638Y-98607517D01*
X109663464Y-98596542D01*
X109663464Y-98200000D01*
X109643957Y-98096330D01*
X109663464Y-98000000D01*
X109663464Y-97550000D01*
X109643957Y-97446330D01*
X109663464Y-97350000D01*
X109663464Y-96900000D01*
X109645399Y-96803992D01*
X109657000Y-96775984D01*
X109657000Y-96571000D01*
X109561500Y-96475500D01*
X108550500Y-96475500D01*
X108550500Y-96495500D01*
X108549500Y-96495500D01*
X108549500Y-96475500D01*
X107538500Y-96475500D01*
X107443000Y-96571000D01*
X107443000Y-96775984D01*
X107455526Y-96806224D01*
X107436536Y-96900000D01*
X107436536Y-97269000D01*
X107213464Y-97269000D01*
X107213464Y-96400000D01*
X107186897Y-96258810D01*
X107103454Y-96129135D01*
X106976134Y-96042141D01*
X106955946Y-96038053D01*
X106956131Y-95825284D01*
X106932555Y-95768226D01*
X106966190Y-95761897D01*
X107053057Y-95706000D01*
X107436536Y-95706000D01*
X107436536Y-96050000D01*
X107454601Y-96146008D01*
X107443000Y-96174016D01*
X107443000Y-96379000D01*
X107538500Y-96474500D01*
X108549500Y-96474500D01*
X108549500Y-96454500D01*
X108550500Y-96454500D01*
X108550500Y-96474500D01*
X109561500Y-96474500D01*
X109657000Y-96379000D01*
X109657000Y-96174016D01*
X109644474Y-96143776D01*
X109663464Y-96050000D01*
X109663464Y-95600000D01*
X109643957Y-95496330D01*
X109663464Y-95400000D01*
X109663464Y-94950000D01*
X109636897Y-94808810D01*
X109553454Y-94679135D01*
X109426134Y-94592141D01*
X109275000Y-94561536D01*
X107825000Y-94561536D01*
X107683810Y-94588103D01*
X107596943Y-94644000D01*
X107213464Y-94644000D01*
X107213464Y-94400000D01*
X107186897Y-94258810D01*
X107103454Y-94129135D01*
X106976134Y-94042141D01*
X106825000Y-94011536D01*
X106731000Y-94011536D01*
X106731000Y-93660928D01*
X106744395Y-93628670D01*
X106771546Y-93670865D01*
X106898866Y-93757859D01*
X107050000Y-93788464D01*
X109550000Y-93788464D01*
X109691190Y-93761897D01*
X109820865Y-93678454D01*
X109907859Y-93551134D01*
X109938464Y-93400000D01*
X109938464Y-91600000D01*
X109911897Y-91458810D01*
X109828454Y-91329135D01*
X109701134Y-91242141D01*
X109550000Y-91211536D01*
X107050000Y-91211536D01*
X106908810Y-91238103D01*
X106779135Y-91321546D01*
X106692141Y-91448866D01*
X106661536Y-91600000D01*
X106661536Y-91994000D01*
X105309828Y-91994000D01*
X105116190Y-92032517D01*
X104952032Y-92142204D01*
X104456633Y-92637603D01*
X104346946Y-92801761D01*
X104308429Y-92995399D01*
X104308429Y-93878755D01*
X104296126Y-93848980D01*
X104083646Y-93636128D01*
X103805884Y-93520791D01*
X103505129Y-93520529D01*
X103227167Y-93635381D01*
X103014315Y-93847861D01*
X102898978Y-94125623D01*
X102898842Y-94281718D01*
X101324526Y-95856033D01*
X101209420Y-96028302D01*
X101188464Y-96133655D01*
X101188464Y-94950000D01*
X101161897Y-94808810D01*
X101078454Y-94679135D01*
X100951134Y-94592141D01*
X100800000Y-94561536D01*
X99200000Y-94561536D01*
X99058810Y-94588103D01*
X98929135Y-94671546D01*
X98842141Y-94798866D01*
X98811536Y-94950000D01*
X98811536Y-96169000D01*
X94038464Y-96169000D01*
X94038464Y-94950000D01*
X94011897Y-94808810D01*
X93928454Y-94679135D01*
X93801134Y-94592141D01*
X93650000Y-94561536D01*
X92050000Y-94561536D01*
X91908810Y-94588103D01*
X91779135Y-94671546D01*
X91692141Y-94798866D01*
X91661536Y-94950000D01*
X91661536Y-96169000D01*
X86869948Y-96169000D01*
X86783170Y-96082222D01*
X86891190Y-96061897D01*
X87020865Y-95978454D01*
X87107859Y-95851134D01*
X87138464Y-95700000D01*
X87138464Y-94500000D01*
X87111897Y-94358810D01*
X87028454Y-94229135D01*
X86901134Y-94142141D01*
X86750000Y-94111536D01*
X85050000Y-94111536D01*
X84908810Y-94138103D01*
X84779135Y-94221546D01*
X84692141Y-94348866D01*
X84661536Y-94500000D01*
X84661536Y-95700000D01*
X84688103Y-95841190D01*
X84771546Y-95970865D01*
X84898866Y-96057859D01*
X85050000Y-96088464D01*
X85396542Y-96088464D01*
X85409420Y-96153205D01*
X85524526Y-96325474D01*
X86274526Y-97075474D01*
X86446795Y-97190580D01*
X86650000Y-97231000D01*
X91661536Y-97231000D01*
X91661536Y-98450000D01*
X91688103Y-98591190D01*
X91771546Y-98720865D01*
X91898866Y-98807859D01*
X92050000Y-98838464D01*
X92319000Y-98838464D01*
X92319000Y-99363720D01*
X92229135Y-99421546D01*
X92142141Y-99548866D01*
X92111536Y-99700000D01*
X92111536Y-101000000D01*
X92138103Y-101141190D01*
X92221546Y-101270865D01*
X92348866Y-101357859D01*
X92500000Y-101388464D01*
X93200000Y-101388464D01*
X93341190Y-101361897D01*
X93470865Y-101278454D01*
X93557859Y-101151134D01*
X93588464Y-101000000D01*
X93588464Y-99700000D01*
X93561897Y-99558810D01*
X93478454Y-99429135D01*
X93381000Y-99362548D01*
X93381000Y-98838464D01*
X93650000Y-98838464D01*
X93791190Y-98811897D01*
X93920865Y-98728454D01*
X94007859Y-98601134D01*
X94038464Y-98450000D01*
X94038464Y-97231000D01*
X98811536Y-97231000D01*
X98811536Y-98450000D01*
X98838103Y-98591190D01*
X98921546Y-98720865D01*
X99048866Y-98807859D01*
X99200000Y-98838464D01*
X100800000Y-98838464D01*
X100941190Y-98811897D01*
X101070865Y-98728454D01*
X101157859Y-98601134D01*
X101188464Y-98450000D01*
X101188464Y-97206000D01*
X101574317Y-97206000D01*
X101700000Y-97231000D01*
X101903205Y-97190580D01*
X102075474Y-97075474D01*
X102190580Y-96903205D01*
X102231000Y-96700000D01*
X102231000Y-96451455D01*
X103649798Y-95032656D01*
X103804565Y-95032791D01*
X104082527Y-94917939D01*
X104295379Y-94705459D01*
X104308429Y-94674031D01*
X104308429Y-96961536D01*
X103825000Y-96961536D01*
X103683810Y-96988103D01*
X103554135Y-97071546D01*
X103467141Y-97198866D01*
X103436536Y-97350000D01*
X103436536Y-98350000D01*
X103463103Y-98491190D01*
X103546546Y-98620865D01*
X103673866Y-98707859D01*
X103825000Y-98738464D01*
X105075000Y-98738464D01*
X105136536Y-98726885D01*
X105136536Y-98973997D01*
X105075000Y-98961536D01*
X103825000Y-98961536D01*
X103683810Y-98988103D01*
X103554135Y-99071546D01*
X103467141Y-99198866D01*
X103437751Y-99344000D01*
X98353855Y-99344000D01*
X98351134Y-99342141D01*
X98200000Y-99311536D01*
X97500000Y-99311536D01*
X97358810Y-99338103D01*
X97229135Y-99421546D01*
X97142141Y-99548866D01*
X97111536Y-99700000D01*
X97111536Y-101000000D01*
X97133774Y-101118182D01*
X96688464Y-100672872D01*
X96688464Y-99700000D01*
X96661897Y-99558810D01*
X96578454Y-99429135D01*
X96451134Y-99342141D01*
X96300000Y-99311536D01*
X95600000Y-99311536D01*
X95458810Y-99338103D01*
X95348814Y-99408883D01*
X95251134Y-99342141D01*
X95100000Y-99311536D01*
X94400000Y-99311536D01*
X94258810Y-99338103D01*
X94129135Y-99421546D01*
X94042141Y-99548866D01*
X94011536Y-99700000D01*
X94011536Y-101000000D01*
X94038103Y-101141190D01*
X94121546Y-101270865D01*
X94248866Y-101357859D01*
X94400000Y-101388464D01*
X95100000Y-101388464D01*
X95241190Y-101361897D01*
X95351186Y-101291117D01*
X95448866Y-101357859D01*
X95600000Y-101388464D01*
X95972872Y-101388464D01*
X98857408Y-104273000D01*
X83227000Y-104273000D01*
X83227000Y-101842807D01*
X84468700Y-101842807D01*
X84731674Y-102479252D01*
X85218187Y-102966614D01*
X85854172Y-103230699D01*
X86542807Y-103231300D01*
X87179252Y-102968326D01*
X87666614Y-102481813D01*
X87930699Y-101845828D01*
X87931300Y-101157193D01*
X87668326Y-100520748D01*
X87181813Y-100033386D01*
X86545828Y-99769301D01*
X85857193Y-99768700D01*
X85220748Y-100031674D01*
X84733386Y-100518187D01*
X84469301Y-101154172D01*
X84468700Y-101842807D01*
X83227000Y-101842807D01*
X83227000Y-83500000D01*
X84661536Y-83500000D01*
X84661536Y-84700000D01*
X84688103Y-84841190D01*
X84771546Y-84970865D01*
X84898866Y-85057859D01*
X85050000Y-85088464D01*
X86750000Y-85088464D01*
X86891190Y-85061897D01*
X87020865Y-84978454D01*
X87107859Y-84851134D01*
X87138464Y-84700000D01*
X87138464Y-84606000D01*
X89856481Y-84606000D01*
X89863103Y-84641190D01*
X89946546Y-84770865D01*
X90073866Y-84857859D01*
X90225000Y-84888464D01*
X90371542Y-84888464D01*
X90382517Y-84943638D01*
X90492204Y-85107796D01*
X91342204Y-85957796D01*
X91506362Y-86067483D01*
X91700000Y-86106000D01*
X94611536Y-86106000D01*
X94611536Y-87350000D01*
X94638103Y-87491190D01*
X94721546Y-87620865D01*
X94848866Y-87707859D01*
X95000000Y-87738464D01*
X96600000Y-87738464D01*
X96741190Y-87711897D01*
X96870865Y-87628454D01*
X96957859Y-87501134D01*
X96988464Y-87350000D01*
X96988464Y-86106000D01*
X101761536Y-86106000D01*
X101761536Y-87350000D01*
X101788103Y-87491190D01*
X101871546Y-87620865D01*
X101998866Y-87707859D01*
X102150000Y-87738464D01*
X102444000Y-87738464D01*
X102444000Y-88150000D01*
X102482517Y-88343638D01*
X102592204Y-88507796D01*
X103694035Y-89609627D01*
X103693869Y-89799718D01*
X103808721Y-90077680D01*
X104021201Y-90290532D01*
X104298963Y-90405869D01*
X104599718Y-90406131D01*
X104877680Y-90291279D01*
X105090532Y-90078799D01*
X105205869Y-89801037D01*
X105206131Y-89500282D01*
X105091279Y-89222320D01*
X104878799Y-89009468D01*
X104601037Y-88894131D01*
X104409556Y-88893964D01*
X103456000Y-87940408D01*
X103456000Y-87738464D01*
X103750000Y-87738464D01*
X103891190Y-87711897D01*
X104020865Y-87628454D01*
X104107859Y-87501134D01*
X104138464Y-87350000D01*
X104138464Y-83850000D01*
X104111897Y-83708810D01*
X104028454Y-83579135D01*
X103901134Y-83492141D01*
X103750000Y-83461536D01*
X102150000Y-83461536D01*
X102008810Y-83488103D01*
X101879135Y-83571546D01*
X101792141Y-83698866D01*
X101761536Y-83850000D01*
X101761536Y-85094000D01*
X96988464Y-85094000D01*
X96988464Y-83850000D01*
X96961897Y-83708810D01*
X96878454Y-83579135D01*
X96751134Y-83492141D01*
X96600000Y-83461536D01*
X95000000Y-83461536D01*
X94858810Y-83488103D01*
X94729135Y-83571546D01*
X94642141Y-83698866D01*
X94611536Y-83850000D01*
X94611536Y-85094000D01*
X91909592Y-85094000D01*
X91653488Y-84837896D01*
X91745865Y-84778454D01*
X91832859Y-84651134D01*
X91863464Y-84500000D01*
X91863464Y-83500000D01*
X91836897Y-83358810D01*
X91753454Y-83229135D01*
X91626134Y-83142141D01*
X91475000Y-83111536D01*
X90225000Y-83111536D01*
X90083810Y-83138103D01*
X89954135Y-83221546D01*
X89867141Y-83348866D01*
X89836536Y-83500000D01*
X89836536Y-83594000D01*
X87138464Y-83594000D01*
X87138464Y-83500000D01*
X87111897Y-83358810D01*
X87028454Y-83229135D01*
X86901134Y-83142141D01*
X86750000Y-83111536D01*
X85050000Y-83111536D01*
X84908810Y-83138103D01*
X84779135Y-83221546D01*
X84692141Y-83348866D01*
X84661536Y-83500000D01*
X83227000Y-83500000D01*
X83227000Y-82100000D01*
X84644883Y-82100000D01*
X84719557Y-82475412D01*
X84932211Y-82793672D01*
X85250471Y-83006326D01*
X85625883Y-83081000D01*
X86174117Y-83081000D01*
X86549529Y-83006326D01*
X86867789Y-82793672D01*
X86993187Y-82606000D01*
X89856481Y-82606000D01*
X89863103Y-82641190D01*
X89946546Y-82770865D01*
X90073866Y-82857859D01*
X90225000Y-82888464D01*
X91475000Y-82888464D01*
X91616190Y-82861897D01*
X91745865Y-82778454D01*
X91832859Y-82651134D01*
X91862249Y-82506000D01*
X92550000Y-82506000D01*
X92743638Y-82467483D01*
X92907796Y-82357796D01*
X94559592Y-80706000D01*
X94611536Y-80706000D01*
X94611536Y-81950000D01*
X94638103Y-82091190D01*
X94721546Y-82220865D01*
X94848866Y-82307859D01*
X95000000Y-82338464D01*
X96600000Y-82338464D01*
X96741190Y-82311897D01*
X96870865Y-82228454D01*
X96957859Y-82101134D01*
X96988464Y-81950000D01*
X96988464Y-80706000D01*
X101761536Y-80706000D01*
X101761536Y-81950000D01*
X101788103Y-82091190D01*
X101871546Y-82220865D01*
X101998866Y-82307859D01*
X102150000Y-82338464D01*
X103750000Y-82338464D01*
X103891190Y-82311897D01*
X104020865Y-82228454D01*
X104107859Y-82101134D01*
X104138464Y-81950000D01*
X104138464Y-80706000D01*
X105890408Y-80706000D01*
X106644000Y-81459592D01*
X106644000Y-81536904D01*
X106509468Y-81671201D01*
X106394131Y-81948963D01*
X106393869Y-82249718D01*
X106508721Y-82527680D01*
X106644000Y-82663196D01*
X106644000Y-86211536D01*
X105400000Y-86211536D01*
X105258810Y-86238103D01*
X105129135Y-86321546D01*
X105042141Y-86448866D01*
X105011536Y-86600000D01*
X105011536Y-88200000D01*
X105038103Y-88341190D01*
X105121546Y-88470865D01*
X105248866Y-88557859D01*
X105400000Y-88588464D01*
X106644000Y-88588464D01*
X106644000Y-88690408D01*
X106590373Y-88744035D01*
X106400282Y-88743869D01*
X106122320Y-88858721D01*
X105909468Y-89071201D01*
X105794131Y-89348963D01*
X105793964Y-89540444D01*
X104540408Y-90794000D01*
X101188464Y-90794000D01*
X101188464Y-89550000D01*
X101161897Y-89408810D01*
X101078454Y-89279135D01*
X100951134Y-89192141D01*
X100800000Y-89161536D01*
X99200000Y-89161536D01*
X99058810Y-89188103D01*
X98929135Y-89271546D01*
X98842141Y-89398866D01*
X98811536Y-89550000D01*
X98811536Y-90794000D01*
X94038464Y-90794000D01*
X94038464Y-89550000D01*
X94011897Y-89408810D01*
X93928454Y-89279135D01*
X93801134Y-89192141D01*
X93650000Y-89161536D01*
X92050000Y-89161536D01*
X91908810Y-89188103D01*
X91779135Y-89271546D01*
X91692141Y-89398866D01*
X91661536Y-89550000D01*
X91661536Y-90794000D01*
X86850000Y-90794000D01*
X86656362Y-90832517D01*
X86492204Y-90942204D01*
X85542204Y-91892204D01*
X85432517Y-92056362D01*
X85411578Y-92161628D01*
X85250471Y-92193674D01*
X84932211Y-92406328D01*
X84719557Y-92724588D01*
X84644883Y-93100000D01*
X84719557Y-93475412D01*
X84932211Y-93793672D01*
X85250471Y-94006326D01*
X85625883Y-94081000D01*
X86174117Y-94081000D01*
X86549529Y-94006326D01*
X86867789Y-93793672D01*
X87080443Y-93475412D01*
X87155117Y-93100000D01*
X87080443Y-92724588D01*
X86867789Y-92406328D01*
X86622896Y-92242696D01*
X87059592Y-91806000D01*
X91661536Y-91806000D01*
X91661536Y-93050000D01*
X91688103Y-93191190D01*
X91771546Y-93320865D01*
X91898866Y-93407859D01*
X92050000Y-93438464D01*
X93650000Y-93438464D01*
X93791190Y-93411897D01*
X93920865Y-93328454D01*
X94007859Y-93201134D01*
X94038464Y-93050000D01*
X94038464Y-91806000D01*
X98811536Y-91806000D01*
X98811536Y-93050000D01*
X98838103Y-93191190D01*
X98921546Y-93320865D01*
X99048866Y-93407859D01*
X99200000Y-93438464D01*
X100800000Y-93438464D01*
X100941190Y-93411897D01*
X101070865Y-93328454D01*
X101157859Y-93201134D01*
X101188464Y-93050000D01*
X101188464Y-91806000D01*
X104750000Y-91806000D01*
X104943638Y-91767483D01*
X105107796Y-91657796D01*
X106509627Y-90255965D01*
X106699718Y-90256131D01*
X106977680Y-90141279D01*
X107190532Y-89928799D01*
X107305869Y-89651037D01*
X107306036Y-89459556D01*
X107507796Y-89257796D01*
X107617483Y-89093638D01*
X107656000Y-88900000D01*
X107656000Y-88588464D01*
X108900000Y-88588464D01*
X109041190Y-88561897D01*
X109170865Y-88478454D01*
X109257859Y-88351134D01*
X109288464Y-88200000D01*
X109288464Y-87496000D01*
X110418000Y-87496000D01*
X110418000Y-88275984D01*
X110476156Y-88416385D01*
X110583614Y-88523844D01*
X110724015Y-88582000D01*
X112454000Y-88582000D01*
X112549500Y-88486500D01*
X112549500Y-87400500D01*
X112550500Y-87400500D01*
X112550500Y-88486500D01*
X112646000Y-88582000D01*
X114375985Y-88582000D01*
X114462896Y-88546000D01*
X122768000Y-88546000D01*
X122768000Y-88875985D01*
X122826156Y-89016386D01*
X122933615Y-89123844D01*
X123074016Y-89182000D01*
X123704000Y-89182000D01*
X123799500Y-89086500D01*
X123799500Y-88450500D01*
X123800500Y-88450500D01*
X123800500Y-89086500D01*
X123896000Y-89182000D01*
X124525984Y-89182000D01*
X124666385Y-89123844D01*
X124773844Y-89016386D01*
X124832000Y-88875985D01*
X124832000Y-88546000D01*
X124736500Y-88450500D01*
X123800500Y-88450500D01*
X123799500Y-88450500D01*
X122863500Y-88450500D01*
X122768000Y-88546000D01*
X114462896Y-88546000D01*
X114516386Y-88523844D01*
X114623844Y-88416385D01*
X114682000Y-88275984D01*
X114682000Y-88024015D01*
X122768000Y-88024015D01*
X122768000Y-88354000D01*
X122863500Y-88449500D01*
X123799500Y-88449500D01*
X123799500Y-87813500D01*
X123704000Y-87718000D01*
X123074016Y-87718000D01*
X122933615Y-87776156D01*
X122826156Y-87883614D01*
X122768000Y-88024015D01*
X114682000Y-88024015D01*
X114682000Y-87496000D01*
X114586500Y-87400500D01*
X112550500Y-87400500D01*
X112549500Y-87400500D01*
X110513500Y-87400500D01*
X110418000Y-87496000D01*
X109288464Y-87496000D01*
X109288464Y-86600000D01*
X109274167Y-86524016D01*
X110418000Y-86524016D01*
X110418000Y-87304000D01*
X110513500Y-87399500D01*
X112549500Y-87399500D01*
X112549500Y-86313500D01*
X112550500Y-86313500D01*
X112550500Y-87399500D01*
X114586500Y-87399500D01*
X114682000Y-87304000D01*
X114682000Y-86524016D01*
X114623844Y-86383615D01*
X114516386Y-86276156D01*
X114375985Y-86218000D01*
X112646000Y-86218000D01*
X112550500Y-86313500D01*
X112549500Y-86313500D01*
X112454000Y-86218000D01*
X110724015Y-86218000D01*
X110583614Y-86276156D01*
X110476156Y-86383615D01*
X110418000Y-86524016D01*
X109274167Y-86524016D01*
X109261897Y-86458810D01*
X109178454Y-86329135D01*
X109051134Y-86242141D01*
X108900000Y-86211536D01*
X107656000Y-86211536D01*
X107656000Y-82663096D01*
X107790532Y-82528799D01*
X107905869Y-82251037D01*
X107906131Y-81950282D01*
X107791279Y-81672320D01*
X107656000Y-81536804D01*
X107656000Y-81250000D01*
X107617483Y-81056362D01*
X107507796Y-80892204D01*
X106457796Y-79842204D01*
X106293638Y-79732517D01*
X106100000Y-79694000D01*
X104138464Y-79694000D01*
X104138464Y-78450000D01*
X104111897Y-78308810D01*
X104028454Y-78179135D01*
X103901134Y-78092141D01*
X103750000Y-78061536D01*
X102150000Y-78061536D01*
X102008810Y-78088103D01*
X101879135Y-78171546D01*
X101792141Y-78298866D01*
X101761536Y-78450000D01*
X101761536Y-79694000D01*
X96988464Y-79694000D01*
X96988464Y-78450000D01*
X96961897Y-78308810D01*
X96878454Y-78179135D01*
X96751134Y-78092141D01*
X96600000Y-78061536D01*
X95000000Y-78061536D01*
X94858810Y-78088103D01*
X94729135Y-78171546D01*
X94642141Y-78298866D01*
X94611536Y-78450000D01*
X94611536Y-79694000D01*
X94350000Y-79694000D01*
X94156362Y-79732517D01*
X93992204Y-79842204D01*
X92340408Y-81494000D01*
X91862335Y-81494000D01*
X91836897Y-81358810D01*
X91753454Y-81229135D01*
X91626134Y-81142141D01*
X91475000Y-81111536D01*
X90225000Y-81111536D01*
X90083810Y-81138103D01*
X89954135Y-81221546D01*
X89867141Y-81348866D01*
X89836536Y-81500000D01*
X89836536Y-81594000D01*
X86993187Y-81594000D01*
X86867789Y-81406328D01*
X86549529Y-81193674D01*
X86174117Y-81119000D01*
X85625883Y-81119000D01*
X85250471Y-81193674D01*
X84932211Y-81406328D01*
X84719557Y-81724588D01*
X84644883Y-82100000D01*
X83227000Y-82100000D01*
X83227000Y-74842807D01*
X84468700Y-74842807D01*
X84731674Y-75479252D01*
X85218187Y-75966614D01*
X85854172Y-76230699D01*
X86542807Y-76231300D01*
X87179252Y-75968326D01*
X87666614Y-75481813D01*
X87930699Y-74845828D01*
X87931300Y-74157193D01*
X87668326Y-73520748D01*
X87181813Y-73033386D01*
X86545828Y-72769301D01*
X85857193Y-72768700D01*
X85220748Y-73031674D01*
X84733386Y-73518187D01*
X84469301Y-74154172D01*
X84468700Y-74842807D01*
X83227000Y-74842807D01*
X83227000Y-71527000D01*
X98311536Y-71527000D01*
X98311536Y-73300000D01*
X98311536Y-73300000D01*
G37*
X98311536Y-73300000D02*
X98338103Y-73441190D01*
X98421546Y-73570865D01*
X98548866Y-73657859D01*
X98700000Y-73688464D01*
X99094000Y-73688464D01*
X99094000Y-75600000D01*
X99132517Y-75793638D01*
X99242204Y-75957796D01*
X100655058Y-77370650D01*
X100819216Y-77480337D01*
X101012854Y-77518854D01*
X109768838Y-77518854D01*
X111219001Y-78969017D01*
X111219001Y-80687975D01*
X111257518Y-80881613D01*
X111367205Y-81045771D01*
X114079276Y-83757842D01*
X114243434Y-83867529D01*
X114437072Y-83906046D01*
X116261975Y-83906046D01*
X116244131Y-83949019D01*
X116243869Y-84249774D01*
X116358721Y-84527736D01*
X116571201Y-84740588D01*
X116848963Y-84855925D01*
X117149718Y-84856187D01*
X117427680Y-84741335D01*
X117571374Y-84597892D01*
X117723968Y-84567539D01*
X117888126Y-84457852D01*
X117989921Y-84356057D01*
X141021643Y-84356057D01*
X140878066Y-84415382D01*
X140665214Y-84627862D01*
X140549877Y-84905624D01*
X140549615Y-85206379D01*
X140664467Y-85484341D01*
X140799746Y-85619857D01*
X140799746Y-86090792D01*
X140798844Y-86088614D01*
X140691385Y-85981156D01*
X140550984Y-85923000D01*
X139371000Y-85923000D01*
X139275500Y-86018500D01*
X139275500Y-86684500D01*
X139295500Y-86684500D01*
X139295500Y-86685500D01*
X139275500Y-86685500D01*
X139275500Y-86705500D01*
X139274500Y-86705500D01*
X139274500Y-86685500D01*
X137788500Y-86685500D01*
X137693000Y-86781000D01*
X137693000Y-87140985D01*
X137751156Y-87281386D01*
X137788784Y-87319013D01*
X137717141Y-87423866D01*
X137686536Y-87575000D01*
X137686536Y-87864000D01*
X137643096Y-87864000D01*
X137586000Y-87806804D01*
X137586000Y-86655000D01*
X137567692Y-86562960D01*
X137674015Y-86607000D01*
X137711000Y-86607000D01*
X137788500Y-86684500D01*
X139274500Y-86684500D01*
X139274500Y-86018500D01*
X139179000Y-85923000D01*
X139132000Y-85923000D01*
X139132000Y-85696000D01*
X139036500Y-85600500D01*
X138250500Y-85600500D01*
X138250500Y-85620500D01*
X138249500Y-85620500D01*
X138249500Y-85600500D01*
X137463500Y-85600500D01*
X137368000Y-85696000D01*
X137368000Y-86227408D01*
X137138464Y-85997872D01*
X137138464Y-84975000D01*
X137124167Y-84899016D01*
X137368000Y-84899016D01*
X137368000Y-85504000D01*
X137463500Y-85599500D01*
X138249500Y-85599500D01*
X138249500Y-84688500D01*
X138250500Y-84688500D01*
X138250500Y-85599500D01*
X139036500Y-85599500D01*
X139132000Y-85504000D01*
X139132000Y-84899016D01*
X139073844Y-84758615D01*
X138966386Y-84651156D01*
X138825985Y-84593000D01*
X138346000Y-84593000D01*
X138250500Y-84688500D01*
X138249500Y-84688500D01*
X138154000Y-84593000D01*
X137674015Y-84593000D01*
X137533614Y-84651156D01*
X137426156Y-84758615D01*
X137368000Y-84899016D01*
X137124167Y-84899016D01*
X137111897Y-84833810D01*
X137028454Y-84704135D01*
X136901134Y-84617141D01*
X136750000Y-84586536D01*
X135750000Y-84586536D01*
X135608810Y-84613103D01*
X135479135Y-84696546D01*
X135392141Y-84823866D01*
X135361536Y-84975000D01*
X135361536Y-85094000D01*
X134325000Y-85094000D01*
X134131362Y-85132517D01*
X133967204Y-85242204D01*
X133317204Y-85892204D01*
X133207517Y-86056362D01*
X133196542Y-86111536D01*
X132900000Y-86111536D01*
X132758810Y-86138103D01*
X132629135Y-86221546D01*
X132542141Y-86348866D01*
X132511536Y-86500000D01*
X132511536Y-86644000D01*
X130163096Y-86644000D01*
X130028799Y-86509468D01*
X129751037Y-86394131D01*
X129450282Y-86393869D01*
X129172320Y-86508721D01*
X129036804Y-86644000D01*
X126888464Y-86644000D01*
X126888464Y-86500000D01*
X126861897Y-86358810D01*
X126778454Y-86229135D01*
X126651134Y-86142141D01*
X126500000Y-86111536D01*
X124950000Y-86111536D01*
X124808810Y-86138103D01*
X124679135Y-86221546D01*
X124592141Y-86348866D01*
X124561536Y-86500000D01*
X124561536Y-87732726D01*
X124525984Y-87718000D01*
X123896000Y-87718000D01*
X123800500Y-87813500D01*
X123800500Y-88449500D01*
X124736500Y-88449500D01*
X124832000Y-88354000D01*
X124832000Y-88164569D01*
X124950000Y-88188464D01*
X126500000Y-88188464D01*
X126641190Y-88161897D01*
X126770865Y-88078454D01*
X126857859Y-87951134D01*
X126888464Y-87800000D01*
X126888464Y-87656000D01*
X129036904Y-87656000D01*
X129171201Y-87790532D01*
X129448963Y-87905869D01*
X129749718Y-87906131D01*
X130027680Y-87791279D01*
X130163196Y-87656000D01*
X132511536Y-87656000D01*
X132511536Y-87800000D01*
X132538103Y-87941190D01*
X132621546Y-88070865D01*
X132748866Y-88157859D01*
X132900000Y-88188464D01*
X134450000Y-88188464D01*
X134591190Y-88161897D01*
X134720865Y-88078454D01*
X134807859Y-87951134D01*
X134838464Y-87800000D01*
X134838464Y-86500000D01*
X134811897Y-86358810D01*
X134728454Y-86229135D01*
X134601134Y-86142141D01*
X134515743Y-86124849D01*
X134534592Y-86106000D01*
X135361536Y-86106000D01*
X135361536Y-86225000D01*
X135388103Y-86366190D01*
X135471546Y-86495865D01*
X135598866Y-86582859D01*
X135750000Y-86613464D01*
X136322872Y-86613464D01*
X136574000Y-86864592D01*
X136574000Y-87806904D01*
X136439468Y-87941201D01*
X136324131Y-88218963D01*
X136323964Y-88410444D01*
X135742204Y-88992204D01*
X135632517Y-89156362D01*
X135621542Y-89211536D01*
X135475000Y-89211536D01*
X135333810Y-89238103D01*
X135204135Y-89321546D01*
X135117141Y-89448866D01*
X135086536Y-89600000D01*
X135086536Y-90600000D01*
X135113103Y-90741190D01*
X135196546Y-90870865D01*
X135323866Y-90957859D01*
X135475000Y-90988464D01*
X136725000Y-90988464D01*
X136866190Y-90961897D01*
X136908853Y-90934445D01*
X137686536Y-91712128D01*
X137686536Y-91953879D01*
X137624469Y-91953879D01*
X137412794Y-91742204D01*
X137248636Y-91632517D01*
X137113464Y-91605630D01*
X137113464Y-91600000D01*
X137086897Y-91458810D01*
X137003454Y-91329135D01*
X136876134Y-91242141D01*
X136725000Y-91211536D01*
X135475000Y-91211536D01*
X135333810Y-91238103D01*
X135204135Y-91321546D01*
X135117141Y-91448866D01*
X135087751Y-91594000D01*
X134838464Y-91594000D01*
X134838464Y-91000000D01*
X134811897Y-90858810D01*
X134728454Y-90729135D01*
X134601134Y-90642141D01*
X134450000Y-90611536D01*
X132900000Y-90611536D01*
X132758810Y-90638103D01*
X132629135Y-90721546D01*
X132542141Y-90848866D01*
X132511536Y-91000000D01*
X132511536Y-91144000D01*
X126888464Y-91144000D01*
X126888464Y-91000000D01*
X126861897Y-90858810D01*
X126778454Y-90729135D01*
X126651134Y-90642141D01*
X126500000Y-90611536D01*
X124950000Y-90611536D01*
X124838464Y-90632523D01*
X124838464Y-90000000D01*
X124811897Y-89858810D01*
X124728454Y-89729135D01*
X124601134Y-89642141D01*
X124450000Y-89611536D01*
X123150000Y-89611536D01*
X123008810Y-89638103D01*
X122879135Y-89721546D01*
X122792141Y-89848866D01*
X122761536Y-90000000D01*
X122761536Y-90700000D01*
X122788103Y-90841190D01*
X122871546Y-90970865D01*
X122998866Y-91057859D01*
X123150000Y-91088464D01*
X123822872Y-91088464D01*
X124561536Y-91827128D01*
X124561536Y-92300000D01*
X124588103Y-92441190D01*
X124671546Y-92570865D01*
X124798866Y-92657859D01*
X124950000Y-92688464D01*
X126500000Y-92688464D01*
X126641190Y-92661897D01*
X126770865Y-92578454D01*
X126857859Y-92451134D01*
X126888464Y-92300000D01*
X126888464Y-92156000D01*
X132511536Y-92156000D01*
X132511536Y-92300000D01*
X132538103Y-92441190D01*
X132621546Y-92570865D01*
X132748866Y-92657859D01*
X132900000Y-92688464D01*
X134450000Y-92688464D01*
X134591190Y-92661897D01*
X134678057Y-92606000D01*
X135087665Y-92606000D01*
X135113103Y-92741190D01*
X135169615Y-92829012D01*
X125864988Y-92829012D01*
X125671350Y-92867529D01*
X125507192Y-92977216D01*
X119217204Y-99267204D01*
X119107517Y-99431362D01*
X119069000Y-99625000D01*
X119069000Y-101456813D01*
X118881328Y-101582211D01*
X118668674Y-101900471D01*
X118594000Y-102275883D01*
X118594000Y-102824117D01*
X118668674Y-103199529D01*
X118881328Y-103517789D01*
X119199588Y-103730443D01*
X119575000Y-103805117D01*
X119950412Y-103730443D01*
X120268672Y-103517789D01*
X120481326Y-103199529D01*
X120556000Y-102824117D01*
X120556000Y-102275883D01*
X120481326Y-101900471D01*
X120268672Y-101582211D01*
X120081000Y-101456813D01*
X120081000Y-99834592D01*
X121076054Y-98839538D01*
X121069000Y-98875000D01*
X121069000Y-101456813D01*
X120881328Y-101582211D01*
X120668674Y-101900471D01*
X120594000Y-102275883D01*
X120594000Y-102824117D01*
X120668674Y-103199529D01*
X120881328Y-103517789D01*
X121199588Y-103730443D01*
X121575000Y-103805117D01*
X121950412Y-103730443D01*
X122268672Y-103517789D01*
X122481326Y-103199529D01*
X122556000Y-102824117D01*
X122556000Y-102275883D01*
X122481326Y-101900471D01*
X122268672Y-101582211D01*
X122081000Y-101456813D01*
X122081000Y-99084592D01*
X126874569Y-94291023D01*
X127043385Y-94291023D01*
X123217204Y-98117204D01*
X123107517Y-98281362D01*
X123069000Y-98475000D01*
X123069000Y-101456813D01*
X122881328Y-101582211D01*
X122668674Y-101900471D01*
X122594000Y-102275883D01*
X122594000Y-102824117D01*
X122668674Y-103199529D01*
X122881328Y-103517789D01*
X123199588Y-103730443D01*
X123575000Y-103805117D01*
X123950412Y-103730443D01*
X124268672Y-103517789D01*
X124481326Y-103199529D01*
X124556000Y-102824117D01*
X124556000Y-102275883D01*
X124481326Y-101900471D01*
X124268672Y-101582211D01*
X124081000Y-101456813D01*
X124081000Y-98684592D01*
X127657671Y-95107921D01*
X127776487Y-95107921D01*
X125217204Y-97667204D01*
X125107517Y-97831362D01*
X125069000Y-98025000D01*
X125069000Y-101456813D01*
X124881328Y-101582211D01*
X124668674Y-101900471D01*
X124594000Y-102275883D01*
X124594000Y-102824117D01*
X124668674Y-103199529D01*
X124881328Y-103517789D01*
X125199588Y-103730443D01*
X125575000Y-103805117D01*
X125950412Y-103730443D01*
X126268672Y-103517789D01*
X126481326Y-103199529D01*
X126556000Y-102824117D01*
X126556000Y-102275883D01*
X126594000Y-102275883D01*
X126594000Y-102824117D01*
X126668674Y-103199529D01*
X126881328Y-103517789D01*
X127199588Y-103730443D01*
X127575000Y-103805117D01*
X127950412Y-103730443D01*
X128268672Y-103517789D01*
X128481326Y-103199529D01*
X128556000Y-102824117D01*
X128556000Y-102646000D01*
X128593000Y-102646000D01*
X128593000Y-103475984D01*
X128651156Y-103616385D01*
X128758614Y-103723844D01*
X128899015Y-103782000D01*
X129479000Y-103782000D01*
X129574500Y-103686500D01*
X129574500Y-102550500D01*
X129575500Y-102550500D01*
X129575500Y-103686500D01*
X129671000Y-103782000D01*
X130250985Y-103782000D01*
X130391386Y-103723844D01*
X130498844Y-103616385D01*
X130557000Y-103475984D01*
X130557000Y-102646000D01*
X130461500Y-102550500D01*
X129575500Y-102550500D01*
X129574500Y-102550500D01*
X128688500Y-102550500D01*
X128593000Y-102646000D01*
X128556000Y-102646000D01*
X128556000Y-102275883D01*
X128481326Y-101900471D01*
X128296606Y-101624016D01*
X128593000Y-101624016D01*
X128593000Y-102454000D01*
X128688500Y-102549500D01*
X129574500Y-102549500D01*
X129574500Y-101413500D01*
X129575500Y-101413500D01*
X129575500Y-102549500D01*
X130461500Y-102549500D01*
X130557000Y-102454000D01*
X130557000Y-101624016D01*
X130498844Y-101483615D01*
X130391386Y-101376156D01*
X130250985Y-101318000D01*
X129671000Y-101318000D01*
X129575500Y-101413500D01*
X129574500Y-101413500D01*
X129479000Y-101318000D01*
X128899015Y-101318000D01*
X128758614Y-101376156D01*
X128651156Y-101483615D01*
X128593000Y-101624016D01*
X128296606Y-101624016D01*
X128268672Y-101582211D01*
X128081000Y-101456813D01*
X128081000Y-98559616D01*
X128100000Y-98563464D01*
X129100000Y-98563464D01*
X129241190Y-98536897D01*
X129370865Y-98453454D01*
X129457859Y-98326134D01*
X129488464Y-98175000D01*
X129488464Y-97646000D01*
X129718000Y-97646000D01*
X129718000Y-98250984D01*
X129776156Y-98391385D01*
X129883614Y-98498844D01*
X130024015Y-98557000D01*
X130504000Y-98557000D01*
X130599500Y-98461500D01*
X130599500Y-97550500D01*
X130600500Y-97550500D01*
X130600500Y-98461500D01*
X130696000Y-98557000D01*
X131175985Y-98557000D01*
X131316386Y-98498844D01*
X131423844Y-98391385D01*
X131482000Y-98250984D01*
X131482000Y-97646000D01*
X131386500Y-97550500D01*
X130600500Y-97550500D01*
X130599500Y-97550500D01*
X129813500Y-97550500D01*
X129718000Y-97646000D01*
X129488464Y-97646000D01*
X129488464Y-96925000D01*
X129474167Y-96849016D01*
X129718000Y-96849016D01*
X129718000Y-97454000D01*
X129813500Y-97549500D01*
X130599500Y-97549500D01*
X130599500Y-96638500D01*
X130600500Y-96638500D01*
X130600500Y-97549500D01*
X131386500Y-97549500D01*
X131482000Y-97454000D01*
X131482000Y-96849016D01*
X131423844Y-96708615D01*
X131316386Y-96601156D01*
X131175985Y-96543000D01*
X130696000Y-96543000D01*
X130600500Y-96638500D01*
X130599500Y-96638500D01*
X130504000Y-96543000D01*
X130024015Y-96543000D01*
X129883614Y-96601156D01*
X129776156Y-96708615D01*
X129718000Y-96849016D01*
X129474167Y-96849016D01*
X129461897Y-96783810D01*
X129378454Y-96654135D01*
X129251134Y-96567141D01*
X129100000Y-96536536D01*
X128100000Y-96536536D01*
X127958810Y-96563103D01*
X127829135Y-96646546D01*
X127742141Y-96773866D01*
X127711536Y-96925000D01*
X127711536Y-97071542D01*
X127656362Y-97082517D01*
X127556558Y-97149204D01*
X127492204Y-97192204D01*
X127217204Y-97467204D01*
X127107517Y-97631362D01*
X127069000Y-97825000D01*
X127069000Y-101456813D01*
X126881328Y-101582211D01*
X126668674Y-101900471D01*
X126594000Y-102275883D01*
X126556000Y-102275883D01*
X126481326Y-101900471D01*
X126268672Y-101582211D01*
X126081000Y-101456813D01*
X126081000Y-98234592D01*
X128169592Y-96146000D01*
X137718000Y-96146000D01*
X137718000Y-96475985D01*
X137776156Y-96616386D01*
X137883615Y-96723844D01*
X138024016Y-96782000D01*
X138654000Y-96782000D01*
X138749500Y-96686500D01*
X138749500Y-96050500D01*
X137813500Y-96050500D01*
X137718000Y-96146000D01*
X128169592Y-96146000D01*
X128434593Y-95880999D01*
X137718000Y-95880999D01*
X137718000Y-95954000D01*
X137813500Y-96049500D01*
X138749500Y-96049500D01*
X138749500Y-96029500D01*
X138750500Y-96029500D01*
X138750500Y-96049500D01*
X138770500Y-96049500D01*
X138770500Y-96050500D01*
X138750500Y-96050500D01*
X138750500Y-96686500D01*
X138846000Y-96782000D01*
X139475984Y-96782000D01*
X139616385Y-96723844D01*
X139698336Y-96641894D01*
X139698292Y-96692563D01*
X139813144Y-96970525D01*
X140025624Y-97183377D01*
X140303386Y-97298714D01*
X140604141Y-97298976D01*
X140882103Y-97184124D01*
X141017619Y-97048845D01*
X141564633Y-97048845D01*
X141758271Y-97010328D01*
X141793285Y-96986932D01*
X141793285Y-99750183D01*
X141738577Y-99727466D01*
X141437822Y-99727204D01*
X141313250Y-99778676D01*
X141355869Y-99676039D01*
X141356131Y-99375284D01*
X141314534Y-99274611D01*
X141316385Y-99273844D01*
X141423844Y-99166386D01*
X141482000Y-99025985D01*
X141482000Y-98696000D01*
X141386500Y-98600500D01*
X140450500Y-98600500D01*
X140450500Y-98620500D01*
X140449500Y-98620500D01*
X140449500Y-98600500D01*
X140429500Y-98600500D01*
X140429500Y-98599500D01*
X140449500Y-98599500D01*
X140449500Y-97963500D01*
X140450500Y-97963500D01*
X140450500Y-98599500D01*
X141386500Y-98599500D01*
X141482000Y-98504000D01*
X141482000Y-98174015D01*
X141423844Y-98033614D01*
X141316385Y-97926156D01*
X141175984Y-97868000D01*
X140546000Y-97868000D01*
X140450500Y-97963500D01*
X140449500Y-97963500D01*
X140354000Y-97868000D01*
X139788464Y-97868000D01*
X139788464Y-97600000D01*
X139761897Y-97458810D01*
X139678454Y-97329135D01*
X139551134Y-97242141D01*
X139400000Y-97211536D01*
X138100000Y-97211536D01*
X137958810Y-97238103D01*
X137829135Y-97321546D01*
X137742141Y-97448866D01*
X137711536Y-97600000D01*
X137711536Y-98300000D01*
X137738103Y-98441190D01*
X137821546Y-98570865D01*
X137948866Y-98657859D01*
X138100000Y-98688464D01*
X138244000Y-98688464D01*
X138244000Y-98761536D01*
X138200000Y-98761536D01*
X138058810Y-98788103D01*
X137929135Y-98871546D01*
X137842141Y-98998866D01*
X137811536Y-99150000D01*
X137811536Y-99700000D01*
X137838103Y-99841190D01*
X137921546Y-99970865D01*
X138038798Y-100050980D01*
X137929135Y-100121546D01*
X137842141Y-100248866D01*
X137811536Y-100400000D01*
X137811536Y-100950000D01*
X137838103Y-101091190D01*
X137921546Y-101220865D01*
X138038798Y-101300980D01*
X137929135Y-101371546D01*
X137842141Y-101498866D01*
X137811536Y-101650000D01*
X137811536Y-102200000D01*
X137838103Y-102341190D01*
X137921546Y-102470865D01*
X138038798Y-102550980D01*
X137929135Y-102621546D01*
X137842141Y-102748866D01*
X137811536Y-102900000D01*
X137811536Y-103450000D01*
X137838103Y-103591190D01*
X137921546Y-103720865D01*
X138048866Y-103807859D01*
X138200000Y-103838464D01*
X139250000Y-103838464D01*
X139391190Y-103811897D01*
X139520865Y-103728454D01*
X139607859Y-103601134D01*
X139638464Y-103450000D01*
X139638464Y-103227128D01*
X139857796Y-103007796D01*
X139967483Y-102843638D01*
X140005891Y-102650546D01*
X140192438Y-102463999D01*
X141886747Y-102463999D01*
X142080385Y-102425482D01*
X142244543Y-102315795D01*
X143115600Y-101444738D01*
X143121908Y-101435297D01*
X143225287Y-101280580D01*
X143263804Y-101086942D01*
X143263804Y-99535127D01*
X143373963Y-99580869D01*
X143674718Y-99581131D01*
X143820195Y-99521021D01*
X143837227Y-99611536D01*
X143700000Y-99611536D01*
X143558810Y-99638103D01*
X143429135Y-99721546D01*
X143342141Y-99848866D01*
X143311536Y-100000000D01*
X143311536Y-101250000D01*
X143338103Y-101391190D01*
X143421546Y-101520865D01*
X143517386Y-101586350D01*
X143272013Y-101586136D01*
X142994051Y-101700988D01*
X142781199Y-101913468D01*
X142665862Y-102191230D01*
X142665600Y-102491985D01*
X142780452Y-102769947D01*
X142992932Y-102982799D01*
X143270694Y-103098136D01*
X143462175Y-103098303D01*
X143954578Y-103590706D01*
X144118736Y-103700393D01*
X144312374Y-103738910D01*
X146317587Y-103738910D01*
X146317918Y-103894001D01*
X135371704Y-103894001D01*
X135395865Y-103878454D01*
X135482859Y-103751134D01*
X135513464Y-103600000D01*
X135513464Y-103271000D01*
X135768000Y-103271000D01*
X135768000Y-103525984D01*
X135826156Y-103666385D01*
X135933614Y-103773844D01*
X136074015Y-103832000D01*
X136579000Y-103832000D01*
X136674500Y-103736500D01*
X136674500Y-103175500D01*
X136675500Y-103175500D01*
X136675500Y-103736500D01*
X136771000Y-103832000D01*
X137275985Y-103832000D01*
X137416386Y-103773844D01*
X137523844Y-103666385D01*
X137582000Y-103525984D01*
X137582000Y-103271000D01*
X137486500Y-103175500D01*
X136675500Y-103175500D01*
X136674500Y-103175500D01*
X135863500Y-103175500D01*
X135768000Y-103271000D01*
X135513464Y-103271000D01*
X135513464Y-102831726D01*
X135873197Y-102471993D01*
X135990910Y-102552423D01*
X135933614Y-102576156D01*
X135826156Y-102683615D01*
X135768000Y-102824016D01*
X135768000Y-103079000D01*
X135863500Y-103174500D01*
X136674500Y-103174500D01*
X136674500Y-103154500D01*
X136675500Y-103154500D01*
X136675500Y-103174500D01*
X137486500Y-103174500D01*
X137582000Y-103079000D01*
X137582000Y-102824016D01*
X137523844Y-102683615D01*
X137416386Y-102576156D01*
X137357157Y-102551623D01*
X137470865Y-102478454D01*
X137557859Y-102351134D01*
X137588464Y-102200000D01*
X137588464Y-101650000D01*
X137561897Y-101508810D01*
X137478454Y-101379135D01*
X137361202Y-101299020D01*
X137470865Y-101228454D01*
X137557859Y-101101134D01*
X137588464Y-100950000D01*
X137588464Y-100400000D01*
X137561897Y-100258810D01*
X137478454Y-100129135D01*
X137359090Y-100047577D01*
X137416386Y-100023844D01*
X137523844Y-99916385D01*
X137582000Y-99775984D01*
X137582000Y-99521000D01*
X137486500Y-99425500D01*
X136675500Y-99425500D01*
X136675500Y-99445500D01*
X136674500Y-99445500D01*
X136674500Y-99425500D01*
X136654500Y-99425500D01*
X136654500Y-99424500D01*
X136674500Y-99424500D01*
X136674500Y-98863500D01*
X136675500Y-98863500D01*
X136675500Y-99424500D01*
X137486500Y-99424500D01*
X137582000Y-99329000D01*
X137582000Y-99074016D01*
X137523844Y-98933615D01*
X137416386Y-98826156D01*
X137275985Y-98768000D01*
X136771000Y-98768000D01*
X136675500Y-98863500D01*
X136674500Y-98863500D01*
X136579000Y-98768000D01*
X136074015Y-98768000D01*
X135933614Y-98826156D01*
X135826156Y-98933615D01*
X135782000Y-99040217D01*
X135782000Y-98599016D01*
X135723844Y-98458615D01*
X135616386Y-98351156D01*
X135492884Y-98300000D01*
X135616386Y-98248844D01*
X135723844Y-98141385D01*
X135782000Y-98000984D01*
X135782000Y-97396000D01*
X135686500Y-97300500D01*
X134900500Y-97300500D01*
X134900500Y-98211500D01*
X134989000Y-98300000D01*
X134900500Y-98388500D01*
X134900500Y-99299500D01*
X134920500Y-99299500D01*
X134920500Y-99300500D01*
X134900500Y-99300500D01*
X134900500Y-99320500D01*
X134899500Y-99320500D01*
X134899500Y-99300500D01*
X134113500Y-99300500D01*
X134018000Y-99396000D01*
X134018000Y-100000984D01*
X134076156Y-100141385D01*
X134146306Y-100211536D01*
X133875000Y-100211536D01*
X133733810Y-100238103D01*
X133604135Y-100321546D01*
X133517141Y-100448866D01*
X133486536Y-100600000D01*
X133486536Y-101467481D01*
X133406000Y-101386804D01*
X133406000Y-100312335D01*
X133541190Y-100286897D01*
X133670865Y-100203454D01*
X133757859Y-100076134D01*
X133788464Y-99925000D01*
X133788464Y-98675000D01*
X133761897Y-98533810D01*
X133678454Y-98404135D01*
X133551134Y-98317141D01*
X133468928Y-98300494D01*
X133541190Y-98286897D01*
X133670865Y-98203454D01*
X133757859Y-98076134D01*
X133788464Y-97925000D01*
X133788464Y-97396000D01*
X134018000Y-97396000D01*
X134018000Y-98000984D01*
X134076156Y-98141385D01*
X134183614Y-98248844D01*
X134307116Y-98300000D01*
X134183614Y-98351156D01*
X134076156Y-98458615D01*
X134018000Y-98599016D01*
X134018000Y-99204000D01*
X134113500Y-99299500D01*
X134899500Y-99299500D01*
X134899500Y-98388500D01*
X134811000Y-98300000D01*
X134899500Y-98211500D01*
X134899500Y-97300500D01*
X134113500Y-97300500D01*
X134018000Y-97396000D01*
X133788464Y-97396000D01*
X133788464Y-96675000D01*
X133774167Y-96599016D01*
X134018000Y-96599016D01*
X134018000Y-97204000D01*
X134113500Y-97299500D01*
X134899500Y-97299500D01*
X134899500Y-96388500D01*
X134900500Y-96388500D01*
X134900500Y-97299500D01*
X135686500Y-97299500D01*
X135782000Y-97204000D01*
X135782000Y-96599016D01*
X135723844Y-96458615D01*
X135616386Y-96351156D01*
X135475985Y-96293000D01*
X134996000Y-96293000D01*
X134900500Y-96388500D01*
X134899500Y-96388500D01*
X134804000Y-96293000D01*
X134324015Y-96293000D01*
X134183614Y-96351156D01*
X134076156Y-96458615D01*
X134018000Y-96599016D01*
X133774167Y-96599016D01*
X133761897Y-96533810D01*
X133678454Y-96404135D01*
X133551134Y-96317141D01*
X133400000Y-96286536D01*
X132400000Y-96286536D01*
X132258810Y-96313103D01*
X132129135Y-96396546D01*
X132042141Y-96523866D01*
X132011536Y-96675000D01*
X132011536Y-97925000D01*
X132038103Y-98066190D01*
X132121546Y-98195865D01*
X132248866Y-98282859D01*
X132331072Y-98299506D01*
X132258810Y-98313103D01*
X132129135Y-98396546D01*
X132042141Y-98523866D01*
X132011536Y-98675000D01*
X132011536Y-99925000D01*
X132038103Y-100066190D01*
X132121546Y-100195865D01*
X132248866Y-100282859D01*
X132394000Y-100312249D01*
X132394000Y-101386904D01*
X132259468Y-101521201D01*
X132144131Y-101798963D01*
X132143869Y-102099718D01*
X132258721Y-102377680D01*
X132471201Y-102590532D01*
X132748963Y-102705869D01*
X132940444Y-102706036D01*
X133486536Y-103252128D01*
X133486536Y-103600000D01*
X133513103Y-103741190D01*
X133596546Y-103870865D01*
X133630407Y-103894001D01*
X99909593Y-103894001D01*
X97379694Y-101364102D01*
X97500000Y-101388464D01*
X98200000Y-101388464D01*
X98341190Y-101361897D01*
X98470865Y-101278454D01*
X98557859Y-101151134D01*
X98588464Y-101000000D01*
X98588464Y-100356000D01*
X103437665Y-100356000D01*
X103463103Y-100491190D01*
X103546546Y-100620865D01*
X103673866Y-100707859D01*
X103825000Y-100738464D01*
X103926651Y-100738464D01*
X103959420Y-100903205D01*
X104074526Y-101075474D01*
X104094004Y-101094952D01*
X104093869Y-101249718D01*
X104208721Y-101527680D01*
X104421201Y-101740532D01*
X104698963Y-101855869D01*
X104999718Y-101856131D01*
X105238046Y-101757656D01*
X105246546Y-101770865D01*
X105373866Y-101857859D01*
X105525000Y-101888464D01*
X106723997Y-101888464D01*
X106711536Y-101950000D01*
X106711536Y-103250000D01*
X106738103Y-103391190D01*
X106821546Y-103520865D01*
X106948866Y-103607859D01*
X107100000Y-103638464D01*
X107800000Y-103638464D01*
X107941190Y-103611897D01*
X108070865Y-103528454D01*
X108157859Y-103401134D01*
X108188464Y-103250000D01*
X108188464Y-102696000D01*
X108618000Y-102696000D01*
X108618000Y-103325984D01*
X108676156Y-103466385D01*
X108783614Y-103573844D01*
X108924015Y-103632000D01*
X109254000Y-103632000D01*
X109349500Y-103536500D01*
X109349500Y-102600500D01*
X109350500Y-102600500D01*
X109350500Y-103536500D01*
X109446000Y-103632000D01*
X109775985Y-103632000D01*
X109916386Y-103573844D01*
X110023844Y-103466385D01*
X110082000Y-103325984D01*
X110082000Y-102696000D01*
X109986500Y-102600500D01*
X109350500Y-102600500D01*
X109349500Y-102600500D01*
X108713500Y-102600500D01*
X108618000Y-102696000D01*
X108188464Y-102696000D01*
X108188464Y-101950000D01*
X108161897Y-101808810D01*
X108078454Y-101679135D01*
X108018930Y-101638464D01*
X108771306Y-101638464D01*
X108676156Y-101733615D01*
X108618000Y-101874016D01*
X108618000Y-102504000D01*
X108713500Y-102599500D01*
X109349500Y-102599500D01*
X109349500Y-102579500D01*
X109350500Y-102579500D01*
X109350500Y-102599500D01*
X109986500Y-102599500D01*
X110082000Y-102504000D01*
X110082000Y-101874016D01*
X110023844Y-101733615D01*
X109916386Y-101626156D01*
X109775985Y-101568000D01*
X109484408Y-101568000D01*
X109541908Y-101531000D01*
X113461379Y-101531000D01*
X113573866Y-101607859D01*
X113725000Y-101638464D01*
X115175000Y-101638464D01*
X115316190Y-101611897D01*
X115445865Y-101528454D01*
X115532859Y-101401134D01*
X115563464Y-101250000D01*
X115563464Y-100881000D01*
X116141241Y-100881000D01*
X116334879Y-100842483D01*
X116499037Y-100732796D01*
X116907796Y-100324037D01*
X116932612Y-100286897D01*
X117017483Y-100159879D01*
X117056000Y-99966241D01*
X117056000Y-99450000D01*
X117017483Y-99256362D01*
X116907796Y-99092204D01*
X116586051Y-98770459D01*
X116777680Y-98691279D01*
X116913196Y-98556000D01*
X116925000Y-98556000D01*
X117118638Y-98517483D01*
X117282796Y-98407796D01*
X118227128Y-97463464D01*
X118900000Y-97463464D01*
X119041190Y-97436897D01*
X119170865Y-97353454D01*
X119257859Y-97226134D01*
X119288464Y-97075000D01*
X119288464Y-95825000D01*
X119261897Y-95683810D01*
X119178454Y-95554135D01*
X119051134Y-95467141D01*
X118900000Y-95436536D01*
X117900000Y-95436536D01*
X117845334Y-95446822D01*
X117905869Y-95301037D01*
X117906131Y-95000282D01*
X117791279Y-94722320D01*
X117731359Y-94662295D01*
X119533857Y-94662295D01*
X119571546Y-94720865D01*
X119698866Y-94807859D01*
X119850000Y-94838464D01*
X120850000Y-94838464D01*
X120991190Y-94811897D01*
X121120865Y-94728454D01*
X121207859Y-94601134D01*
X121238464Y-94450000D01*
X121238464Y-89450000D01*
X121211897Y-89308810D01*
X121128454Y-89179135D01*
X121001134Y-89092141D01*
X120850000Y-89061536D01*
X119850000Y-89061536D01*
X119708810Y-89088103D01*
X119579135Y-89171546D01*
X119492141Y-89298866D01*
X119461536Y-89450000D01*
X119461536Y-93650295D01*
X117003707Y-93650295D01*
X116810069Y-93688812D01*
X116645911Y-93798499D01*
X115552528Y-94891882D01*
X115536897Y-94808810D01*
X115495636Y-94744688D01*
X115520865Y-94728454D01*
X115607859Y-94601134D01*
X115638464Y-94450000D01*
X115638464Y-89450000D01*
X115611897Y-89308810D01*
X115528454Y-89179135D01*
X115401134Y-89092141D01*
X115250000Y-89061536D01*
X114250000Y-89061536D01*
X114108810Y-89088103D01*
X113979135Y-89171546D01*
X113892141Y-89298866D01*
X113861536Y-89450000D01*
X113861536Y-91380546D01*
X113828454Y-91329135D01*
X113701134Y-91242141D01*
X113550000Y-91211536D01*
X111050000Y-91211536D01*
X110908810Y-91238103D01*
X110779135Y-91321546D01*
X110692141Y-91448866D01*
X110661536Y-91600000D01*
X110661536Y-93400000D01*
X110688103Y-93541190D01*
X110771546Y-93670865D01*
X110898866Y-93757859D01*
X111050000Y-93788464D01*
X111794000Y-93788464D01*
X111794000Y-94579923D01*
X111623150Y-94579774D01*
X111345188Y-94694626D01*
X111132336Y-94907106D01*
X111016999Y-95184868D01*
X111016737Y-95485623D01*
X111034692Y-95529077D01*
X111017666Y-95529062D01*
X110739704Y-95643914D01*
X110526852Y-95856394D01*
X110411515Y-96134156D01*
X110411334Y-96341536D01*
X110130000Y-96341536D01*
X109988810Y-96368103D01*
X109859135Y-96451546D01*
X109772141Y-96578866D01*
X109741536Y-96730000D01*
X109741536Y-98622817D01*
X109718638Y-98607517D01*
X109663464Y-98596542D01*
X109663464Y-98200000D01*
X109643957Y-98096330D01*
X109663464Y-98000000D01*
X109663464Y-97550000D01*
X109643957Y-97446330D01*
X109663464Y-97350000D01*
X109663464Y-96900000D01*
X109645399Y-96803992D01*
X109657000Y-96775984D01*
X109657000Y-96571000D01*
X109561500Y-96475500D01*
X108550500Y-96475500D01*
X108550500Y-96495500D01*
X108549500Y-96495500D01*
X108549500Y-96475500D01*
X107538500Y-96475500D01*
X107443000Y-96571000D01*
X107443000Y-96775984D01*
X107455526Y-96806224D01*
X107436536Y-96900000D01*
X107436536Y-97269000D01*
X107213464Y-97269000D01*
X107213464Y-96400000D01*
X107186897Y-96258810D01*
X107103454Y-96129135D01*
X106976134Y-96042141D01*
X106955946Y-96038053D01*
X106956131Y-95825284D01*
X106932555Y-95768226D01*
X106966190Y-95761897D01*
X107053057Y-95706000D01*
X107436536Y-95706000D01*
X107436536Y-96050000D01*
X107454601Y-96146008D01*
X107443000Y-96174016D01*
X107443000Y-96379000D01*
X107538500Y-96474500D01*
X108549500Y-96474500D01*
X108549500Y-96454500D01*
X108550500Y-96454500D01*
X108550500Y-96474500D01*
X109561500Y-96474500D01*
X109657000Y-96379000D01*
X109657000Y-96174016D01*
X109644474Y-96143776D01*
X109663464Y-96050000D01*
X109663464Y-95600000D01*
X109643957Y-95496330D01*
X109663464Y-95400000D01*
X109663464Y-94950000D01*
X109636897Y-94808810D01*
X109553454Y-94679135D01*
X109426134Y-94592141D01*
X109275000Y-94561536D01*
X107825000Y-94561536D01*
X107683810Y-94588103D01*
X107596943Y-94644000D01*
X107213464Y-94644000D01*
X107213464Y-94400000D01*
X107186897Y-94258810D01*
X107103454Y-94129135D01*
X106976134Y-94042141D01*
X106825000Y-94011536D01*
X106731000Y-94011536D01*
X106731000Y-93660928D01*
X106744395Y-93628670D01*
X106771546Y-93670865D01*
X106898866Y-93757859D01*
X107050000Y-93788464D01*
X109550000Y-93788464D01*
X109691190Y-93761897D01*
X109820865Y-93678454D01*
X109907859Y-93551134D01*
X109938464Y-93400000D01*
X109938464Y-91600000D01*
X109911897Y-91458810D01*
X109828454Y-91329135D01*
X109701134Y-91242141D01*
X109550000Y-91211536D01*
X107050000Y-91211536D01*
X106908810Y-91238103D01*
X106779135Y-91321546D01*
X106692141Y-91448866D01*
X106661536Y-91600000D01*
X106661536Y-91994000D01*
X105309828Y-91994000D01*
X105116190Y-92032517D01*
X104952032Y-92142204D01*
X104456633Y-92637603D01*
X104346946Y-92801761D01*
X104308429Y-92995399D01*
X104308429Y-93878755D01*
X104296126Y-93848980D01*
X104083646Y-93636128D01*
X103805884Y-93520791D01*
X103505129Y-93520529D01*
X103227167Y-93635381D01*
X103014315Y-93847861D01*
X102898978Y-94125623D01*
X102898842Y-94281718D01*
X101324526Y-95856033D01*
X101209420Y-96028302D01*
X101188464Y-96133655D01*
X101188464Y-94950000D01*
X101161897Y-94808810D01*
X101078454Y-94679135D01*
X100951134Y-94592141D01*
X100800000Y-94561536D01*
X99200000Y-94561536D01*
X99058810Y-94588103D01*
X98929135Y-94671546D01*
X98842141Y-94798866D01*
X98811536Y-94950000D01*
X98811536Y-96169000D01*
X94038464Y-96169000D01*
X94038464Y-94950000D01*
X94011897Y-94808810D01*
X93928454Y-94679135D01*
X93801134Y-94592141D01*
X93650000Y-94561536D01*
X92050000Y-94561536D01*
X91908810Y-94588103D01*
X91779135Y-94671546D01*
X91692141Y-94798866D01*
X91661536Y-94950000D01*
X91661536Y-96169000D01*
X86869948Y-96169000D01*
X86783170Y-96082222D01*
X86891190Y-96061897D01*
X87020865Y-95978454D01*
X87107859Y-95851134D01*
X87138464Y-95700000D01*
X87138464Y-94500000D01*
X87111897Y-94358810D01*
X87028454Y-94229135D01*
X86901134Y-94142141D01*
X86750000Y-94111536D01*
X85050000Y-94111536D01*
X84908810Y-94138103D01*
X84779135Y-94221546D01*
X84692141Y-94348866D01*
X84661536Y-94500000D01*
X84661536Y-95700000D01*
X84688103Y-95841190D01*
X84771546Y-95970865D01*
X84898866Y-96057859D01*
X85050000Y-96088464D01*
X85396542Y-96088464D01*
X85409420Y-96153205D01*
X85524526Y-96325474D01*
X86274526Y-97075474D01*
X86446795Y-97190580D01*
X86650000Y-97231000D01*
X91661536Y-97231000D01*
X91661536Y-98450000D01*
X91688103Y-98591190D01*
X91771546Y-98720865D01*
X91898866Y-98807859D01*
X92050000Y-98838464D01*
X92319000Y-98838464D01*
X92319000Y-99363720D01*
X92229135Y-99421546D01*
X92142141Y-99548866D01*
X92111536Y-99700000D01*
X92111536Y-101000000D01*
X92138103Y-101141190D01*
X92221546Y-101270865D01*
X92348866Y-101357859D01*
X92500000Y-101388464D01*
X93200000Y-101388464D01*
X93341190Y-101361897D01*
X93470865Y-101278454D01*
X93557859Y-101151134D01*
X93588464Y-101000000D01*
X93588464Y-99700000D01*
X93561897Y-99558810D01*
X93478454Y-99429135D01*
X93381000Y-99362548D01*
X93381000Y-98838464D01*
X93650000Y-98838464D01*
X93791190Y-98811897D01*
X93920865Y-98728454D01*
X94007859Y-98601134D01*
X94038464Y-98450000D01*
X94038464Y-97231000D01*
X98811536Y-97231000D01*
X98811536Y-98450000D01*
X98838103Y-98591190D01*
X98921546Y-98720865D01*
X99048866Y-98807859D01*
X99200000Y-98838464D01*
X100800000Y-98838464D01*
X100941190Y-98811897D01*
X101070865Y-98728454D01*
X101157859Y-98601134D01*
X101188464Y-98450000D01*
X101188464Y-97206000D01*
X101574317Y-97206000D01*
X101700000Y-97231000D01*
X101903205Y-97190580D01*
X102075474Y-97075474D01*
X102190580Y-96903205D01*
X102231000Y-96700000D01*
X102231000Y-96451455D01*
X103649798Y-95032656D01*
X103804565Y-95032791D01*
X104082527Y-94917939D01*
X104295379Y-94705459D01*
X104308429Y-94674031D01*
X104308429Y-96961536D01*
X103825000Y-96961536D01*
X103683810Y-96988103D01*
X103554135Y-97071546D01*
X103467141Y-97198866D01*
X103436536Y-97350000D01*
X103436536Y-98350000D01*
X103463103Y-98491190D01*
X103546546Y-98620865D01*
X103673866Y-98707859D01*
X103825000Y-98738464D01*
X105075000Y-98738464D01*
X105136536Y-98726885D01*
X105136536Y-98973997D01*
X105075000Y-98961536D01*
X103825000Y-98961536D01*
X103683810Y-98988103D01*
X103554135Y-99071546D01*
X103467141Y-99198866D01*
X103437751Y-99344000D01*
X98353855Y-99344000D01*
X98351134Y-99342141D01*
X98200000Y-99311536D01*
X97500000Y-99311536D01*
X97358810Y-99338103D01*
X97229135Y-99421546D01*
X97142141Y-99548866D01*
X97111536Y-99700000D01*
X97111536Y-101000000D01*
X97133774Y-101118182D01*
X96688464Y-100672872D01*
X96688464Y-99700000D01*
X96661897Y-99558810D01*
X96578454Y-99429135D01*
X96451134Y-99342141D01*
X96300000Y-99311536D01*
X95600000Y-99311536D01*
X95458810Y-99338103D01*
X95348814Y-99408883D01*
X95251134Y-99342141D01*
X95100000Y-99311536D01*
X94400000Y-99311536D01*
X94258810Y-99338103D01*
X94129135Y-99421546D01*
X94042141Y-99548866D01*
X94011536Y-99700000D01*
X94011536Y-101000000D01*
X94038103Y-101141190D01*
X94121546Y-101270865D01*
X94248866Y-101357859D01*
X94400000Y-101388464D01*
X95100000Y-101388464D01*
X95241190Y-101361897D01*
X95351186Y-101291117D01*
X95448866Y-101357859D01*
X95600000Y-101388464D01*
X95972872Y-101388464D01*
X98857408Y-104273000D01*
X83227000Y-104273000D01*
X83227000Y-101842807D01*
X84468700Y-101842807D01*
X84731674Y-102479252D01*
X85218187Y-102966614D01*
X85854172Y-103230699D01*
X86542807Y-103231300D01*
X87179252Y-102968326D01*
X87666614Y-102481813D01*
X87930699Y-101845828D01*
X87931300Y-101157193D01*
X87668326Y-100520748D01*
X87181813Y-100033386D01*
X86545828Y-99769301D01*
X85857193Y-99768700D01*
X85220748Y-100031674D01*
X84733386Y-100518187D01*
X84469301Y-101154172D01*
X84468700Y-101842807D01*
X83227000Y-101842807D01*
X83227000Y-83500000D01*
X84661536Y-83500000D01*
X84661536Y-84700000D01*
X84688103Y-84841190D01*
X84771546Y-84970865D01*
X84898866Y-85057859D01*
X85050000Y-85088464D01*
X86750000Y-85088464D01*
X86891190Y-85061897D01*
X87020865Y-84978454D01*
X87107859Y-84851134D01*
X87138464Y-84700000D01*
X87138464Y-84606000D01*
X89856481Y-84606000D01*
X89863103Y-84641190D01*
X89946546Y-84770865D01*
X90073866Y-84857859D01*
X90225000Y-84888464D01*
X90371542Y-84888464D01*
X90382517Y-84943638D01*
X90492204Y-85107796D01*
X91342204Y-85957796D01*
X91506362Y-86067483D01*
X91700000Y-86106000D01*
X94611536Y-86106000D01*
X94611536Y-87350000D01*
X94638103Y-87491190D01*
X94721546Y-87620865D01*
X94848866Y-87707859D01*
X95000000Y-87738464D01*
X96600000Y-87738464D01*
X96741190Y-87711897D01*
X96870865Y-87628454D01*
X96957859Y-87501134D01*
X96988464Y-87350000D01*
X96988464Y-86106000D01*
X101761536Y-86106000D01*
X101761536Y-87350000D01*
X101788103Y-87491190D01*
X101871546Y-87620865D01*
X101998866Y-87707859D01*
X102150000Y-87738464D01*
X102444000Y-87738464D01*
X102444000Y-88150000D01*
X102482517Y-88343638D01*
X102592204Y-88507796D01*
X103694035Y-89609627D01*
X103693869Y-89799718D01*
X103808721Y-90077680D01*
X104021201Y-90290532D01*
X104298963Y-90405869D01*
X104599718Y-90406131D01*
X104877680Y-90291279D01*
X105090532Y-90078799D01*
X105205869Y-89801037D01*
X105206131Y-89500282D01*
X105091279Y-89222320D01*
X104878799Y-89009468D01*
X104601037Y-88894131D01*
X104409556Y-88893964D01*
X103456000Y-87940408D01*
X103456000Y-87738464D01*
X103750000Y-87738464D01*
X103891190Y-87711897D01*
X104020865Y-87628454D01*
X104107859Y-87501134D01*
X104138464Y-87350000D01*
X104138464Y-83850000D01*
X104111897Y-83708810D01*
X104028454Y-83579135D01*
X103901134Y-83492141D01*
X103750000Y-83461536D01*
X102150000Y-83461536D01*
X102008810Y-83488103D01*
X101879135Y-83571546D01*
X101792141Y-83698866D01*
X101761536Y-83850000D01*
X101761536Y-85094000D01*
X96988464Y-85094000D01*
X96988464Y-83850000D01*
X96961897Y-83708810D01*
X96878454Y-83579135D01*
X96751134Y-83492141D01*
X96600000Y-83461536D01*
X95000000Y-83461536D01*
X94858810Y-83488103D01*
X94729135Y-83571546D01*
X94642141Y-83698866D01*
X94611536Y-83850000D01*
X94611536Y-85094000D01*
X91909592Y-85094000D01*
X91653488Y-84837896D01*
X91745865Y-84778454D01*
X91832859Y-84651134D01*
X91863464Y-84500000D01*
X91863464Y-83500000D01*
X91836897Y-83358810D01*
X91753454Y-83229135D01*
X91626134Y-83142141D01*
X91475000Y-83111536D01*
X90225000Y-83111536D01*
X90083810Y-83138103D01*
X89954135Y-83221546D01*
X89867141Y-83348866D01*
X89836536Y-83500000D01*
X89836536Y-83594000D01*
X87138464Y-83594000D01*
X87138464Y-83500000D01*
X87111897Y-83358810D01*
X87028454Y-83229135D01*
X86901134Y-83142141D01*
X86750000Y-83111536D01*
X85050000Y-83111536D01*
X84908810Y-83138103D01*
X84779135Y-83221546D01*
X84692141Y-83348866D01*
X84661536Y-83500000D01*
X83227000Y-83500000D01*
X83227000Y-82100000D01*
X84644883Y-82100000D01*
X84719557Y-82475412D01*
X84932211Y-82793672D01*
X85250471Y-83006326D01*
X85625883Y-83081000D01*
X86174117Y-83081000D01*
X86549529Y-83006326D01*
X86867789Y-82793672D01*
X86993187Y-82606000D01*
X89856481Y-82606000D01*
X89863103Y-82641190D01*
X89946546Y-82770865D01*
X90073866Y-82857859D01*
X90225000Y-82888464D01*
X91475000Y-82888464D01*
X91616190Y-82861897D01*
X91745865Y-82778454D01*
X91832859Y-82651134D01*
X91862249Y-82506000D01*
X92550000Y-82506000D01*
X92743638Y-82467483D01*
X92907796Y-82357796D01*
X94559592Y-80706000D01*
X94611536Y-80706000D01*
X94611536Y-81950000D01*
X94638103Y-82091190D01*
X94721546Y-82220865D01*
X94848866Y-82307859D01*
X95000000Y-82338464D01*
X96600000Y-82338464D01*
X96741190Y-82311897D01*
X96870865Y-82228454D01*
X96957859Y-82101134D01*
X96988464Y-81950000D01*
X96988464Y-80706000D01*
X101761536Y-80706000D01*
X101761536Y-81950000D01*
X101788103Y-82091190D01*
X101871546Y-82220865D01*
X101998866Y-82307859D01*
X102150000Y-82338464D01*
X103750000Y-82338464D01*
X103891190Y-82311897D01*
X104020865Y-82228454D01*
X104107859Y-82101134D01*
X104138464Y-81950000D01*
X104138464Y-80706000D01*
X105890408Y-80706000D01*
X106644000Y-81459592D01*
X106644000Y-81536904D01*
X106509468Y-81671201D01*
X106394131Y-81948963D01*
X106393869Y-82249718D01*
X106508721Y-82527680D01*
X106644000Y-82663196D01*
X106644000Y-86211536D01*
X105400000Y-86211536D01*
X105258810Y-86238103D01*
X105129135Y-86321546D01*
X105042141Y-86448866D01*
X105011536Y-86600000D01*
X105011536Y-88200000D01*
X105038103Y-88341190D01*
X105121546Y-88470865D01*
X105248866Y-88557859D01*
X105400000Y-88588464D01*
X106644000Y-88588464D01*
X106644000Y-88690408D01*
X106590373Y-88744035D01*
X106400282Y-88743869D01*
X106122320Y-88858721D01*
X105909468Y-89071201D01*
X105794131Y-89348963D01*
X105793964Y-89540444D01*
X104540408Y-90794000D01*
X101188464Y-90794000D01*
X101188464Y-89550000D01*
X101161897Y-89408810D01*
X101078454Y-89279135D01*
X100951134Y-89192141D01*
X100800000Y-89161536D01*
X99200000Y-89161536D01*
X99058810Y-89188103D01*
X98929135Y-89271546D01*
X98842141Y-89398866D01*
X98811536Y-89550000D01*
X98811536Y-90794000D01*
X94038464Y-90794000D01*
X94038464Y-89550000D01*
X94011897Y-89408810D01*
X93928454Y-89279135D01*
X93801134Y-89192141D01*
X93650000Y-89161536D01*
X92050000Y-89161536D01*
X91908810Y-89188103D01*
X91779135Y-89271546D01*
X91692141Y-89398866D01*
X91661536Y-89550000D01*
X91661536Y-90794000D01*
X86850000Y-90794000D01*
X86656362Y-90832517D01*
X86492204Y-90942204D01*
X85542204Y-91892204D01*
X85432517Y-92056362D01*
X85411578Y-92161628D01*
X85250471Y-92193674D01*
X84932211Y-92406328D01*
X84719557Y-92724588D01*
X84644883Y-93100000D01*
X84719557Y-93475412D01*
X84932211Y-93793672D01*
X85250471Y-94006326D01*
X85625883Y-94081000D01*
X86174117Y-94081000D01*
X86549529Y-94006326D01*
X86867789Y-93793672D01*
X87080443Y-93475412D01*
X87155117Y-93100000D01*
X87080443Y-92724588D01*
X86867789Y-92406328D01*
X86622896Y-92242696D01*
X87059592Y-91806000D01*
X91661536Y-91806000D01*
X91661536Y-93050000D01*
X91688103Y-93191190D01*
X91771546Y-93320865D01*
X91898866Y-93407859D01*
X92050000Y-93438464D01*
X93650000Y-93438464D01*
X93791190Y-93411897D01*
X93920865Y-93328454D01*
X94007859Y-93201134D01*
X94038464Y-93050000D01*
X94038464Y-91806000D01*
X98811536Y-91806000D01*
X98811536Y-93050000D01*
X98838103Y-93191190D01*
X98921546Y-93320865D01*
X99048866Y-93407859D01*
X99200000Y-93438464D01*
X100800000Y-93438464D01*
X100941190Y-93411897D01*
X101070865Y-93328454D01*
X101157859Y-93201134D01*
X101188464Y-93050000D01*
X101188464Y-91806000D01*
X104750000Y-91806000D01*
X104943638Y-91767483D01*
X105107796Y-91657796D01*
X106509627Y-90255965D01*
X106699718Y-90256131D01*
X106977680Y-90141279D01*
X107190532Y-89928799D01*
X107305869Y-89651037D01*
X107306036Y-89459556D01*
X107507796Y-89257796D01*
X107617483Y-89093638D01*
X107656000Y-88900000D01*
X107656000Y-88588464D01*
X108900000Y-88588464D01*
X109041190Y-88561897D01*
X109170865Y-88478454D01*
X109257859Y-88351134D01*
X109288464Y-88200000D01*
X109288464Y-87496000D01*
X110418000Y-87496000D01*
X110418000Y-88275984D01*
X110476156Y-88416385D01*
X110583614Y-88523844D01*
X110724015Y-88582000D01*
X112454000Y-88582000D01*
X112549500Y-88486500D01*
X112549500Y-87400500D01*
X112550500Y-87400500D01*
X112550500Y-88486500D01*
X112646000Y-88582000D01*
X114375985Y-88582000D01*
X114462896Y-88546000D01*
X122768000Y-88546000D01*
X122768000Y-88875985D01*
X122826156Y-89016386D01*
X122933615Y-89123844D01*
X123074016Y-89182000D01*
X123704000Y-89182000D01*
X123799500Y-89086500D01*
X123799500Y-88450500D01*
X123800500Y-88450500D01*
X123800500Y-89086500D01*
X123896000Y-89182000D01*
X124525984Y-89182000D01*
X124666385Y-89123844D01*
X124773844Y-89016386D01*
X124832000Y-88875985D01*
X124832000Y-88546000D01*
X124736500Y-88450500D01*
X123800500Y-88450500D01*
X123799500Y-88450500D01*
X122863500Y-88450500D01*
X122768000Y-88546000D01*
X114462896Y-88546000D01*
X114516386Y-88523844D01*
X114623844Y-88416385D01*
X114682000Y-88275984D01*
X114682000Y-88024015D01*
X122768000Y-88024015D01*
X122768000Y-88354000D01*
X122863500Y-88449500D01*
X123799500Y-88449500D01*
X123799500Y-87813500D01*
X123704000Y-87718000D01*
X123074016Y-87718000D01*
X122933615Y-87776156D01*
X122826156Y-87883614D01*
X122768000Y-88024015D01*
X114682000Y-88024015D01*
X114682000Y-87496000D01*
X114586500Y-87400500D01*
X112550500Y-87400500D01*
X112549500Y-87400500D01*
X110513500Y-87400500D01*
X110418000Y-87496000D01*
X109288464Y-87496000D01*
X109288464Y-86600000D01*
X109274167Y-86524016D01*
X110418000Y-86524016D01*
X110418000Y-87304000D01*
X110513500Y-87399500D01*
X112549500Y-87399500D01*
X112549500Y-86313500D01*
X112550500Y-86313500D01*
X112550500Y-87399500D01*
X114586500Y-87399500D01*
X114682000Y-87304000D01*
X114682000Y-86524016D01*
X114623844Y-86383615D01*
X114516386Y-86276156D01*
X114375985Y-86218000D01*
X112646000Y-86218000D01*
X112550500Y-86313500D01*
X112549500Y-86313500D01*
X112454000Y-86218000D01*
X110724015Y-86218000D01*
X110583614Y-86276156D01*
X110476156Y-86383615D01*
X110418000Y-86524016D01*
X109274167Y-86524016D01*
X109261897Y-86458810D01*
X109178454Y-86329135D01*
X109051134Y-86242141D01*
X108900000Y-86211536D01*
X107656000Y-86211536D01*
X107656000Y-82663096D01*
X107790532Y-82528799D01*
X107905869Y-82251037D01*
X107906131Y-81950282D01*
X107791279Y-81672320D01*
X107656000Y-81536804D01*
X107656000Y-81250000D01*
X107617483Y-81056362D01*
X107507796Y-80892204D01*
X106457796Y-79842204D01*
X106293638Y-79732517D01*
X106100000Y-79694000D01*
X104138464Y-79694000D01*
X104138464Y-78450000D01*
X104111897Y-78308810D01*
X104028454Y-78179135D01*
X103901134Y-78092141D01*
X103750000Y-78061536D01*
X102150000Y-78061536D01*
X102008810Y-78088103D01*
X101879135Y-78171546D01*
X101792141Y-78298866D01*
X101761536Y-78450000D01*
X101761536Y-79694000D01*
X96988464Y-79694000D01*
X96988464Y-78450000D01*
X96961897Y-78308810D01*
X96878454Y-78179135D01*
X96751134Y-78092141D01*
X96600000Y-78061536D01*
X95000000Y-78061536D01*
X94858810Y-78088103D01*
X94729135Y-78171546D01*
X94642141Y-78298866D01*
X94611536Y-78450000D01*
X94611536Y-79694000D01*
X94350000Y-79694000D01*
X94156362Y-79732517D01*
X93992204Y-79842204D01*
X92340408Y-81494000D01*
X91862335Y-81494000D01*
X91836897Y-81358810D01*
X91753454Y-81229135D01*
X91626134Y-81142141D01*
X91475000Y-81111536D01*
X90225000Y-81111536D01*
X90083810Y-81138103D01*
X89954135Y-81221546D01*
X89867141Y-81348866D01*
X89836536Y-81500000D01*
X89836536Y-81594000D01*
X86993187Y-81594000D01*
X86867789Y-81406328D01*
X86549529Y-81193674D01*
X86174117Y-81119000D01*
X85625883Y-81119000D01*
X85250471Y-81193674D01*
X84932211Y-81406328D01*
X84719557Y-81724588D01*
X84644883Y-82100000D01*
X83227000Y-82100000D01*
X83227000Y-74842807D01*
X84468700Y-74842807D01*
X84731674Y-75479252D01*
X85218187Y-75966614D01*
X85854172Y-76230699D01*
X86542807Y-76231300D01*
X87179252Y-75968326D01*
X87666614Y-75481813D01*
X87930699Y-74845828D01*
X87931300Y-74157193D01*
X87668326Y-73520748D01*
X87181813Y-73033386D01*
X86545828Y-72769301D01*
X85857193Y-72768700D01*
X85220748Y-73031674D01*
X84733386Y-73518187D01*
X84469301Y-74154172D01*
X84468700Y-74842807D01*
X83227000Y-74842807D01*
X83227000Y-71527000D01*
X98311536Y-71527000D01*
X98311536Y-73300000D01*
G36*
X119034154Y-77545275D02*
X119111536Y-77560667D01*
X119111536Y-78675000D01*
X119138103Y-78816190D01*
X119199994Y-78912372D01*
X119192141Y-78923866D01*
X119161536Y-79075000D01*
X119161536Y-80325000D01*
X119182453Y-80436161D01*
X119178625Y-80436158D01*
X118900663Y-80551010D01*
X118785308Y-80666163D01*
X118767203Y-80648027D01*
X118873844Y-80541385D01*
X118932000Y-80400984D01*
X118932000Y-79796000D01*
X118836500Y-79700500D01*
X118050500Y-79700500D01*
X118050500Y-79720500D01*
X118049500Y-79720500D01*
X118049500Y-79700500D01*
X117263500Y-79700500D01*
X117168000Y-79796000D01*
X117168000Y-80144001D01*
X116928827Y-80144001D01*
X116957000Y-80075985D01*
X116957000Y-79846000D01*
X116861500Y-79750500D01*
X116463464Y-79750500D01*
X116463464Y-79749500D01*
X116861500Y-79749500D01*
X116957000Y-79654000D01*
X116957000Y-79424015D01*
X116910892Y-79312701D01*
X116913464Y-79300000D01*
X116913464Y-78381000D01*
X117111536Y-78381000D01*
X117111536Y-78675000D01*
X117138103Y-78816190D01*
X117202364Y-78916055D01*
X117168000Y-78999016D01*
X117168000Y-79604000D01*
X117263500Y-79699500D01*
X118049500Y-79699500D01*
X118049500Y-79679500D01*
X118050500Y-79679500D01*
X118050500Y-79699500D01*
X118836500Y-79699500D01*
X118932000Y-79604000D01*
X118932000Y-78999016D01*
X118873844Y-78858615D01*
X118851163Y-78835934D01*
X118857859Y-78826134D01*
X118888464Y-78675000D01*
X118888464Y-77447928D01*
X119034154Y-77545275D01*
X119034154Y-77545275D01*
G37*
X119034154Y-77545275D02*
X119111536Y-77560667D01*
X119111536Y-78675000D01*
X119138103Y-78816190D01*
X119199994Y-78912372D01*
X119192141Y-78923866D01*
X119161536Y-79075000D01*
X119161536Y-80325000D01*
X119182453Y-80436161D01*
X119178625Y-80436158D01*
X118900663Y-80551010D01*
X118785308Y-80666163D01*
X118767203Y-80648027D01*
X118873844Y-80541385D01*
X118932000Y-80400984D01*
X118932000Y-79796000D01*
X118836500Y-79700500D01*
X118050500Y-79700500D01*
X118050500Y-79720500D01*
X118049500Y-79720500D01*
X118049500Y-79700500D01*
X117263500Y-79700500D01*
X117168000Y-79796000D01*
X117168000Y-80144001D01*
X116928827Y-80144001D01*
X116957000Y-80075985D01*
X116957000Y-79846000D01*
X116861500Y-79750500D01*
X116463464Y-79750500D01*
X116463464Y-79749500D01*
X116861500Y-79749500D01*
X116957000Y-79654000D01*
X116957000Y-79424015D01*
X116910892Y-79312701D01*
X116913464Y-79300000D01*
X116913464Y-78381000D01*
X117111536Y-78381000D01*
X117111536Y-78675000D01*
X117138103Y-78816190D01*
X117202364Y-78916055D01*
X117168000Y-78999016D01*
X117168000Y-79604000D01*
X117263500Y-79699500D01*
X118049500Y-79699500D01*
X118049500Y-79679500D01*
X118050500Y-79679500D01*
X118050500Y-79699500D01*
X118836500Y-79699500D01*
X118932000Y-79604000D01*
X118932000Y-78999016D01*
X118873844Y-78858615D01*
X118851163Y-78835934D01*
X118857859Y-78826134D01*
X118888464Y-78675000D01*
X118888464Y-77447928D01*
X119034154Y-77545275D01*
G36*
X120683615Y-71576156D02*
X120576156Y-71683614D01*
X120518000Y-71824015D01*
X120518000Y-72304000D01*
X120613500Y-72399500D01*
X121399500Y-72399500D01*
X121399500Y-72379500D01*
X121400500Y-72379500D01*
X121400500Y-72399500D01*
X122186500Y-72399500D01*
X122282000Y-72304000D01*
X122282000Y-71824015D01*
X122223844Y-71683614D01*
X122116385Y-71576156D01*
X121997712Y-71527000D01*
X125473000Y-71527000D01*
X125473000Y-80594000D01*
X125359592Y-80594000D01*
X121485588Y-76719996D01*
X121321430Y-76610309D01*
X121127792Y-76571792D01*
X121082000Y-76571792D01*
X121082000Y-76096000D01*
X120986500Y-76000500D01*
X120350500Y-76000500D01*
X120350500Y-76020500D01*
X120349500Y-76020500D01*
X120349500Y-76000500D01*
X119713500Y-76000500D01*
X119618000Y-76096000D01*
X119618000Y-76571792D01*
X119437384Y-76571792D01*
X119188464Y-76322872D01*
X119188464Y-75977128D01*
X119217796Y-75947796D01*
X119239182Y-75915789D01*
X119327483Y-75783638D01*
X119366000Y-75590000D01*
X119366000Y-75274016D01*
X119618000Y-75274016D01*
X119618000Y-75904000D01*
X119713500Y-75999500D01*
X120349500Y-75999500D01*
X120349500Y-75063500D01*
X120350500Y-75063500D01*
X120350500Y-75999500D01*
X120986500Y-75999500D01*
X121082000Y-75904000D01*
X121082000Y-75274016D01*
X121023844Y-75133615D01*
X120916386Y-75026156D01*
X120775985Y-74968000D01*
X120446000Y-74968000D01*
X120350500Y-75063500D01*
X120349500Y-75063500D01*
X120254000Y-74968000D01*
X119924015Y-74968000D01*
X119783614Y-75026156D01*
X119676156Y-75133615D01*
X119618000Y-75274016D01*
X119366000Y-75274016D01*
X119366000Y-74128005D01*
X119382689Y-74168395D01*
X119630302Y-74416440D01*
X119953989Y-74550847D01*
X120304473Y-74551153D01*
X120437953Y-74496000D01*
X121118000Y-74496000D01*
X121118000Y-75100984D01*
X121176156Y-75241385D01*
X121283614Y-75348844D01*
X121424015Y-75407000D01*
X121904000Y-75407000D01*
X121999500Y-75311500D01*
X121999500Y-74400500D01*
X122000500Y-74400500D01*
X122000500Y-75311500D01*
X122096000Y-75407000D01*
X122575985Y-75407000D01*
X122716386Y-75348844D01*
X122823844Y-75241385D01*
X122882000Y-75100984D01*
X122882000Y-74496000D01*
X122786500Y-74400500D01*
X122000500Y-74400500D01*
X121999500Y-74400500D01*
X121213500Y-74400500D01*
X121118000Y-74496000D01*
X120437953Y-74496000D01*
X120628395Y-74417311D01*
X120876440Y-74169698D01*
X121010847Y-73846011D01*
X121010975Y-73699016D01*
X121118000Y-73699016D01*
X121118000Y-74304000D01*
X121213500Y-74399500D01*
X121999500Y-74399500D01*
X121999500Y-73488500D01*
X122000500Y-73488500D01*
X122000500Y-74399500D01*
X122786500Y-74399500D01*
X122882000Y-74304000D01*
X122882000Y-73775000D01*
X123111536Y-73775000D01*
X123111536Y-75025000D01*
X123138103Y-75166190D01*
X123221546Y-75295865D01*
X123348866Y-75382859D01*
X123394000Y-75391999D01*
X123394000Y-77486904D01*
X123259468Y-77621201D01*
X123144131Y-77898963D01*
X123143869Y-78199718D01*
X123258721Y-78477680D01*
X123471201Y-78690532D01*
X123748963Y-78805869D01*
X124049718Y-78806131D01*
X124327680Y-78691279D01*
X124540532Y-78478799D01*
X124655869Y-78201037D01*
X124656131Y-77900282D01*
X124541279Y-77622320D01*
X124406000Y-77486804D01*
X124406000Y-75413464D01*
X124500000Y-75413464D01*
X124641190Y-75386897D01*
X124770865Y-75303454D01*
X124857859Y-75176134D01*
X124888464Y-75025000D01*
X124888464Y-73775000D01*
X124861897Y-73633810D01*
X124778454Y-73504135D01*
X124651134Y-73417141D01*
X124500000Y-73386536D01*
X123500000Y-73386536D01*
X123358810Y-73413103D01*
X123229135Y-73496546D01*
X123142141Y-73623866D01*
X123111536Y-73775000D01*
X122882000Y-73775000D01*
X122882000Y-73699016D01*
X122823844Y-73558615D01*
X122716386Y-73451156D01*
X122575985Y-73393000D01*
X122096000Y-73393000D01*
X122000500Y-73488500D01*
X121999500Y-73488500D01*
X121904000Y-73393000D01*
X121424015Y-73393000D01*
X121283614Y-73451156D01*
X121176156Y-73558615D01*
X121118000Y-73699016D01*
X121010975Y-73699016D01*
X121011153Y-73495527D01*
X120922925Y-73282000D01*
X121304000Y-73282000D01*
X121399500Y-73186500D01*
X121399500Y-72400500D01*
X121400500Y-72400500D01*
X121400500Y-73186500D01*
X121496000Y-73282000D01*
X121975984Y-73282000D01*
X122116385Y-73223844D01*
X122223844Y-73116386D01*
X122282000Y-72975985D01*
X122282000Y-72496000D01*
X122186500Y-72400500D01*
X121400500Y-72400500D01*
X121399500Y-72400500D01*
X120613500Y-72400500D01*
X120518000Y-72496000D01*
X120518000Y-72877179D01*
X120306011Y-72789153D01*
X119955527Y-72788847D01*
X119631605Y-72922689D01*
X119383560Y-73170302D01*
X119366000Y-73212591D01*
X119366000Y-73139719D01*
X119606440Y-72899698D01*
X119740847Y-72576011D01*
X119741153Y-72225527D01*
X119607311Y-71901605D01*
X119359698Y-71653560D01*
X119054909Y-71527000D01*
X120802288Y-71527000D01*
X120683615Y-71576156D01*
X120683615Y-71576156D01*
G37*
X120683615Y-71576156D02*
X120576156Y-71683614D01*
X120518000Y-71824015D01*
X120518000Y-72304000D01*
X120613500Y-72399500D01*
X121399500Y-72399500D01*
X121399500Y-72379500D01*
X121400500Y-72379500D01*
X121400500Y-72399500D01*
X122186500Y-72399500D01*
X122282000Y-72304000D01*
X122282000Y-71824015D01*
X122223844Y-71683614D01*
X122116385Y-71576156D01*
X121997712Y-71527000D01*
X125473000Y-71527000D01*
X125473000Y-80594000D01*
X125359592Y-80594000D01*
X121485588Y-76719996D01*
X121321430Y-76610309D01*
X121127792Y-76571792D01*
X121082000Y-76571792D01*
X121082000Y-76096000D01*
X120986500Y-76000500D01*
X120350500Y-76000500D01*
X120350500Y-76020500D01*
X120349500Y-76020500D01*
X120349500Y-76000500D01*
X119713500Y-76000500D01*
X119618000Y-76096000D01*
X119618000Y-76571792D01*
X119437384Y-76571792D01*
X119188464Y-76322872D01*
X119188464Y-75977128D01*
X119217796Y-75947796D01*
X119239182Y-75915789D01*
X119327483Y-75783638D01*
X119366000Y-75590000D01*
X119366000Y-75274016D01*
X119618000Y-75274016D01*
X119618000Y-75904000D01*
X119713500Y-75999500D01*
X120349500Y-75999500D01*
X120349500Y-75063500D01*
X120350500Y-75063500D01*
X120350500Y-75999500D01*
X120986500Y-75999500D01*
X121082000Y-75904000D01*
X121082000Y-75274016D01*
X121023844Y-75133615D01*
X120916386Y-75026156D01*
X120775985Y-74968000D01*
X120446000Y-74968000D01*
X120350500Y-75063500D01*
X120349500Y-75063500D01*
X120254000Y-74968000D01*
X119924015Y-74968000D01*
X119783614Y-75026156D01*
X119676156Y-75133615D01*
X119618000Y-75274016D01*
X119366000Y-75274016D01*
X119366000Y-74128005D01*
X119382689Y-74168395D01*
X119630302Y-74416440D01*
X119953989Y-74550847D01*
X120304473Y-74551153D01*
X120437953Y-74496000D01*
X121118000Y-74496000D01*
X121118000Y-75100984D01*
X121176156Y-75241385D01*
X121283614Y-75348844D01*
X121424015Y-75407000D01*
X121904000Y-75407000D01*
X121999500Y-75311500D01*
X121999500Y-74400500D01*
X122000500Y-74400500D01*
X122000500Y-75311500D01*
X122096000Y-75407000D01*
X122575985Y-75407000D01*
X122716386Y-75348844D01*
X122823844Y-75241385D01*
X122882000Y-75100984D01*
X122882000Y-74496000D01*
X122786500Y-74400500D01*
X122000500Y-74400500D01*
X121999500Y-74400500D01*
X121213500Y-74400500D01*
X121118000Y-74496000D01*
X120437953Y-74496000D01*
X120628395Y-74417311D01*
X120876440Y-74169698D01*
X121010847Y-73846011D01*
X121010975Y-73699016D01*
X121118000Y-73699016D01*
X121118000Y-74304000D01*
X121213500Y-74399500D01*
X121999500Y-74399500D01*
X121999500Y-73488500D01*
X122000500Y-73488500D01*
X122000500Y-74399500D01*
X122786500Y-74399500D01*
X122882000Y-74304000D01*
X122882000Y-73775000D01*
X123111536Y-73775000D01*
X123111536Y-75025000D01*
X123138103Y-75166190D01*
X123221546Y-75295865D01*
X123348866Y-75382859D01*
X123394000Y-75391999D01*
X123394000Y-77486904D01*
X123259468Y-77621201D01*
X123144131Y-77898963D01*
X123143869Y-78199718D01*
X123258721Y-78477680D01*
X123471201Y-78690532D01*
X123748963Y-78805869D01*
X124049718Y-78806131D01*
X124327680Y-78691279D01*
X124540532Y-78478799D01*
X124655869Y-78201037D01*
X124656131Y-77900282D01*
X124541279Y-77622320D01*
X124406000Y-77486804D01*
X124406000Y-75413464D01*
X124500000Y-75413464D01*
X124641190Y-75386897D01*
X124770865Y-75303454D01*
X124857859Y-75176134D01*
X124888464Y-75025000D01*
X124888464Y-73775000D01*
X124861897Y-73633810D01*
X124778454Y-73504135D01*
X124651134Y-73417141D01*
X124500000Y-73386536D01*
X123500000Y-73386536D01*
X123358810Y-73413103D01*
X123229135Y-73496546D01*
X123142141Y-73623866D01*
X123111536Y-73775000D01*
X122882000Y-73775000D01*
X122882000Y-73699016D01*
X122823844Y-73558615D01*
X122716386Y-73451156D01*
X122575985Y-73393000D01*
X122096000Y-73393000D01*
X122000500Y-73488500D01*
X121999500Y-73488500D01*
X121904000Y-73393000D01*
X121424015Y-73393000D01*
X121283614Y-73451156D01*
X121176156Y-73558615D01*
X121118000Y-73699016D01*
X121010975Y-73699016D01*
X121011153Y-73495527D01*
X120922925Y-73282000D01*
X121304000Y-73282000D01*
X121399500Y-73186500D01*
X121399500Y-72400500D01*
X121400500Y-72400500D01*
X121400500Y-73186500D01*
X121496000Y-73282000D01*
X121975984Y-73282000D01*
X122116385Y-73223844D01*
X122223844Y-73116386D01*
X122282000Y-72975985D01*
X122282000Y-72496000D01*
X122186500Y-72400500D01*
X121400500Y-72400500D01*
X121399500Y-72400500D01*
X120613500Y-72400500D01*
X120518000Y-72496000D01*
X120518000Y-72877179D01*
X120306011Y-72789153D01*
X119955527Y-72788847D01*
X119631605Y-72922689D01*
X119383560Y-73170302D01*
X119366000Y-73212591D01*
X119366000Y-73139719D01*
X119606440Y-72899698D01*
X119740847Y-72576011D01*
X119741153Y-72225527D01*
X119607311Y-71901605D01*
X119359698Y-71653560D01*
X119054909Y-71527000D01*
X120802288Y-71527000D01*
X120683615Y-71576156D01*
M02*
