M48
;DRILL file {KiCad 4.0.7} date 11/13/17 07:17:27
;FORMAT={-:-/ absolute / inch / decimal}
FMAT,2
INCH,TZ
T1C0.016
T2C0.024
T3C0.030
T4C0.043
T5C0.106
%
G90
G05
M72
T1
X3.9705Y-2.9547
X4.0809Y-3.7117
X4.1122Y-3.5295
X4.128Y-3.9803
X4.1732Y-3.6791
X4.1811Y-3.7785
X4.1949Y-3.5236
X4.2185Y-3.2323
X4.3767Y-3.7908
X4.3898Y-3.939
X4.4005Y-3.7534
X4.4449Y-3.1535
X4.447Y-3.1006
X4.5178Y-3.2429
X4.5807Y-3.8602
X4.6051Y-3.2028
X4.6063Y-3.311
X4.6122Y-3.7461
X4.6555Y-3.1969
X4.6831Y-3.126
X4.698Y-3.1965
X4.7008Y-3.3346
X4.7874Y-2.9921
X4.8287Y-3.1575
X4.878Y-3.0728
X5.1024Y-3.4311
X5.2323Y-4.0138
X5.3969Y-3.4791
X5.4095Y-3.7245
X5.4592Y-3.7204
X5.4859Y-3.6844
X5.4921Y-3.3681
X5.5203Y-3.7603
X5.5297Y-3.8009
X5.5354Y-3.9183
X5.5567Y-3.7688
X5.5632Y-3.3487
X5.5743Y-3.956
X5.5998Y-4.0752
X5.6279Y-3.7213
X5.6465Y-4.0292
X5.6506Y-3.8159
X5.6506Y-3.8907
X5.666Y-3.7217
X5.6969Y-3.7586
X5.717Y-3.3592
X5.7299Y-3.4926
X5.7421Y-3.2992
X5.7445Y-3.3937
X5.7524Y-4.0163
X5.7825Y-3.7402
X5.8312Y-3.8043
X5.8408Y-3.9025
X5.8415Y-3.311
X5.8445Y-3.8425
X5.8878Y-3.5787
X5.8937Y-3.6358
X5.8957Y-3.4606
X5.9114Y-3.8374
X5.9567Y-4.0079
X5.9724Y-3.4587
X5.9764Y-3.875
X5.9823Y-3.6417
X6.0405Y-3.2314
X6.0433Y-3.4587
X6.049Y-3.2876
X6.0709Y-3.6378
X6.0726Y-3.4922
X6.0728Y-3.5394
X6.0827Y-4.0374
X6.124Y-3.2244
X6.1299Y-3.3337
X6.1299Y-3.7343
X6.1424Y-3.699
X6.1949Y-3.4488
X6.2067Y-3.2244
X6.2313Y-3.5541
X6.248Y-3.2972
X6.2598Y-3.4488
X6.2657Y-4.0492
X6.2807Y-3.8571
X6.2888Y-3.813
X6.3012Y-3.5531
X6.3068Y-3.7413
X6.3071Y-3.2244
X6.3071Y-3.3228
X6.3071Y-3.4035
X6.3641Y-3.5075
X6.4016Y-3.8012
X6.4449Y-3.2244
X6.4449Y-3.3228
X6.4449Y-3.4213
X6.4449Y-3.5118
X6.4724Y-3.6476
X6.4744Y-3.8583
X6.5433Y-3.2244
X6.5433Y-3.3228
X6.5433Y-3.4213
X6.6417Y-3.2244
X6.6417Y-3.3228
X6.6417Y-3.4213
X6.6417Y-3.5118
X6.6417Y-3.6102
X6.6417Y-3.7087
X6.6417Y-3.8071
X6.6417Y-3.9055
T2
X4.6795Y-2.8504
X4.7295Y-2.9004
X4.7795Y-2.8504
T3
X3.3819Y-3.2323
X3.3819Y-3.311
X3.3819Y-3.6654
X3.3819Y-3.7441
X4.2677Y-2.9291
X4.3465Y-2.9291
X4.4252Y-2.9291
X4.5039Y-2.9291
X4.7077Y-4.0374
X4.7864Y-4.0374
X4.8652Y-4.0374
X4.9439Y-4.0374
X5.0226Y-4.0374
X5.1014Y-4.0374
T4
X3.9213Y-2.8504
X4.0213Y-2.8504
X4.1213Y-2.8504
T5
X3.3937Y-2.9331
X3.3937Y-3.9961
X6.5433Y-3.9961
T0
M30
