G04 #@! TF.FileFunction,Legend,Top*
%FSLAX46Y46*%
G04 Gerber Fmt 4.6, Leading zero omitted, Abs format (unit mm)*
G04 Created by KiCad (PCBNEW 4.0.7) date 11/11/17 16:51:54*
%MOMM*%
%LPD*%
G01*
G04 APERTURE LIST*
%ADD10C,0.100000*%
%ADD11C,0.120000*%
%ADD12C,0.150000*%
G04 APERTURE END LIST*
D10*
D11*
X116450000Y-76200000D02*
X116450000Y-71500000D01*
X116450000Y-71500000D02*
X106350000Y-71500000D01*
X106350000Y-71500000D02*
X106350000Y-76200000D01*
X106350000Y-76200000D02*
X116450000Y-76200000D01*
X113900000Y-76200000D02*
X113900000Y-75600000D01*
X113900000Y-75600000D02*
X115850000Y-75600000D01*
X115850000Y-75600000D02*
X115850000Y-72100000D01*
X115850000Y-72100000D02*
X106950000Y-72100000D01*
X106950000Y-72100000D02*
X106950000Y-75600000D01*
X106950000Y-75600000D02*
X108900000Y-75600000D01*
X108900000Y-75600000D02*
X108900000Y-76200000D01*
X116450000Y-74900000D02*
X115850000Y-74900000D01*
X116450000Y-73600000D02*
X115850000Y-73600000D01*
X106350000Y-74900000D02*
X106950000Y-74900000D01*
X106350000Y-73600000D02*
X106950000Y-73600000D01*
X114700000Y-76200000D02*
X114700000Y-76400000D01*
X114700000Y-76400000D02*
X115000000Y-76400000D01*
X115000000Y-76400000D02*
X115000000Y-76200000D01*
X114700000Y-76300000D02*
X115000000Y-76300000D01*
X113500000Y-72100000D02*
X113500000Y-72600000D01*
X113500000Y-72600000D02*
X113300000Y-72600000D01*
X113300000Y-72600000D02*
X113300000Y-72100000D01*
X113400000Y-72100000D02*
X113400000Y-72600000D01*
X111500000Y-72100000D02*
X111500000Y-72600000D01*
X111500000Y-72600000D02*
X111300000Y-72600000D01*
X111300000Y-72600000D02*
X111300000Y-72100000D01*
X111400000Y-72100000D02*
X111400000Y-72600000D01*
X109500000Y-72100000D02*
X109500000Y-72600000D01*
X109500000Y-72600000D02*
X109300000Y-72600000D01*
X109300000Y-72600000D02*
X109300000Y-72100000D01*
X109400000Y-72100000D02*
X109400000Y-72600000D01*
X115500000Y-76500000D02*
X116750000Y-76500000D01*
X116750000Y-76500000D02*
X116750000Y-75250000D01*
X84100000Y-97150000D02*
X88800000Y-97150000D01*
X88800000Y-97150000D02*
X88800000Y-91050000D01*
X88800000Y-91050000D02*
X84100000Y-91050000D01*
X84100000Y-91050000D02*
X84100000Y-97150000D01*
X84100000Y-94600000D02*
X84700000Y-94600000D01*
X84700000Y-94600000D02*
X84700000Y-96550000D01*
X84700000Y-96550000D02*
X88200000Y-96550000D01*
X88200000Y-96550000D02*
X88200000Y-91650000D01*
X88200000Y-91650000D02*
X84700000Y-91650000D01*
X84700000Y-91650000D02*
X84700000Y-93600000D01*
X84700000Y-93600000D02*
X84100000Y-93600000D01*
X85400000Y-97150000D02*
X85400000Y-96550000D01*
X86700000Y-97150000D02*
X86700000Y-96550000D01*
X85400000Y-91050000D02*
X85400000Y-91650000D01*
X86700000Y-91050000D02*
X86700000Y-91650000D01*
X84100000Y-95400000D02*
X83900000Y-95400000D01*
X83900000Y-95400000D02*
X83900000Y-95700000D01*
X83900000Y-95700000D02*
X84100000Y-95700000D01*
X84000000Y-95400000D02*
X84000000Y-95700000D01*
X88200000Y-94200000D02*
X87700000Y-94200000D01*
X87700000Y-94200000D02*
X87700000Y-94000000D01*
X87700000Y-94000000D02*
X88200000Y-94000000D01*
X88200000Y-94100000D02*
X87700000Y-94100000D01*
X83800000Y-96200000D02*
X83800000Y-97450000D01*
X83800000Y-97450000D02*
X85050000Y-97450000D01*
X150950000Y-98000000D02*
X150950000Y-99000000D01*
X152650000Y-99000000D02*
X152650000Y-98000000D01*
X148800000Y-83250000D02*
X147800000Y-83250000D01*
X147800000Y-84950000D02*
X148800000Y-84950000D01*
X156650000Y-94200000D02*
X156650000Y-95200000D01*
X158350000Y-95200000D02*
X158350000Y-94200000D01*
X156650000Y-85100000D02*
X156650000Y-84100000D01*
X154950000Y-84100000D02*
X154950000Y-85100000D01*
X123500000Y-73550000D02*
X122500000Y-73550000D01*
X122500000Y-75250000D02*
X123500000Y-75250000D01*
X158350000Y-85400000D02*
X158350000Y-84400000D01*
X156650000Y-84400000D02*
X156650000Y-85400000D01*
X147450000Y-94150000D02*
X146450000Y-94150000D01*
X146450000Y-95850000D02*
X147450000Y-95850000D01*
X145200000Y-97800000D02*
X146200000Y-97800000D01*
X146200000Y-96100000D02*
X145200000Y-96100000D01*
X133400000Y-100150000D02*
X134400000Y-100150000D01*
X134400000Y-98450000D02*
X133400000Y-98450000D01*
X133400000Y-98150000D02*
X134400000Y-98150000D01*
X134400000Y-96450000D02*
X133400000Y-96450000D01*
X135350000Y-102600000D02*
X135350000Y-101600000D01*
X133650000Y-101600000D02*
X133650000Y-102600000D01*
X136750000Y-86450000D02*
X137750000Y-86450000D01*
X137750000Y-84750000D02*
X136750000Y-84750000D01*
X135250000Y-90600000D02*
X135250000Y-91600000D01*
X136950000Y-91600000D02*
X136950000Y-90600000D01*
X145200000Y-99700000D02*
X146200000Y-99700000D01*
X146200000Y-98000000D02*
X145200000Y-98000000D01*
X144700000Y-101475000D02*
X145700000Y-101475000D01*
X145700000Y-99775000D02*
X144700000Y-99775000D01*
X105300000Y-99350000D02*
X105300000Y-98350000D01*
X103600000Y-98350000D02*
X103600000Y-99350000D01*
X107000000Y-100500000D02*
X107000000Y-99500000D01*
X105300000Y-99500000D02*
X105300000Y-100500000D01*
X103300000Y-90700000D02*
X101120000Y-90700000D01*
X96700000Y-90700000D02*
X98880000Y-90700000D01*
X102540000Y-97300000D02*
X101120000Y-97300000D01*
X97460000Y-97300000D02*
X98880000Y-97300000D01*
X103300000Y-90700000D02*
X103300000Y-96540000D01*
X103300000Y-96540000D02*
X102540000Y-97300000D01*
X97460000Y-97300000D02*
X96700000Y-96540000D01*
X96700000Y-96540000D02*
X96700000Y-90700000D01*
X106550000Y-84100000D02*
X106550000Y-86280000D01*
X106550000Y-90700000D02*
X106550000Y-88520000D01*
X113150000Y-84860000D02*
X113150000Y-86280000D01*
X113150000Y-89940000D02*
X113150000Y-88520000D01*
X106550000Y-84100000D02*
X112390000Y-84100000D01*
X112390000Y-84100000D02*
X113150000Y-84860000D01*
X113150000Y-89940000D02*
X112390000Y-90700000D01*
X112390000Y-90700000D02*
X106550000Y-90700000D01*
X107050000Y-96400000D02*
X107050000Y-95400000D01*
X105350000Y-95400000D02*
X105350000Y-96400000D01*
X106250000Y-79600000D02*
X104070000Y-79600000D01*
X99650000Y-79600000D02*
X101830000Y-79600000D01*
X105490000Y-86200000D02*
X104070000Y-86200000D01*
X100410000Y-86200000D02*
X101830000Y-86200000D01*
X106250000Y-79600000D02*
X106250000Y-85440000D01*
X106250000Y-85440000D02*
X105490000Y-86200000D01*
X100410000Y-86200000D02*
X99650000Y-85440000D01*
X99650000Y-85440000D02*
X99650000Y-79600000D01*
X117900000Y-95600000D02*
X116900000Y-95600000D01*
X116900000Y-97300000D02*
X117900000Y-97300000D01*
X99100000Y-79600000D02*
X96920000Y-79600000D01*
X92500000Y-79600000D02*
X94680000Y-79600000D01*
X98340000Y-86200000D02*
X96920000Y-86200000D01*
X93260000Y-86200000D02*
X94680000Y-86200000D01*
X99100000Y-79600000D02*
X99100000Y-85440000D01*
X99100000Y-85440000D02*
X98340000Y-86200000D01*
X93260000Y-86200000D02*
X92500000Y-85440000D01*
X92500000Y-85440000D02*
X92500000Y-79600000D01*
X96150000Y-90700000D02*
X93970000Y-90700000D01*
X89550000Y-90700000D02*
X91730000Y-90700000D01*
X95390000Y-97300000D02*
X93970000Y-97300000D01*
X90310000Y-97300000D02*
X91730000Y-97300000D01*
X96150000Y-90700000D02*
X96150000Y-96540000D01*
X96150000Y-96540000D02*
X95390000Y-97300000D01*
X90310000Y-97300000D02*
X89550000Y-96540000D01*
X89550000Y-96540000D02*
X89550000Y-90700000D01*
X90000000Y-82500000D02*
X90000000Y-83500000D01*
X91700000Y-83500000D02*
X91700000Y-82500000D01*
X165850000Y-95800000D02*
X166850000Y-95800000D01*
X166850000Y-94100000D02*
X165850000Y-94100000D01*
X166250000Y-93650000D02*
X167250000Y-93650000D01*
X167250000Y-91950000D02*
X166250000Y-91950000D01*
X156850000Y-98200000D02*
X156850000Y-99200000D01*
X158550000Y-99200000D02*
X158550000Y-98200000D01*
X153850000Y-99500000D02*
X153850000Y-100500000D01*
X155550000Y-100500000D02*
X155550000Y-99500000D01*
X118550000Y-80550000D02*
X119550000Y-80550000D01*
X119550000Y-78850000D02*
X118550000Y-78850000D01*
X118500000Y-78900000D02*
X119500000Y-78900000D01*
X119500000Y-77200000D02*
X118500000Y-77200000D01*
X103700000Y-74150000D02*
X102700000Y-74150000D01*
X102700000Y-75850000D02*
X103700000Y-75850000D01*
X165150000Y-91350000D02*
X166150000Y-91350000D01*
X166150000Y-89650000D02*
X165150000Y-89650000D01*
X129100000Y-98400000D02*
X130100000Y-98400000D01*
X130100000Y-96700000D02*
X129100000Y-96700000D01*
X106900000Y-90850000D02*
X106900000Y-94150000D01*
X106900000Y-94150000D02*
X112300000Y-94150000D01*
X106900000Y-90850000D02*
X112300000Y-90850000D01*
X131625000Y-104350000D02*
X131625000Y-99650000D01*
X131625000Y-99650000D02*
X117525000Y-99650000D01*
X117525000Y-99650000D02*
X117525000Y-104350000D01*
X117525000Y-104350000D02*
X131625000Y-104350000D01*
X129075000Y-104350000D02*
X129075000Y-103750000D01*
X129075000Y-103750000D02*
X131025000Y-103750000D01*
X131025000Y-103750000D02*
X131025000Y-100250000D01*
X131025000Y-100250000D02*
X118125000Y-100250000D01*
X118125000Y-100250000D02*
X118125000Y-103750000D01*
X118125000Y-103750000D02*
X120075000Y-103750000D01*
X120075000Y-103750000D02*
X120075000Y-104350000D01*
X131625000Y-103050000D02*
X131025000Y-103050000D01*
X131625000Y-101750000D02*
X131025000Y-101750000D01*
X117525000Y-103050000D02*
X118125000Y-103050000D01*
X117525000Y-101750000D02*
X118125000Y-101750000D01*
X129875000Y-104350000D02*
X129875000Y-104550000D01*
X129875000Y-104550000D02*
X130175000Y-104550000D01*
X130175000Y-104550000D02*
X130175000Y-104350000D01*
X129875000Y-104450000D02*
X130175000Y-104450000D01*
X128675000Y-100250000D02*
X128675000Y-100750000D01*
X128675000Y-100750000D02*
X128475000Y-100750000D01*
X128475000Y-100750000D02*
X128475000Y-100250000D01*
X128575000Y-100250000D02*
X128575000Y-100750000D01*
X126675000Y-100250000D02*
X126675000Y-100750000D01*
X126675000Y-100750000D02*
X126475000Y-100750000D01*
X126475000Y-100750000D02*
X126475000Y-100250000D01*
X126575000Y-100250000D02*
X126575000Y-100750000D01*
X124675000Y-100250000D02*
X124675000Y-100750000D01*
X124675000Y-100750000D02*
X124475000Y-100750000D01*
X124475000Y-100750000D02*
X124475000Y-100250000D01*
X124575000Y-100250000D02*
X124575000Y-100750000D01*
X122675000Y-100250000D02*
X122675000Y-100750000D01*
X122675000Y-100750000D02*
X122475000Y-100750000D01*
X122475000Y-100750000D02*
X122475000Y-100250000D01*
X122575000Y-100250000D02*
X122575000Y-100750000D01*
X120675000Y-100250000D02*
X120675000Y-100750000D01*
X120675000Y-100750000D02*
X120475000Y-100750000D01*
X120475000Y-100750000D02*
X120475000Y-100250000D01*
X120575000Y-100250000D02*
X120575000Y-100750000D01*
X130675000Y-104650000D02*
X131925000Y-104650000D01*
X131925000Y-104650000D02*
X131925000Y-103400000D01*
X115250000Y-94680000D02*
X119850000Y-94680000D01*
X119850000Y-89220000D02*
X115250000Y-89220000D01*
X118800000Y-75120000D02*
X120000000Y-75120000D01*
X120000000Y-76880000D02*
X118800000Y-76880000D01*
X139570000Y-100150000D02*
X139570000Y-98950000D01*
X141330000Y-98950000D02*
X141330000Y-100150000D01*
X139630000Y-96400000D02*
X139630000Y-97600000D01*
X137870000Y-97600000D02*
X137870000Y-96400000D01*
X122920000Y-90000000D02*
X122920000Y-88800000D01*
X124680000Y-88800000D02*
X124680000Y-90000000D01*
X107800000Y-101720000D02*
X109000000Y-101720000D01*
X109000000Y-103480000D02*
X107800000Y-103480000D01*
X162230000Y-98925000D02*
X162230000Y-100125000D01*
X160470000Y-100125000D02*
X160470000Y-98925000D01*
X126550000Y-86200000D02*
X126550000Y-85950000D01*
X126550000Y-85950000D02*
X132850000Y-85950000D01*
X132850000Y-85950000D02*
X132850000Y-86200000D01*
X126550000Y-90700000D02*
X126550000Y-88100000D01*
X132850000Y-92600000D02*
X132850000Y-92850000D01*
X132850000Y-92850000D02*
X126550000Y-92850000D01*
X126550000Y-92850000D02*
X126550000Y-92600000D01*
X132850000Y-88100000D02*
X132850000Y-90700000D01*
D12*
X155575000Y-86525000D02*
X155575000Y-87050000D01*
X148325000Y-93775000D02*
X148325000Y-93250000D01*
X155575000Y-93775000D02*
X155575000Y-93250000D01*
X148325000Y-86525000D02*
X148850000Y-86525000D01*
X148325000Y-93775000D02*
X148850000Y-93775000D01*
X155575000Y-93775000D02*
X155050000Y-93775000D01*
X155575000Y-86525000D02*
X155050000Y-86525000D01*
D11*
X121400000Y-71380000D02*
X121400000Y-68590000D01*
X120130000Y-72650000D02*
X120130000Y-68590000D01*
X118860000Y-71380000D02*
X118860000Y-68590000D01*
X122530000Y-68590000D02*
X117730000Y-68590000D01*
X117730000Y-68590000D02*
X117730000Y-63400000D01*
X117730000Y-63400000D02*
X122530000Y-63400000D01*
X122530000Y-63400000D02*
X122530000Y-68590000D01*
D12*
X109275000Y-101550000D02*
X113725000Y-101550000D01*
X107750000Y-94650000D02*
X113725000Y-94650000D01*
D11*
X115700000Y-77100000D02*
X117200000Y-77100000D01*
X117200000Y-77100000D02*
X117200000Y-78300000D01*
X113580000Y-79300000D02*
X113580000Y-78300000D01*
X116820000Y-77550000D02*
X116820000Y-79920000D01*
X153975000Y-97825000D02*
X155325000Y-97825000D01*
X153975000Y-96075000D02*
X155325000Y-96075000D01*
X160700000Y-95750000D02*
X164000000Y-95750000D01*
X164000000Y-95750000D02*
X164000000Y-91750000D01*
X84100000Y-86150000D02*
X88800000Y-86150000D01*
X88800000Y-86150000D02*
X88800000Y-80050000D01*
X88800000Y-80050000D02*
X84100000Y-80050000D01*
X84100000Y-80050000D02*
X84100000Y-86150000D01*
X84100000Y-83600000D02*
X84700000Y-83600000D01*
X84700000Y-83600000D02*
X84700000Y-85550000D01*
X84700000Y-85550000D02*
X88200000Y-85550000D01*
X88200000Y-85550000D02*
X88200000Y-80650000D01*
X88200000Y-80650000D02*
X84700000Y-80650000D01*
X84700000Y-80650000D02*
X84700000Y-82600000D01*
X84700000Y-82600000D02*
X84100000Y-82600000D01*
X85400000Y-86150000D02*
X85400000Y-85550000D01*
X86700000Y-86150000D02*
X86700000Y-85550000D01*
X85400000Y-80050000D02*
X85400000Y-80650000D01*
X86700000Y-80050000D02*
X86700000Y-80650000D01*
X84100000Y-84400000D02*
X83900000Y-84400000D01*
X83900000Y-84400000D02*
X83900000Y-84700000D01*
X83900000Y-84700000D02*
X84100000Y-84700000D01*
X84000000Y-84400000D02*
X84000000Y-84700000D01*
X88200000Y-83200000D02*
X87700000Y-83200000D01*
X87700000Y-83200000D02*
X87700000Y-83000000D01*
X87700000Y-83000000D02*
X88200000Y-83000000D01*
X88200000Y-83100000D02*
X87700000Y-83100000D01*
X83800000Y-85200000D02*
X83800000Y-86450000D01*
X83800000Y-86450000D02*
X85050000Y-86450000D01*
X94400000Y-101230000D02*
X93200000Y-101230000D01*
X93200000Y-99470000D02*
X94400000Y-99470000D01*
X97500000Y-101230000D02*
X96300000Y-101230000D01*
X96300000Y-99470000D02*
X97500000Y-99470000D01*
X160230000Y-92500000D02*
X160230000Y-93700000D01*
X158470000Y-93700000D02*
X158470000Y-92500000D01*
X162130000Y-83550000D02*
X162130000Y-83050000D01*
X161070000Y-83050000D02*
X161070000Y-83550000D01*
D12*
X103081429Y-98660952D02*
X103081429Y-97899047D01*
X103462381Y-98279999D02*
X102700476Y-98279999D01*
X113749048Y-84461429D02*
X114510953Y-84461429D01*
X114130001Y-84842381D02*
X114130001Y-84080476D01*
X106031429Y-87560952D02*
X106031429Y-86799047D01*
X106412381Y-87179999D02*
X105650476Y-87179999D01*
X98881429Y-87560952D02*
X98881429Y-86799047D01*
X99262381Y-87179999D02*
X98500476Y-87179999D01*
X95931429Y-98660952D02*
X95931429Y-97899047D01*
X96312381Y-98279999D02*
X95550476Y-98279999D01*
X139727381Y-85129285D02*
X139727381Y-85700714D01*
X139727381Y-85415000D02*
X138727381Y-85415000D01*
X138870238Y-85510238D01*
X138965476Y-85605476D01*
X139013095Y-85700714D01*
X97218715Y-72852381D02*
X96647286Y-72852381D01*
X96933000Y-72852381D02*
X96933000Y-71852381D01*
X96837762Y-71995238D01*
X96742524Y-72090476D01*
X96647286Y-72138095D01*
X147435715Y-99852381D02*
X146864286Y-99852381D01*
X147150000Y-99852381D02*
X147150000Y-98852381D01*
X147054762Y-98995238D01*
X146959524Y-99090476D01*
X146864286Y-99138095D01*
X136985715Y-98552381D02*
X136414286Y-98552381D01*
X136700000Y-98552381D02*
X136700000Y-97552381D01*
X136604762Y-97695238D01*
X136509524Y-97790476D01*
X136414286Y-97838095D01*
M02*
