G04 #@! TF.FileFunction,Copper,L2,Bot,Mixed*
%FSLAX46Y46*%
G04 Gerber Fmt 4.6, Leading zero omitted, Abs format (unit mm)*
G04 Created by KiCad (PCBNEW 4.0.7) date 11/11/17 16:51:54*
%MOMM*%
%LPD*%
G01*
G04 APERTURE LIST*
%ADD10C,0.100000*%
%ADD11R,1.200000X1.700000*%
%ADD12O,1.200000X1.700000*%
%ADD13R,1.700000X1.200000*%
%ADD14O,1.700000X1.200000*%
%ADD15R,1.800000X1.800000*%
%ADD16C,1.800000*%
%ADD17C,1.000000*%
%ADD18R,1.000000X1.000000*%
%ADD19C,0.750000*%
%ADD20C,0.250000*%
%ADD21C,0.500000*%
%ADD22C,0.300000*%
%ADD23C,0.254000*%
G04 APERTURE END LIST*
D10*
D11*
X114400000Y-74400000D03*
D12*
X112400000Y-74400000D03*
X110400000Y-74400000D03*
X108400000Y-74400000D03*
D13*
X85900000Y-95100000D03*
D14*
X85900000Y-93100000D03*
D11*
X129575000Y-102550000D03*
D12*
X127575000Y-102550000D03*
X125575000Y-102550000D03*
X123575000Y-102550000D03*
X121575000Y-102550000D03*
X119575000Y-102550000D03*
D15*
X99600000Y-72400000D03*
D16*
X104680000Y-72400000D03*
X102140000Y-72400000D03*
D17*
X120130000Y-73670000D03*
X118860000Y-72400000D03*
D18*
X121400000Y-72400000D03*
D13*
X85900000Y-84100000D03*
D14*
X85900000Y-82100000D03*
D19*
X161647987Y-89091017D03*
X160050000Y-90250000D03*
X158274941Y-90274668D03*
X111167384Y-96285193D03*
X159150000Y-102850000D03*
X168700000Y-84400000D03*
X158700000Y-83750000D03*
X151950000Y-92500000D03*
X149550000Y-90900000D03*
X151700000Y-87850000D03*
X153500000Y-87850000D03*
X154250000Y-89900000D03*
X149750000Y-87900000D03*
X149700000Y-92350000D03*
X154200000Y-92400000D03*
X106550000Y-89500000D03*
X157350000Y-87600000D03*
X159000000Y-87600000D03*
X160200000Y-86450000D03*
X160200000Y-84400000D03*
X160200000Y-81900000D03*
X157650000Y-81900000D03*
X164450000Y-98000000D03*
X168700000Y-99200000D03*
X168700000Y-96700000D03*
X168700000Y-94200000D03*
X168700000Y-91700000D03*
X163700000Y-89200000D03*
X168700000Y-89200000D03*
X168700000Y-86900000D03*
X166200000Y-86900000D03*
X163700000Y-86900000D03*
X163700000Y-84400000D03*
X166200000Y-84400000D03*
X168700000Y-81900000D03*
X166200000Y-81900000D03*
X163700000Y-81900000D03*
X155550000Y-81900000D03*
X143525000Y-96925000D03*
X143525000Y-98825000D03*
X144700000Y-95469697D03*
X160192659Y-95028558D03*
X154242798Y-88702708D03*
X154500000Y-102550000D03*
X137080000Y-88370000D03*
X146874998Y-95000000D03*
X129600000Y-87150000D03*
X145850000Y-83800000D03*
X164400000Y-92650000D03*
X112954653Y-78754812D03*
X123900000Y-78050000D03*
X122650000Y-80200000D03*
X132900000Y-101950000D03*
X111500000Y-100050000D03*
X116350000Y-98050000D03*
X104850000Y-101100000D03*
X106200000Y-95975002D03*
X107150000Y-82100000D03*
X103654847Y-94276660D03*
X111772868Y-95335905D03*
X100850000Y-75050000D03*
X106000000Y-93450000D03*
X142235036Y-103509640D03*
X148356173Y-99124216D03*
X155700000Y-84675002D03*
X139500000Y-85550000D03*
X148375002Y-84100000D03*
X151800000Y-98424998D03*
X162600000Y-96550000D03*
X119400000Y-84700000D03*
X121600000Y-76000000D03*
X118950000Y-79400000D03*
X104450000Y-89650000D03*
X117150000Y-95150000D03*
X153644736Y-83505913D03*
X145538250Y-88711335D03*
X153428871Y-82077721D03*
X141305746Y-85056661D03*
X140454423Y-96542845D03*
X137401698Y-94601921D03*
X140215332Y-95512156D03*
X138662900Y-94499156D03*
X141140829Y-95726579D03*
X139342591Y-93585011D03*
X143421731Y-102342267D03*
X141587540Y-100483335D03*
X148450000Y-97600000D03*
X146111942Y-102013907D03*
X140600000Y-99525002D03*
X148112178Y-96629933D03*
X159735796Y-96849322D03*
X155700000Y-94850000D03*
X150149987Y-97469682D03*
X151300000Y-101800000D03*
X119328343Y-81192289D03*
X112900000Y-80100000D03*
X114751369Y-82368560D03*
X116969985Y-81350011D03*
X145212175Y-85324679D03*
X142948434Y-94520044D03*
X143916066Y-94531261D03*
X145910984Y-86200022D03*
X117000000Y-84100056D03*
X118250000Y-81200000D03*
X156016180Y-93954157D03*
X159530025Y-97969975D03*
D20*
X121650000Y-95000000D02*
X121657802Y-94992198D01*
X122892198Y-94992198D02*
X122900000Y-95000000D01*
D21*
X128719670Y-86800000D02*
X109250000Y-86800000D01*
X109250000Y-86800000D02*
X106550000Y-89500000D01*
X129600000Y-87150000D02*
X129069670Y-87150000D01*
X129069670Y-87150000D02*
X128719670Y-86800000D01*
D20*
X154617797Y-88327709D02*
X154242798Y-88702708D01*
X122650000Y-80200000D02*
X122650000Y-79300000D01*
X122650000Y-79300000D02*
X123900000Y-78050000D01*
D22*
X106000000Y-93450000D02*
X100507262Y-87957262D01*
X100507262Y-87957262D02*
X100507262Y-75392738D01*
X100507262Y-75392738D02*
X100850000Y-75050000D01*
X104185177Y-94276660D02*
X103654847Y-94276660D01*
X105173340Y-94276660D02*
X104185177Y-94276660D01*
X106000000Y-93450000D02*
X105173340Y-94276660D01*
X111242538Y-95335905D02*
X111772868Y-95335905D01*
X107885905Y-95335905D02*
X111242538Y-95335905D01*
X106000000Y-93450000D02*
X107885905Y-95335905D01*
D20*
X148000000Y-104175000D02*
X142900396Y-104175000D01*
X142610035Y-103884639D02*
X142235036Y-103509640D01*
X142900396Y-104175000D02*
X142610035Y-103884639D01*
X148000000Y-104175000D02*
X148000000Y-104172990D01*
X148000000Y-104172990D02*
X148356173Y-103816817D01*
X148356173Y-103816817D02*
X148356173Y-99654546D01*
X148356173Y-99654546D02*
X148356173Y-99124216D01*
X155700000Y-84675002D02*
X155700000Y-84144672D01*
X155700000Y-84144672D02*
X154361240Y-82805912D01*
X154361240Y-82805912D02*
X149669090Y-82805912D01*
X149669090Y-82805912D02*
X148750001Y-83725001D01*
X148750001Y-83725001D02*
X148375002Y-84100000D01*
X151325000Y-104175000D02*
X148000000Y-104175000D01*
X160750000Y-104175000D02*
X151325000Y-104175000D01*
X151800000Y-98424998D02*
X152174999Y-98799997D01*
X152174999Y-98799997D02*
X152174999Y-103325001D01*
X152174999Y-103325001D02*
X151325000Y-104175000D01*
X162600000Y-96550000D02*
X162600000Y-102325000D01*
X162600000Y-102325000D02*
X160750000Y-104175000D01*
X145663998Y-82950000D02*
X147225002Y-82950000D01*
X147225002Y-82950000D02*
X148375002Y-84100000D01*
X139500000Y-85550000D02*
X139874999Y-85924999D01*
X139874999Y-85924999D02*
X142688999Y-85924999D01*
X142688999Y-85924999D02*
X145663998Y-82950000D01*
X121600000Y-76000000D02*
X121600000Y-81550000D01*
X121600000Y-81550000D02*
X121600000Y-82500000D01*
X118950000Y-79400000D02*
X119480330Y-79400000D01*
X119480330Y-79400000D02*
X121600000Y-81519670D01*
X121600000Y-81519670D02*
X121600000Y-81550000D01*
X121600000Y-82500000D02*
X119400000Y-84700000D01*
X115219670Y-93750000D02*
X108550000Y-93750000D01*
X108550000Y-93750000D02*
X104450000Y-89650000D01*
X117150000Y-95150000D02*
X116619670Y-95150000D01*
X116619670Y-95150000D02*
X115219670Y-93750000D01*
X145538250Y-88711335D02*
X150743672Y-83505913D01*
X150743672Y-83505913D02*
X153644736Y-83505913D01*
X152898541Y-82077721D02*
X153428871Y-82077721D01*
X144284686Y-82077721D02*
X152898541Y-82077721D01*
X141305746Y-85056661D02*
X144284686Y-82077721D01*
X139924093Y-96542845D02*
X140454423Y-96542845D01*
X137401698Y-94601921D02*
X139342622Y-96542845D01*
X139342622Y-96542845D02*
X139924093Y-96542845D01*
X139840333Y-95137157D02*
X140215332Y-95512156D01*
X138662900Y-94499156D02*
X139202332Y-94499156D01*
X139202332Y-94499156D02*
X139840333Y-95137157D01*
X139342591Y-93585011D02*
X141140829Y-95383249D01*
X141140829Y-95383249D02*
X141140829Y-95726579D01*
X148450000Y-97600000D02*
X147010773Y-99039227D01*
X147010773Y-99039227D02*
X147010773Y-102107084D01*
X147010773Y-102107084D02*
X146400591Y-102717266D01*
X146400591Y-102717266D02*
X143796730Y-102717266D01*
X143796730Y-102717266D02*
X143421731Y-102342267D01*
X143421731Y-102317526D02*
X143421731Y-102342267D01*
X141587540Y-100483335D02*
X143421731Y-102317526D01*
X140600000Y-99525002D02*
X141876886Y-99525002D01*
X141876886Y-99525002D02*
X144365791Y-102013907D01*
X144365791Y-102013907D02*
X146111942Y-102013907D01*
X146111942Y-101483577D02*
X146111942Y-102013907D01*
X148112178Y-96629933D02*
X146111942Y-98630169D01*
X146111942Y-98630169D02*
X146111942Y-101483577D01*
X157736474Y-94850000D02*
X159360797Y-96474323D01*
X155700000Y-94850000D02*
X157736474Y-94850000D01*
X159360797Y-96474323D02*
X159735796Y-96849322D01*
X150149987Y-100649987D02*
X150149987Y-98000012D01*
X151300000Y-101800000D02*
X150149987Y-100649987D01*
X150149987Y-98000012D02*
X150149987Y-97469682D01*
X118236054Y-80100000D02*
X118953344Y-80817290D01*
X112900000Y-80100000D02*
X118236054Y-80100000D01*
X118953344Y-80817290D02*
X119328343Y-81192289D01*
X115126368Y-81993561D02*
X114751369Y-82368560D01*
X116969985Y-81350011D02*
X115769918Y-81350011D01*
X115769918Y-81350011D02*
X115126368Y-81993561D01*
X142948434Y-87588420D02*
X144837176Y-85699678D01*
X142948434Y-94520044D02*
X142948434Y-87588420D01*
X144837176Y-85699678D02*
X145212175Y-85324679D01*
X145910984Y-86200022D02*
X145040046Y-86200022D01*
X145040046Y-86200022D02*
X143482739Y-87757329D01*
X143482739Y-87757329D02*
X143482739Y-93567604D01*
X143482739Y-93567604D02*
X143916066Y-94000931D01*
X143916066Y-94000931D02*
X143916066Y-94531261D01*
X118250000Y-82850056D02*
X117374999Y-83725057D01*
X118250000Y-81200000D02*
X118250000Y-82850056D01*
X117374999Y-83725057D02*
X117000000Y-84100056D01*
X160533043Y-97497287D02*
X160533043Y-96416075D01*
X159530025Y-97969975D02*
X160060355Y-97969975D01*
X160060355Y-97969975D02*
X160533043Y-97497287D01*
X160533043Y-96416075D02*
X158071125Y-93954157D01*
X156546510Y-93954157D02*
X156016180Y-93954157D01*
X158071125Y-93954157D02*
X156546510Y-93954157D01*
D23*
G36*
X170423000Y-104273000D02*
X161367592Y-104273000D01*
X162957796Y-102682796D01*
X163067483Y-102518638D01*
X163106000Y-102325000D01*
X163106000Y-101842807D01*
X164468700Y-101842807D01*
X164731674Y-102479252D01*
X165218187Y-102966614D01*
X165854172Y-103230699D01*
X166542807Y-103231300D01*
X167179252Y-102968326D01*
X167666614Y-102481813D01*
X167930699Y-101845828D01*
X167931300Y-101157193D01*
X167668326Y-100520748D01*
X167181813Y-100033386D01*
X166545828Y-99769301D01*
X165857193Y-99768700D01*
X165220748Y-100031674D01*
X164733386Y-100518187D01*
X164469301Y-101154172D01*
X164468700Y-101842807D01*
X163106000Y-101842807D01*
X163106000Y-97113096D01*
X163240532Y-96978799D01*
X163355869Y-96701037D01*
X163356131Y-96400282D01*
X163241279Y-96122320D01*
X163028799Y-95909468D01*
X162751037Y-95794131D01*
X162450282Y-95793869D01*
X162172320Y-95908721D01*
X161959468Y-96121201D01*
X161844131Y-96398963D01*
X161843869Y-96699718D01*
X161958721Y-96977680D01*
X162094000Y-97113196D01*
X162094000Y-102115408D01*
X160540408Y-103669000D01*
X152542014Y-103669000D01*
X152642482Y-103518639D01*
X152680999Y-103325001D01*
X152680999Y-98799997D01*
X152642482Y-98606359D01*
X152555955Y-98476863D01*
X152556131Y-98275280D01*
X152441279Y-97997318D01*
X152228799Y-97784466D01*
X151951037Y-97669129D01*
X151650282Y-97668867D01*
X151372320Y-97783719D01*
X151159468Y-97996199D01*
X151044131Y-98273961D01*
X151043869Y-98574716D01*
X151158721Y-98852678D01*
X151371201Y-99065530D01*
X151648963Y-99180867D01*
X151668999Y-99180884D01*
X151668999Y-101134637D01*
X151451037Y-101044131D01*
X151259556Y-101043964D01*
X150655987Y-100440395D01*
X150655987Y-98032778D01*
X150790519Y-97898481D01*
X150905856Y-97620719D01*
X150906118Y-97319964D01*
X150791266Y-97042002D01*
X150578786Y-96829150D01*
X150301024Y-96713813D01*
X150000269Y-96713551D01*
X149722307Y-96828403D01*
X149509455Y-97040883D01*
X149394118Y-97318645D01*
X149393856Y-97619400D01*
X149508708Y-97897362D01*
X149643987Y-98032878D01*
X149643987Y-100649987D01*
X149682504Y-100843625D01*
X149792191Y-101007783D01*
X150544035Y-101759627D01*
X150543869Y-101949718D01*
X150658721Y-102227680D01*
X150871201Y-102440532D01*
X151148963Y-102555869D01*
X151449718Y-102556131D01*
X151668999Y-102465526D01*
X151668999Y-103115409D01*
X151115408Y-103669000D01*
X148862173Y-103669000D01*
X148862173Y-99687312D01*
X148996705Y-99553015D01*
X149112042Y-99275253D01*
X149112304Y-98974498D01*
X148997452Y-98696536D01*
X148784972Y-98483684D01*
X148507210Y-98368347D01*
X148397341Y-98368251D01*
X148409627Y-98355965D01*
X148599718Y-98356131D01*
X148877680Y-98241279D01*
X149090532Y-98028799D01*
X149205869Y-97751037D01*
X149206131Y-97450282D01*
X149091279Y-97172320D01*
X148878799Y-96959468D01*
X148806410Y-96929409D01*
X148868047Y-96780970D01*
X148868309Y-96480215D01*
X148753457Y-96202253D01*
X148540977Y-95989401D01*
X148263215Y-95874064D01*
X147962460Y-95873802D01*
X147684498Y-95988654D01*
X147471646Y-96201134D01*
X147356309Y-96478896D01*
X147356142Y-96670377D01*
X145754146Y-98272373D01*
X145644459Y-98436531D01*
X145605942Y-98630169D01*
X145605942Y-101450811D01*
X145548746Y-101507907D01*
X144575383Y-101507907D01*
X142234682Y-99167206D01*
X142070524Y-99057519D01*
X141876886Y-99019002D01*
X141163096Y-99019002D01*
X141028799Y-98884470D01*
X140751037Y-98769133D01*
X140450282Y-98768871D01*
X140172320Y-98883723D01*
X139959468Y-99096203D01*
X139844131Y-99373965D01*
X139843869Y-99674720D01*
X139958721Y-99952682D01*
X140171201Y-100165534D01*
X140448963Y-100280871D01*
X140749718Y-100281133D01*
X140874290Y-100229661D01*
X140831671Y-100332298D01*
X140831409Y-100633053D01*
X140946261Y-100911015D01*
X141158741Y-101123867D01*
X141436503Y-101239204D01*
X141627984Y-101239371D01*
X142665787Y-102277174D01*
X142665600Y-102491985D01*
X142780452Y-102769947D01*
X142992932Y-102982799D01*
X143270694Y-103098136D01*
X143473731Y-103098313D01*
X143603092Y-103184749D01*
X143796730Y-103223266D01*
X146400591Y-103223266D01*
X146594229Y-103184749D01*
X146758387Y-103075062D01*
X147368569Y-102464880D01*
X147430828Y-102371703D01*
X147478256Y-102300722D01*
X147516773Y-102107084D01*
X147516773Y-99248819D01*
X147600137Y-99165455D01*
X147600042Y-99273934D01*
X147714894Y-99551896D01*
X147850173Y-99687412D01*
X147850173Y-103607225D01*
X147788398Y-103669000D01*
X143109988Y-103669000D01*
X142991001Y-103550013D01*
X142991167Y-103359922D01*
X142876315Y-103081960D01*
X142663835Y-102869108D01*
X142386073Y-102753771D01*
X142085318Y-102753509D01*
X141807356Y-102868361D01*
X141594504Y-103080841D01*
X141479167Y-103358603D01*
X141478905Y-103659358D01*
X141593757Y-103937320D01*
X141806237Y-104150172D01*
X142083999Y-104265509D01*
X142275480Y-104265676D01*
X142282804Y-104273000D01*
X119077000Y-104273000D01*
X119077000Y-103648533D01*
X119199588Y-103730443D01*
X119575000Y-103805117D01*
X119950412Y-103730443D01*
X120268672Y-103517789D01*
X120481326Y-103199529D01*
X120556000Y-102824117D01*
X120556000Y-102275883D01*
X120594000Y-102275883D01*
X120594000Y-102824117D01*
X120668674Y-103199529D01*
X120881328Y-103517789D01*
X121199588Y-103730443D01*
X121575000Y-103805117D01*
X121950412Y-103730443D01*
X122268672Y-103517789D01*
X122481326Y-103199529D01*
X122556000Y-102824117D01*
X122556000Y-102275883D01*
X122594000Y-102275883D01*
X122594000Y-102824117D01*
X122668674Y-103199529D01*
X122881328Y-103517789D01*
X123199588Y-103730443D01*
X123575000Y-103805117D01*
X123950412Y-103730443D01*
X124268672Y-103517789D01*
X124481326Y-103199529D01*
X124556000Y-102824117D01*
X124556000Y-102275883D01*
X124594000Y-102275883D01*
X124594000Y-102824117D01*
X124668674Y-103199529D01*
X124881328Y-103517789D01*
X125199588Y-103730443D01*
X125575000Y-103805117D01*
X125950412Y-103730443D01*
X126268672Y-103517789D01*
X126481326Y-103199529D01*
X126556000Y-102824117D01*
X126556000Y-102550500D01*
X126593000Y-102550500D01*
X126593000Y-102800500D01*
X126667942Y-103176257D01*
X126880975Y-103494732D01*
X127199667Y-103707441D01*
X127420888Y-103769832D01*
X127574500Y-103686500D01*
X127574500Y-102550500D01*
X127575500Y-102550500D01*
X127575500Y-103686500D01*
X127729112Y-103769832D01*
X127950333Y-103707441D01*
X128269025Y-103494732D01*
X128482058Y-103176257D01*
X128557000Y-102800500D01*
X128557000Y-102550500D01*
X127575500Y-102550500D01*
X127574500Y-102550500D01*
X126593000Y-102550500D01*
X126556000Y-102550500D01*
X126556000Y-102299500D01*
X126593000Y-102299500D01*
X126593000Y-102549500D01*
X127574500Y-102549500D01*
X127574500Y-101413500D01*
X127575500Y-101413500D01*
X127575500Y-102549500D01*
X128557000Y-102549500D01*
X128557000Y-102299500D01*
X128482058Y-101923743D01*
X128332393Y-101700000D01*
X128586536Y-101700000D01*
X128586536Y-103400000D01*
X128613103Y-103541190D01*
X128696546Y-103670865D01*
X128823866Y-103757859D01*
X128975000Y-103788464D01*
X130175000Y-103788464D01*
X130316190Y-103761897D01*
X130445865Y-103678454D01*
X130532859Y-103551134D01*
X130563464Y-103400000D01*
X130563464Y-101700000D01*
X130536897Y-101558810D01*
X130453454Y-101429135D01*
X130326134Y-101342141D01*
X130175000Y-101311536D01*
X128975000Y-101311536D01*
X128833810Y-101338103D01*
X128704135Y-101421546D01*
X128617141Y-101548866D01*
X128586536Y-101700000D01*
X128332393Y-101700000D01*
X128269025Y-101605268D01*
X127950333Y-101392559D01*
X127729112Y-101330168D01*
X127575500Y-101413500D01*
X127574500Y-101413500D01*
X127420888Y-101330168D01*
X127199667Y-101392559D01*
X126880975Y-101605268D01*
X126667942Y-101923743D01*
X126593000Y-102299500D01*
X126556000Y-102299500D01*
X126556000Y-102275883D01*
X126481326Y-101900471D01*
X126268672Y-101582211D01*
X125950412Y-101369557D01*
X125575000Y-101294883D01*
X125199588Y-101369557D01*
X124881328Y-101582211D01*
X124668674Y-101900471D01*
X124594000Y-102275883D01*
X124556000Y-102275883D01*
X124481326Y-101900471D01*
X124268672Y-101582211D01*
X123950412Y-101369557D01*
X123575000Y-101294883D01*
X123199588Y-101369557D01*
X122881328Y-101582211D01*
X122668674Y-101900471D01*
X122594000Y-102275883D01*
X122556000Y-102275883D01*
X122481326Y-101900471D01*
X122268672Y-101582211D01*
X121950412Y-101369557D01*
X121575000Y-101294883D01*
X121199588Y-101369557D01*
X120881328Y-101582211D01*
X120668674Y-101900471D01*
X120594000Y-102275883D01*
X120556000Y-102275883D01*
X120481326Y-101900471D01*
X120268672Y-101582211D01*
X119950412Y-101369557D01*
X119575000Y-101294883D01*
X119199588Y-101369557D01*
X119077000Y-101451467D01*
X119077000Y-98127000D01*
X122500000Y-98127000D01*
X122549410Y-98116994D01*
X122591035Y-98088553D01*
X122618315Y-98046159D01*
X122627000Y-98000000D01*
X122627000Y-95414455D01*
X122706363Y-95467483D01*
X122900000Y-95506000D01*
X123093638Y-95467483D01*
X123257796Y-95357796D01*
X123367483Y-95193638D01*
X123406000Y-95000000D01*
X123367483Y-94806363D01*
X123330918Y-94751639D01*
X136645567Y-94751639D01*
X136760419Y-95029601D01*
X136972899Y-95242453D01*
X137250661Y-95357790D01*
X137442142Y-95357957D01*
X138984826Y-96900641D01*
X139148984Y-97010328D01*
X139342622Y-97048845D01*
X139891327Y-97048845D01*
X140025624Y-97183377D01*
X140303386Y-97298714D01*
X140604141Y-97298976D01*
X140882103Y-97184124D01*
X141094955Y-96971644D01*
X141210292Y-96693882D01*
X141210476Y-96482640D01*
X141290547Y-96482710D01*
X141568509Y-96367858D01*
X141781361Y-96155378D01*
X141896698Y-95877616D01*
X141896960Y-95576861D01*
X141782108Y-95298899D01*
X141569628Y-95086047D01*
X141527395Y-95068510D01*
X141498625Y-95025453D01*
X141142934Y-94669762D01*
X142192303Y-94669762D01*
X142307155Y-94947724D01*
X142519635Y-95160576D01*
X142797397Y-95275913D01*
X143098152Y-95276175D01*
X143376114Y-95161323D01*
X143426553Y-95110972D01*
X143487267Y-95171793D01*
X143765029Y-95287130D01*
X144065784Y-95287392D01*
X144343746Y-95172540D01*
X144516870Y-94999718D01*
X154943869Y-94999718D01*
X155058721Y-95277680D01*
X155271201Y-95490532D01*
X155548963Y-95605869D01*
X155849718Y-95606131D01*
X156127680Y-95491279D01*
X156263196Y-95356000D01*
X157526882Y-95356000D01*
X158979831Y-96808949D01*
X158979665Y-96999040D01*
X159094517Y-97277002D01*
X159133337Y-97315890D01*
X159102345Y-97328696D01*
X158889493Y-97541176D01*
X158774156Y-97818938D01*
X158773894Y-98119693D01*
X158888746Y-98397655D01*
X159101226Y-98610507D01*
X159378988Y-98725844D01*
X159679743Y-98726106D01*
X159957705Y-98611254D01*
X160101399Y-98467811D01*
X160253993Y-98437458D01*
X160418151Y-98327771D01*
X160890839Y-97855083D01*
X161000526Y-97690925D01*
X161039043Y-97497287D01*
X161039043Y-96416075D01*
X161000526Y-96222437D01*
X160890839Y-96058279D01*
X158428921Y-93596361D01*
X158264763Y-93486674D01*
X158071125Y-93448157D01*
X156579276Y-93448157D01*
X156444979Y-93313625D01*
X156167217Y-93198288D01*
X155866462Y-93198026D01*
X155588500Y-93312878D01*
X155375648Y-93525358D01*
X155260311Y-93803120D01*
X155260049Y-94103875D01*
X155298843Y-94197762D01*
X155272320Y-94208721D01*
X155059468Y-94421201D01*
X154944131Y-94698963D01*
X154943869Y-94999718D01*
X144516870Y-94999718D01*
X144556598Y-94960060D01*
X144671935Y-94682298D01*
X144672197Y-94381543D01*
X144557345Y-94103581D01*
X144413902Y-93959887D01*
X144383549Y-93807293D01*
X144273862Y-93643135D01*
X143988739Y-93358012D01*
X143988739Y-87966921D01*
X145249638Y-86706022D01*
X145347888Y-86706022D01*
X145482185Y-86840554D01*
X145759947Y-86955891D01*
X146060702Y-86956153D01*
X146338664Y-86841301D01*
X146551516Y-86628821D01*
X146666853Y-86351059D01*
X146667115Y-86050304D01*
X146552263Y-85772342D01*
X146339783Y-85559490D01*
X146062021Y-85444153D01*
X145968072Y-85444071D01*
X145968306Y-85174961D01*
X145853454Y-84896999D01*
X145640974Y-84684147D01*
X145363212Y-84568810D01*
X145062457Y-84568548D01*
X144784495Y-84683400D01*
X144571643Y-84895880D01*
X144456306Y-85173642D01*
X144456139Y-85365123D01*
X142590638Y-87230624D01*
X142480951Y-87394782D01*
X142442434Y-87588420D01*
X142442434Y-93956948D01*
X142307902Y-94091245D01*
X142192565Y-94369007D01*
X142192303Y-94669762D01*
X141142934Y-94669762D01*
X140098556Y-93625384D01*
X140098722Y-93435293D01*
X139983870Y-93157331D01*
X139771390Y-92944479D01*
X139493628Y-92829142D01*
X139192873Y-92828880D01*
X138914911Y-92943732D01*
X138702059Y-93156212D01*
X138586722Y-93433974D01*
X138586460Y-93734729D01*
X138589915Y-93743092D01*
X138513182Y-93743025D01*
X138235220Y-93857877D01*
X138022368Y-94070357D01*
X137997958Y-94129143D01*
X137830497Y-93961389D01*
X137552735Y-93846052D01*
X137251980Y-93845790D01*
X136974018Y-93960642D01*
X136761166Y-94173122D01*
X136645829Y-94450884D01*
X136645567Y-94751639D01*
X123330918Y-94751639D01*
X123257796Y-94642204D01*
X123249994Y-94634402D01*
X123085836Y-94524715D01*
X122892198Y-94486198D01*
X122698560Y-94524715D01*
X122627000Y-94572530D01*
X122627000Y-85699718D01*
X138743869Y-85699718D01*
X138858721Y-85977680D01*
X139071201Y-86190532D01*
X139348963Y-86305869D01*
X139552000Y-86306046D01*
X139681361Y-86392482D01*
X139874999Y-86430999D01*
X142688999Y-86430999D01*
X142882637Y-86392482D01*
X143046795Y-86282795D01*
X145873590Y-83456000D01*
X147015410Y-83456000D01*
X147619037Y-84059627D01*
X147618871Y-84249718D01*
X147733723Y-84527680D01*
X147946203Y-84740532D01*
X148223965Y-84855869D01*
X148524720Y-84856131D01*
X148785695Y-84748298D01*
X145578623Y-87955370D01*
X145388532Y-87955204D01*
X145110570Y-88070056D01*
X144897718Y-88282536D01*
X144782381Y-88560298D01*
X144782119Y-88861053D01*
X144896971Y-89139015D01*
X145109451Y-89351867D01*
X145387213Y-89467204D01*
X145687968Y-89467466D01*
X145965930Y-89352614D01*
X146178782Y-89140134D01*
X146294119Y-88862372D01*
X146294286Y-88670891D01*
X150953264Y-84011913D01*
X153081640Y-84011913D01*
X153215937Y-84146445D01*
X153493699Y-84261782D01*
X153794454Y-84262044D01*
X154072416Y-84147192D01*
X154285268Y-83934712D01*
X154400605Y-83656950D01*
X154400689Y-83560953D01*
X155072715Y-84232979D01*
X155059468Y-84246203D01*
X154944131Y-84523965D01*
X154943869Y-84824720D01*
X155058721Y-85102682D01*
X155271201Y-85315534D01*
X155548963Y-85430871D01*
X155849718Y-85431133D01*
X156127680Y-85316281D01*
X156340532Y-85103801D01*
X156455869Y-84826039D01*
X156456131Y-84525284D01*
X156341279Y-84247322D01*
X156197836Y-84103628D01*
X156167483Y-83951034D01*
X156057796Y-83786876D01*
X154719036Y-82448116D01*
X154554878Y-82338429D01*
X154361240Y-82299912D01*
X154155194Y-82299912D01*
X154184740Y-82228758D01*
X154185002Y-81928003D01*
X154070150Y-81650041D01*
X153857670Y-81437189D01*
X153579908Y-81321852D01*
X153279153Y-81321590D01*
X153001191Y-81436442D01*
X152865675Y-81571721D01*
X144284686Y-81571721D01*
X144091048Y-81610238D01*
X143926890Y-81719925D01*
X141346119Y-84300696D01*
X141156028Y-84300530D01*
X140878066Y-84415382D01*
X140665214Y-84627862D01*
X140549877Y-84905624D01*
X140549615Y-85206379D01*
X140637468Y-85418999D01*
X140256115Y-85418999D01*
X140256131Y-85400282D01*
X140141279Y-85122320D01*
X139928799Y-84909468D01*
X139651037Y-84794131D01*
X139350282Y-84793869D01*
X139072320Y-84908721D01*
X138859468Y-85121201D01*
X138744131Y-85398963D01*
X138743869Y-85699718D01*
X122627000Y-85699718D01*
X122627000Y-84627000D01*
X126050000Y-84627000D01*
X126099410Y-84616994D01*
X126141035Y-84588553D01*
X126168315Y-84546159D01*
X126177000Y-84500000D01*
X126177000Y-81127000D01*
X170423000Y-81127000D01*
X170423000Y-104273000D01*
X170423000Y-104273000D01*
G37*
X170423000Y-104273000D02*
X161367592Y-104273000D01*
X162957796Y-102682796D01*
X163067483Y-102518638D01*
X163106000Y-102325000D01*
X163106000Y-101842807D01*
X164468700Y-101842807D01*
X164731674Y-102479252D01*
X165218187Y-102966614D01*
X165854172Y-103230699D01*
X166542807Y-103231300D01*
X167179252Y-102968326D01*
X167666614Y-102481813D01*
X167930699Y-101845828D01*
X167931300Y-101157193D01*
X167668326Y-100520748D01*
X167181813Y-100033386D01*
X166545828Y-99769301D01*
X165857193Y-99768700D01*
X165220748Y-100031674D01*
X164733386Y-100518187D01*
X164469301Y-101154172D01*
X164468700Y-101842807D01*
X163106000Y-101842807D01*
X163106000Y-97113096D01*
X163240532Y-96978799D01*
X163355869Y-96701037D01*
X163356131Y-96400282D01*
X163241279Y-96122320D01*
X163028799Y-95909468D01*
X162751037Y-95794131D01*
X162450282Y-95793869D01*
X162172320Y-95908721D01*
X161959468Y-96121201D01*
X161844131Y-96398963D01*
X161843869Y-96699718D01*
X161958721Y-96977680D01*
X162094000Y-97113196D01*
X162094000Y-102115408D01*
X160540408Y-103669000D01*
X152542014Y-103669000D01*
X152642482Y-103518639D01*
X152680999Y-103325001D01*
X152680999Y-98799997D01*
X152642482Y-98606359D01*
X152555955Y-98476863D01*
X152556131Y-98275280D01*
X152441279Y-97997318D01*
X152228799Y-97784466D01*
X151951037Y-97669129D01*
X151650282Y-97668867D01*
X151372320Y-97783719D01*
X151159468Y-97996199D01*
X151044131Y-98273961D01*
X151043869Y-98574716D01*
X151158721Y-98852678D01*
X151371201Y-99065530D01*
X151648963Y-99180867D01*
X151668999Y-99180884D01*
X151668999Y-101134637D01*
X151451037Y-101044131D01*
X151259556Y-101043964D01*
X150655987Y-100440395D01*
X150655987Y-98032778D01*
X150790519Y-97898481D01*
X150905856Y-97620719D01*
X150906118Y-97319964D01*
X150791266Y-97042002D01*
X150578786Y-96829150D01*
X150301024Y-96713813D01*
X150000269Y-96713551D01*
X149722307Y-96828403D01*
X149509455Y-97040883D01*
X149394118Y-97318645D01*
X149393856Y-97619400D01*
X149508708Y-97897362D01*
X149643987Y-98032878D01*
X149643987Y-100649987D01*
X149682504Y-100843625D01*
X149792191Y-101007783D01*
X150544035Y-101759627D01*
X150543869Y-101949718D01*
X150658721Y-102227680D01*
X150871201Y-102440532D01*
X151148963Y-102555869D01*
X151449718Y-102556131D01*
X151668999Y-102465526D01*
X151668999Y-103115409D01*
X151115408Y-103669000D01*
X148862173Y-103669000D01*
X148862173Y-99687312D01*
X148996705Y-99553015D01*
X149112042Y-99275253D01*
X149112304Y-98974498D01*
X148997452Y-98696536D01*
X148784972Y-98483684D01*
X148507210Y-98368347D01*
X148397341Y-98368251D01*
X148409627Y-98355965D01*
X148599718Y-98356131D01*
X148877680Y-98241279D01*
X149090532Y-98028799D01*
X149205869Y-97751037D01*
X149206131Y-97450282D01*
X149091279Y-97172320D01*
X148878799Y-96959468D01*
X148806410Y-96929409D01*
X148868047Y-96780970D01*
X148868309Y-96480215D01*
X148753457Y-96202253D01*
X148540977Y-95989401D01*
X148263215Y-95874064D01*
X147962460Y-95873802D01*
X147684498Y-95988654D01*
X147471646Y-96201134D01*
X147356309Y-96478896D01*
X147356142Y-96670377D01*
X145754146Y-98272373D01*
X145644459Y-98436531D01*
X145605942Y-98630169D01*
X145605942Y-101450811D01*
X145548746Y-101507907D01*
X144575383Y-101507907D01*
X142234682Y-99167206D01*
X142070524Y-99057519D01*
X141876886Y-99019002D01*
X141163096Y-99019002D01*
X141028799Y-98884470D01*
X140751037Y-98769133D01*
X140450282Y-98768871D01*
X140172320Y-98883723D01*
X139959468Y-99096203D01*
X139844131Y-99373965D01*
X139843869Y-99674720D01*
X139958721Y-99952682D01*
X140171201Y-100165534D01*
X140448963Y-100280871D01*
X140749718Y-100281133D01*
X140874290Y-100229661D01*
X140831671Y-100332298D01*
X140831409Y-100633053D01*
X140946261Y-100911015D01*
X141158741Y-101123867D01*
X141436503Y-101239204D01*
X141627984Y-101239371D01*
X142665787Y-102277174D01*
X142665600Y-102491985D01*
X142780452Y-102769947D01*
X142992932Y-102982799D01*
X143270694Y-103098136D01*
X143473731Y-103098313D01*
X143603092Y-103184749D01*
X143796730Y-103223266D01*
X146400591Y-103223266D01*
X146594229Y-103184749D01*
X146758387Y-103075062D01*
X147368569Y-102464880D01*
X147430828Y-102371703D01*
X147478256Y-102300722D01*
X147516773Y-102107084D01*
X147516773Y-99248819D01*
X147600137Y-99165455D01*
X147600042Y-99273934D01*
X147714894Y-99551896D01*
X147850173Y-99687412D01*
X147850173Y-103607225D01*
X147788398Y-103669000D01*
X143109988Y-103669000D01*
X142991001Y-103550013D01*
X142991167Y-103359922D01*
X142876315Y-103081960D01*
X142663835Y-102869108D01*
X142386073Y-102753771D01*
X142085318Y-102753509D01*
X141807356Y-102868361D01*
X141594504Y-103080841D01*
X141479167Y-103358603D01*
X141478905Y-103659358D01*
X141593757Y-103937320D01*
X141806237Y-104150172D01*
X142083999Y-104265509D01*
X142275480Y-104265676D01*
X142282804Y-104273000D01*
X119077000Y-104273000D01*
X119077000Y-103648533D01*
X119199588Y-103730443D01*
X119575000Y-103805117D01*
X119950412Y-103730443D01*
X120268672Y-103517789D01*
X120481326Y-103199529D01*
X120556000Y-102824117D01*
X120556000Y-102275883D01*
X120594000Y-102275883D01*
X120594000Y-102824117D01*
X120668674Y-103199529D01*
X120881328Y-103517789D01*
X121199588Y-103730443D01*
X121575000Y-103805117D01*
X121950412Y-103730443D01*
X122268672Y-103517789D01*
X122481326Y-103199529D01*
X122556000Y-102824117D01*
X122556000Y-102275883D01*
X122594000Y-102275883D01*
X122594000Y-102824117D01*
X122668674Y-103199529D01*
X122881328Y-103517789D01*
X123199588Y-103730443D01*
X123575000Y-103805117D01*
X123950412Y-103730443D01*
X124268672Y-103517789D01*
X124481326Y-103199529D01*
X124556000Y-102824117D01*
X124556000Y-102275883D01*
X124594000Y-102275883D01*
X124594000Y-102824117D01*
X124668674Y-103199529D01*
X124881328Y-103517789D01*
X125199588Y-103730443D01*
X125575000Y-103805117D01*
X125950412Y-103730443D01*
X126268672Y-103517789D01*
X126481326Y-103199529D01*
X126556000Y-102824117D01*
X126556000Y-102550500D01*
X126593000Y-102550500D01*
X126593000Y-102800500D01*
X126667942Y-103176257D01*
X126880975Y-103494732D01*
X127199667Y-103707441D01*
X127420888Y-103769832D01*
X127574500Y-103686500D01*
X127574500Y-102550500D01*
X127575500Y-102550500D01*
X127575500Y-103686500D01*
X127729112Y-103769832D01*
X127950333Y-103707441D01*
X128269025Y-103494732D01*
X128482058Y-103176257D01*
X128557000Y-102800500D01*
X128557000Y-102550500D01*
X127575500Y-102550500D01*
X127574500Y-102550500D01*
X126593000Y-102550500D01*
X126556000Y-102550500D01*
X126556000Y-102299500D01*
X126593000Y-102299500D01*
X126593000Y-102549500D01*
X127574500Y-102549500D01*
X127574500Y-101413500D01*
X127575500Y-101413500D01*
X127575500Y-102549500D01*
X128557000Y-102549500D01*
X128557000Y-102299500D01*
X128482058Y-101923743D01*
X128332393Y-101700000D01*
X128586536Y-101700000D01*
X128586536Y-103400000D01*
X128613103Y-103541190D01*
X128696546Y-103670865D01*
X128823866Y-103757859D01*
X128975000Y-103788464D01*
X130175000Y-103788464D01*
X130316190Y-103761897D01*
X130445865Y-103678454D01*
X130532859Y-103551134D01*
X130563464Y-103400000D01*
X130563464Y-101700000D01*
X130536897Y-101558810D01*
X130453454Y-101429135D01*
X130326134Y-101342141D01*
X130175000Y-101311536D01*
X128975000Y-101311536D01*
X128833810Y-101338103D01*
X128704135Y-101421546D01*
X128617141Y-101548866D01*
X128586536Y-101700000D01*
X128332393Y-101700000D01*
X128269025Y-101605268D01*
X127950333Y-101392559D01*
X127729112Y-101330168D01*
X127575500Y-101413500D01*
X127574500Y-101413500D01*
X127420888Y-101330168D01*
X127199667Y-101392559D01*
X126880975Y-101605268D01*
X126667942Y-101923743D01*
X126593000Y-102299500D01*
X126556000Y-102299500D01*
X126556000Y-102275883D01*
X126481326Y-101900471D01*
X126268672Y-101582211D01*
X125950412Y-101369557D01*
X125575000Y-101294883D01*
X125199588Y-101369557D01*
X124881328Y-101582211D01*
X124668674Y-101900471D01*
X124594000Y-102275883D01*
X124556000Y-102275883D01*
X124481326Y-101900471D01*
X124268672Y-101582211D01*
X123950412Y-101369557D01*
X123575000Y-101294883D01*
X123199588Y-101369557D01*
X122881328Y-101582211D01*
X122668674Y-101900471D01*
X122594000Y-102275883D01*
X122556000Y-102275883D01*
X122481326Y-101900471D01*
X122268672Y-101582211D01*
X121950412Y-101369557D01*
X121575000Y-101294883D01*
X121199588Y-101369557D01*
X120881328Y-101582211D01*
X120668674Y-101900471D01*
X120594000Y-102275883D01*
X120556000Y-102275883D01*
X120481326Y-101900471D01*
X120268672Y-101582211D01*
X119950412Y-101369557D01*
X119575000Y-101294883D01*
X119199588Y-101369557D01*
X119077000Y-101451467D01*
X119077000Y-98127000D01*
X122500000Y-98127000D01*
X122549410Y-98116994D01*
X122591035Y-98088553D01*
X122618315Y-98046159D01*
X122627000Y-98000000D01*
X122627000Y-95414455D01*
X122706363Y-95467483D01*
X122900000Y-95506000D01*
X123093638Y-95467483D01*
X123257796Y-95357796D01*
X123367483Y-95193638D01*
X123406000Y-95000000D01*
X123367483Y-94806363D01*
X123330918Y-94751639D01*
X136645567Y-94751639D01*
X136760419Y-95029601D01*
X136972899Y-95242453D01*
X137250661Y-95357790D01*
X137442142Y-95357957D01*
X138984826Y-96900641D01*
X139148984Y-97010328D01*
X139342622Y-97048845D01*
X139891327Y-97048845D01*
X140025624Y-97183377D01*
X140303386Y-97298714D01*
X140604141Y-97298976D01*
X140882103Y-97184124D01*
X141094955Y-96971644D01*
X141210292Y-96693882D01*
X141210476Y-96482640D01*
X141290547Y-96482710D01*
X141568509Y-96367858D01*
X141781361Y-96155378D01*
X141896698Y-95877616D01*
X141896960Y-95576861D01*
X141782108Y-95298899D01*
X141569628Y-95086047D01*
X141527395Y-95068510D01*
X141498625Y-95025453D01*
X141142934Y-94669762D01*
X142192303Y-94669762D01*
X142307155Y-94947724D01*
X142519635Y-95160576D01*
X142797397Y-95275913D01*
X143098152Y-95276175D01*
X143376114Y-95161323D01*
X143426553Y-95110972D01*
X143487267Y-95171793D01*
X143765029Y-95287130D01*
X144065784Y-95287392D01*
X144343746Y-95172540D01*
X144516870Y-94999718D01*
X154943869Y-94999718D01*
X155058721Y-95277680D01*
X155271201Y-95490532D01*
X155548963Y-95605869D01*
X155849718Y-95606131D01*
X156127680Y-95491279D01*
X156263196Y-95356000D01*
X157526882Y-95356000D01*
X158979831Y-96808949D01*
X158979665Y-96999040D01*
X159094517Y-97277002D01*
X159133337Y-97315890D01*
X159102345Y-97328696D01*
X158889493Y-97541176D01*
X158774156Y-97818938D01*
X158773894Y-98119693D01*
X158888746Y-98397655D01*
X159101226Y-98610507D01*
X159378988Y-98725844D01*
X159679743Y-98726106D01*
X159957705Y-98611254D01*
X160101399Y-98467811D01*
X160253993Y-98437458D01*
X160418151Y-98327771D01*
X160890839Y-97855083D01*
X161000526Y-97690925D01*
X161039043Y-97497287D01*
X161039043Y-96416075D01*
X161000526Y-96222437D01*
X160890839Y-96058279D01*
X158428921Y-93596361D01*
X158264763Y-93486674D01*
X158071125Y-93448157D01*
X156579276Y-93448157D01*
X156444979Y-93313625D01*
X156167217Y-93198288D01*
X155866462Y-93198026D01*
X155588500Y-93312878D01*
X155375648Y-93525358D01*
X155260311Y-93803120D01*
X155260049Y-94103875D01*
X155298843Y-94197762D01*
X155272320Y-94208721D01*
X155059468Y-94421201D01*
X154944131Y-94698963D01*
X154943869Y-94999718D01*
X144516870Y-94999718D01*
X144556598Y-94960060D01*
X144671935Y-94682298D01*
X144672197Y-94381543D01*
X144557345Y-94103581D01*
X144413902Y-93959887D01*
X144383549Y-93807293D01*
X144273862Y-93643135D01*
X143988739Y-93358012D01*
X143988739Y-87966921D01*
X145249638Y-86706022D01*
X145347888Y-86706022D01*
X145482185Y-86840554D01*
X145759947Y-86955891D01*
X146060702Y-86956153D01*
X146338664Y-86841301D01*
X146551516Y-86628821D01*
X146666853Y-86351059D01*
X146667115Y-86050304D01*
X146552263Y-85772342D01*
X146339783Y-85559490D01*
X146062021Y-85444153D01*
X145968072Y-85444071D01*
X145968306Y-85174961D01*
X145853454Y-84896999D01*
X145640974Y-84684147D01*
X145363212Y-84568810D01*
X145062457Y-84568548D01*
X144784495Y-84683400D01*
X144571643Y-84895880D01*
X144456306Y-85173642D01*
X144456139Y-85365123D01*
X142590638Y-87230624D01*
X142480951Y-87394782D01*
X142442434Y-87588420D01*
X142442434Y-93956948D01*
X142307902Y-94091245D01*
X142192565Y-94369007D01*
X142192303Y-94669762D01*
X141142934Y-94669762D01*
X140098556Y-93625384D01*
X140098722Y-93435293D01*
X139983870Y-93157331D01*
X139771390Y-92944479D01*
X139493628Y-92829142D01*
X139192873Y-92828880D01*
X138914911Y-92943732D01*
X138702059Y-93156212D01*
X138586722Y-93433974D01*
X138586460Y-93734729D01*
X138589915Y-93743092D01*
X138513182Y-93743025D01*
X138235220Y-93857877D01*
X138022368Y-94070357D01*
X137997958Y-94129143D01*
X137830497Y-93961389D01*
X137552735Y-93846052D01*
X137251980Y-93845790D01*
X136974018Y-93960642D01*
X136761166Y-94173122D01*
X136645829Y-94450884D01*
X136645567Y-94751639D01*
X123330918Y-94751639D01*
X123257796Y-94642204D01*
X123249994Y-94634402D01*
X123085836Y-94524715D01*
X122892198Y-94486198D01*
X122698560Y-94524715D01*
X122627000Y-94572530D01*
X122627000Y-85699718D01*
X138743869Y-85699718D01*
X138858721Y-85977680D01*
X139071201Y-86190532D01*
X139348963Y-86305869D01*
X139552000Y-86306046D01*
X139681361Y-86392482D01*
X139874999Y-86430999D01*
X142688999Y-86430999D01*
X142882637Y-86392482D01*
X143046795Y-86282795D01*
X145873590Y-83456000D01*
X147015410Y-83456000D01*
X147619037Y-84059627D01*
X147618871Y-84249718D01*
X147733723Y-84527680D01*
X147946203Y-84740532D01*
X148223965Y-84855869D01*
X148524720Y-84856131D01*
X148785695Y-84748298D01*
X145578623Y-87955370D01*
X145388532Y-87955204D01*
X145110570Y-88070056D01*
X144897718Y-88282536D01*
X144782381Y-88560298D01*
X144782119Y-88861053D01*
X144896971Y-89139015D01*
X145109451Y-89351867D01*
X145387213Y-89467204D01*
X145687968Y-89467466D01*
X145965930Y-89352614D01*
X146178782Y-89140134D01*
X146294119Y-88862372D01*
X146294286Y-88670891D01*
X150953264Y-84011913D01*
X153081640Y-84011913D01*
X153215937Y-84146445D01*
X153493699Y-84261782D01*
X153794454Y-84262044D01*
X154072416Y-84147192D01*
X154285268Y-83934712D01*
X154400605Y-83656950D01*
X154400689Y-83560953D01*
X155072715Y-84232979D01*
X155059468Y-84246203D01*
X154944131Y-84523965D01*
X154943869Y-84824720D01*
X155058721Y-85102682D01*
X155271201Y-85315534D01*
X155548963Y-85430871D01*
X155849718Y-85431133D01*
X156127680Y-85316281D01*
X156340532Y-85103801D01*
X156455869Y-84826039D01*
X156456131Y-84525284D01*
X156341279Y-84247322D01*
X156197836Y-84103628D01*
X156167483Y-83951034D01*
X156057796Y-83786876D01*
X154719036Y-82448116D01*
X154554878Y-82338429D01*
X154361240Y-82299912D01*
X154155194Y-82299912D01*
X154184740Y-82228758D01*
X154185002Y-81928003D01*
X154070150Y-81650041D01*
X153857670Y-81437189D01*
X153579908Y-81321852D01*
X153279153Y-81321590D01*
X153001191Y-81436442D01*
X152865675Y-81571721D01*
X144284686Y-81571721D01*
X144091048Y-81610238D01*
X143926890Y-81719925D01*
X141346119Y-84300696D01*
X141156028Y-84300530D01*
X140878066Y-84415382D01*
X140665214Y-84627862D01*
X140549877Y-84905624D01*
X140549615Y-85206379D01*
X140637468Y-85418999D01*
X140256115Y-85418999D01*
X140256131Y-85400282D01*
X140141279Y-85122320D01*
X139928799Y-84909468D01*
X139651037Y-84794131D01*
X139350282Y-84793869D01*
X139072320Y-84908721D01*
X138859468Y-85121201D01*
X138744131Y-85398963D01*
X138743869Y-85699718D01*
X122627000Y-85699718D01*
X122627000Y-84627000D01*
X126050000Y-84627000D01*
X126099410Y-84616994D01*
X126141035Y-84588553D01*
X126168315Y-84546159D01*
X126177000Y-84500000D01*
X126177000Y-81127000D01*
X170423000Y-81127000D01*
X170423000Y-104273000D01*
G36*
X98311536Y-73300000D02*
X98338103Y-73441190D01*
X98421546Y-73570865D01*
X98548866Y-73657859D01*
X98700000Y-73688464D01*
X100500000Y-73688464D01*
X100641190Y-73661897D01*
X100770865Y-73578454D01*
X100857859Y-73451134D01*
X100888464Y-73300000D01*
X100888464Y-72725534D01*
X101053388Y-73124680D01*
X101413425Y-73485345D01*
X101884076Y-73680777D01*
X102393689Y-73681222D01*
X102864680Y-73486612D01*
X103094597Y-73257095D01*
X103823612Y-73257095D01*
X103912101Y-73457773D01*
X104375347Y-73671117D01*
X104884972Y-73690945D01*
X105363393Y-73514238D01*
X105447899Y-73457773D01*
X105536388Y-73257095D01*
X104680000Y-72400707D01*
X103823612Y-73257095D01*
X103094597Y-73257095D01*
X103225345Y-73126575D01*
X103413948Y-72672369D01*
X103565762Y-73083393D01*
X103622227Y-73167899D01*
X103822905Y-73256388D01*
X104679293Y-72400000D01*
X104665151Y-72385858D01*
X104665858Y-72385151D01*
X104680000Y-72399293D01*
X104694143Y-72385151D01*
X104694850Y-72385858D01*
X104680707Y-72400000D01*
X105537095Y-73256388D01*
X105737773Y-73167899D01*
X105951117Y-72704653D01*
X105970945Y-72195028D01*
X105794238Y-71716607D01*
X105737773Y-71632101D01*
X105537097Y-71543613D01*
X105553710Y-71527000D01*
X118665795Y-71527000D01*
X118361605Y-71652689D01*
X118113560Y-71900302D01*
X117979153Y-72223989D01*
X117978847Y-72574473D01*
X118112689Y-72898395D01*
X118360302Y-73146440D01*
X118683989Y-73280847D01*
X119034473Y-73281153D01*
X119358395Y-73147311D01*
X119606440Y-72899698D01*
X119740847Y-72576011D01*
X119741153Y-72225527D01*
X119607311Y-71901605D01*
X119359698Y-71653560D01*
X119054909Y-71527000D01*
X120817817Y-71527000D01*
X120758810Y-71538103D01*
X120629135Y-71621546D01*
X120542141Y-71748866D01*
X120511536Y-71900000D01*
X120511536Y-72874670D01*
X120339446Y-72795452D01*
X119988828Y-72781871D01*
X119659701Y-72903500D01*
X119601822Y-72942174D01*
X119561996Y-73101289D01*
X120130000Y-73669293D01*
X120144143Y-73655151D01*
X120144850Y-73655858D01*
X120130707Y-73670000D01*
X120698711Y-74238004D01*
X120857826Y-74198178D01*
X121004548Y-73879446D01*
X121018129Y-73528828D01*
X120929302Y-73288464D01*
X121900000Y-73288464D01*
X122041190Y-73261897D01*
X122170865Y-73178454D01*
X122257859Y-73051134D01*
X122288464Y-72900000D01*
X122288464Y-71900000D01*
X122261897Y-71758810D01*
X122178454Y-71629135D01*
X122051134Y-71542141D01*
X121976365Y-71527000D01*
X125473000Y-71527000D01*
X125473000Y-83923000D01*
X122050000Y-83923000D01*
X122000590Y-83933006D01*
X121958965Y-83961447D01*
X121931685Y-84003841D01*
X121923000Y-84050000D01*
X121923000Y-94572530D01*
X121851440Y-94524715D01*
X121657802Y-94486198D01*
X121464165Y-94524715D01*
X121300006Y-94634402D01*
X121292204Y-94642204D01*
X121182517Y-94806362D01*
X121144000Y-95000000D01*
X121182517Y-95193638D01*
X121292204Y-95357796D01*
X121456362Y-95467483D01*
X121650000Y-95506000D01*
X121843638Y-95467483D01*
X121923000Y-95414455D01*
X121923000Y-97423000D01*
X118500000Y-97423000D01*
X118450590Y-97433006D01*
X118408965Y-97461447D01*
X118381685Y-97503841D01*
X118373000Y-97550000D01*
X118373000Y-104273000D01*
X83227000Y-104273000D01*
X83227000Y-101842807D01*
X84468700Y-101842807D01*
X84731674Y-102479252D01*
X85218187Y-102966614D01*
X85854172Y-103230699D01*
X86542807Y-103231300D01*
X87179252Y-102968326D01*
X87666614Y-102481813D01*
X87930699Y-101845828D01*
X87931300Y-101157193D01*
X87668326Y-100520748D01*
X87181813Y-100033386D01*
X86545828Y-99769301D01*
X85857193Y-99768700D01*
X85220748Y-100031674D01*
X84733386Y-100518187D01*
X84469301Y-101154172D01*
X84468700Y-101842807D01*
X83227000Y-101842807D01*
X83227000Y-94500000D01*
X84661536Y-94500000D01*
X84661536Y-95700000D01*
X84688103Y-95841190D01*
X84771546Y-95970865D01*
X84898866Y-96057859D01*
X85050000Y-96088464D01*
X86750000Y-96088464D01*
X86891190Y-96061897D01*
X87020865Y-95978454D01*
X87107859Y-95851134D01*
X87138464Y-95700000D01*
X87138464Y-94500000D01*
X87111897Y-94358810D01*
X87028454Y-94229135D01*
X86901134Y-94142141D01*
X86750000Y-94111536D01*
X85050000Y-94111536D01*
X84908810Y-94138103D01*
X84779135Y-94221546D01*
X84692141Y-94348866D01*
X84661536Y-94500000D01*
X83227000Y-94500000D01*
X83227000Y-93254112D01*
X84680168Y-93254112D01*
X84742559Y-93475333D01*
X84955268Y-93794025D01*
X85273743Y-94007058D01*
X85649500Y-94082000D01*
X85899500Y-94082000D01*
X85899500Y-93100500D01*
X85900500Y-93100500D01*
X85900500Y-94082000D01*
X86150500Y-94082000D01*
X86526257Y-94007058D01*
X86844732Y-93794025D01*
X87057441Y-93475333D01*
X87119832Y-93254112D01*
X87036500Y-93100500D01*
X85900500Y-93100500D01*
X85899500Y-93100500D01*
X84763500Y-93100500D01*
X84680168Y-93254112D01*
X83227000Y-93254112D01*
X83227000Y-92945888D01*
X84680168Y-92945888D01*
X84763500Y-93099500D01*
X85899500Y-93099500D01*
X85899500Y-92118000D01*
X85900500Y-92118000D01*
X85900500Y-93099500D01*
X87036500Y-93099500D01*
X87119832Y-92945888D01*
X87057441Y-92724667D01*
X86844732Y-92405975D01*
X86526257Y-92192942D01*
X86150500Y-92118000D01*
X85900500Y-92118000D01*
X85899500Y-92118000D01*
X85649500Y-92118000D01*
X85273743Y-92192942D01*
X84955268Y-92405975D01*
X84742559Y-92724667D01*
X84680168Y-92945888D01*
X83227000Y-92945888D01*
X83227000Y-83500000D01*
X84661536Y-83500000D01*
X84661536Y-84700000D01*
X84688103Y-84841190D01*
X84771546Y-84970865D01*
X84898866Y-85057859D01*
X85050000Y-85088464D01*
X86750000Y-85088464D01*
X86891190Y-85061897D01*
X87020865Y-84978454D01*
X87107859Y-84851134D01*
X87138464Y-84700000D01*
X87138464Y-83500000D01*
X87111897Y-83358810D01*
X87028454Y-83229135D01*
X86901134Y-83142141D01*
X86750000Y-83111536D01*
X85050000Y-83111536D01*
X84908810Y-83138103D01*
X84779135Y-83221546D01*
X84692141Y-83348866D01*
X84661536Y-83500000D01*
X83227000Y-83500000D01*
X83227000Y-82254112D01*
X84680168Y-82254112D01*
X84742559Y-82475333D01*
X84955268Y-82794025D01*
X85273743Y-83007058D01*
X85649500Y-83082000D01*
X85899500Y-83082000D01*
X85899500Y-82100500D01*
X85900500Y-82100500D01*
X85900500Y-83082000D01*
X86150500Y-83082000D01*
X86526257Y-83007058D01*
X86844732Y-82794025D01*
X87057441Y-82475333D01*
X87119832Y-82254112D01*
X87036500Y-82100500D01*
X85900500Y-82100500D01*
X85899500Y-82100500D01*
X84763500Y-82100500D01*
X84680168Y-82254112D01*
X83227000Y-82254112D01*
X83227000Y-81945888D01*
X84680168Y-81945888D01*
X84763500Y-82099500D01*
X85899500Y-82099500D01*
X85899500Y-81118000D01*
X85900500Y-81118000D01*
X85900500Y-82099500D01*
X87036500Y-82099500D01*
X87119832Y-81945888D01*
X87057441Y-81724667D01*
X86844732Y-81405975D01*
X86526257Y-81192942D01*
X86150500Y-81118000D01*
X85900500Y-81118000D01*
X85899500Y-81118000D01*
X85649500Y-81118000D01*
X85273743Y-81192942D01*
X84955268Y-81405975D01*
X84742559Y-81724667D01*
X84680168Y-81945888D01*
X83227000Y-81945888D01*
X83227000Y-74842807D01*
X84468700Y-74842807D01*
X84731674Y-75479252D01*
X85218187Y-75966614D01*
X85854172Y-76230699D01*
X86542807Y-76231300D01*
X87179252Y-75968326D01*
X87666614Y-75481813D01*
X87703601Y-75392738D01*
X99976262Y-75392738D01*
X99976262Y-87957262D01*
X100016682Y-88160467D01*
X100131788Y-88332736D01*
X105244004Y-93444951D01*
X105243995Y-93455057D01*
X104953392Y-93745660D01*
X104192987Y-93745660D01*
X104083646Y-93636128D01*
X103805884Y-93520791D01*
X103505129Y-93520529D01*
X103227167Y-93635381D01*
X103014315Y-93847861D01*
X102898978Y-94125623D01*
X102898716Y-94426378D01*
X103013568Y-94704340D01*
X103226048Y-94917192D01*
X103503810Y-95032529D01*
X103804565Y-95032791D01*
X104082527Y-94917939D01*
X104192999Y-94807660D01*
X105173340Y-94807660D01*
X105376545Y-94767240D01*
X105548814Y-94652134D01*
X105994952Y-94205996D01*
X106005057Y-94206005D01*
X107510429Y-95711376D01*
X107510431Y-95711379D01*
X107682700Y-95826485D01*
X107885905Y-95866905D01*
X111234728Y-95866905D01*
X111344069Y-95976437D01*
X111621831Y-96091774D01*
X111922586Y-96092036D01*
X112200548Y-95977184D01*
X112413400Y-95764704D01*
X112528737Y-95486942D01*
X112528999Y-95186187D01*
X112414147Y-94908225D01*
X112201667Y-94695373D01*
X111923905Y-94580036D01*
X111623150Y-94579774D01*
X111345188Y-94694626D01*
X111234716Y-94804905D01*
X108105852Y-94804905D01*
X106755996Y-93455048D01*
X106756131Y-93300282D01*
X106641279Y-93022320D01*
X106428799Y-92809468D01*
X106151037Y-92694131D01*
X105994942Y-92693995D01*
X103100666Y-89799718D01*
X103693869Y-89799718D01*
X103808721Y-90077680D01*
X104021201Y-90290532D01*
X104298963Y-90405869D01*
X104490444Y-90406036D01*
X108192204Y-94107796D01*
X108356362Y-94217483D01*
X108550000Y-94256000D01*
X115010078Y-94256000D01*
X116261874Y-95507796D01*
X116426032Y-95617483D01*
X116578786Y-95647868D01*
X116721201Y-95790532D01*
X116998963Y-95905869D01*
X117299718Y-95906131D01*
X117577680Y-95791279D01*
X117790532Y-95578799D01*
X117905869Y-95301037D01*
X117906131Y-95000282D01*
X117791279Y-94722320D01*
X117578799Y-94509468D01*
X117301037Y-94394131D01*
X117000282Y-94393869D01*
X116722320Y-94508721D01*
X116708139Y-94522877D01*
X115577466Y-93392204D01*
X115413308Y-93282517D01*
X115219670Y-93244000D01*
X108759592Y-93244000D01*
X105205965Y-89690373D01*
X105206131Y-89500282D01*
X105091279Y-89222320D01*
X104878799Y-89009468D01*
X104601037Y-88894131D01*
X104300282Y-88893869D01*
X104022320Y-89008721D01*
X103809468Y-89221201D01*
X103694131Y-89498963D01*
X103693869Y-89799718D01*
X103100666Y-89799718D01*
X101038262Y-87737314D01*
X101038262Y-80249718D01*
X112143869Y-80249718D01*
X112258721Y-80527680D01*
X112471201Y-80740532D01*
X112748963Y-80855869D01*
X113049718Y-80856131D01*
X113327680Y-80741279D01*
X113463196Y-80606000D01*
X116790934Y-80606000D01*
X116542305Y-80708732D01*
X116406789Y-80844011D01*
X115769918Y-80844011D01*
X115576280Y-80882528D01*
X115412122Y-80992215D01*
X114791742Y-81612595D01*
X114601651Y-81612429D01*
X114323689Y-81727281D01*
X114110837Y-81939761D01*
X113995500Y-82217523D01*
X113995238Y-82518278D01*
X114110090Y-82796240D01*
X114322570Y-83009092D01*
X114600332Y-83124429D01*
X114901087Y-83124691D01*
X115179049Y-83009839D01*
X115391901Y-82797359D01*
X115507238Y-82519597D01*
X115507405Y-82328116D01*
X115979510Y-81856011D01*
X116406889Y-81856011D01*
X116541186Y-81990543D01*
X116818948Y-82105880D01*
X117119703Y-82106142D01*
X117397665Y-81991290D01*
X117610517Y-81778810D01*
X117654309Y-81673348D01*
X117744000Y-81763196D01*
X117744000Y-82640464D01*
X117040373Y-83344091D01*
X116850282Y-83343925D01*
X116572320Y-83458777D01*
X116359468Y-83671257D01*
X116244131Y-83949019D01*
X116243869Y-84249774D01*
X116358721Y-84527736D01*
X116571201Y-84740588D01*
X116848963Y-84855925D01*
X117149718Y-84856187D01*
X117427680Y-84741335D01*
X117640532Y-84528855D01*
X117755869Y-84251093D01*
X117756036Y-84059612D01*
X118607796Y-83207852D01*
X118717483Y-83043694D01*
X118756000Y-82850056D01*
X118756000Y-81763096D01*
X118793035Y-81726126D01*
X118899544Y-81832821D01*
X119177306Y-81948158D01*
X119478061Y-81948420D01*
X119756023Y-81833568D01*
X119968875Y-81621088D01*
X120084212Y-81343326D01*
X120084474Y-81042571D01*
X119969622Y-80764609D01*
X119757142Y-80551757D01*
X119479380Y-80436420D01*
X119287899Y-80436253D01*
X119007697Y-80156051D01*
X119099718Y-80156131D01*
X119377680Y-80041279D01*
X119391861Y-80027123D01*
X121094000Y-81729262D01*
X121094000Y-82290408D01*
X119440373Y-83944035D01*
X119250282Y-83943869D01*
X118972320Y-84058721D01*
X118759468Y-84271201D01*
X118644131Y-84548963D01*
X118643869Y-84849718D01*
X118758721Y-85127680D01*
X118971201Y-85340532D01*
X119248963Y-85455869D01*
X119549718Y-85456131D01*
X119827680Y-85341279D01*
X120040532Y-85128799D01*
X120155869Y-84851037D01*
X120156036Y-84659556D01*
X121957796Y-82857796D01*
X122067483Y-82693638D01*
X122106000Y-82500000D01*
X122106000Y-76563096D01*
X122240532Y-76428799D01*
X122355869Y-76151037D01*
X122356131Y-75850282D01*
X122241279Y-75572320D01*
X122028799Y-75359468D01*
X121751037Y-75244131D01*
X121450282Y-75243869D01*
X121172320Y-75358721D01*
X120959468Y-75571201D01*
X120844131Y-75848963D01*
X120843869Y-76149718D01*
X120958721Y-76427680D01*
X121094000Y-76563196D01*
X121094000Y-80298078D01*
X119838126Y-79042204D01*
X119673968Y-78932517D01*
X119521214Y-78902132D01*
X119378799Y-78759468D01*
X119101037Y-78644131D01*
X118800282Y-78643869D01*
X118522320Y-78758721D01*
X118309468Y-78971201D01*
X118194131Y-79248963D01*
X118193869Y-79549718D01*
X118212166Y-79594000D01*
X113463096Y-79594000D01*
X113328799Y-79459468D01*
X113051037Y-79344131D01*
X112750282Y-79343869D01*
X112472320Y-79458721D01*
X112259468Y-79671201D01*
X112144131Y-79948963D01*
X112143869Y-80249718D01*
X101038262Y-80249718D01*
X101038262Y-75790205D01*
X101277680Y-75691279D01*
X101490532Y-75478799D01*
X101605869Y-75201037D01*
X101606131Y-74900282D01*
X101491279Y-74622320D01*
X101278799Y-74409468D01*
X101001037Y-74294131D01*
X100700282Y-74293869D01*
X100422320Y-74408721D01*
X100209468Y-74621201D01*
X100094131Y-74898963D01*
X100093979Y-75073850D01*
X100016682Y-75189533D01*
X99976262Y-75392738D01*
X87703601Y-75392738D01*
X87930699Y-74845828D01*
X87931300Y-74157193D01*
X87918363Y-74125883D01*
X107419000Y-74125883D01*
X107419000Y-74674117D01*
X107493674Y-75049529D01*
X107706328Y-75367789D01*
X108024588Y-75580443D01*
X108400000Y-75655117D01*
X108775412Y-75580443D01*
X109093672Y-75367789D01*
X109306326Y-75049529D01*
X109381000Y-74674117D01*
X109381000Y-74125883D01*
X109419000Y-74125883D01*
X109419000Y-74674117D01*
X109493674Y-75049529D01*
X109706328Y-75367789D01*
X110024588Y-75580443D01*
X110400000Y-75655117D01*
X110775412Y-75580443D01*
X111093672Y-75367789D01*
X111306326Y-75049529D01*
X111381000Y-74674117D01*
X111381000Y-74125883D01*
X111419000Y-74125883D01*
X111419000Y-74674117D01*
X111493674Y-75049529D01*
X111706328Y-75367789D01*
X112024588Y-75580443D01*
X112400000Y-75655117D01*
X112775412Y-75580443D01*
X113093672Y-75367789D01*
X113306326Y-75049529D01*
X113381000Y-74674117D01*
X113381000Y-74125883D01*
X113306326Y-73750471D01*
X113172376Y-73550000D01*
X113411536Y-73550000D01*
X113411536Y-75250000D01*
X113438103Y-75391190D01*
X113521546Y-75520865D01*
X113648866Y-75607859D01*
X113800000Y-75638464D01*
X115000000Y-75638464D01*
X115141190Y-75611897D01*
X115270865Y-75528454D01*
X115357859Y-75401134D01*
X115388464Y-75250000D01*
X115388464Y-74238711D01*
X119561996Y-74238711D01*
X119601822Y-74397826D01*
X119920554Y-74544548D01*
X120271172Y-74558129D01*
X120600299Y-74436500D01*
X120658178Y-74397826D01*
X120698004Y-74238711D01*
X120130000Y-73670707D01*
X119561996Y-74238711D01*
X115388464Y-74238711D01*
X115388464Y-73811172D01*
X119241871Y-73811172D01*
X119363500Y-74140299D01*
X119402174Y-74198178D01*
X119561289Y-74238004D01*
X120129293Y-73670000D01*
X119561289Y-73101996D01*
X119402174Y-73141822D01*
X119255452Y-73460554D01*
X119241871Y-73811172D01*
X115388464Y-73811172D01*
X115388464Y-73550000D01*
X115361897Y-73408810D01*
X115278454Y-73279135D01*
X115151134Y-73192141D01*
X115000000Y-73161536D01*
X113800000Y-73161536D01*
X113658810Y-73188103D01*
X113529135Y-73271546D01*
X113442141Y-73398866D01*
X113411536Y-73550000D01*
X113172376Y-73550000D01*
X113093672Y-73432211D01*
X112775412Y-73219557D01*
X112400000Y-73144883D01*
X112024588Y-73219557D01*
X111706328Y-73432211D01*
X111493674Y-73750471D01*
X111419000Y-74125883D01*
X111381000Y-74125883D01*
X111306326Y-73750471D01*
X111093672Y-73432211D01*
X110775412Y-73219557D01*
X110400000Y-73144883D01*
X110024588Y-73219557D01*
X109706328Y-73432211D01*
X109493674Y-73750471D01*
X109419000Y-74125883D01*
X109381000Y-74125883D01*
X109306326Y-73750471D01*
X109093672Y-73432211D01*
X108775412Y-73219557D01*
X108400000Y-73144883D01*
X108024588Y-73219557D01*
X107706328Y-73432211D01*
X107493674Y-73750471D01*
X107419000Y-74125883D01*
X87918363Y-74125883D01*
X87668326Y-73520748D01*
X87181813Y-73033386D01*
X86545828Y-72769301D01*
X85857193Y-72768700D01*
X85220748Y-73031674D01*
X84733386Y-73518187D01*
X84469301Y-74154172D01*
X84468700Y-74842807D01*
X83227000Y-74842807D01*
X83227000Y-71527000D01*
X98311536Y-71527000D01*
X98311536Y-73300000D01*
X98311536Y-73300000D01*
G37*
X98311536Y-73300000D02*
X98338103Y-73441190D01*
X98421546Y-73570865D01*
X98548866Y-73657859D01*
X98700000Y-73688464D01*
X100500000Y-73688464D01*
X100641190Y-73661897D01*
X100770865Y-73578454D01*
X100857859Y-73451134D01*
X100888464Y-73300000D01*
X100888464Y-72725534D01*
X101053388Y-73124680D01*
X101413425Y-73485345D01*
X101884076Y-73680777D01*
X102393689Y-73681222D01*
X102864680Y-73486612D01*
X103094597Y-73257095D01*
X103823612Y-73257095D01*
X103912101Y-73457773D01*
X104375347Y-73671117D01*
X104884972Y-73690945D01*
X105363393Y-73514238D01*
X105447899Y-73457773D01*
X105536388Y-73257095D01*
X104680000Y-72400707D01*
X103823612Y-73257095D01*
X103094597Y-73257095D01*
X103225345Y-73126575D01*
X103413948Y-72672369D01*
X103565762Y-73083393D01*
X103622227Y-73167899D01*
X103822905Y-73256388D01*
X104679293Y-72400000D01*
X104665151Y-72385858D01*
X104665858Y-72385151D01*
X104680000Y-72399293D01*
X104694143Y-72385151D01*
X104694850Y-72385858D01*
X104680707Y-72400000D01*
X105537095Y-73256388D01*
X105737773Y-73167899D01*
X105951117Y-72704653D01*
X105970945Y-72195028D01*
X105794238Y-71716607D01*
X105737773Y-71632101D01*
X105537097Y-71543613D01*
X105553710Y-71527000D01*
X118665795Y-71527000D01*
X118361605Y-71652689D01*
X118113560Y-71900302D01*
X117979153Y-72223989D01*
X117978847Y-72574473D01*
X118112689Y-72898395D01*
X118360302Y-73146440D01*
X118683989Y-73280847D01*
X119034473Y-73281153D01*
X119358395Y-73147311D01*
X119606440Y-72899698D01*
X119740847Y-72576011D01*
X119741153Y-72225527D01*
X119607311Y-71901605D01*
X119359698Y-71653560D01*
X119054909Y-71527000D01*
X120817817Y-71527000D01*
X120758810Y-71538103D01*
X120629135Y-71621546D01*
X120542141Y-71748866D01*
X120511536Y-71900000D01*
X120511536Y-72874670D01*
X120339446Y-72795452D01*
X119988828Y-72781871D01*
X119659701Y-72903500D01*
X119601822Y-72942174D01*
X119561996Y-73101289D01*
X120130000Y-73669293D01*
X120144143Y-73655151D01*
X120144850Y-73655858D01*
X120130707Y-73670000D01*
X120698711Y-74238004D01*
X120857826Y-74198178D01*
X121004548Y-73879446D01*
X121018129Y-73528828D01*
X120929302Y-73288464D01*
X121900000Y-73288464D01*
X122041190Y-73261897D01*
X122170865Y-73178454D01*
X122257859Y-73051134D01*
X122288464Y-72900000D01*
X122288464Y-71900000D01*
X122261897Y-71758810D01*
X122178454Y-71629135D01*
X122051134Y-71542141D01*
X121976365Y-71527000D01*
X125473000Y-71527000D01*
X125473000Y-83923000D01*
X122050000Y-83923000D01*
X122000590Y-83933006D01*
X121958965Y-83961447D01*
X121931685Y-84003841D01*
X121923000Y-84050000D01*
X121923000Y-94572530D01*
X121851440Y-94524715D01*
X121657802Y-94486198D01*
X121464165Y-94524715D01*
X121300006Y-94634402D01*
X121292204Y-94642204D01*
X121182517Y-94806362D01*
X121144000Y-95000000D01*
X121182517Y-95193638D01*
X121292204Y-95357796D01*
X121456362Y-95467483D01*
X121650000Y-95506000D01*
X121843638Y-95467483D01*
X121923000Y-95414455D01*
X121923000Y-97423000D01*
X118500000Y-97423000D01*
X118450590Y-97433006D01*
X118408965Y-97461447D01*
X118381685Y-97503841D01*
X118373000Y-97550000D01*
X118373000Y-104273000D01*
X83227000Y-104273000D01*
X83227000Y-101842807D01*
X84468700Y-101842807D01*
X84731674Y-102479252D01*
X85218187Y-102966614D01*
X85854172Y-103230699D01*
X86542807Y-103231300D01*
X87179252Y-102968326D01*
X87666614Y-102481813D01*
X87930699Y-101845828D01*
X87931300Y-101157193D01*
X87668326Y-100520748D01*
X87181813Y-100033386D01*
X86545828Y-99769301D01*
X85857193Y-99768700D01*
X85220748Y-100031674D01*
X84733386Y-100518187D01*
X84469301Y-101154172D01*
X84468700Y-101842807D01*
X83227000Y-101842807D01*
X83227000Y-94500000D01*
X84661536Y-94500000D01*
X84661536Y-95700000D01*
X84688103Y-95841190D01*
X84771546Y-95970865D01*
X84898866Y-96057859D01*
X85050000Y-96088464D01*
X86750000Y-96088464D01*
X86891190Y-96061897D01*
X87020865Y-95978454D01*
X87107859Y-95851134D01*
X87138464Y-95700000D01*
X87138464Y-94500000D01*
X87111897Y-94358810D01*
X87028454Y-94229135D01*
X86901134Y-94142141D01*
X86750000Y-94111536D01*
X85050000Y-94111536D01*
X84908810Y-94138103D01*
X84779135Y-94221546D01*
X84692141Y-94348866D01*
X84661536Y-94500000D01*
X83227000Y-94500000D01*
X83227000Y-93254112D01*
X84680168Y-93254112D01*
X84742559Y-93475333D01*
X84955268Y-93794025D01*
X85273743Y-94007058D01*
X85649500Y-94082000D01*
X85899500Y-94082000D01*
X85899500Y-93100500D01*
X85900500Y-93100500D01*
X85900500Y-94082000D01*
X86150500Y-94082000D01*
X86526257Y-94007058D01*
X86844732Y-93794025D01*
X87057441Y-93475333D01*
X87119832Y-93254112D01*
X87036500Y-93100500D01*
X85900500Y-93100500D01*
X85899500Y-93100500D01*
X84763500Y-93100500D01*
X84680168Y-93254112D01*
X83227000Y-93254112D01*
X83227000Y-92945888D01*
X84680168Y-92945888D01*
X84763500Y-93099500D01*
X85899500Y-93099500D01*
X85899500Y-92118000D01*
X85900500Y-92118000D01*
X85900500Y-93099500D01*
X87036500Y-93099500D01*
X87119832Y-92945888D01*
X87057441Y-92724667D01*
X86844732Y-92405975D01*
X86526257Y-92192942D01*
X86150500Y-92118000D01*
X85900500Y-92118000D01*
X85899500Y-92118000D01*
X85649500Y-92118000D01*
X85273743Y-92192942D01*
X84955268Y-92405975D01*
X84742559Y-92724667D01*
X84680168Y-92945888D01*
X83227000Y-92945888D01*
X83227000Y-83500000D01*
X84661536Y-83500000D01*
X84661536Y-84700000D01*
X84688103Y-84841190D01*
X84771546Y-84970865D01*
X84898866Y-85057859D01*
X85050000Y-85088464D01*
X86750000Y-85088464D01*
X86891190Y-85061897D01*
X87020865Y-84978454D01*
X87107859Y-84851134D01*
X87138464Y-84700000D01*
X87138464Y-83500000D01*
X87111897Y-83358810D01*
X87028454Y-83229135D01*
X86901134Y-83142141D01*
X86750000Y-83111536D01*
X85050000Y-83111536D01*
X84908810Y-83138103D01*
X84779135Y-83221546D01*
X84692141Y-83348866D01*
X84661536Y-83500000D01*
X83227000Y-83500000D01*
X83227000Y-82254112D01*
X84680168Y-82254112D01*
X84742559Y-82475333D01*
X84955268Y-82794025D01*
X85273743Y-83007058D01*
X85649500Y-83082000D01*
X85899500Y-83082000D01*
X85899500Y-82100500D01*
X85900500Y-82100500D01*
X85900500Y-83082000D01*
X86150500Y-83082000D01*
X86526257Y-83007058D01*
X86844732Y-82794025D01*
X87057441Y-82475333D01*
X87119832Y-82254112D01*
X87036500Y-82100500D01*
X85900500Y-82100500D01*
X85899500Y-82100500D01*
X84763500Y-82100500D01*
X84680168Y-82254112D01*
X83227000Y-82254112D01*
X83227000Y-81945888D01*
X84680168Y-81945888D01*
X84763500Y-82099500D01*
X85899500Y-82099500D01*
X85899500Y-81118000D01*
X85900500Y-81118000D01*
X85900500Y-82099500D01*
X87036500Y-82099500D01*
X87119832Y-81945888D01*
X87057441Y-81724667D01*
X86844732Y-81405975D01*
X86526257Y-81192942D01*
X86150500Y-81118000D01*
X85900500Y-81118000D01*
X85899500Y-81118000D01*
X85649500Y-81118000D01*
X85273743Y-81192942D01*
X84955268Y-81405975D01*
X84742559Y-81724667D01*
X84680168Y-81945888D01*
X83227000Y-81945888D01*
X83227000Y-74842807D01*
X84468700Y-74842807D01*
X84731674Y-75479252D01*
X85218187Y-75966614D01*
X85854172Y-76230699D01*
X86542807Y-76231300D01*
X87179252Y-75968326D01*
X87666614Y-75481813D01*
X87703601Y-75392738D01*
X99976262Y-75392738D01*
X99976262Y-87957262D01*
X100016682Y-88160467D01*
X100131788Y-88332736D01*
X105244004Y-93444951D01*
X105243995Y-93455057D01*
X104953392Y-93745660D01*
X104192987Y-93745660D01*
X104083646Y-93636128D01*
X103805884Y-93520791D01*
X103505129Y-93520529D01*
X103227167Y-93635381D01*
X103014315Y-93847861D01*
X102898978Y-94125623D01*
X102898716Y-94426378D01*
X103013568Y-94704340D01*
X103226048Y-94917192D01*
X103503810Y-95032529D01*
X103804565Y-95032791D01*
X104082527Y-94917939D01*
X104192999Y-94807660D01*
X105173340Y-94807660D01*
X105376545Y-94767240D01*
X105548814Y-94652134D01*
X105994952Y-94205996D01*
X106005057Y-94206005D01*
X107510429Y-95711376D01*
X107510431Y-95711379D01*
X107682700Y-95826485D01*
X107885905Y-95866905D01*
X111234728Y-95866905D01*
X111344069Y-95976437D01*
X111621831Y-96091774D01*
X111922586Y-96092036D01*
X112200548Y-95977184D01*
X112413400Y-95764704D01*
X112528737Y-95486942D01*
X112528999Y-95186187D01*
X112414147Y-94908225D01*
X112201667Y-94695373D01*
X111923905Y-94580036D01*
X111623150Y-94579774D01*
X111345188Y-94694626D01*
X111234716Y-94804905D01*
X108105852Y-94804905D01*
X106755996Y-93455048D01*
X106756131Y-93300282D01*
X106641279Y-93022320D01*
X106428799Y-92809468D01*
X106151037Y-92694131D01*
X105994942Y-92693995D01*
X103100666Y-89799718D01*
X103693869Y-89799718D01*
X103808721Y-90077680D01*
X104021201Y-90290532D01*
X104298963Y-90405869D01*
X104490444Y-90406036D01*
X108192204Y-94107796D01*
X108356362Y-94217483D01*
X108550000Y-94256000D01*
X115010078Y-94256000D01*
X116261874Y-95507796D01*
X116426032Y-95617483D01*
X116578786Y-95647868D01*
X116721201Y-95790532D01*
X116998963Y-95905869D01*
X117299718Y-95906131D01*
X117577680Y-95791279D01*
X117790532Y-95578799D01*
X117905869Y-95301037D01*
X117906131Y-95000282D01*
X117791279Y-94722320D01*
X117578799Y-94509468D01*
X117301037Y-94394131D01*
X117000282Y-94393869D01*
X116722320Y-94508721D01*
X116708139Y-94522877D01*
X115577466Y-93392204D01*
X115413308Y-93282517D01*
X115219670Y-93244000D01*
X108759592Y-93244000D01*
X105205965Y-89690373D01*
X105206131Y-89500282D01*
X105091279Y-89222320D01*
X104878799Y-89009468D01*
X104601037Y-88894131D01*
X104300282Y-88893869D01*
X104022320Y-89008721D01*
X103809468Y-89221201D01*
X103694131Y-89498963D01*
X103693869Y-89799718D01*
X103100666Y-89799718D01*
X101038262Y-87737314D01*
X101038262Y-80249718D01*
X112143869Y-80249718D01*
X112258721Y-80527680D01*
X112471201Y-80740532D01*
X112748963Y-80855869D01*
X113049718Y-80856131D01*
X113327680Y-80741279D01*
X113463196Y-80606000D01*
X116790934Y-80606000D01*
X116542305Y-80708732D01*
X116406789Y-80844011D01*
X115769918Y-80844011D01*
X115576280Y-80882528D01*
X115412122Y-80992215D01*
X114791742Y-81612595D01*
X114601651Y-81612429D01*
X114323689Y-81727281D01*
X114110837Y-81939761D01*
X113995500Y-82217523D01*
X113995238Y-82518278D01*
X114110090Y-82796240D01*
X114322570Y-83009092D01*
X114600332Y-83124429D01*
X114901087Y-83124691D01*
X115179049Y-83009839D01*
X115391901Y-82797359D01*
X115507238Y-82519597D01*
X115507405Y-82328116D01*
X115979510Y-81856011D01*
X116406889Y-81856011D01*
X116541186Y-81990543D01*
X116818948Y-82105880D01*
X117119703Y-82106142D01*
X117397665Y-81991290D01*
X117610517Y-81778810D01*
X117654309Y-81673348D01*
X117744000Y-81763196D01*
X117744000Y-82640464D01*
X117040373Y-83344091D01*
X116850282Y-83343925D01*
X116572320Y-83458777D01*
X116359468Y-83671257D01*
X116244131Y-83949019D01*
X116243869Y-84249774D01*
X116358721Y-84527736D01*
X116571201Y-84740588D01*
X116848963Y-84855925D01*
X117149718Y-84856187D01*
X117427680Y-84741335D01*
X117640532Y-84528855D01*
X117755869Y-84251093D01*
X117756036Y-84059612D01*
X118607796Y-83207852D01*
X118717483Y-83043694D01*
X118756000Y-82850056D01*
X118756000Y-81763096D01*
X118793035Y-81726126D01*
X118899544Y-81832821D01*
X119177306Y-81948158D01*
X119478061Y-81948420D01*
X119756023Y-81833568D01*
X119968875Y-81621088D01*
X120084212Y-81343326D01*
X120084474Y-81042571D01*
X119969622Y-80764609D01*
X119757142Y-80551757D01*
X119479380Y-80436420D01*
X119287899Y-80436253D01*
X119007697Y-80156051D01*
X119099718Y-80156131D01*
X119377680Y-80041279D01*
X119391861Y-80027123D01*
X121094000Y-81729262D01*
X121094000Y-82290408D01*
X119440373Y-83944035D01*
X119250282Y-83943869D01*
X118972320Y-84058721D01*
X118759468Y-84271201D01*
X118644131Y-84548963D01*
X118643869Y-84849718D01*
X118758721Y-85127680D01*
X118971201Y-85340532D01*
X119248963Y-85455869D01*
X119549718Y-85456131D01*
X119827680Y-85341279D01*
X120040532Y-85128799D01*
X120155869Y-84851037D01*
X120156036Y-84659556D01*
X121957796Y-82857796D01*
X122067483Y-82693638D01*
X122106000Y-82500000D01*
X122106000Y-76563096D01*
X122240532Y-76428799D01*
X122355869Y-76151037D01*
X122356131Y-75850282D01*
X122241279Y-75572320D01*
X122028799Y-75359468D01*
X121751037Y-75244131D01*
X121450282Y-75243869D01*
X121172320Y-75358721D01*
X120959468Y-75571201D01*
X120844131Y-75848963D01*
X120843869Y-76149718D01*
X120958721Y-76427680D01*
X121094000Y-76563196D01*
X121094000Y-80298078D01*
X119838126Y-79042204D01*
X119673968Y-78932517D01*
X119521214Y-78902132D01*
X119378799Y-78759468D01*
X119101037Y-78644131D01*
X118800282Y-78643869D01*
X118522320Y-78758721D01*
X118309468Y-78971201D01*
X118194131Y-79248963D01*
X118193869Y-79549718D01*
X118212166Y-79594000D01*
X113463096Y-79594000D01*
X113328799Y-79459468D01*
X113051037Y-79344131D01*
X112750282Y-79343869D01*
X112472320Y-79458721D01*
X112259468Y-79671201D01*
X112144131Y-79948963D01*
X112143869Y-80249718D01*
X101038262Y-80249718D01*
X101038262Y-75790205D01*
X101277680Y-75691279D01*
X101490532Y-75478799D01*
X101605869Y-75201037D01*
X101606131Y-74900282D01*
X101491279Y-74622320D01*
X101278799Y-74409468D01*
X101001037Y-74294131D01*
X100700282Y-74293869D01*
X100422320Y-74408721D01*
X100209468Y-74621201D01*
X100094131Y-74898963D01*
X100093979Y-75073850D01*
X100016682Y-75189533D01*
X99976262Y-75392738D01*
X87703601Y-75392738D01*
X87930699Y-74845828D01*
X87931300Y-74157193D01*
X87918363Y-74125883D01*
X107419000Y-74125883D01*
X107419000Y-74674117D01*
X107493674Y-75049529D01*
X107706328Y-75367789D01*
X108024588Y-75580443D01*
X108400000Y-75655117D01*
X108775412Y-75580443D01*
X109093672Y-75367789D01*
X109306326Y-75049529D01*
X109381000Y-74674117D01*
X109381000Y-74125883D01*
X109419000Y-74125883D01*
X109419000Y-74674117D01*
X109493674Y-75049529D01*
X109706328Y-75367789D01*
X110024588Y-75580443D01*
X110400000Y-75655117D01*
X110775412Y-75580443D01*
X111093672Y-75367789D01*
X111306326Y-75049529D01*
X111381000Y-74674117D01*
X111381000Y-74125883D01*
X111419000Y-74125883D01*
X111419000Y-74674117D01*
X111493674Y-75049529D01*
X111706328Y-75367789D01*
X112024588Y-75580443D01*
X112400000Y-75655117D01*
X112775412Y-75580443D01*
X113093672Y-75367789D01*
X113306326Y-75049529D01*
X113381000Y-74674117D01*
X113381000Y-74125883D01*
X113306326Y-73750471D01*
X113172376Y-73550000D01*
X113411536Y-73550000D01*
X113411536Y-75250000D01*
X113438103Y-75391190D01*
X113521546Y-75520865D01*
X113648866Y-75607859D01*
X113800000Y-75638464D01*
X115000000Y-75638464D01*
X115141190Y-75611897D01*
X115270865Y-75528454D01*
X115357859Y-75401134D01*
X115388464Y-75250000D01*
X115388464Y-74238711D01*
X119561996Y-74238711D01*
X119601822Y-74397826D01*
X119920554Y-74544548D01*
X120271172Y-74558129D01*
X120600299Y-74436500D01*
X120658178Y-74397826D01*
X120698004Y-74238711D01*
X120130000Y-73670707D01*
X119561996Y-74238711D01*
X115388464Y-74238711D01*
X115388464Y-73811172D01*
X119241871Y-73811172D01*
X119363500Y-74140299D01*
X119402174Y-74198178D01*
X119561289Y-74238004D01*
X120129293Y-73670000D01*
X119561289Y-73101996D01*
X119402174Y-73141822D01*
X119255452Y-73460554D01*
X119241871Y-73811172D01*
X115388464Y-73811172D01*
X115388464Y-73550000D01*
X115361897Y-73408810D01*
X115278454Y-73279135D01*
X115151134Y-73192141D01*
X115000000Y-73161536D01*
X113800000Y-73161536D01*
X113658810Y-73188103D01*
X113529135Y-73271546D01*
X113442141Y-73398866D01*
X113411536Y-73550000D01*
X113172376Y-73550000D01*
X113093672Y-73432211D01*
X112775412Y-73219557D01*
X112400000Y-73144883D01*
X112024588Y-73219557D01*
X111706328Y-73432211D01*
X111493674Y-73750471D01*
X111419000Y-74125883D01*
X111381000Y-74125883D01*
X111306326Y-73750471D01*
X111093672Y-73432211D01*
X110775412Y-73219557D01*
X110400000Y-73144883D01*
X110024588Y-73219557D01*
X109706328Y-73432211D01*
X109493674Y-73750471D01*
X109419000Y-74125883D01*
X109381000Y-74125883D01*
X109306326Y-73750471D01*
X109093672Y-73432211D01*
X108775412Y-73219557D01*
X108400000Y-73144883D01*
X108024588Y-73219557D01*
X107706328Y-73432211D01*
X107493674Y-73750471D01*
X107419000Y-74125883D01*
X87918363Y-74125883D01*
X87668326Y-73520748D01*
X87181813Y-73033386D01*
X86545828Y-72769301D01*
X85857193Y-72768700D01*
X85220748Y-73031674D01*
X84733386Y-73518187D01*
X84469301Y-74154172D01*
X84468700Y-74842807D01*
X83227000Y-74842807D01*
X83227000Y-71527000D01*
X98311536Y-71527000D01*
X98311536Y-73300000D01*
M02*
