G04 #@! TF.FileFunction,Other,Fab,Top*
%FSLAX46Y46*%
G04 Gerber Fmt 4.6, Leading zero omitted, Abs format (unit mm)*
G04 Created by KiCad (PCBNEW 4.0.7) date 11/11/17 16:51:54*
%MOMM*%
%LPD*%
G01*
G04 APERTURE LIST*
%ADD10C,0.100000*%
%ADD11C,0.300000*%
%ADD12C,0.200000*%
%ADD13C,0.150000*%
%ADD14C,0.075000*%
%ADD15C,0.050000*%
%ADD16C,0.105000*%
%ADD17C,0.030000*%
G04 APERTURE END LIST*
D10*
D11*
X120278975Y-113549660D02*
X120136072Y-113478321D01*
X120064599Y-113406936D01*
X119993081Y-113264124D01*
X119993036Y-113192696D01*
X120064376Y-113049794D01*
X120135759Y-112978321D01*
X120278573Y-112906803D01*
X120564287Y-112906624D01*
X120707188Y-112977964D01*
X120778662Y-113049348D01*
X120850179Y-113192160D01*
X120850224Y-113263588D01*
X120778885Y-113406490D01*
X120707501Y-113477964D01*
X120564688Y-113549482D01*
X120278975Y-113549660D01*
X120136161Y-113621178D01*
X120064778Y-113692651D01*
X119993438Y-113835553D01*
X119993617Y-114121267D01*
X120065135Y-114264079D01*
X120136608Y-114335464D01*
X120279510Y-114406802D01*
X120565224Y-114406624D01*
X120708037Y-114335106D01*
X120779421Y-114263633D01*
X120850760Y-114120731D01*
X120850581Y-113835017D01*
X120779064Y-113692205D01*
X120707590Y-113620821D01*
X120564688Y-113549482D01*
X121778571Y-112905865D02*
X121921428Y-112905776D01*
X122064330Y-112977115D01*
X122135804Y-113048500D01*
X122207322Y-113191312D01*
X122278929Y-113476981D01*
X122279152Y-113834124D01*
X122207902Y-114119883D01*
X122136563Y-114262785D01*
X122065178Y-114334258D01*
X121922366Y-114405775D01*
X121779509Y-114405865D01*
X121636607Y-114334526D01*
X121565134Y-114263142D01*
X121493616Y-114120329D01*
X121422009Y-113834660D01*
X121421786Y-113477517D01*
X121493036Y-113191759D01*
X121564375Y-113048857D01*
X121635759Y-112977383D01*
X121778571Y-112905865D01*
X122922276Y-114262293D02*
X122993749Y-114333678D01*
X122922366Y-114405150D01*
X122850892Y-114333767D01*
X122922276Y-114262293D01*
X122922366Y-114405150D01*
X123921428Y-112904526D02*
X124064285Y-112904436D01*
X124207187Y-112975776D01*
X124278660Y-113047160D01*
X124350179Y-113189973D01*
X124421785Y-113475642D01*
X124422008Y-113832785D01*
X124350759Y-114118544D01*
X124279419Y-114261445D01*
X124208035Y-114332919D01*
X124065223Y-114404436D01*
X123922366Y-114404525D01*
X123779464Y-114333187D01*
X123707990Y-114261802D01*
X123636473Y-114118990D01*
X123564865Y-113833321D01*
X123564642Y-113476178D01*
X123635893Y-113190419D01*
X123707231Y-113047518D01*
X123778616Y-112976044D01*
X123921428Y-112904526D01*
X125349999Y-112903633D02*
X125492856Y-112903544D01*
X125635757Y-112974883D01*
X125707231Y-113046268D01*
X125778749Y-113189080D01*
X125850356Y-113474749D01*
X125850579Y-113831892D01*
X125779330Y-114117651D01*
X125707990Y-114260552D01*
X125636606Y-114332026D01*
X125493793Y-114403543D01*
X125350936Y-114403633D01*
X125208035Y-114332294D01*
X125136561Y-114260910D01*
X125065044Y-114118097D01*
X124993436Y-113832428D01*
X124993213Y-113475285D01*
X125064463Y-113189526D01*
X125135802Y-113046625D01*
X125207186Y-112975151D01*
X125349999Y-112903633D01*
X126778569Y-112902740D02*
X126921426Y-112902651D01*
X127064328Y-112973990D01*
X127135802Y-113045375D01*
X127207320Y-113188187D01*
X127278927Y-113473856D01*
X127279150Y-113830999D01*
X127207900Y-114116758D01*
X127136561Y-114259660D01*
X127065176Y-114331133D01*
X126922364Y-114402650D01*
X126779507Y-114402740D01*
X126636605Y-114331401D01*
X126565132Y-114260017D01*
X126493614Y-114117204D01*
X126422007Y-113831535D01*
X126421784Y-113474392D01*
X126493034Y-113188634D01*
X126564373Y-113045732D01*
X126635757Y-112974258D01*
X126778569Y-112902740D01*
X129065221Y-114401311D02*
X129064596Y-113401311D01*
X129064685Y-113544169D02*
X129136068Y-113472696D01*
X129278882Y-113401177D01*
X129493166Y-113401043D01*
X129636068Y-113472383D01*
X129707586Y-113615196D01*
X129708077Y-114400909D01*
X129707586Y-113615196D02*
X129778926Y-113472294D01*
X129921738Y-113400776D01*
X130136023Y-113400642D01*
X130278926Y-113471981D01*
X130350443Y-113614794D01*
X130350934Y-114400508D01*
X131065220Y-114400061D02*
X131064595Y-113400061D01*
X131064684Y-113542919D02*
X131136068Y-113471446D01*
X131278881Y-113399927D01*
X131493166Y-113399793D01*
X131636068Y-113471133D01*
X131707586Y-113613946D01*
X131708077Y-114399659D01*
X131707586Y-113613946D02*
X131778926Y-113471044D01*
X131921738Y-113399526D01*
X132136023Y-113399392D01*
X132278926Y-113470731D01*
X132350443Y-113613544D01*
X132350934Y-114399258D01*
X86206812Y-112399527D02*
X166206812Y-112349527D01*
X86200000Y-101500000D02*
X86208499Y-115099526D01*
X166200000Y-101450000D02*
X166208499Y-115049526D01*
X166206812Y-112349527D02*
X165080675Y-112936652D01*
X166206812Y-112349527D02*
X165079942Y-111763810D01*
X86206812Y-112399527D02*
X87333682Y-112985244D01*
X86206812Y-112399527D02*
X87332949Y-111812402D01*
X120679174Y-57243747D02*
X120536357Y-57172236D01*
X120464970Y-57100767D01*
X120393622Y-56957869D01*
X120393662Y-56886441D01*
X120465173Y-56743625D01*
X120536641Y-56672236D01*
X120679540Y-56600889D01*
X120965254Y-56601051D01*
X121108070Y-56672561D01*
X121179458Y-56744031D01*
X121250805Y-56886928D01*
X121250765Y-56958356D01*
X121179256Y-57101173D01*
X121107786Y-57172561D01*
X120964888Y-57243909D01*
X120679174Y-57243747D01*
X120536276Y-57315093D01*
X120464807Y-57386482D01*
X120393297Y-57529298D01*
X120393135Y-57815012D01*
X120464483Y-57957910D01*
X120535870Y-58029379D01*
X120678687Y-58100888D01*
X120964401Y-58101051D01*
X121107299Y-58029704D01*
X121178768Y-57958316D01*
X121250278Y-57815499D01*
X121250440Y-57529785D01*
X121179093Y-57386888D01*
X121107705Y-57315418D01*
X120964888Y-57243909D01*
X122107745Y-57244558D02*
X121964928Y-57173048D01*
X121893540Y-57101578D01*
X121822193Y-56958681D01*
X121822233Y-56887253D01*
X121893743Y-56744437D01*
X121965212Y-56673048D01*
X122108110Y-56601700D01*
X122393824Y-56601863D01*
X122536641Y-56673373D01*
X122608029Y-56744842D01*
X122679376Y-56887740D01*
X122679335Y-56959168D01*
X122607826Y-57101984D01*
X122536357Y-57173373D01*
X122393459Y-57244721D01*
X122107745Y-57244558D01*
X121964847Y-57315905D01*
X121893378Y-57387293D01*
X121821868Y-57530110D01*
X121821706Y-57815824D01*
X121893053Y-57958721D01*
X121964441Y-58030191D01*
X122107258Y-58101700D01*
X122392972Y-58101862D01*
X122535870Y-58030516D01*
X122607339Y-57959127D01*
X122678848Y-57816311D01*
X122679011Y-57530597D01*
X122607664Y-57387699D01*
X122536276Y-57316230D01*
X122393459Y-57244721D01*
X123321624Y-57959533D02*
X123393012Y-58031003D01*
X123321543Y-58102390D01*
X123250155Y-58030921D01*
X123321624Y-57959533D01*
X123321543Y-58102390D01*
X124322395Y-56602958D02*
X124465252Y-56603040D01*
X124608068Y-56674550D01*
X124679457Y-56746019D01*
X124750805Y-56888917D01*
X124822070Y-57174671D01*
X124821867Y-57531814D01*
X124750277Y-57817488D01*
X124678767Y-57960304D01*
X124607297Y-58031693D01*
X124464400Y-58103039D01*
X124321543Y-58102958D01*
X124178726Y-58031449D01*
X124107338Y-57959979D01*
X124035991Y-57817082D01*
X123964725Y-57531327D01*
X123964927Y-57174184D01*
X124036519Y-56888511D01*
X124108028Y-56745695D01*
X124179498Y-56674306D01*
X124322395Y-56602958D01*
X125750966Y-56603770D02*
X125893823Y-56603851D01*
X126036639Y-56675361D01*
X126108028Y-56746831D01*
X126179375Y-56889729D01*
X126250641Y-57175483D01*
X126250438Y-57532626D01*
X126178848Y-57818299D01*
X126107338Y-57961116D01*
X126035868Y-58032504D01*
X125892971Y-58103851D01*
X125750114Y-58103770D01*
X125607297Y-58032261D01*
X125535909Y-57960791D01*
X125464562Y-57817894D01*
X125393295Y-57532139D01*
X125393498Y-57174996D01*
X125465090Y-56889323D01*
X125536599Y-56746506D01*
X125608068Y-56675118D01*
X125750966Y-56603770D01*
X127179537Y-56604582D02*
X127322394Y-56604663D01*
X127465210Y-56676173D01*
X127536598Y-56747643D01*
X127607946Y-56890540D01*
X127679212Y-57176295D01*
X127679009Y-57533438D01*
X127607419Y-57819111D01*
X127535908Y-57961928D01*
X127464439Y-58033316D01*
X127321541Y-58104663D01*
X127178684Y-58104582D01*
X127035868Y-58033072D01*
X126964480Y-57961603D01*
X126893133Y-57818705D01*
X126821866Y-57532951D01*
X126822069Y-57175808D01*
X126893660Y-56890134D01*
X126965169Y-56747318D01*
X127036639Y-56675930D01*
X127179537Y-56604582D01*
X129464398Y-58105880D02*
X129464966Y-57105880D01*
X129464885Y-57248738D02*
X129536354Y-57177350D01*
X129679252Y-57106002D01*
X129893537Y-57106124D01*
X130036353Y-57177634D01*
X130107701Y-57320532D01*
X130107255Y-58106246D01*
X130107701Y-57320532D02*
X130179211Y-57177715D01*
X130322109Y-57106367D01*
X130536394Y-57106489D01*
X130679211Y-57177999D01*
X130750558Y-57320897D01*
X130750112Y-58106611D01*
X131464398Y-58107017D02*
X131464966Y-57107017D01*
X131464885Y-57249875D02*
X131536353Y-57178486D01*
X131679252Y-57107139D01*
X131893537Y-57107260D01*
X132036353Y-57178770D01*
X132107701Y-57321668D01*
X132107255Y-58107382D01*
X132107701Y-57321668D02*
X132179211Y-57178852D01*
X132322109Y-57107504D01*
X132536394Y-57107626D01*
X132679211Y-57179136D01*
X132750558Y-57322033D01*
X132750111Y-58107747D01*
X82606875Y-58750686D02*
X170606875Y-58800686D01*
X82600000Y-70850000D02*
X82608409Y-56050686D01*
X170600000Y-70900000D02*
X170608409Y-56100686D01*
X170606875Y-58800686D02*
X169480038Y-59386467D01*
X170606875Y-58800686D02*
X169480705Y-58213625D01*
X82606875Y-58750686D02*
X83733045Y-59337747D01*
X82606875Y-58750686D02*
X83733712Y-58164905D01*
X72428571Y-94185713D02*
X72428571Y-93257142D01*
X73000000Y-93757142D01*
X73000000Y-93542856D01*
X73071429Y-93399999D01*
X73142857Y-93328570D01*
X73285714Y-93257142D01*
X73642857Y-93257142D01*
X73785714Y-93328570D01*
X73857143Y-93399999D01*
X73928571Y-93542856D01*
X73928571Y-93971428D01*
X73857143Y-94114285D01*
X73785714Y-94185713D01*
X72928571Y-91971428D02*
X73928571Y-91971428D01*
X72357143Y-92328571D02*
X73428571Y-92685714D01*
X73428571Y-91757142D01*
X73785714Y-91185714D02*
X73857143Y-91114286D01*
X73928571Y-91185714D01*
X73857143Y-91257143D01*
X73785714Y-91185714D01*
X73928571Y-91185714D01*
X72428571Y-90185714D02*
X72428571Y-90042857D01*
X72500000Y-89900000D01*
X72571429Y-89828571D01*
X72714286Y-89757142D01*
X73000000Y-89685714D01*
X73357143Y-89685714D01*
X73642857Y-89757142D01*
X73785714Y-89828571D01*
X73857143Y-89900000D01*
X73928571Y-90042857D01*
X73928571Y-90185714D01*
X73857143Y-90328571D01*
X73785714Y-90400000D01*
X73642857Y-90471428D01*
X73357143Y-90542857D01*
X73000000Y-90542857D01*
X72714286Y-90471428D01*
X72571429Y-90400000D01*
X72500000Y-90328571D01*
X72428571Y-90185714D01*
X72428571Y-88757143D02*
X72428571Y-88614286D01*
X72500000Y-88471429D01*
X72571429Y-88400000D01*
X72714286Y-88328571D01*
X73000000Y-88257143D01*
X73357143Y-88257143D01*
X73642857Y-88328571D01*
X73785714Y-88400000D01*
X73857143Y-88471429D01*
X73928571Y-88614286D01*
X73928571Y-88757143D01*
X73857143Y-88900000D01*
X73785714Y-88971429D01*
X73642857Y-89042857D01*
X73357143Y-89114286D01*
X73000000Y-89114286D01*
X72714286Y-89042857D01*
X72571429Y-88971429D01*
X72500000Y-88900000D01*
X72428571Y-88757143D01*
X72428571Y-87328572D02*
X72428571Y-87185715D01*
X72500000Y-87042858D01*
X72571429Y-86971429D01*
X72714286Y-86900000D01*
X73000000Y-86828572D01*
X73357143Y-86828572D01*
X73642857Y-86900000D01*
X73785714Y-86971429D01*
X73857143Y-87042858D01*
X73928571Y-87185715D01*
X73928571Y-87328572D01*
X73857143Y-87471429D01*
X73785714Y-87542858D01*
X73642857Y-87614286D01*
X73357143Y-87685715D01*
X73000000Y-87685715D01*
X72714286Y-87614286D01*
X72571429Y-87542858D01*
X72500000Y-87471429D01*
X72428571Y-87328572D01*
X73928571Y-85042858D02*
X72928571Y-85042858D01*
X73071429Y-85042858D02*
X73000000Y-84971430D01*
X72928571Y-84828572D01*
X72928571Y-84614287D01*
X73000000Y-84471430D01*
X73142857Y-84400001D01*
X73928571Y-84400001D01*
X73142857Y-84400001D02*
X73000000Y-84328572D01*
X72928571Y-84185715D01*
X72928571Y-83971430D01*
X73000000Y-83828572D01*
X73142857Y-83757144D01*
X73928571Y-83757144D01*
X73928571Y-83042858D02*
X72928571Y-83042858D01*
X73071429Y-83042858D02*
X73000000Y-82971430D01*
X72928571Y-82828572D01*
X72928571Y-82614287D01*
X73000000Y-82471430D01*
X73142857Y-82400001D01*
X73928571Y-82400001D01*
X73142857Y-82400001D02*
X73000000Y-82328572D01*
X72928571Y-82185715D01*
X72928571Y-81971430D01*
X73000000Y-81828572D01*
X73142857Y-81757144D01*
X73928571Y-81757144D01*
X74600000Y-104900000D02*
X74600000Y-70900000D01*
X82600000Y-104900000D02*
X71900000Y-104900000D01*
X82600000Y-70900000D02*
X71900000Y-70900000D01*
X74600000Y-70900000D02*
X75186421Y-72026504D01*
X74600000Y-70900000D02*
X74013579Y-72026504D01*
X74600000Y-104900000D02*
X75186421Y-103773496D01*
X74600000Y-104900000D02*
X74013579Y-103773496D01*
D12*
X82775000Y-104925000D02*
X82575000Y-104925000D01*
X82575000Y-70875000D02*
X82825000Y-70875000D01*
D11*
X76971429Y-94214285D02*
X76900000Y-94142856D01*
X76828571Y-93999999D01*
X76828571Y-93642856D01*
X76900000Y-93499999D01*
X76971429Y-93428570D01*
X77114286Y-93357142D01*
X77257143Y-93357142D01*
X77471429Y-93428570D01*
X78328571Y-94285713D01*
X78328571Y-93357142D01*
X76828571Y-92857142D02*
X76828571Y-91857142D01*
X78328571Y-92499999D01*
X78185714Y-91285714D02*
X78257143Y-91214286D01*
X78328571Y-91285714D01*
X78257143Y-91357143D01*
X78185714Y-91285714D01*
X78328571Y-91285714D01*
X76828571Y-90285714D02*
X76828571Y-90142857D01*
X76900000Y-90000000D01*
X76971429Y-89928571D01*
X77114286Y-89857142D01*
X77400000Y-89785714D01*
X77757143Y-89785714D01*
X78042857Y-89857142D01*
X78185714Y-89928571D01*
X78257143Y-90000000D01*
X78328571Y-90142857D01*
X78328571Y-90285714D01*
X78257143Y-90428571D01*
X78185714Y-90500000D01*
X78042857Y-90571428D01*
X77757143Y-90642857D01*
X77400000Y-90642857D01*
X77114286Y-90571428D01*
X76971429Y-90500000D01*
X76900000Y-90428571D01*
X76828571Y-90285714D01*
X76828571Y-88857143D02*
X76828571Y-88714286D01*
X76900000Y-88571429D01*
X76971429Y-88500000D01*
X77114286Y-88428571D01*
X77400000Y-88357143D01*
X77757143Y-88357143D01*
X78042857Y-88428571D01*
X78185714Y-88500000D01*
X78257143Y-88571429D01*
X78328571Y-88714286D01*
X78328571Y-88857143D01*
X78257143Y-89000000D01*
X78185714Y-89071429D01*
X78042857Y-89142857D01*
X77757143Y-89214286D01*
X77400000Y-89214286D01*
X77114286Y-89142857D01*
X76971429Y-89071429D01*
X76900000Y-89000000D01*
X76828571Y-88857143D01*
X76828571Y-87428572D02*
X76828571Y-87285715D01*
X76900000Y-87142858D01*
X76971429Y-87071429D01*
X77114286Y-87000000D01*
X77400000Y-86928572D01*
X77757143Y-86928572D01*
X78042857Y-87000000D01*
X78185714Y-87071429D01*
X78257143Y-87142858D01*
X78328571Y-87285715D01*
X78328571Y-87428572D01*
X78257143Y-87571429D01*
X78185714Y-87642858D01*
X78042857Y-87714286D01*
X77757143Y-87785715D01*
X77400000Y-87785715D01*
X77114286Y-87714286D01*
X76971429Y-87642858D01*
X76900000Y-87571429D01*
X76828571Y-87428572D01*
X78328571Y-85142858D02*
X77328571Y-85142858D01*
X77471429Y-85142858D02*
X77400000Y-85071430D01*
X77328571Y-84928572D01*
X77328571Y-84714287D01*
X77400000Y-84571430D01*
X77542857Y-84500001D01*
X78328571Y-84500001D01*
X77542857Y-84500001D02*
X77400000Y-84428572D01*
X77328571Y-84285715D01*
X77328571Y-84071430D01*
X77400000Y-83928572D01*
X77542857Y-83857144D01*
X78328571Y-83857144D01*
X78328571Y-83142858D02*
X77328571Y-83142858D01*
X77471429Y-83142858D02*
X77400000Y-83071430D01*
X77328571Y-82928572D01*
X77328571Y-82714287D01*
X77400000Y-82571430D01*
X77542857Y-82500001D01*
X78328571Y-82500001D01*
X77542857Y-82500001D02*
X77400000Y-82428572D01*
X77328571Y-82285715D01*
X77328571Y-82071430D01*
X77400000Y-81928572D01*
X77542857Y-81857144D01*
X78328571Y-81857144D01*
X79000000Y-101500000D02*
X79000000Y-74500000D01*
X86200000Y-101500000D02*
X76300000Y-101500000D01*
X86200000Y-74500000D02*
X76300000Y-74500000D01*
X79000000Y-74500000D02*
X79586421Y-75626504D01*
X79000000Y-74500000D02*
X78413579Y-75626504D01*
X79000000Y-101500000D02*
X79586421Y-100373496D01*
X79000000Y-101500000D02*
X78413579Y-100373496D01*
D12*
X83000000Y-104925000D02*
X170600000Y-104925000D01*
X170600000Y-104925000D02*
X170600000Y-70875000D01*
X82575000Y-104925000D02*
X82575000Y-70875000D01*
X82825000Y-70875000D02*
X170600000Y-70875000D01*
D10*
X115500000Y-76500000D02*
X116750000Y-76500000D01*
X116750000Y-76500000D02*
X116750000Y-75250000D01*
X116350000Y-76100000D02*
X116350000Y-71600000D01*
X116350000Y-71600000D02*
X106450000Y-71600000D01*
X106450000Y-71600000D02*
X106450000Y-76100000D01*
X106450000Y-76100000D02*
X116350000Y-76100000D01*
D13*
X149300000Y-75450000D02*
X149300000Y-81400000D01*
X164800000Y-81400000D02*
X164800000Y-75450000D01*
X149300000Y-81400000D02*
X164800000Y-81400000D01*
X164800000Y-75450000D02*
X149300000Y-75450000D01*
D10*
X83800000Y-96200000D02*
X83800000Y-97450000D01*
X83800000Y-97450000D02*
X85050000Y-97450000D01*
X84200000Y-97050000D02*
X88700000Y-97050000D01*
X88700000Y-97050000D02*
X88700000Y-91150000D01*
X88700000Y-91150000D02*
X84200000Y-91150000D01*
X84200000Y-91150000D02*
X84200000Y-97050000D01*
X152420000Y-99500000D02*
X151180000Y-99500000D01*
X152420000Y-97500000D02*
X152420000Y-99500000D01*
X151180000Y-97500000D02*
X152420000Y-97500000D01*
X151180000Y-99500000D02*
X151180000Y-97500000D01*
X147300000Y-84720000D02*
X147300000Y-83480000D01*
X149300000Y-84720000D02*
X147300000Y-84720000D01*
X149300000Y-83480000D02*
X149300000Y-84720000D01*
X147300000Y-83480000D02*
X149300000Y-83480000D01*
X158120000Y-95700000D02*
X156880000Y-95700000D01*
X158120000Y-93700000D02*
X158120000Y-95700000D01*
X156880000Y-93700000D02*
X158120000Y-93700000D01*
X156880000Y-95700000D02*
X156880000Y-93700000D01*
X155180000Y-83600000D02*
X156420000Y-83600000D01*
X155180000Y-85600000D02*
X155180000Y-83600000D01*
X156420000Y-85600000D02*
X155180000Y-85600000D01*
X156420000Y-83600000D02*
X156420000Y-85600000D01*
X122000000Y-75020000D02*
X122000000Y-73780000D01*
X124000000Y-75020000D02*
X122000000Y-75020000D01*
X124000000Y-73780000D02*
X124000000Y-75020000D01*
X122000000Y-73780000D02*
X124000000Y-73780000D01*
X156880000Y-83900000D02*
X158120000Y-83900000D01*
X156880000Y-85900000D02*
X156880000Y-83900000D01*
X158120000Y-85900000D02*
X156880000Y-85900000D01*
X158120000Y-83900000D02*
X158120000Y-85900000D01*
X145950000Y-95620000D02*
X145950000Y-94380000D01*
X147950000Y-95620000D02*
X145950000Y-95620000D01*
X147950000Y-94380000D02*
X147950000Y-95620000D01*
X145950000Y-94380000D02*
X147950000Y-94380000D01*
X146700000Y-96330000D02*
X146700000Y-97570000D01*
X144700000Y-96330000D02*
X146700000Y-96330000D01*
X144700000Y-97570000D02*
X144700000Y-96330000D01*
X146700000Y-97570000D02*
X144700000Y-97570000D01*
X134900000Y-98680000D02*
X134900000Y-99920000D01*
X132900000Y-98680000D02*
X134900000Y-98680000D01*
X132900000Y-99920000D02*
X132900000Y-98680000D01*
X134900000Y-99920000D02*
X132900000Y-99920000D01*
X134900000Y-96680000D02*
X134900000Y-97920000D01*
X132900000Y-96680000D02*
X134900000Y-96680000D01*
X132900000Y-97920000D02*
X132900000Y-96680000D01*
X134900000Y-97920000D02*
X132900000Y-97920000D01*
X133880000Y-101100000D02*
X135120000Y-101100000D01*
X133880000Y-103100000D02*
X133880000Y-101100000D01*
X135120000Y-103100000D02*
X133880000Y-103100000D01*
X135120000Y-101100000D02*
X135120000Y-103100000D01*
X138250000Y-84980000D02*
X138250000Y-86220000D01*
X136250000Y-84980000D02*
X138250000Y-84980000D01*
X136250000Y-86220000D02*
X136250000Y-84980000D01*
X138250000Y-86220000D02*
X136250000Y-86220000D01*
X136720000Y-92100000D02*
X135480000Y-92100000D01*
X136720000Y-90100000D02*
X136720000Y-92100000D01*
X135480000Y-90100000D02*
X136720000Y-90100000D01*
X135480000Y-92100000D02*
X135480000Y-90100000D01*
X146700000Y-98230000D02*
X146700000Y-99470000D01*
X144700000Y-98230000D02*
X146700000Y-98230000D01*
X144700000Y-99470000D02*
X144700000Y-98230000D01*
X146700000Y-99470000D02*
X144700000Y-99470000D01*
X146200000Y-100005000D02*
X146200000Y-101245000D01*
X144200000Y-100005000D02*
X146200000Y-100005000D01*
X144200000Y-101245000D02*
X144200000Y-100005000D01*
X146200000Y-101245000D02*
X144200000Y-101245000D01*
X103830000Y-97850000D02*
X105070000Y-97850000D01*
X103830000Y-99850000D02*
X103830000Y-97850000D01*
X105070000Y-99850000D02*
X103830000Y-99850000D01*
X105070000Y-97850000D02*
X105070000Y-99850000D01*
X105530000Y-99000000D02*
X106770000Y-99000000D01*
X105530000Y-101000000D02*
X105530000Y-99000000D01*
X106770000Y-101000000D02*
X105530000Y-101000000D01*
X106770000Y-99000000D02*
X106770000Y-101000000D01*
X103041381Y-94000000D02*
G75*
G03X103041381Y-94000000I-3041381J0D01*
G01*
X103150000Y-90850000D02*
X96850000Y-90850000D01*
X103150000Y-96480000D02*
X103150000Y-90850000D01*
X102480000Y-97150000D02*
X103150000Y-96480000D01*
X97520000Y-97150000D02*
X102480000Y-97150000D01*
X96850000Y-96480000D02*
X97520000Y-97150000D01*
X96850000Y-90850000D02*
X96850000Y-96480000D01*
X112891381Y-87400000D02*
G75*
G03X112891381Y-87400000I-3041381J0D01*
G01*
X106700000Y-84250000D02*
X106700000Y-90550000D01*
X112330000Y-84250000D02*
X106700000Y-84250000D01*
X113000000Y-84920000D02*
X112330000Y-84250000D01*
X113000000Y-89880000D02*
X113000000Y-84920000D01*
X112330000Y-90550000D02*
X113000000Y-89880000D01*
X106700000Y-90550000D02*
X112330000Y-90550000D01*
X105580000Y-94900000D02*
X106820000Y-94900000D01*
X105580000Y-96900000D02*
X105580000Y-94900000D01*
X106820000Y-96900000D02*
X105580000Y-96900000D01*
X106820000Y-94900000D02*
X106820000Y-96900000D01*
X105991381Y-82900000D02*
G75*
G03X105991381Y-82900000I-3041381J0D01*
G01*
X106100000Y-79750000D02*
X99800000Y-79750000D01*
X106100000Y-85380000D02*
X106100000Y-79750000D01*
X105430000Y-86050000D02*
X106100000Y-85380000D01*
X100470000Y-86050000D02*
X105430000Y-86050000D01*
X99800000Y-85380000D02*
X100470000Y-86050000D01*
X99800000Y-79750000D02*
X99800000Y-85380000D01*
X116400000Y-97070000D02*
X116400000Y-95830000D01*
X118400000Y-97070000D02*
X116400000Y-97070000D01*
X118400000Y-95830000D02*
X118400000Y-97070000D01*
X116400000Y-95830000D02*
X118400000Y-95830000D01*
X98841381Y-82900000D02*
G75*
G03X98841381Y-82900000I-3041381J0D01*
G01*
X98950000Y-79750000D02*
X92650000Y-79750000D01*
X98950000Y-85380000D02*
X98950000Y-79750000D01*
X98280000Y-86050000D02*
X98950000Y-85380000D01*
X93320000Y-86050000D02*
X98280000Y-86050000D01*
X92650000Y-85380000D02*
X93320000Y-86050000D01*
X92650000Y-79750000D02*
X92650000Y-85380000D01*
X95891381Y-94000000D02*
G75*
G03X95891381Y-94000000I-3041381J0D01*
G01*
X96000000Y-90850000D02*
X89700000Y-90850000D01*
X96000000Y-96480000D02*
X96000000Y-90850000D01*
X95330000Y-97150000D02*
X96000000Y-96480000D01*
X90370000Y-97150000D02*
X95330000Y-97150000D01*
X89700000Y-96480000D02*
X90370000Y-97150000D01*
X89700000Y-90850000D02*
X89700000Y-96480000D01*
X91470000Y-84000000D02*
X90230000Y-84000000D01*
X91470000Y-82000000D02*
X91470000Y-84000000D01*
X90230000Y-82000000D02*
X91470000Y-82000000D01*
X90230000Y-84000000D02*
X90230000Y-82000000D01*
X167350000Y-94330000D02*
X167350000Y-95570000D01*
X165350000Y-94330000D02*
X167350000Y-94330000D01*
X165350000Y-95570000D02*
X165350000Y-94330000D01*
X167350000Y-95570000D02*
X165350000Y-95570000D01*
X167750000Y-92180000D02*
X167750000Y-93420000D01*
X165750000Y-92180000D02*
X167750000Y-92180000D01*
X165750000Y-93420000D02*
X165750000Y-92180000D01*
X167750000Y-93420000D02*
X165750000Y-93420000D01*
X158320000Y-99700000D02*
X157080000Y-99700000D01*
X158320000Y-97700000D02*
X158320000Y-99700000D01*
X157080000Y-97700000D02*
X158320000Y-97700000D01*
X157080000Y-99700000D02*
X157080000Y-97700000D01*
X155320000Y-101000000D02*
X154080000Y-101000000D01*
X155320000Y-99000000D02*
X155320000Y-101000000D01*
X154080000Y-99000000D02*
X155320000Y-99000000D01*
X154080000Y-101000000D02*
X154080000Y-99000000D01*
X120050000Y-79080000D02*
X120050000Y-80320000D01*
X118050000Y-79080000D02*
X120050000Y-79080000D01*
X118050000Y-80320000D02*
X118050000Y-79080000D01*
X120050000Y-80320000D02*
X118050000Y-80320000D01*
X120000000Y-77430000D02*
X120000000Y-78670000D01*
X118000000Y-77430000D02*
X120000000Y-77430000D01*
X118000000Y-78670000D02*
X118000000Y-77430000D01*
X120000000Y-78670000D02*
X118000000Y-78670000D01*
X102200000Y-75620000D02*
X102200000Y-74380000D01*
X104200000Y-75620000D02*
X102200000Y-75620000D01*
X104200000Y-74380000D02*
X104200000Y-75620000D01*
X102200000Y-74380000D02*
X104200000Y-74380000D01*
X166650000Y-89880000D02*
X166650000Y-91120000D01*
X164650000Y-89880000D02*
X166650000Y-89880000D01*
X164650000Y-91120000D02*
X164650000Y-89880000D01*
X166650000Y-91120000D02*
X164650000Y-91120000D01*
X130600000Y-96930000D02*
X130600000Y-98170000D01*
X128600000Y-96930000D02*
X130600000Y-96930000D01*
X128600000Y-98170000D02*
X128600000Y-96930000D01*
X130600000Y-98170000D02*
X128600000Y-98170000D01*
X112600000Y-94000000D02*
X108000000Y-94000000D01*
X108000000Y-94000000D02*
X108000000Y-91000000D01*
X112600000Y-91000000D02*
X112600000Y-94000000D01*
X112600000Y-91000000D02*
X108000000Y-91000000D01*
X109650560Y-92501020D02*
X108748860Y-92501020D01*
X110801180Y-92501020D02*
X111799400Y-92501020D01*
X109650560Y-91700920D02*
X109650560Y-93301120D01*
X110801180Y-93250320D02*
X110801180Y-91700920D01*
X109650560Y-92501020D02*
X110801180Y-93250320D01*
X109650560Y-92501020D02*
X110801180Y-91700920D01*
X161600000Y-102900000D02*
X161100000Y-102900000D01*
X161600000Y-101900000D02*
X161600000Y-102900000D01*
X161100000Y-101900000D02*
X161600000Y-101900000D01*
X161100000Y-102900000D02*
X161100000Y-101900000D01*
X130675000Y-104650000D02*
X131925000Y-104650000D01*
X131925000Y-104650000D02*
X131925000Y-103400000D01*
X131525000Y-104250000D02*
X131525000Y-99750000D01*
X131525000Y-99750000D02*
X117625000Y-99750000D01*
X117625000Y-99750000D02*
X117625000Y-104250000D01*
X117625000Y-104250000D02*
X131525000Y-104250000D01*
X120300000Y-89450000D02*
X120300000Y-94450000D01*
X114800000Y-89450000D02*
X120300000Y-89450000D01*
X114800000Y-94450000D02*
X114800000Y-89450000D01*
X120300000Y-94450000D02*
X114800000Y-94450000D01*
X120400000Y-75380000D02*
X120400000Y-76620000D01*
X118400000Y-75380000D02*
X120400000Y-75380000D01*
X118400000Y-76620000D02*
X118400000Y-75380000D01*
X120400000Y-76620000D02*
X118400000Y-76620000D01*
X139830000Y-98550000D02*
X141070000Y-98550000D01*
X139830000Y-100550000D02*
X139830000Y-98550000D01*
X141070000Y-100550000D02*
X139830000Y-100550000D01*
X141070000Y-98550000D02*
X141070000Y-100550000D01*
X139370000Y-98000000D02*
X138130000Y-98000000D01*
X139370000Y-96000000D02*
X139370000Y-98000000D01*
X138130000Y-96000000D02*
X139370000Y-96000000D01*
X138130000Y-98000000D02*
X138130000Y-96000000D01*
X123180000Y-88400000D02*
X124420000Y-88400000D01*
X123180000Y-90400000D02*
X123180000Y-88400000D01*
X124420000Y-90400000D02*
X123180000Y-90400000D01*
X124420000Y-88400000D02*
X124420000Y-90400000D01*
X109400000Y-101980000D02*
X109400000Y-103220000D01*
X107400000Y-101980000D02*
X109400000Y-101980000D01*
X107400000Y-103220000D02*
X107400000Y-101980000D01*
X109400000Y-103220000D02*
X107400000Y-103220000D01*
X161970000Y-100525000D02*
X160730000Y-100525000D01*
X161970000Y-98525000D02*
X161970000Y-100525000D01*
X160730000Y-98525000D02*
X161970000Y-98525000D01*
X160730000Y-100525000D02*
X160730000Y-98525000D01*
X131350000Y-89400000D02*
G75*
G03X131350000Y-89400000I-1650000J0D01*
G01*
X126700000Y-86100000D02*
X132700000Y-86100000D01*
X132700000Y-86100000D02*
X132700000Y-92700000D01*
X132700000Y-92700000D02*
X126700000Y-92700000D01*
X126700000Y-92700000D02*
X126700000Y-86100000D01*
D13*
X149450000Y-86650000D02*
X155450000Y-86650000D01*
X155450000Y-86650000D02*
X155450000Y-93650000D01*
X155450000Y-93650000D02*
X148450000Y-93650000D01*
X148450000Y-93650000D02*
X148450000Y-87650000D01*
X148450000Y-87650000D02*
X149450000Y-86650000D01*
D10*
X118860000Y-68460000D02*
X118860000Y-71380000D01*
X120130000Y-68460000D02*
X120130000Y-72650000D01*
X121400000Y-68460000D02*
X121400000Y-71380000D01*
X122420000Y-63510000D02*
X122420000Y-68460000D01*
X122420000Y-68460000D02*
X117840000Y-68460000D01*
X117840000Y-68460000D02*
X117840000Y-63510000D01*
X117840000Y-63510000D02*
X122420000Y-63510000D01*
D13*
X150250000Y-100100000D02*
X150250000Y-103100000D01*
X150250000Y-103100000D02*
X147250000Y-103100000D01*
X147250000Y-100100000D02*
X147250000Y-103100000D01*
X150250000Y-100100000D02*
X147250000Y-100100000D01*
X136200000Y-103800000D02*
X139200000Y-103800000D01*
X139200000Y-98800000D02*
X136200000Y-98800000D01*
X139200000Y-98800000D02*
X139200000Y-103800000D01*
X136200000Y-98800000D02*
X136200000Y-103800000D01*
X110300000Y-94850000D02*
X113700000Y-94850000D01*
X113700000Y-94850000D02*
X113700000Y-101350000D01*
X113700000Y-101350000D02*
X109300000Y-101350000D01*
X109300000Y-101350000D02*
X109300000Y-95850000D01*
X109300000Y-95850000D02*
X110300000Y-94850000D01*
D10*
X116200000Y-77800000D02*
X116700000Y-78300000D01*
X116700000Y-78300000D02*
X116700000Y-79800000D01*
X116700000Y-79800000D02*
X113700000Y-79800000D01*
X113700000Y-79800000D02*
X113700000Y-77800000D01*
X113700000Y-77800000D02*
X116200000Y-77800000D01*
X153050000Y-96200000D02*
X153050000Y-97700000D01*
X156250000Y-96200000D02*
X156250000Y-97700000D01*
X153050000Y-96200000D02*
X156250000Y-96200000D01*
X153050000Y-97700000D02*
X156250000Y-97700000D01*
X161100000Y-95150000D02*
X161100000Y-92350000D01*
X161100000Y-92350000D02*
X161300000Y-92150000D01*
X161300000Y-92150000D02*
X163400000Y-92150000D01*
X163400000Y-92150000D02*
X163600000Y-92350000D01*
X163600000Y-92350000D02*
X163600000Y-95150000D01*
X163600000Y-95150000D02*
X163400000Y-95350000D01*
X163400000Y-95350000D02*
X161300000Y-95350000D01*
X161300000Y-95350000D02*
X161100000Y-95150000D01*
X162600000Y-95350000D02*
X163600000Y-94350000D01*
X83800000Y-85200000D02*
X83800000Y-86450000D01*
X83800000Y-86450000D02*
X85050000Y-86450000D01*
X84200000Y-86050000D02*
X88700000Y-86050000D01*
X88700000Y-86050000D02*
X88700000Y-80150000D01*
X88700000Y-80150000D02*
X84200000Y-80150000D01*
X84200000Y-80150000D02*
X84200000Y-86050000D01*
X92800000Y-100970000D02*
X92800000Y-99730000D01*
X94800000Y-100970000D02*
X92800000Y-100970000D01*
X94800000Y-99730000D02*
X94800000Y-100970000D01*
X92800000Y-99730000D02*
X94800000Y-99730000D01*
X95900000Y-100970000D02*
X95900000Y-99730000D01*
X97900000Y-100970000D02*
X95900000Y-100970000D01*
X97900000Y-99730000D02*
X97900000Y-100970000D01*
X95900000Y-99730000D02*
X97900000Y-99730000D01*
X159970000Y-94100000D02*
X158730000Y-94100000D01*
X159970000Y-92100000D02*
X159970000Y-94100000D01*
X158730000Y-92100000D02*
X159970000Y-92100000D01*
X158730000Y-94100000D02*
X158730000Y-92100000D01*
X162650000Y-81650000D02*
X162650000Y-82150000D01*
X161650000Y-81650000D02*
X162650000Y-81650000D01*
X161650000Y-82150000D02*
X161650000Y-81650000D01*
X162650000Y-82150000D02*
X161650000Y-82150000D01*
X161350000Y-82800000D02*
X161850000Y-82800000D01*
X161350000Y-83800000D02*
X161350000Y-82800000D01*
X161850000Y-83800000D02*
X161350000Y-83800000D01*
X161850000Y-82800000D02*
X161850000Y-83800000D01*
X162650000Y-84200000D02*
X162650000Y-84700000D01*
X161650000Y-84200000D02*
X162650000Y-84200000D01*
X161650000Y-84700000D02*
X161650000Y-84200000D01*
X162650000Y-84700000D02*
X161650000Y-84700000D01*
D13*
X111066667Y-72352381D02*
X111066667Y-73066667D01*
X111019047Y-73209524D01*
X110923809Y-73304762D01*
X110780952Y-73352381D01*
X110685714Y-73352381D01*
X111971429Y-72685714D02*
X111971429Y-73352381D01*
X111733333Y-72304762D02*
X111495238Y-73019048D01*
X112114286Y-73019048D01*
X155883333Y-74816667D02*
X156359524Y-74816667D01*
X155788095Y-75102381D02*
X156121428Y-74102381D01*
X156454762Y-75102381D01*
X156788095Y-74578571D02*
X157121429Y-74578571D01*
X157264286Y-75102381D02*
X156788095Y-75102381D01*
X156788095Y-74102381D01*
X157264286Y-74102381D01*
X158216667Y-75102381D02*
X157645238Y-75102381D01*
X157930952Y-75102381D02*
X157930952Y-74102381D01*
X157835714Y-74245238D01*
X157740476Y-74340476D01*
X157645238Y-74388095D01*
X165166667Y-101952381D02*
X164833333Y-101476190D01*
X164595238Y-101952381D02*
X164595238Y-100952381D01*
X164976191Y-100952381D01*
X165071429Y-101000000D01*
X165119048Y-101047619D01*
X165166667Y-101142857D01*
X165166667Y-101285714D01*
X165119048Y-101380952D01*
X165071429Y-101428571D01*
X164976191Y-101476190D01*
X164595238Y-101476190D01*
X165595238Y-101428571D02*
X165928572Y-101428571D01*
X166071429Y-101952381D02*
X165595238Y-101952381D01*
X165595238Y-100952381D01*
X166071429Y-100952381D01*
X166833334Y-101428571D02*
X166500000Y-101428571D01*
X166500000Y-101952381D02*
X166500000Y-100952381D01*
X166976191Y-100952381D01*
X167500000Y-100952381D02*
X167500000Y-101190476D01*
X167261905Y-101095238D02*
X167500000Y-101190476D01*
X167738096Y-101095238D01*
X167357143Y-101380952D02*
X167500000Y-101190476D01*
X167642858Y-101380952D01*
X168261905Y-100952381D02*
X168261905Y-101190476D01*
X168023810Y-101095238D02*
X168261905Y-101190476D01*
X168500001Y-101095238D01*
X168119048Y-101380952D02*
X168261905Y-101190476D01*
X168404763Y-101380952D01*
X85166667Y-101952381D02*
X84833333Y-101476190D01*
X84595238Y-101952381D02*
X84595238Y-100952381D01*
X84976191Y-100952381D01*
X85071429Y-101000000D01*
X85119048Y-101047619D01*
X85166667Y-101142857D01*
X85166667Y-101285714D01*
X85119048Y-101380952D01*
X85071429Y-101428571D01*
X84976191Y-101476190D01*
X84595238Y-101476190D01*
X85595238Y-101428571D02*
X85928572Y-101428571D01*
X86071429Y-101952381D02*
X85595238Y-101952381D01*
X85595238Y-100952381D01*
X86071429Y-100952381D01*
X86833334Y-101428571D02*
X86500000Y-101428571D01*
X86500000Y-101952381D02*
X86500000Y-100952381D01*
X86976191Y-100952381D01*
X87500000Y-100952381D02*
X87500000Y-101190476D01*
X87261905Y-101095238D02*
X87500000Y-101190476D01*
X87738096Y-101095238D01*
X87357143Y-101380952D02*
X87500000Y-101190476D01*
X87642858Y-101380952D01*
X88261905Y-100952381D02*
X88261905Y-101190476D01*
X88023810Y-101095238D02*
X88261905Y-101190476D01*
X88500001Y-101095238D01*
X88119048Y-101380952D02*
X88261905Y-101190476D01*
X88404763Y-101380952D01*
X87328571Y-94885714D02*
X87376190Y-94742857D01*
X87423810Y-94695238D01*
X87519048Y-94647619D01*
X87661905Y-94647619D01*
X87757143Y-94695238D01*
X87804762Y-94742857D01*
X87852381Y-94838095D01*
X87852381Y-95219048D01*
X86852381Y-95219048D01*
X86852381Y-94885714D01*
X86900000Y-94790476D01*
X86947619Y-94742857D01*
X87042857Y-94695238D01*
X87138095Y-94695238D01*
X87233333Y-94742857D01*
X87280952Y-94790476D01*
X87328571Y-94885714D01*
X87328571Y-95219048D01*
X86852381Y-94361905D02*
X86852381Y-93790476D01*
X87852381Y-94076191D02*
X86852381Y-94076191D01*
X87852381Y-92933333D02*
X87852381Y-93504762D01*
X87852381Y-93219048D02*
X86852381Y-93219048D01*
X86995238Y-93314286D01*
X87090476Y-93409524D01*
X87138095Y-93504762D01*
X150657143Y-98666666D02*
X150704762Y-98714285D01*
X150752381Y-98857142D01*
X150752381Y-98952380D01*
X150704762Y-99095238D01*
X150609524Y-99190476D01*
X150514286Y-99238095D01*
X150323810Y-99285714D01*
X150180952Y-99285714D01*
X149990476Y-99238095D01*
X149895238Y-99190476D01*
X149800000Y-99095238D01*
X149752381Y-98952380D01*
X149752381Y-98857142D01*
X149800000Y-98714285D01*
X149847619Y-98666666D01*
X150752381Y-97714285D02*
X150752381Y-98285714D01*
X150752381Y-98000000D02*
X149752381Y-98000000D01*
X149895238Y-98095238D01*
X149990476Y-98190476D01*
X150038095Y-98285714D01*
X148133334Y-82957143D02*
X148085715Y-83004762D01*
X147942858Y-83052381D01*
X147847620Y-83052381D01*
X147704762Y-83004762D01*
X147609524Y-82909524D01*
X147561905Y-82814286D01*
X147514286Y-82623810D01*
X147514286Y-82480952D01*
X147561905Y-82290476D01*
X147609524Y-82195238D01*
X147704762Y-82100000D01*
X147847620Y-82052381D01*
X147942858Y-82052381D01*
X148085715Y-82100000D01*
X148133334Y-82147619D01*
X148514286Y-82147619D02*
X148561905Y-82100000D01*
X148657143Y-82052381D01*
X148895239Y-82052381D01*
X148990477Y-82100000D01*
X149038096Y-82147619D01*
X149085715Y-82242857D01*
X149085715Y-82338095D01*
X149038096Y-82480952D01*
X148466667Y-83052381D01*
X149085715Y-83052381D01*
X156357143Y-94866666D02*
X156404762Y-94914285D01*
X156452381Y-95057142D01*
X156452381Y-95152380D01*
X156404762Y-95295238D01*
X156309524Y-95390476D01*
X156214286Y-95438095D01*
X156023810Y-95485714D01*
X155880952Y-95485714D01*
X155690476Y-95438095D01*
X155595238Y-95390476D01*
X155500000Y-95295238D01*
X155452381Y-95152380D01*
X155452381Y-95057142D01*
X155500000Y-94914285D01*
X155547619Y-94866666D01*
X155452381Y-94533333D02*
X155452381Y-93914285D01*
X155833333Y-94247619D01*
X155833333Y-94104761D01*
X155880952Y-94009523D01*
X155928571Y-93961904D01*
X156023810Y-93914285D01*
X156261905Y-93914285D01*
X156357143Y-93961904D01*
X156404762Y-94009523D01*
X156452381Y-94104761D01*
X156452381Y-94390476D01*
X156404762Y-94485714D01*
X156357143Y-94533333D01*
X157657143Y-84766666D02*
X157704762Y-84814285D01*
X157752381Y-84957142D01*
X157752381Y-85052380D01*
X157704762Y-85195238D01*
X157609524Y-85290476D01*
X157514286Y-85338095D01*
X157323810Y-85385714D01*
X157180952Y-85385714D01*
X156990476Y-85338095D01*
X156895238Y-85290476D01*
X156800000Y-85195238D01*
X156752381Y-85052380D01*
X156752381Y-84957142D01*
X156800000Y-84814285D01*
X156847619Y-84766666D01*
X157085714Y-83909523D02*
X157752381Y-83909523D01*
X156704762Y-84147619D02*
X157419048Y-84385714D01*
X157419048Y-83766666D01*
X122833334Y-73257143D02*
X122785715Y-73304762D01*
X122642858Y-73352381D01*
X122547620Y-73352381D01*
X122404762Y-73304762D01*
X122309524Y-73209524D01*
X122261905Y-73114286D01*
X122214286Y-72923810D01*
X122214286Y-72780952D01*
X122261905Y-72590476D01*
X122309524Y-72495238D01*
X122404762Y-72400000D01*
X122547620Y-72352381D01*
X122642858Y-72352381D01*
X122785715Y-72400000D01*
X122833334Y-72447619D01*
X123738096Y-72352381D02*
X123261905Y-72352381D01*
X123214286Y-72828571D01*
X123261905Y-72780952D01*
X123357143Y-72733333D01*
X123595239Y-72733333D01*
X123690477Y-72780952D01*
X123738096Y-72828571D01*
X123785715Y-72923810D01*
X123785715Y-73161905D01*
X123738096Y-73257143D01*
X123690477Y-73304762D01*
X123595239Y-73352381D01*
X123357143Y-73352381D01*
X123261905Y-73304762D01*
X123214286Y-73257143D01*
X159357143Y-85066666D02*
X159404762Y-85114285D01*
X159452381Y-85257142D01*
X159452381Y-85352380D01*
X159404762Y-85495238D01*
X159309524Y-85590476D01*
X159214286Y-85638095D01*
X159023810Y-85685714D01*
X158880952Y-85685714D01*
X158690476Y-85638095D01*
X158595238Y-85590476D01*
X158500000Y-85495238D01*
X158452381Y-85352380D01*
X158452381Y-85257142D01*
X158500000Y-85114285D01*
X158547619Y-85066666D01*
X158452381Y-84209523D02*
X158452381Y-84400000D01*
X158500000Y-84495238D01*
X158547619Y-84542857D01*
X158690476Y-84638095D01*
X158880952Y-84685714D01*
X159261905Y-84685714D01*
X159357143Y-84638095D01*
X159404762Y-84590476D01*
X159452381Y-84495238D01*
X159452381Y-84304761D01*
X159404762Y-84209523D01*
X159357143Y-84161904D01*
X159261905Y-84114285D01*
X159023810Y-84114285D01*
X158928571Y-84161904D01*
X158880952Y-84209523D01*
X158833333Y-84304761D01*
X158833333Y-84495238D01*
X158880952Y-84590476D01*
X158928571Y-84638095D01*
X159023810Y-84685714D01*
X146783334Y-93857143D02*
X146735715Y-93904762D01*
X146592858Y-93952381D01*
X146497620Y-93952381D01*
X146354762Y-93904762D01*
X146259524Y-93809524D01*
X146211905Y-93714286D01*
X146164286Y-93523810D01*
X146164286Y-93380952D01*
X146211905Y-93190476D01*
X146259524Y-93095238D01*
X146354762Y-93000000D01*
X146497620Y-92952381D01*
X146592858Y-92952381D01*
X146735715Y-93000000D01*
X146783334Y-93047619D01*
X147116667Y-92952381D02*
X147783334Y-92952381D01*
X147354762Y-93952381D01*
X145533334Y-98807143D02*
X145485715Y-98854762D01*
X145342858Y-98902381D01*
X145247620Y-98902381D01*
X145104762Y-98854762D01*
X145009524Y-98759524D01*
X144961905Y-98664286D01*
X144914286Y-98473810D01*
X144914286Y-98330952D01*
X144961905Y-98140476D01*
X145009524Y-98045238D01*
X145104762Y-97950000D01*
X145247620Y-97902381D01*
X145342858Y-97902381D01*
X145485715Y-97950000D01*
X145533334Y-97997619D01*
X146104762Y-98330952D02*
X146009524Y-98283333D01*
X145961905Y-98235714D01*
X145914286Y-98140476D01*
X145914286Y-98092857D01*
X145961905Y-97997619D01*
X146009524Y-97950000D01*
X146104762Y-97902381D01*
X146295239Y-97902381D01*
X146390477Y-97950000D01*
X146438096Y-97997619D01*
X146485715Y-98092857D01*
X146485715Y-98140476D01*
X146438096Y-98235714D01*
X146390477Y-98283333D01*
X146295239Y-98330952D01*
X146104762Y-98330952D01*
X146009524Y-98378571D01*
X145961905Y-98426190D01*
X145914286Y-98521429D01*
X145914286Y-98711905D01*
X145961905Y-98807143D01*
X146009524Y-98854762D01*
X146104762Y-98902381D01*
X146295239Y-98902381D01*
X146390477Y-98854762D01*
X146438096Y-98807143D01*
X146485715Y-98711905D01*
X146485715Y-98521429D01*
X146438096Y-98426190D01*
X146390477Y-98378571D01*
X146295239Y-98330952D01*
X133733334Y-101157143D02*
X133685715Y-101204762D01*
X133542858Y-101252381D01*
X133447620Y-101252381D01*
X133304762Y-101204762D01*
X133209524Y-101109524D01*
X133161905Y-101014286D01*
X133114286Y-100823810D01*
X133114286Y-100680952D01*
X133161905Y-100490476D01*
X133209524Y-100395238D01*
X133304762Y-100300000D01*
X133447620Y-100252381D01*
X133542858Y-100252381D01*
X133685715Y-100300000D01*
X133733334Y-100347619D01*
X134209524Y-101252381D02*
X134400000Y-101252381D01*
X134495239Y-101204762D01*
X134542858Y-101157143D01*
X134638096Y-101014286D01*
X134685715Y-100823810D01*
X134685715Y-100442857D01*
X134638096Y-100347619D01*
X134590477Y-100300000D01*
X134495239Y-100252381D01*
X134304762Y-100252381D01*
X134209524Y-100300000D01*
X134161905Y-100347619D01*
X134114286Y-100442857D01*
X134114286Y-100680952D01*
X134161905Y-100776190D01*
X134209524Y-100823810D01*
X134304762Y-100871429D01*
X134495239Y-100871429D01*
X134590477Y-100823810D01*
X134638096Y-100776190D01*
X134685715Y-100680952D01*
X133257143Y-99157143D02*
X133209524Y-99204762D01*
X133066667Y-99252381D01*
X132971429Y-99252381D01*
X132828571Y-99204762D01*
X132733333Y-99109524D01*
X132685714Y-99014286D01*
X132638095Y-98823810D01*
X132638095Y-98680952D01*
X132685714Y-98490476D01*
X132733333Y-98395238D01*
X132828571Y-98300000D01*
X132971429Y-98252381D01*
X133066667Y-98252381D01*
X133209524Y-98300000D01*
X133257143Y-98347619D01*
X134209524Y-99252381D02*
X133638095Y-99252381D01*
X133923809Y-99252381D02*
X133923809Y-98252381D01*
X133828571Y-98395238D01*
X133733333Y-98490476D01*
X133638095Y-98538095D01*
X134828571Y-98252381D02*
X134923810Y-98252381D01*
X135019048Y-98300000D01*
X135066667Y-98347619D01*
X135114286Y-98442857D01*
X135161905Y-98633333D01*
X135161905Y-98871429D01*
X135114286Y-99061905D01*
X135066667Y-99157143D01*
X135019048Y-99204762D01*
X134923810Y-99252381D01*
X134828571Y-99252381D01*
X134733333Y-99204762D01*
X134685714Y-99157143D01*
X134638095Y-99061905D01*
X134590476Y-98871429D01*
X134590476Y-98633333D01*
X134638095Y-98442857D01*
X134685714Y-98347619D01*
X134733333Y-98300000D01*
X134828571Y-98252381D01*
X136357143Y-102742857D02*
X136404762Y-102790476D01*
X136452381Y-102933333D01*
X136452381Y-103028571D01*
X136404762Y-103171429D01*
X136309524Y-103266667D01*
X136214286Y-103314286D01*
X136023810Y-103361905D01*
X135880952Y-103361905D01*
X135690476Y-103314286D01*
X135595238Y-103266667D01*
X135500000Y-103171429D01*
X135452381Y-103028571D01*
X135452381Y-102933333D01*
X135500000Y-102790476D01*
X135547619Y-102742857D01*
X136452381Y-101790476D02*
X136452381Y-102361905D01*
X136452381Y-102076191D02*
X135452381Y-102076191D01*
X135595238Y-102171429D01*
X135690476Y-102266667D01*
X135738095Y-102361905D01*
X136452381Y-100838095D02*
X136452381Y-101409524D01*
X136452381Y-101123810D02*
X135452381Y-101123810D01*
X135595238Y-101219048D01*
X135690476Y-101314286D01*
X135738095Y-101409524D01*
X136607143Y-87457143D02*
X136559524Y-87504762D01*
X136416667Y-87552381D01*
X136321429Y-87552381D01*
X136178571Y-87504762D01*
X136083333Y-87409524D01*
X136035714Y-87314286D01*
X135988095Y-87123810D01*
X135988095Y-86980952D01*
X136035714Y-86790476D01*
X136083333Y-86695238D01*
X136178571Y-86600000D01*
X136321429Y-86552381D01*
X136416667Y-86552381D01*
X136559524Y-86600000D01*
X136607143Y-86647619D01*
X137559524Y-87552381D02*
X136988095Y-87552381D01*
X137273809Y-87552381D02*
X137273809Y-86552381D01*
X137178571Y-86695238D01*
X137083333Y-86790476D01*
X136988095Y-86838095D01*
X137940476Y-86647619D02*
X137988095Y-86600000D01*
X138083333Y-86552381D01*
X138321429Y-86552381D01*
X138416667Y-86600000D01*
X138464286Y-86647619D01*
X138511905Y-86742857D01*
X138511905Y-86838095D01*
X138464286Y-86980952D01*
X137892857Y-87552381D01*
X138511905Y-87552381D01*
X134957143Y-91742857D02*
X135004762Y-91790476D01*
X135052381Y-91933333D01*
X135052381Y-92028571D01*
X135004762Y-92171429D01*
X134909524Y-92266667D01*
X134814286Y-92314286D01*
X134623810Y-92361905D01*
X134480952Y-92361905D01*
X134290476Y-92314286D01*
X134195238Y-92266667D01*
X134100000Y-92171429D01*
X134052381Y-92028571D01*
X134052381Y-91933333D01*
X134100000Y-91790476D01*
X134147619Y-91742857D01*
X135052381Y-90790476D02*
X135052381Y-91361905D01*
X135052381Y-91076191D02*
X134052381Y-91076191D01*
X134195238Y-91171429D01*
X134290476Y-91266667D01*
X134338095Y-91361905D01*
X134052381Y-90457143D02*
X134052381Y-89838095D01*
X134433333Y-90171429D01*
X134433333Y-90028571D01*
X134480952Y-89933333D01*
X134528571Y-89885714D01*
X134623810Y-89838095D01*
X134861905Y-89838095D01*
X134957143Y-89885714D01*
X135004762Y-89933333D01*
X135052381Y-90028571D01*
X135052381Y-90314286D01*
X135004762Y-90409524D01*
X134957143Y-90457143D01*
X145057143Y-100707143D02*
X145009524Y-100754762D01*
X144866667Y-100802381D01*
X144771429Y-100802381D01*
X144628571Y-100754762D01*
X144533333Y-100659524D01*
X144485714Y-100564286D01*
X144438095Y-100373810D01*
X144438095Y-100230952D01*
X144485714Y-100040476D01*
X144533333Y-99945238D01*
X144628571Y-99850000D01*
X144771429Y-99802381D01*
X144866667Y-99802381D01*
X145009524Y-99850000D01*
X145057143Y-99897619D01*
X146009524Y-100802381D02*
X145438095Y-100802381D01*
X145723809Y-100802381D02*
X145723809Y-99802381D01*
X145628571Y-99945238D01*
X145533333Y-100040476D01*
X145438095Y-100088095D01*
X146866667Y-100135714D02*
X146866667Y-100802381D01*
X146628571Y-99754762D02*
X146390476Y-100469048D01*
X147009524Y-100469048D01*
X144557143Y-102482143D02*
X144509524Y-102529762D01*
X144366667Y-102577381D01*
X144271429Y-102577381D01*
X144128571Y-102529762D01*
X144033333Y-102434524D01*
X143985714Y-102339286D01*
X143938095Y-102148810D01*
X143938095Y-102005952D01*
X143985714Y-101815476D01*
X144033333Y-101720238D01*
X144128571Y-101625000D01*
X144271429Y-101577381D01*
X144366667Y-101577381D01*
X144509524Y-101625000D01*
X144557143Y-101672619D01*
X145509524Y-102577381D02*
X144938095Y-102577381D01*
X145223809Y-102577381D02*
X145223809Y-101577381D01*
X145128571Y-101720238D01*
X145033333Y-101815476D01*
X144938095Y-101863095D01*
X146414286Y-101577381D02*
X145938095Y-101577381D01*
X145890476Y-102053571D01*
X145938095Y-102005952D01*
X146033333Y-101958333D01*
X146271429Y-101958333D01*
X146366667Y-102005952D01*
X146414286Y-102053571D01*
X146461905Y-102148810D01*
X146461905Y-102386905D01*
X146414286Y-102482143D01*
X146366667Y-102529762D01*
X146271429Y-102577381D01*
X146033333Y-102577381D01*
X145938095Y-102529762D01*
X145890476Y-102482143D01*
X106307143Y-99492857D02*
X106354762Y-99540476D01*
X106402381Y-99683333D01*
X106402381Y-99778571D01*
X106354762Y-99921429D01*
X106259524Y-100016667D01*
X106164286Y-100064286D01*
X105973810Y-100111905D01*
X105830952Y-100111905D01*
X105640476Y-100064286D01*
X105545238Y-100016667D01*
X105450000Y-99921429D01*
X105402381Y-99778571D01*
X105402381Y-99683333D01*
X105450000Y-99540476D01*
X105497619Y-99492857D01*
X106402381Y-98540476D02*
X106402381Y-99111905D01*
X106402381Y-98826191D02*
X105402381Y-98826191D01*
X105545238Y-98921429D01*
X105640476Y-99016667D01*
X105688095Y-99111905D01*
X105402381Y-97683333D02*
X105402381Y-97873810D01*
X105450000Y-97969048D01*
X105497619Y-98016667D01*
X105640476Y-98111905D01*
X105830952Y-98159524D01*
X106211905Y-98159524D01*
X106307143Y-98111905D01*
X106354762Y-98064286D01*
X106402381Y-97969048D01*
X106402381Y-97778571D01*
X106354762Y-97683333D01*
X106307143Y-97635714D01*
X106211905Y-97588095D01*
X105973810Y-97588095D01*
X105878571Y-97635714D01*
X105830952Y-97683333D01*
X105783333Y-97778571D01*
X105783333Y-97969048D01*
X105830952Y-98064286D01*
X105878571Y-98111905D01*
X105973810Y-98159524D01*
X108007143Y-100642857D02*
X108054762Y-100690476D01*
X108102381Y-100833333D01*
X108102381Y-100928571D01*
X108054762Y-101071429D01*
X107959524Y-101166667D01*
X107864286Y-101214286D01*
X107673810Y-101261905D01*
X107530952Y-101261905D01*
X107340476Y-101214286D01*
X107245238Y-101166667D01*
X107150000Y-101071429D01*
X107102381Y-100928571D01*
X107102381Y-100833333D01*
X107150000Y-100690476D01*
X107197619Y-100642857D01*
X108102381Y-99690476D02*
X108102381Y-100261905D01*
X108102381Y-99976191D02*
X107102381Y-99976191D01*
X107245238Y-100071429D01*
X107340476Y-100166667D01*
X107388095Y-100261905D01*
X107102381Y-99357143D02*
X107102381Y-98690476D01*
X108102381Y-99119048D01*
X99991429Y-96130952D02*
X99991429Y-95369047D01*
X100372381Y-95749999D02*
X99610476Y-95749999D01*
X104917143Y-94642857D02*
X104964762Y-94690476D01*
X105012381Y-94833333D01*
X105012381Y-94928571D01*
X104964762Y-95071429D01*
X104869524Y-95166667D01*
X104774286Y-95214286D01*
X104583810Y-95261905D01*
X104440952Y-95261905D01*
X104250476Y-95214286D01*
X104155238Y-95166667D01*
X104060000Y-95071429D01*
X104012381Y-94928571D01*
X104012381Y-94833333D01*
X104060000Y-94690476D01*
X104107619Y-94642857D01*
X105012381Y-93690476D02*
X105012381Y-94261905D01*
X105012381Y-93976191D02*
X104012381Y-93976191D01*
X104155238Y-94071429D01*
X104250476Y-94166667D01*
X104298095Y-94261905D01*
X104440952Y-93119048D02*
X104393333Y-93214286D01*
X104345714Y-93261905D01*
X104250476Y-93309524D01*
X104202857Y-93309524D01*
X104107619Y-93261905D01*
X104060000Y-93214286D01*
X104012381Y-93119048D01*
X104012381Y-92928571D01*
X104060000Y-92833333D01*
X104107619Y-92785714D01*
X104202857Y-92738095D01*
X104250476Y-92738095D01*
X104345714Y-92785714D01*
X104393333Y-92833333D01*
X104440952Y-92928571D01*
X104440952Y-93119048D01*
X104488571Y-93214286D01*
X104536190Y-93261905D01*
X104631429Y-93309524D01*
X104821905Y-93309524D01*
X104917143Y-93261905D01*
X104964762Y-93214286D01*
X105012381Y-93119048D01*
X105012381Y-92928571D01*
X104964762Y-92833333D01*
X104917143Y-92785714D01*
X104821905Y-92738095D01*
X104631429Y-92738095D01*
X104536190Y-92785714D01*
X104488571Y-92833333D01*
X104440952Y-92928571D01*
X111219048Y-87551429D02*
X111980953Y-87551429D01*
X111600001Y-87932381D02*
X111600001Y-87170476D01*
X109207143Y-83197143D02*
X109159524Y-83244762D01*
X109016667Y-83292381D01*
X108921429Y-83292381D01*
X108778571Y-83244762D01*
X108683333Y-83149524D01*
X108635714Y-83054286D01*
X108588095Y-82863810D01*
X108588095Y-82720952D01*
X108635714Y-82530476D01*
X108683333Y-82435238D01*
X108778571Y-82340000D01*
X108921429Y-82292381D01*
X109016667Y-82292381D01*
X109159524Y-82340000D01*
X109207143Y-82387619D01*
X110159524Y-83292381D02*
X109588095Y-83292381D01*
X109873809Y-83292381D02*
X109873809Y-82292381D01*
X109778571Y-82435238D01*
X109683333Y-82530476D01*
X109588095Y-82578095D01*
X110635714Y-83292381D02*
X110826190Y-83292381D01*
X110921429Y-83244762D01*
X110969048Y-83197143D01*
X111064286Y-83054286D01*
X111111905Y-82863810D01*
X111111905Y-82482857D01*
X111064286Y-82387619D01*
X111016667Y-82340000D01*
X110921429Y-82292381D01*
X110730952Y-82292381D01*
X110635714Y-82340000D01*
X110588095Y-82387619D01*
X110540476Y-82482857D01*
X110540476Y-82720952D01*
X110588095Y-82816190D01*
X110635714Y-82863810D01*
X110730952Y-82911429D01*
X110921429Y-82911429D01*
X111016667Y-82863810D01*
X111064286Y-82816190D01*
X111111905Y-82720952D01*
X108057143Y-96542857D02*
X108104762Y-96590476D01*
X108152381Y-96733333D01*
X108152381Y-96828571D01*
X108104762Y-96971429D01*
X108009524Y-97066667D01*
X107914286Y-97114286D01*
X107723810Y-97161905D01*
X107580952Y-97161905D01*
X107390476Y-97114286D01*
X107295238Y-97066667D01*
X107200000Y-96971429D01*
X107152381Y-96828571D01*
X107152381Y-96733333D01*
X107200000Y-96590476D01*
X107247619Y-96542857D01*
X107247619Y-96161905D02*
X107200000Y-96114286D01*
X107152381Y-96019048D01*
X107152381Y-95780952D01*
X107200000Y-95685714D01*
X107247619Y-95638095D01*
X107342857Y-95590476D01*
X107438095Y-95590476D01*
X107580952Y-95638095D01*
X108152381Y-96209524D01*
X108152381Y-95590476D01*
X107152381Y-94971429D02*
X107152381Y-94876190D01*
X107200000Y-94780952D01*
X107247619Y-94733333D01*
X107342857Y-94685714D01*
X107533333Y-94638095D01*
X107771429Y-94638095D01*
X107961905Y-94685714D01*
X108057143Y-94733333D01*
X108104762Y-94780952D01*
X108152381Y-94876190D01*
X108152381Y-94971429D01*
X108104762Y-95066667D01*
X108057143Y-95114286D01*
X107961905Y-95161905D01*
X107771429Y-95209524D01*
X107533333Y-95209524D01*
X107342857Y-95161905D01*
X107247619Y-95114286D01*
X107200000Y-95066667D01*
X107152381Y-94971429D01*
X102941429Y-85030952D02*
X102941429Y-84269047D01*
X103322381Y-84649999D02*
X102560476Y-84649999D01*
X107867143Y-83542857D02*
X107914762Y-83590476D01*
X107962381Y-83733333D01*
X107962381Y-83828571D01*
X107914762Y-83971429D01*
X107819524Y-84066667D01*
X107724286Y-84114286D01*
X107533810Y-84161905D01*
X107390952Y-84161905D01*
X107200476Y-84114286D01*
X107105238Y-84066667D01*
X107010000Y-83971429D01*
X106962381Y-83828571D01*
X106962381Y-83733333D01*
X107010000Y-83590476D01*
X107057619Y-83542857D01*
X107057619Y-83161905D02*
X107010000Y-83114286D01*
X106962381Y-83019048D01*
X106962381Y-82780952D01*
X107010000Y-82685714D01*
X107057619Y-82638095D01*
X107152857Y-82590476D01*
X107248095Y-82590476D01*
X107390952Y-82638095D01*
X107962381Y-83209524D01*
X107962381Y-82590476D01*
X107962381Y-81638095D02*
X107962381Y-82209524D01*
X107962381Y-81923810D02*
X106962381Y-81923810D01*
X107105238Y-82019048D01*
X107200476Y-82114286D01*
X107248095Y-82209524D01*
X116757143Y-95307143D02*
X116709524Y-95354762D01*
X116566667Y-95402381D01*
X116471429Y-95402381D01*
X116328571Y-95354762D01*
X116233333Y-95259524D01*
X116185714Y-95164286D01*
X116138095Y-94973810D01*
X116138095Y-94830952D01*
X116185714Y-94640476D01*
X116233333Y-94545238D01*
X116328571Y-94450000D01*
X116471429Y-94402381D01*
X116566667Y-94402381D01*
X116709524Y-94450000D01*
X116757143Y-94497619D01*
X117138095Y-94497619D02*
X117185714Y-94450000D01*
X117280952Y-94402381D01*
X117519048Y-94402381D01*
X117614286Y-94450000D01*
X117661905Y-94497619D01*
X117709524Y-94592857D01*
X117709524Y-94688095D01*
X117661905Y-94830952D01*
X117090476Y-95402381D01*
X117709524Y-95402381D01*
X118090476Y-94497619D02*
X118138095Y-94450000D01*
X118233333Y-94402381D01*
X118471429Y-94402381D01*
X118566667Y-94450000D01*
X118614286Y-94497619D01*
X118661905Y-94592857D01*
X118661905Y-94688095D01*
X118614286Y-94830952D01*
X118042857Y-95402381D01*
X118661905Y-95402381D01*
X95791429Y-85030952D02*
X95791429Y-84269047D01*
X96172381Y-84649999D02*
X95410476Y-84649999D01*
X100717143Y-83542857D02*
X100764762Y-83590476D01*
X100812381Y-83733333D01*
X100812381Y-83828571D01*
X100764762Y-83971429D01*
X100669524Y-84066667D01*
X100574286Y-84114286D01*
X100383810Y-84161905D01*
X100240952Y-84161905D01*
X100050476Y-84114286D01*
X99955238Y-84066667D01*
X99860000Y-83971429D01*
X99812381Y-83828571D01*
X99812381Y-83733333D01*
X99860000Y-83590476D01*
X99907619Y-83542857D01*
X99907619Y-83161905D02*
X99860000Y-83114286D01*
X99812381Y-83019048D01*
X99812381Y-82780952D01*
X99860000Y-82685714D01*
X99907619Y-82638095D01*
X100002857Y-82590476D01*
X100098095Y-82590476D01*
X100240952Y-82638095D01*
X100812381Y-83209524D01*
X100812381Y-82590476D01*
X99812381Y-82257143D02*
X99812381Y-81638095D01*
X100193333Y-81971429D01*
X100193333Y-81828571D01*
X100240952Y-81733333D01*
X100288571Y-81685714D01*
X100383810Y-81638095D01*
X100621905Y-81638095D01*
X100717143Y-81685714D01*
X100764762Y-81733333D01*
X100812381Y-81828571D01*
X100812381Y-82114286D01*
X100764762Y-82209524D01*
X100717143Y-82257143D01*
X92841429Y-96130952D02*
X92841429Y-95369047D01*
X93222381Y-95749999D02*
X92460476Y-95749999D01*
X97767143Y-94642857D02*
X97814762Y-94690476D01*
X97862381Y-94833333D01*
X97862381Y-94928571D01*
X97814762Y-95071429D01*
X97719524Y-95166667D01*
X97624286Y-95214286D01*
X97433810Y-95261905D01*
X97290952Y-95261905D01*
X97100476Y-95214286D01*
X97005238Y-95166667D01*
X96910000Y-95071429D01*
X96862381Y-94928571D01*
X96862381Y-94833333D01*
X96910000Y-94690476D01*
X96957619Y-94642857D01*
X96957619Y-94261905D02*
X96910000Y-94214286D01*
X96862381Y-94119048D01*
X96862381Y-93880952D01*
X96910000Y-93785714D01*
X96957619Y-93738095D01*
X97052857Y-93690476D01*
X97148095Y-93690476D01*
X97290952Y-93738095D01*
X97862381Y-94309524D01*
X97862381Y-93690476D01*
X97195714Y-92833333D02*
X97862381Y-92833333D01*
X96814762Y-93071429D02*
X97529048Y-93309524D01*
X97529048Y-92690476D01*
X89707143Y-83642857D02*
X89754762Y-83690476D01*
X89802381Y-83833333D01*
X89802381Y-83928571D01*
X89754762Y-84071429D01*
X89659524Y-84166667D01*
X89564286Y-84214286D01*
X89373810Y-84261905D01*
X89230952Y-84261905D01*
X89040476Y-84214286D01*
X88945238Y-84166667D01*
X88850000Y-84071429D01*
X88802381Y-83928571D01*
X88802381Y-83833333D01*
X88850000Y-83690476D01*
X88897619Y-83642857D01*
X88897619Y-83261905D02*
X88850000Y-83214286D01*
X88802381Y-83119048D01*
X88802381Y-82880952D01*
X88850000Y-82785714D01*
X88897619Y-82738095D01*
X88992857Y-82690476D01*
X89088095Y-82690476D01*
X89230952Y-82738095D01*
X89802381Y-83309524D01*
X89802381Y-82690476D01*
X88802381Y-81785714D02*
X88802381Y-82261905D01*
X89278571Y-82309524D01*
X89230952Y-82261905D01*
X89183333Y-82166667D01*
X89183333Y-81928571D01*
X89230952Y-81833333D01*
X89278571Y-81785714D01*
X89373810Y-81738095D01*
X89611905Y-81738095D01*
X89707143Y-81785714D01*
X89754762Y-81833333D01*
X89802381Y-81928571D01*
X89802381Y-82166667D01*
X89754762Y-82261905D01*
X89707143Y-82309524D01*
X165707143Y-96807143D02*
X165659524Y-96854762D01*
X165516667Y-96902381D01*
X165421429Y-96902381D01*
X165278571Y-96854762D01*
X165183333Y-96759524D01*
X165135714Y-96664286D01*
X165088095Y-96473810D01*
X165088095Y-96330952D01*
X165135714Y-96140476D01*
X165183333Y-96045238D01*
X165278571Y-95950000D01*
X165421429Y-95902381D01*
X165516667Y-95902381D01*
X165659524Y-95950000D01*
X165707143Y-95997619D01*
X166088095Y-95997619D02*
X166135714Y-95950000D01*
X166230952Y-95902381D01*
X166469048Y-95902381D01*
X166564286Y-95950000D01*
X166611905Y-95997619D01*
X166659524Y-96092857D01*
X166659524Y-96188095D01*
X166611905Y-96330952D01*
X166040476Y-96902381D01*
X166659524Y-96902381D01*
X167516667Y-95902381D02*
X167326190Y-95902381D01*
X167230952Y-95950000D01*
X167183333Y-95997619D01*
X167088095Y-96140476D01*
X167040476Y-96330952D01*
X167040476Y-96711905D01*
X167088095Y-96807143D01*
X167135714Y-96854762D01*
X167230952Y-96902381D01*
X167421429Y-96902381D01*
X167516667Y-96854762D01*
X167564286Y-96807143D01*
X167611905Y-96711905D01*
X167611905Y-96473810D01*
X167564286Y-96378571D01*
X167516667Y-96330952D01*
X167421429Y-96283333D01*
X167230952Y-96283333D01*
X167135714Y-96330952D01*
X167088095Y-96378571D01*
X167040476Y-96473810D01*
X166107143Y-94657143D02*
X166059524Y-94704762D01*
X165916667Y-94752381D01*
X165821429Y-94752381D01*
X165678571Y-94704762D01*
X165583333Y-94609524D01*
X165535714Y-94514286D01*
X165488095Y-94323810D01*
X165488095Y-94180952D01*
X165535714Y-93990476D01*
X165583333Y-93895238D01*
X165678571Y-93800000D01*
X165821429Y-93752381D01*
X165916667Y-93752381D01*
X166059524Y-93800000D01*
X166107143Y-93847619D01*
X166488095Y-93847619D02*
X166535714Y-93800000D01*
X166630952Y-93752381D01*
X166869048Y-93752381D01*
X166964286Y-93800000D01*
X167011905Y-93847619D01*
X167059524Y-93942857D01*
X167059524Y-94038095D01*
X167011905Y-94180952D01*
X166440476Y-94752381D01*
X167059524Y-94752381D01*
X167392857Y-93752381D02*
X168059524Y-93752381D01*
X167630952Y-94752381D01*
X156557143Y-99342857D02*
X156604762Y-99390476D01*
X156652381Y-99533333D01*
X156652381Y-99628571D01*
X156604762Y-99771429D01*
X156509524Y-99866667D01*
X156414286Y-99914286D01*
X156223810Y-99961905D01*
X156080952Y-99961905D01*
X155890476Y-99914286D01*
X155795238Y-99866667D01*
X155700000Y-99771429D01*
X155652381Y-99628571D01*
X155652381Y-99533333D01*
X155700000Y-99390476D01*
X155747619Y-99342857D01*
X155747619Y-98961905D02*
X155700000Y-98914286D01*
X155652381Y-98819048D01*
X155652381Y-98580952D01*
X155700000Y-98485714D01*
X155747619Y-98438095D01*
X155842857Y-98390476D01*
X155938095Y-98390476D01*
X156080952Y-98438095D01*
X156652381Y-99009524D01*
X156652381Y-98390476D01*
X156080952Y-97819048D02*
X156033333Y-97914286D01*
X155985714Y-97961905D01*
X155890476Y-98009524D01*
X155842857Y-98009524D01*
X155747619Y-97961905D01*
X155700000Y-97914286D01*
X155652381Y-97819048D01*
X155652381Y-97628571D01*
X155700000Y-97533333D01*
X155747619Y-97485714D01*
X155842857Y-97438095D01*
X155890476Y-97438095D01*
X155985714Y-97485714D01*
X156033333Y-97533333D01*
X156080952Y-97628571D01*
X156080952Y-97819048D01*
X156128571Y-97914286D01*
X156176190Y-97961905D01*
X156271429Y-98009524D01*
X156461905Y-98009524D01*
X156557143Y-97961905D01*
X156604762Y-97914286D01*
X156652381Y-97819048D01*
X156652381Y-97628571D01*
X156604762Y-97533333D01*
X156557143Y-97485714D01*
X156461905Y-97438095D01*
X156271429Y-97438095D01*
X156176190Y-97485714D01*
X156128571Y-97533333D01*
X156080952Y-97628571D01*
X153557143Y-100642857D02*
X153604762Y-100690476D01*
X153652381Y-100833333D01*
X153652381Y-100928571D01*
X153604762Y-101071429D01*
X153509524Y-101166667D01*
X153414286Y-101214286D01*
X153223810Y-101261905D01*
X153080952Y-101261905D01*
X152890476Y-101214286D01*
X152795238Y-101166667D01*
X152700000Y-101071429D01*
X152652381Y-100928571D01*
X152652381Y-100833333D01*
X152700000Y-100690476D01*
X152747619Y-100642857D01*
X152747619Y-100261905D02*
X152700000Y-100214286D01*
X152652381Y-100119048D01*
X152652381Y-99880952D01*
X152700000Y-99785714D01*
X152747619Y-99738095D01*
X152842857Y-99690476D01*
X152938095Y-99690476D01*
X153080952Y-99738095D01*
X153652381Y-100309524D01*
X153652381Y-99690476D01*
X153652381Y-99214286D02*
X153652381Y-99023810D01*
X153604762Y-98928571D01*
X153557143Y-98880952D01*
X153414286Y-98785714D01*
X153223810Y-98738095D01*
X152842857Y-98738095D01*
X152747619Y-98785714D01*
X152700000Y-98833333D01*
X152652381Y-98928571D01*
X152652381Y-99119048D01*
X152700000Y-99214286D01*
X152747619Y-99261905D01*
X152842857Y-99309524D01*
X153080952Y-99309524D01*
X153176190Y-99261905D01*
X153223810Y-99214286D01*
X153271429Y-99119048D01*
X153271429Y-98928571D01*
X153223810Y-98833333D01*
X153176190Y-98785714D01*
X153080952Y-98738095D01*
X118407143Y-81557143D02*
X118359524Y-81604762D01*
X118216667Y-81652381D01*
X118121429Y-81652381D01*
X117978571Y-81604762D01*
X117883333Y-81509524D01*
X117835714Y-81414286D01*
X117788095Y-81223810D01*
X117788095Y-81080952D01*
X117835714Y-80890476D01*
X117883333Y-80795238D01*
X117978571Y-80700000D01*
X118121429Y-80652381D01*
X118216667Y-80652381D01*
X118359524Y-80700000D01*
X118407143Y-80747619D01*
X118740476Y-80652381D02*
X119359524Y-80652381D01*
X119026190Y-81033333D01*
X119169048Y-81033333D01*
X119264286Y-81080952D01*
X119311905Y-81128571D01*
X119359524Y-81223810D01*
X119359524Y-81461905D01*
X119311905Y-81557143D01*
X119264286Y-81604762D01*
X119169048Y-81652381D01*
X118883333Y-81652381D01*
X118788095Y-81604762D01*
X118740476Y-81557143D01*
X120311905Y-81652381D02*
X119740476Y-81652381D01*
X120026190Y-81652381D02*
X120026190Y-80652381D01*
X119930952Y-80795238D01*
X119835714Y-80890476D01*
X119740476Y-80938095D01*
X118357143Y-79907143D02*
X118309524Y-79954762D01*
X118166667Y-80002381D01*
X118071429Y-80002381D01*
X117928571Y-79954762D01*
X117833333Y-79859524D01*
X117785714Y-79764286D01*
X117738095Y-79573810D01*
X117738095Y-79430952D01*
X117785714Y-79240476D01*
X117833333Y-79145238D01*
X117928571Y-79050000D01*
X118071429Y-79002381D01*
X118166667Y-79002381D01*
X118309524Y-79050000D01*
X118357143Y-79097619D01*
X118690476Y-79002381D02*
X119309524Y-79002381D01*
X118976190Y-79383333D01*
X119119048Y-79383333D01*
X119214286Y-79430952D01*
X119261905Y-79478571D01*
X119309524Y-79573810D01*
X119309524Y-79811905D01*
X119261905Y-79907143D01*
X119214286Y-79954762D01*
X119119048Y-80002381D01*
X118833333Y-80002381D01*
X118738095Y-79954762D01*
X118690476Y-79907143D01*
X119690476Y-79097619D02*
X119738095Y-79050000D01*
X119833333Y-79002381D01*
X120071429Y-79002381D01*
X120166667Y-79050000D01*
X120214286Y-79097619D01*
X120261905Y-79192857D01*
X120261905Y-79288095D01*
X120214286Y-79430952D01*
X119642857Y-80002381D01*
X120261905Y-80002381D01*
X102557143Y-73857143D02*
X102509524Y-73904762D01*
X102366667Y-73952381D01*
X102271429Y-73952381D01*
X102128571Y-73904762D01*
X102033333Y-73809524D01*
X101985714Y-73714286D01*
X101938095Y-73523810D01*
X101938095Y-73380952D01*
X101985714Y-73190476D01*
X102033333Y-73095238D01*
X102128571Y-73000000D01*
X102271429Y-72952381D01*
X102366667Y-72952381D01*
X102509524Y-73000000D01*
X102557143Y-73047619D01*
X102890476Y-72952381D02*
X103509524Y-72952381D01*
X103176190Y-73333333D01*
X103319048Y-73333333D01*
X103414286Y-73380952D01*
X103461905Y-73428571D01*
X103509524Y-73523810D01*
X103509524Y-73761905D01*
X103461905Y-73857143D01*
X103414286Y-73904762D01*
X103319048Y-73952381D01*
X103033333Y-73952381D01*
X102938095Y-73904762D01*
X102890476Y-73857143D01*
X103842857Y-72952381D02*
X104461905Y-72952381D01*
X104128571Y-73333333D01*
X104271429Y-73333333D01*
X104366667Y-73380952D01*
X104414286Y-73428571D01*
X104461905Y-73523810D01*
X104461905Y-73761905D01*
X104414286Y-73857143D01*
X104366667Y-73904762D01*
X104271429Y-73952381D01*
X103985714Y-73952381D01*
X103890476Y-73904762D01*
X103842857Y-73857143D01*
X165007143Y-92357143D02*
X164959524Y-92404762D01*
X164816667Y-92452381D01*
X164721429Y-92452381D01*
X164578571Y-92404762D01*
X164483333Y-92309524D01*
X164435714Y-92214286D01*
X164388095Y-92023810D01*
X164388095Y-91880952D01*
X164435714Y-91690476D01*
X164483333Y-91595238D01*
X164578571Y-91500000D01*
X164721429Y-91452381D01*
X164816667Y-91452381D01*
X164959524Y-91500000D01*
X165007143Y-91547619D01*
X165340476Y-91452381D02*
X165959524Y-91452381D01*
X165626190Y-91833333D01*
X165769048Y-91833333D01*
X165864286Y-91880952D01*
X165911905Y-91928571D01*
X165959524Y-92023810D01*
X165959524Y-92261905D01*
X165911905Y-92357143D01*
X165864286Y-92404762D01*
X165769048Y-92452381D01*
X165483333Y-92452381D01*
X165388095Y-92404762D01*
X165340476Y-92357143D01*
X166864286Y-91452381D02*
X166388095Y-91452381D01*
X166340476Y-91928571D01*
X166388095Y-91880952D01*
X166483333Y-91833333D01*
X166721429Y-91833333D01*
X166816667Y-91880952D01*
X166864286Y-91928571D01*
X166911905Y-92023810D01*
X166911905Y-92261905D01*
X166864286Y-92357143D01*
X166816667Y-92404762D01*
X166721429Y-92452381D01*
X166483333Y-92452381D01*
X166388095Y-92404762D01*
X166340476Y-92357143D01*
X128957143Y-99407143D02*
X128909524Y-99454762D01*
X128766667Y-99502381D01*
X128671429Y-99502381D01*
X128528571Y-99454762D01*
X128433333Y-99359524D01*
X128385714Y-99264286D01*
X128338095Y-99073810D01*
X128338095Y-98930952D01*
X128385714Y-98740476D01*
X128433333Y-98645238D01*
X128528571Y-98550000D01*
X128671429Y-98502381D01*
X128766667Y-98502381D01*
X128909524Y-98550000D01*
X128957143Y-98597619D01*
X129290476Y-98502381D02*
X129909524Y-98502381D01*
X129576190Y-98883333D01*
X129719048Y-98883333D01*
X129814286Y-98930952D01*
X129861905Y-98978571D01*
X129909524Y-99073810D01*
X129909524Y-99311905D01*
X129861905Y-99407143D01*
X129814286Y-99454762D01*
X129719048Y-99502381D01*
X129433333Y-99502381D01*
X129338095Y-99454762D01*
X129290476Y-99407143D01*
X130766667Y-98502381D02*
X130576190Y-98502381D01*
X130480952Y-98550000D01*
X130433333Y-98597619D01*
X130338095Y-98740476D01*
X130290476Y-98930952D01*
X130290476Y-99311905D01*
X130338095Y-99407143D01*
X130385714Y-99454762D01*
X130480952Y-99502381D01*
X130671429Y-99502381D01*
X130766667Y-99454762D01*
X130814286Y-99407143D01*
X130861905Y-99311905D01*
X130861905Y-99073810D01*
X130814286Y-98978571D01*
X130766667Y-98930952D01*
X130671429Y-98883333D01*
X130480952Y-98883333D01*
X130385714Y-98930952D01*
X130338095Y-98978571D01*
X130290476Y-99073810D01*
X109561905Y-90452381D02*
X109561905Y-89452381D01*
X109800000Y-89452381D01*
X109942858Y-89500000D01*
X110038096Y-89595238D01*
X110085715Y-89690476D01*
X110133334Y-89880952D01*
X110133334Y-90023810D01*
X110085715Y-90214286D01*
X110038096Y-90309524D01*
X109942858Y-90404762D01*
X109800000Y-90452381D01*
X109561905Y-90452381D01*
X111085715Y-90452381D02*
X110514286Y-90452381D01*
X110800000Y-90452381D02*
X110800000Y-89452381D01*
X110704762Y-89595238D01*
X110609524Y-89690476D01*
X110514286Y-89738095D01*
X160532381Y-103138095D02*
X159532381Y-103138095D01*
X159532381Y-102900000D01*
X159580000Y-102757142D01*
X159675238Y-102661904D01*
X159770476Y-102614285D01*
X159960952Y-102566666D01*
X160103810Y-102566666D01*
X160294286Y-102614285D01*
X160389524Y-102661904D01*
X160484762Y-102757142D01*
X160532381Y-102900000D01*
X160532381Y-103138095D01*
X159627619Y-102185714D02*
X159580000Y-102138095D01*
X159532381Y-102042857D01*
X159532381Y-101804761D01*
X159580000Y-101709523D01*
X159627619Y-101661904D01*
X159722857Y-101614285D01*
X159818095Y-101614285D01*
X159960952Y-101661904D01*
X160532381Y-102233333D01*
X160532381Y-101614285D01*
X124241667Y-100502381D02*
X124241667Y-101216667D01*
X124194047Y-101359524D01*
X124098809Y-101454762D01*
X123955952Y-101502381D01*
X123860714Y-101502381D01*
X124670238Y-100597619D02*
X124717857Y-100550000D01*
X124813095Y-100502381D01*
X125051191Y-100502381D01*
X125146429Y-100550000D01*
X125194048Y-100597619D01*
X125241667Y-100692857D01*
X125241667Y-100788095D01*
X125194048Y-100930952D01*
X124622619Y-101502381D01*
X125241667Y-101502381D01*
X117383334Y-95902381D02*
X116907143Y-95902381D01*
X116907143Y-94902381D01*
X118240477Y-95902381D02*
X117669048Y-95902381D01*
X117954762Y-95902381D02*
X117954762Y-94902381D01*
X117859524Y-95045238D01*
X117764286Y-95140476D01*
X117669048Y-95188095D01*
D14*
X119316667Y-76226190D02*
X119150000Y-75988095D01*
X119030953Y-76226190D02*
X119030953Y-75726190D01*
X119221429Y-75726190D01*
X119269048Y-75750000D01*
X119292857Y-75773810D01*
X119316667Y-75821429D01*
X119316667Y-75892857D01*
X119292857Y-75940476D01*
X119269048Y-75964286D01*
X119221429Y-75988095D01*
X119030953Y-75988095D01*
X119792857Y-76226190D02*
X119507143Y-76226190D01*
X119650000Y-76226190D02*
X119650000Y-75726190D01*
X119602381Y-75797619D01*
X119554762Y-75845238D01*
X119507143Y-75869048D01*
X140676190Y-99633333D02*
X140438095Y-99800000D01*
X140676190Y-99919047D02*
X140176190Y-99919047D01*
X140176190Y-99728571D01*
X140200000Y-99680952D01*
X140223810Y-99657143D01*
X140271429Y-99633333D01*
X140342857Y-99633333D01*
X140390476Y-99657143D01*
X140414286Y-99680952D01*
X140438095Y-99728571D01*
X140438095Y-99919047D01*
X140223810Y-99442857D02*
X140200000Y-99419047D01*
X140176190Y-99371428D01*
X140176190Y-99252381D01*
X140200000Y-99204762D01*
X140223810Y-99180952D01*
X140271429Y-99157143D01*
X140319048Y-99157143D01*
X140390476Y-99180952D01*
X140676190Y-99466666D01*
X140676190Y-99157143D01*
X138976190Y-97083333D02*
X138738095Y-97250000D01*
X138976190Y-97369047D02*
X138476190Y-97369047D01*
X138476190Y-97178571D01*
X138500000Y-97130952D01*
X138523810Y-97107143D01*
X138571429Y-97083333D01*
X138642857Y-97083333D01*
X138690476Y-97107143D01*
X138714286Y-97130952D01*
X138738095Y-97178571D01*
X138738095Y-97369047D01*
X138476190Y-96916666D02*
X138476190Y-96607143D01*
X138666667Y-96773809D01*
X138666667Y-96702381D01*
X138690476Y-96654762D01*
X138714286Y-96630952D01*
X138761905Y-96607143D01*
X138880952Y-96607143D01*
X138928571Y-96630952D01*
X138952381Y-96654762D01*
X138976190Y-96702381D01*
X138976190Y-96845238D01*
X138952381Y-96892857D01*
X138928571Y-96916666D01*
X124026190Y-89483333D02*
X123788095Y-89650000D01*
X124026190Y-89769047D02*
X123526190Y-89769047D01*
X123526190Y-89578571D01*
X123550000Y-89530952D01*
X123573810Y-89507143D01*
X123621429Y-89483333D01*
X123692857Y-89483333D01*
X123740476Y-89507143D01*
X123764286Y-89530952D01*
X123788095Y-89578571D01*
X123788095Y-89769047D01*
X123692857Y-89054762D02*
X124026190Y-89054762D01*
X123502381Y-89173809D02*
X123859524Y-89292857D01*
X123859524Y-88983333D01*
X108316667Y-102826190D02*
X108150000Y-102588095D01*
X108030953Y-102826190D02*
X108030953Y-102326190D01*
X108221429Y-102326190D01*
X108269048Y-102350000D01*
X108292857Y-102373810D01*
X108316667Y-102421429D01*
X108316667Y-102492857D01*
X108292857Y-102540476D01*
X108269048Y-102564286D01*
X108221429Y-102588095D01*
X108030953Y-102588095D01*
X108769048Y-102326190D02*
X108530953Y-102326190D01*
X108507143Y-102564286D01*
X108530953Y-102540476D01*
X108578572Y-102516667D01*
X108697619Y-102516667D01*
X108745238Y-102540476D01*
X108769048Y-102564286D01*
X108792857Y-102611905D01*
X108792857Y-102730952D01*
X108769048Y-102778571D01*
X108745238Y-102802381D01*
X108697619Y-102826190D01*
X108578572Y-102826190D01*
X108530953Y-102802381D01*
X108507143Y-102778571D01*
X161576190Y-99608333D02*
X161338095Y-99775000D01*
X161576190Y-99894047D02*
X161076190Y-99894047D01*
X161076190Y-99703571D01*
X161100000Y-99655952D01*
X161123810Y-99632143D01*
X161171429Y-99608333D01*
X161242857Y-99608333D01*
X161290476Y-99632143D01*
X161314286Y-99655952D01*
X161338095Y-99703571D01*
X161338095Y-99894047D01*
X161076190Y-99441666D02*
X161076190Y-99108333D01*
X161576190Y-99322619D01*
D13*
X128366667Y-85304762D02*
X128509524Y-85352381D01*
X128747620Y-85352381D01*
X128842858Y-85304762D01*
X128890477Y-85257143D01*
X128938096Y-85161905D01*
X128938096Y-85066667D01*
X128890477Y-84971429D01*
X128842858Y-84923810D01*
X128747620Y-84876190D01*
X128557143Y-84828571D01*
X128461905Y-84780952D01*
X128414286Y-84733333D01*
X128366667Y-84638095D01*
X128366667Y-84542857D01*
X128414286Y-84447619D01*
X128461905Y-84400000D01*
X128557143Y-84352381D01*
X128795239Y-84352381D01*
X128938096Y-84400000D01*
X129271429Y-84352381D02*
X129509524Y-85352381D01*
X129700001Y-84638095D01*
X129890477Y-85352381D01*
X130128572Y-84352381D01*
X131033334Y-85352381D02*
X130461905Y-85352381D01*
X130747619Y-85352381D02*
X130747619Y-84352381D01*
X130652381Y-84495238D01*
X130557143Y-84590476D01*
X130461905Y-84638095D01*
X119368095Y-74522381D02*
X119368095Y-75331905D01*
X119415714Y-75427143D01*
X119463333Y-75474762D01*
X119558571Y-75522381D01*
X119749048Y-75522381D01*
X119844286Y-75474762D01*
X119891905Y-75427143D01*
X119939524Y-75331905D01*
X119939524Y-74522381D01*
X120368095Y-74617619D02*
X120415714Y-74570000D01*
X120510952Y-74522381D01*
X120749048Y-74522381D01*
X120844286Y-74570000D01*
X120891905Y-74617619D01*
X120939524Y-74712857D01*
X120939524Y-74808095D01*
X120891905Y-74950952D01*
X120320476Y-75522381D01*
X120939524Y-75522381D01*
X110890476Y-97661905D02*
X110890476Y-98309524D01*
X110928571Y-98385714D01*
X110966667Y-98423810D01*
X111042857Y-98461905D01*
X111195238Y-98461905D01*
X111271429Y-98423810D01*
X111309524Y-98385714D01*
X111347619Y-98309524D01*
X111347619Y-97661905D01*
X112109524Y-97661905D02*
X111728571Y-97661905D01*
X111690476Y-98042857D01*
X111728571Y-98004762D01*
X111804762Y-97966667D01*
X111995238Y-97966667D01*
X112071428Y-98004762D01*
X112109524Y-98042857D01*
X112147619Y-98119048D01*
X112147619Y-98309524D01*
X112109524Y-98385714D01*
X112071428Y-98423810D01*
X111995238Y-98461905D01*
X111804762Y-98461905D01*
X111728571Y-98423810D01*
X111690476Y-98385714D01*
D15*
X115069048Y-78526190D02*
X115069048Y-78930952D01*
X115092857Y-78978571D01*
X115116667Y-79002381D01*
X115164286Y-79026190D01*
X115259524Y-79026190D01*
X115307143Y-79002381D01*
X115330952Y-78978571D01*
X115354762Y-78930952D01*
X115354762Y-78526190D01*
X115807143Y-78526190D02*
X115711905Y-78526190D01*
X115664286Y-78550000D01*
X115640477Y-78573810D01*
X115592858Y-78645238D01*
X115569048Y-78740476D01*
X115569048Y-78930952D01*
X115592858Y-78978571D01*
X115616667Y-79002381D01*
X115664286Y-79026190D01*
X115759524Y-79026190D01*
X115807143Y-79002381D01*
X115830953Y-78978571D01*
X115854762Y-78930952D01*
X115854762Y-78811905D01*
X115830953Y-78764286D01*
X115807143Y-78740476D01*
X115759524Y-78716667D01*
X115664286Y-78716667D01*
X115616667Y-78740476D01*
X115592858Y-78764286D01*
X115569048Y-78811905D01*
D13*
X154173809Y-94926190D02*
X154173809Y-95402381D01*
X153840476Y-94402381D02*
X154173809Y-94926190D01*
X154507143Y-94402381D01*
X154792857Y-94497619D02*
X154840476Y-94450000D01*
X154935714Y-94402381D01*
X155173810Y-94402381D01*
X155269048Y-94450000D01*
X155316667Y-94497619D01*
X155364286Y-94592857D01*
X155364286Y-94688095D01*
X155316667Y-94830952D01*
X154745238Y-95402381D01*
X155364286Y-95402381D01*
D16*
X162333333Y-94083333D02*
X162666667Y-94083333D01*
X161966667Y-94316666D02*
X162333333Y-94083333D01*
X161966667Y-93850000D01*
X162666667Y-93250000D02*
X162666667Y-93650000D01*
X162666667Y-93450000D02*
X161966667Y-93450000D01*
X162066667Y-93516666D01*
X162133333Y-93583333D01*
X162166667Y-93650000D01*
D13*
X86852381Y-83433333D02*
X87566667Y-83433333D01*
X87709524Y-83480953D01*
X87804762Y-83576191D01*
X87852381Y-83719048D01*
X87852381Y-83814286D01*
X86852381Y-83052381D02*
X86852381Y-82433333D01*
X87233333Y-82766667D01*
X87233333Y-82623809D01*
X87280952Y-82528571D01*
X87328571Y-82480952D01*
X87423810Y-82433333D01*
X87661905Y-82433333D01*
X87757143Y-82480952D01*
X87804762Y-82528571D01*
X87852381Y-82623809D01*
X87852381Y-82909524D01*
X87804762Y-83004762D01*
X87757143Y-83052381D01*
X85166667Y-74952381D02*
X84833333Y-74476190D01*
X84595238Y-74952381D02*
X84595238Y-73952381D01*
X84976191Y-73952381D01*
X85071429Y-74000000D01*
X85119048Y-74047619D01*
X85166667Y-74142857D01*
X85166667Y-74285714D01*
X85119048Y-74380952D01*
X85071429Y-74428571D01*
X84976191Y-74476190D01*
X84595238Y-74476190D01*
X85595238Y-74428571D02*
X85928572Y-74428571D01*
X86071429Y-74952381D02*
X85595238Y-74952381D01*
X85595238Y-73952381D01*
X86071429Y-73952381D01*
X86833334Y-74428571D02*
X86500000Y-74428571D01*
X86500000Y-74952381D02*
X86500000Y-73952381D01*
X86976191Y-73952381D01*
X87500000Y-73952381D02*
X87500000Y-74190476D01*
X87261905Y-74095238D02*
X87500000Y-74190476D01*
X87738096Y-74095238D01*
X87357143Y-74380952D02*
X87500000Y-74190476D01*
X87642858Y-74380952D01*
X88261905Y-73952381D02*
X88261905Y-74190476D01*
X88023810Y-74095238D02*
X88261905Y-74190476D01*
X88500001Y-74095238D01*
X88119048Y-74380952D02*
X88261905Y-74190476D01*
X88404763Y-74380952D01*
D14*
X93716667Y-100576190D02*
X93550000Y-100338095D01*
X93430953Y-100576190D02*
X93430953Y-100076190D01*
X93621429Y-100076190D01*
X93669048Y-100100000D01*
X93692857Y-100123810D01*
X93716667Y-100171429D01*
X93716667Y-100242857D01*
X93692857Y-100290476D01*
X93669048Y-100314286D01*
X93621429Y-100338095D01*
X93430953Y-100338095D01*
X94145238Y-100076190D02*
X94050000Y-100076190D01*
X94002381Y-100100000D01*
X93978572Y-100123810D01*
X93930953Y-100195238D01*
X93907143Y-100290476D01*
X93907143Y-100480952D01*
X93930953Y-100528571D01*
X93954762Y-100552381D01*
X94002381Y-100576190D01*
X94097619Y-100576190D01*
X94145238Y-100552381D01*
X94169048Y-100528571D01*
X94192857Y-100480952D01*
X94192857Y-100361905D01*
X94169048Y-100314286D01*
X94145238Y-100290476D01*
X94097619Y-100266667D01*
X94002381Y-100266667D01*
X93954762Y-100290476D01*
X93930953Y-100314286D01*
X93907143Y-100361905D01*
X96816667Y-100576190D02*
X96650000Y-100338095D01*
X96530953Y-100576190D02*
X96530953Y-100076190D01*
X96721429Y-100076190D01*
X96769048Y-100100000D01*
X96792857Y-100123810D01*
X96816667Y-100171429D01*
X96816667Y-100242857D01*
X96792857Y-100290476D01*
X96769048Y-100314286D01*
X96721429Y-100338095D01*
X96530953Y-100338095D01*
X97102381Y-100290476D02*
X97054762Y-100266667D01*
X97030953Y-100242857D01*
X97007143Y-100195238D01*
X97007143Y-100171429D01*
X97030953Y-100123810D01*
X97054762Y-100100000D01*
X97102381Y-100076190D01*
X97197619Y-100076190D01*
X97245238Y-100100000D01*
X97269048Y-100123810D01*
X97292857Y-100171429D01*
X97292857Y-100195238D01*
X97269048Y-100242857D01*
X97245238Y-100266667D01*
X97197619Y-100290476D01*
X97102381Y-100290476D01*
X97054762Y-100314286D01*
X97030953Y-100338095D01*
X97007143Y-100385714D01*
X97007143Y-100480952D01*
X97030953Y-100528571D01*
X97054762Y-100552381D01*
X97102381Y-100576190D01*
X97197619Y-100576190D01*
X97245238Y-100552381D01*
X97269048Y-100528571D01*
X97292857Y-100480952D01*
X97292857Y-100385714D01*
X97269048Y-100338095D01*
X97245238Y-100314286D01*
X97197619Y-100290476D01*
X159576190Y-93183333D02*
X159338095Y-93350000D01*
X159576190Y-93469047D02*
X159076190Y-93469047D01*
X159076190Y-93278571D01*
X159100000Y-93230952D01*
X159123810Y-93207143D01*
X159171429Y-93183333D01*
X159242857Y-93183333D01*
X159290476Y-93207143D01*
X159314286Y-93230952D01*
X159338095Y-93278571D01*
X159338095Y-93469047D01*
X159576190Y-92945238D02*
X159576190Y-92850000D01*
X159552381Y-92802381D01*
X159528571Y-92778571D01*
X159457143Y-92730952D01*
X159361905Y-92707143D01*
X159171429Y-92707143D01*
X159123810Y-92730952D01*
X159100000Y-92754762D01*
X159076190Y-92802381D01*
X159076190Y-92897619D01*
X159100000Y-92945238D01*
X159123810Y-92969047D01*
X159171429Y-92992857D01*
X159290476Y-92992857D01*
X159338095Y-92969047D01*
X159361905Y-92945238D01*
X159385714Y-92897619D01*
X159385714Y-92802381D01*
X159361905Y-92754762D01*
X159338095Y-92730952D01*
X159290476Y-92707143D01*
D13*
X161507143Y-83527143D02*
X161459524Y-83574762D01*
X161316667Y-83622381D01*
X161221429Y-83622381D01*
X161078571Y-83574762D01*
X160983333Y-83479524D01*
X160935714Y-83384286D01*
X160888095Y-83193810D01*
X160888095Y-83050952D01*
X160935714Y-82860476D01*
X160983333Y-82765238D01*
X161078571Y-82670000D01*
X161221429Y-82622381D01*
X161316667Y-82622381D01*
X161459524Y-82670000D01*
X161507143Y-82717619D01*
X161840476Y-82622381D02*
X162459524Y-82622381D01*
X162126190Y-83003333D01*
X162269048Y-83003333D01*
X162364286Y-83050952D01*
X162411905Y-83098571D01*
X162459524Y-83193810D01*
X162459524Y-83431905D01*
X162411905Y-83527143D01*
X162364286Y-83574762D01*
X162269048Y-83622381D01*
X161983333Y-83622381D01*
X161888095Y-83574762D01*
X161840476Y-83527143D01*
X163078571Y-82622381D02*
X163173810Y-82622381D01*
X163269048Y-82670000D01*
X163316667Y-82717619D01*
X163364286Y-82812857D01*
X163411905Y-83003333D01*
X163411905Y-83241429D01*
X163364286Y-83431905D01*
X163316667Y-83527143D01*
X163269048Y-83574762D01*
X163173810Y-83622381D01*
X163078571Y-83622381D01*
X162983333Y-83574762D01*
X162935714Y-83527143D01*
X162888095Y-83431905D01*
X162840476Y-83241429D01*
X162840476Y-83003333D01*
X162888095Y-82812857D01*
X162935714Y-82717619D01*
X162983333Y-82670000D01*
X163078571Y-82622381D01*
D17*
X161690476Y-83333333D02*
X161690476Y-83428571D01*
X161490476Y-83428571D01*
X161509524Y-83276190D02*
X161500000Y-83266666D01*
X161490476Y-83247618D01*
X161490476Y-83199999D01*
X161500000Y-83180952D01*
X161509524Y-83171428D01*
X161528571Y-83161904D01*
X161547619Y-83161904D01*
X161576190Y-83171428D01*
X161690476Y-83285714D01*
X161690476Y-83161904D01*
D13*
X161507143Y-86077143D02*
X161459524Y-86124762D01*
X161316667Y-86172381D01*
X161221429Y-86172381D01*
X161078571Y-86124762D01*
X160983333Y-86029524D01*
X160935714Y-85934286D01*
X160888095Y-85743810D01*
X160888095Y-85600952D01*
X160935714Y-85410476D01*
X160983333Y-85315238D01*
X161078571Y-85220000D01*
X161221429Y-85172381D01*
X161316667Y-85172381D01*
X161459524Y-85220000D01*
X161507143Y-85267619D01*
X161840476Y-85172381D02*
X162459524Y-85172381D01*
X162126190Y-85553333D01*
X162269048Y-85553333D01*
X162364286Y-85600952D01*
X162411905Y-85648571D01*
X162459524Y-85743810D01*
X162459524Y-85981905D01*
X162411905Y-86077143D01*
X162364286Y-86124762D01*
X162269048Y-86172381D01*
X161983333Y-86172381D01*
X161888095Y-86124762D01*
X161840476Y-86077143D01*
X163316667Y-85505714D02*
X163316667Y-86172381D01*
X163078571Y-85124762D02*
X162840476Y-85839048D01*
X163459524Y-85839048D01*
M02*
