G04 #@! TF.FileFunction,Legend,Bot*
%FSLAX46Y46*%
G04 Gerber Fmt 4.6, Leading zero omitted, Abs format (unit mm)*
G04 Created by KiCad (PCBNEW 4.0.7) date 11/11/17 16:51:54*
%MOMM*%
%LPD*%
G01*
G04 APERTURE LIST*
%ADD10C,0.100000*%
%ADD11C,0.250000*%
G04 APERTURE END LIST*
D10*
D11*
X90603571Y-76871429D02*
X90651190Y-77014286D01*
X90698810Y-77061905D01*
X90794048Y-77109524D01*
X90936905Y-77109524D01*
X91032143Y-77061905D01*
X91079762Y-77014286D01*
X91127381Y-76919048D01*
X91127381Y-76538095D01*
X90127381Y-76538095D01*
X90127381Y-76871429D01*
X90175000Y-76966667D01*
X90222619Y-77014286D01*
X90317857Y-77061905D01*
X90413095Y-77061905D01*
X90508333Y-77014286D01*
X90555952Y-76966667D01*
X90603571Y-76871429D01*
X90603571Y-76538095D01*
X91127381Y-77538095D02*
X90460714Y-77538095D01*
X90651190Y-77538095D02*
X90555952Y-77585714D01*
X90508333Y-77633333D01*
X90460714Y-77728571D01*
X90460714Y-77823810D01*
X91079762Y-78538096D02*
X91127381Y-78442858D01*
X91127381Y-78252381D01*
X91079762Y-78157143D01*
X90984524Y-78109524D01*
X90603571Y-78109524D01*
X90508333Y-78157143D01*
X90460714Y-78252381D01*
X90460714Y-78442858D01*
X90508333Y-78538096D01*
X90603571Y-78585715D01*
X90698810Y-78585715D01*
X90794048Y-78109524D01*
X91127381Y-79442858D02*
X90603571Y-79442858D01*
X90508333Y-79395239D01*
X90460714Y-79300001D01*
X90460714Y-79109524D01*
X90508333Y-79014286D01*
X91079762Y-79442858D02*
X91127381Y-79347620D01*
X91127381Y-79109524D01*
X91079762Y-79014286D01*
X90984524Y-78966667D01*
X90889286Y-78966667D01*
X90794048Y-79014286D01*
X90746429Y-79109524D01*
X90746429Y-79347620D01*
X90698810Y-79442858D01*
X91127381Y-79919048D02*
X90127381Y-79919048D01*
X90746429Y-80014286D02*
X91127381Y-80300001D01*
X90460714Y-80300001D02*
X90841667Y-79919048D01*
X91127381Y-80728572D02*
X90460714Y-80728572D01*
X90127381Y-80728572D02*
X90175000Y-80680953D01*
X90222619Y-80728572D01*
X90175000Y-80776191D01*
X90127381Y-80728572D01*
X90222619Y-80728572D01*
X90460714Y-81204762D02*
X91127381Y-81204762D01*
X90555952Y-81204762D02*
X90508333Y-81252381D01*
X90460714Y-81347619D01*
X90460714Y-81490477D01*
X90508333Y-81585715D01*
X90603571Y-81633334D01*
X91127381Y-81633334D01*
X90460714Y-82538096D02*
X91270238Y-82538096D01*
X91365476Y-82490477D01*
X91413095Y-82442858D01*
X91460714Y-82347619D01*
X91460714Y-82204762D01*
X91413095Y-82109524D01*
X91079762Y-82538096D02*
X91127381Y-82442858D01*
X91127381Y-82252381D01*
X91079762Y-82157143D01*
X91032143Y-82109524D01*
X90936905Y-82061905D01*
X90651190Y-82061905D01*
X90555952Y-82109524D01*
X90508333Y-82157143D01*
X90460714Y-82252381D01*
X90460714Y-82442858D01*
X90508333Y-82538096D01*
X91127381Y-84204763D02*
X90127381Y-84204763D01*
X91079762Y-84204763D02*
X91127381Y-84109525D01*
X91127381Y-83919048D01*
X91079762Y-83823810D01*
X91032143Y-83776191D01*
X90936905Y-83728572D01*
X90651190Y-83728572D01*
X90555952Y-83776191D01*
X90508333Y-83823810D01*
X90460714Y-83919048D01*
X90460714Y-84109525D01*
X90508333Y-84204763D01*
X91127381Y-84680953D02*
X90460714Y-84680953D01*
X90127381Y-84680953D02*
X90175000Y-84633334D01*
X90222619Y-84680953D01*
X90175000Y-84728572D01*
X90127381Y-84680953D01*
X90222619Y-84680953D01*
X91079762Y-85109524D02*
X91127381Y-85204762D01*
X91127381Y-85395238D01*
X91079762Y-85490477D01*
X90984524Y-85538096D01*
X90936905Y-85538096D01*
X90841667Y-85490477D01*
X90794048Y-85395238D01*
X90794048Y-85252381D01*
X90746429Y-85157143D01*
X90651190Y-85109524D01*
X90603571Y-85109524D01*
X90508333Y-85157143D01*
X90460714Y-85252381D01*
X90460714Y-85395238D01*
X90508333Y-85490477D01*
X91079762Y-86395239D02*
X91127381Y-86300001D01*
X91127381Y-86109524D01*
X91079762Y-86014286D01*
X91032143Y-85966667D01*
X90936905Y-85919048D01*
X90651190Y-85919048D01*
X90555952Y-85966667D01*
X90508333Y-86014286D01*
X90460714Y-86109524D01*
X90460714Y-86300001D01*
X90508333Y-86395239D01*
X91079762Y-88014287D02*
X91127381Y-87919049D01*
X91127381Y-87728572D01*
X91079762Y-87633334D01*
X91032143Y-87585715D01*
X90936905Y-87538096D01*
X90651190Y-87538096D01*
X90555952Y-87585715D01*
X90508333Y-87633334D01*
X90460714Y-87728572D01*
X90460714Y-87919049D01*
X90508333Y-88014287D01*
X91127381Y-88585715D02*
X91079762Y-88490477D01*
X91032143Y-88442858D01*
X90936905Y-88395239D01*
X90651190Y-88395239D01*
X90555952Y-88442858D01*
X90508333Y-88490477D01*
X90460714Y-88585715D01*
X90460714Y-88728573D01*
X90508333Y-88823811D01*
X90555952Y-88871430D01*
X90651190Y-88919049D01*
X90936905Y-88919049D01*
X91032143Y-88871430D01*
X91079762Y-88823811D01*
X91127381Y-88728573D01*
X91127381Y-88585715D01*
X90460714Y-89347620D02*
X91127381Y-89347620D01*
X90555952Y-89347620D02*
X90508333Y-89395239D01*
X90460714Y-89490477D01*
X90460714Y-89633335D01*
X90508333Y-89728573D01*
X90603571Y-89776192D01*
X91127381Y-89776192D01*
X90460714Y-90109525D02*
X90460714Y-90490477D01*
X90127381Y-90252382D02*
X90984524Y-90252382D01*
X91079762Y-90300001D01*
X91127381Y-90395239D01*
X91127381Y-90490477D01*
X91127381Y-90823811D02*
X90460714Y-90823811D01*
X90651190Y-90823811D02*
X90555952Y-90871430D01*
X90508333Y-90919049D01*
X90460714Y-91014287D01*
X90460714Y-91109526D01*
X91127381Y-91585716D02*
X91079762Y-91490478D01*
X91032143Y-91442859D01*
X90936905Y-91395240D01*
X90651190Y-91395240D01*
X90555952Y-91442859D01*
X90508333Y-91490478D01*
X90460714Y-91585716D01*
X90460714Y-91728574D01*
X90508333Y-91823812D01*
X90555952Y-91871431D01*
X90651190Y-91919050D01*
X90936905Y-91919050D01*
X91032143Y-91871431D01*
X91079762Y-91823812D01*
X91127381Y-91728574D01*
X91127381Y-91585716D01*
X91127381Y-92490478D02*
X91079762Y-92395240D01*
X90984524Y-92347621D01*
X90127381Y-92347621D01*
X90460714Y-94061908D02*
X91127381Y-94061908D01*
X90460714Y-93633336D02*
X90984524Y-93633336D01*
X91079762Y-93680955D01*
X91127381Y-93776193D01*
X91127381Y-93919051D01*
X91079762Y-94014289D01*
X91032143Y-94061908D01*
X90460714Y-94538098D02*
X91127381Y-94538098D01*
X90555952Y-94538098D02*
X90508333Y-94585717D01*
X90460714Y-94680955D01*
X90460714Y-94823813D01*
X90508333Y-94919051D01*
X90603571Y-94966670D01*
X91127381Y-94966670D01*
X91127381Y-95442860D02*
X90460714Y-95442860D01*
X90127381Y-95442860D02*
X90175000Y-95395241D01*
X90222619Y-95442860D01*
X90175000Y-95490479D01*
X90127381Y-95442860D01*
X90222619Y-95442860D01*
X90460714Y-95776193D02*
X90460714Y-96157145D01*
X90127381Y-95919050D02*
X90984524Y-95919050D01*
X91079762Y-95966669D01*
X91127381Y-96061907D01*
X91127381Y-96157145D01*
X90127381Y-97109527D02*
X91127381Y-97442860D01*
X90127381Y-97776194D01*
X91127381Y-98633337D02*
X91127381Y-98061908D01*
X91127381Y-98347622D02*
X90127381Y-98347622D01*
X90270238Y-98252384D01*
X90365476Y-98157146D01*
X90413095Y-98061908D01*
X91032143Y-99061908D02*
X91079762Y-99109527D01*
X91127381Y-99061908D01*
X91079762Y-99014289D01*
X91032143Y-99061908D01*
X91127381Y-99061908D01*
X90127381Y-99728574D02*
X90127381Y-99823813D01*
X90175000Y-99919051D01*
X90222619Y-99966670D01*
X90317857Y-100014289D01*
X90508333Y-100061908D01*
X90746429Y-100061908D01*
X90936905Y-100014289D01*
X91032143Y-99966670D01*
X91079762Y-99919051D01*
X91127381Y-99823813D01*
X91127381Y-99728574D01*
X91079762Y-99633336D01*
X91032143Y-99585717D01*
X90936905Y-99538098D01*
X90746429Y-99490479D01*
X90508333Y-99490479D01*
X90317857Y-99538098D01*
X90222619Y-99585717D01*
X90175000Y-99633336D01*
X90127381Y-99728574D01*
X92877381Y-77109524D02*
X92401190Y-76776190D01*
X92877381Y-76538095D02*
X91877381Y-76538095D01*
X91877381Y-76919048D01*
X91925000Y-77014286D01*
X91972619Y-77061905D01*
X92067857Y-77109524D01*
X92210714Y-77109524D01*
X92305952Y-77061905D01*
X92353571Y-77014286D01*
X92401190Y-76919048D01*
X92401190Y-76538095D01*
X92877381Y-77680952D02*
X92829762Y-77585714D01*
X92782143Y-77538095D01*
X92686905Y-77490476D01*
X92401190Y-77490476D01*
X92305952Y-77538095D01*
X92258333Y-77585714D01*
X92210714Y-77680952D01*
X92210714Y-77823810D01*
X92258333Y-77919048D01*
X92305952Y-77966667D01*
X92401190Y-78014286D01*
X92686905Y-78014286D01*
X92782143Y-77966667D01*
X92829762Y-77919048D01*
X92877381Y-77823810D01*
X92877381Y-77680952D01*
X92877381Y-78442857D02*
X91877381Y-78442857D01*
X92258333Y-78442857D02*
X92210714Y-78538095D01*
X92210714Y-78728572D01*
X92258333Y-78823810D01*
X92305952Y-78871429D01*
X92401190Y-78919048D01*
X92686905Y-78919048D01*
X92782143Y-78871429D01*
X92829762Y-78823810D01*
X92877381Y-78728572D01*
X92877381Y-78538095D01*
X92829762Y-78442857D01*
X92829762Y-79728572D02*
X92877381Y-79633334D01*
X92877381Y-79442857D01*
X92829762Y-79347619D01*
X92734524Y-79300000D01*
X92353571Y-79300000D01*
X92258333Y-79347619D01*
X92210714Y-79442857D01*
X92210714Y-79633334D01*
X92258333Y-79728572D01*
X92353571Y-79776191D01*
X92448810Y-79776191D01*
X92544048Y-79300000D01*
X92877381Y-80204762D02*
X92210714Y-80204762D01*
X92401190Y-80204762D02*
X92305952Y-80252381D01*
X92258333Y-80300000D01*
X92210714Y-80395238D01*
X92210714Y-80490477D01*
X92210714Y-80680953D02*
X92210714Y-81061905D01*
X91877381Y-80823810D02*
X92734524Y-80823810D01*
X92829762Y-80871429D01*
X92877381Y-80966667D01*
X92877381Y-81061905D01*
X92877381Y-82157144D02*
X91877381Y-82157144D01*
X92877381Y-82728573D01*
X91877381Y-82728573D01*
X92877381Y-83633335D02*
X92353571Y-83633335D01*
X92258333Y-83585716D01*
X92210714Y-83490478D01*
X92210714Y-83300001D01*
X92258333Y-83204763D01*
X92829762Y-83633335D02*
X92877381Y-83538097D01*
X92877381Y-83300001D01*
X92829762Y-83204763D01*
X92734524Y-83157144D01*
X92639286Y-83157144D01*
X92544048Y-83204763D01*
X92496429Y-83300001D01*
X92496429Y-83538097D01*
X92448810Y-83633335D01*
X91877381Y-83204763D02*
X91925000Y-83252382D01*
X91972619Y-83204763D01*
X91925000Y-83157144D01*
X91877381Y-83204763D01*
X91972619Y-83204763D01*
X91877381Y-83585716D02*
X91925000Y-83633335D01*
X91972619Y-83585716D01*
X91925000Y-83538097D01*
X91877381Y-83585716D01*
X91972619Y-83585716D01*
X92210714Y-84538097D02*
X93020238Y-84538097D01*
X93115476Y-84490478D01*
X93163095Y-84442859D01*
X93210714Y-84347620D01*
X93210714Y-84204763D01*
X93163095Y-84109525D01*
X92829762Y-84538097D02*
X92877381Y-84442859D01*
X92877381Y-84252382D01*
X92829762Y-84157144D01*
X92782143Y-84109525D01*
X92686905Y-84061906D01*
X92401190Y-84061906D01*
X92305952Y-84109525D01*
X92258333Y-84157144D01*
X92210714Y-84252382D01*
X92210714Y-84442859D01*
X92258333Y-84538097D01*
X92829762Y-85395240D02*
X92877381Y-85300002D01*
X92877381Y-85109525D01*
X92829762Y-85014287D01*
X92734524Y-84966668D01*
X92353571Y-84966668D01*
X92258333Y-85014287D01*
X92210714Y-85109525D01*
X92210714Y-85300002D01*
X92258333Y-85395240D01*
X92353571Y-85442859D01*
X92448810Y-85442859D01*
X92544048Y-84966668D01*
X92877381Y-85871430D02*
X92210714Y-85871430D01*
X92401190Y-85871430D02*
X92305952Y-85919049D01*
X92258333Y-85966668D01*
X92210714Y-86061906D01*
X92210714Y-86157145D01*
M02*
