M48
;DRILL file {KiCad 4.0.7} date 11/13/17 09:49:38
;FORMAT={2:4/ absolute / inch / suppress trailing zeros}
FMAT,2
INCH,LZ
T1C0.016
T2C0.024
T3C0.030
T4C0.043
T5C0.106
%
G90
G05
M72
T1
X039705Y-029547
X040809Y-037117
X041122Y-035295
X04128Y-039803
X041732Y-036791
X041811Y-037785
X041949Y-035236
X042185Y-032323
X043767Y-037908
X043898Y-03939
X044005Y-037534
X044449Y-031535
X04447Y-031006
X045178Y-032429
X045807Y-038602
X046051Y-032028
X046063Y-03311
X046122Y-037461
X046555Y-031969
X046831Y-03126
X04698Y-031965
X047008Y-033346
X047874Y-029921
X048287Y-031575
X04878Y-030728
X051024Y-034311
X052323Y-040138
X053969Y-034791
X054095Y-037245
X054592Y-037204
X054859Y-036844
X054921Y-033681
X055203Y-037603
X055297Y-038009
X055354Y-039183
X055567Y-037688
X055632Y-033487
X055743Y-03956
X055998Y-040752
X056279Y-037213
X056465Y-040292
X056506Y-038159
X056506Y-038907
X05666Y-037217
X056969Y-037586
X05717Y-033592
X057299Y-034926
X057421Y-032992
X057445Y-033937
X057524Y-040163
X057825Y-037402
X058312Y-038043
X058408Y-039025
X058415Y-03311
X058445Y-038425
X058878Y-035787
X058937Y-036358
X058957Y-034606
X059114Y-038374
X059567Y-040079
X059724Y-034587
X059764Y-03875
X059823Y-036417
X060405Y-032314
X060433Y-034587
X06049Y-032876
X060709Y-036378
X060726Y-034922
X060728Y-035394
X060827Y-040374
X06124Y-032244
X061299Y-033337
X061299Y-037343
X061424Y-03699
X061949Y-034488
X062067Y-032244
X062313Y-035541
X06248Y-032972
X062598Y-034488
X062657Y-040492
X062807Y-038571
X062888Y-03813
X063012Y-035531
X063068Y-037413
X063071Y-032244
X063071Y-033228
X063071Y-034035
X063641Y-035075
X064016Y-038012
X064449Y-032244
X064449Y-033228
X064449Y-034213
X064449Y-035118
X064724Y-036476
X064744Y-038583
X065433Y-032244
X065433Y-033228
X065433Y-034213
X066417Y-032244
X066417Y-033228
X066417Y-034213
X066417Y-035118
X066417Y-036102
X066417Y-037087
X066417Y-038071
X066417Y-039055
T2
X046795Y-028504
X047295Y-029004
X047795Y-028504
T3
X033819Y-032323
X033819Y-03311
X033819Y-036654
X033819Y-037441
X042677Y-029291
X043465Y-029291
X044252Y-029291
X045039Y-029291
X047077Y-040374
X047864Y-040374
X048652Y-040374
X049439Y-040374
X050226Y-040374
X051014Y-040374
T4
X039213Y-028504
X040213Y-028504
X041213Y-028504
T5
X033937Y-029331
X033937Y-039961
X065433Y-039961
T0
M30
